<svg xmlns="http://www.w3.org/2000/svg" viewBox="0 0 525.51 139.48">
  <path d="M19.2 37.96c-2.58 0-6.66-.11-9.07-.11-1.45 0-3.92.05-5.75.11.27-4.46.43-10.31.43-15.14v-6.44c0-4.83-.16-10.69-.43-15.14 1.5.05 4.03.11 5.75.11 2.58 0 6.39-.11 9.07-.11 12.73 0 19.49 4.62 19.49 17.61 0 14.17-10.15 19.12-19.49 19.12ZM17.96 3.54c-2.63 0-5.32.21-7.46.54-.21 3.22-.27 8.64-.27 12.24v6.39c0 3.44.05 9.24.27 12.4 1.5.32 3.97.48 6.34.48 7.36 0 15.52-2.85 15.52-16.75 0-12.24-6.17-15.3-14.39-15.3ZM65.42 22.82c0 .48-.05 1.29-.16 2.04l-.32.32c-4.03-.05-8.64-.11-11.54-.11h-6.07c-.05.48-.05.91-.05 1.34 0 5.37 2.95 9.77 9.02 9.77 3.22 0 6.07-1.34 7.84-3.38l.54.27c-.27.97-.48 2.31-.54 3.01-2.2 1.56-5.64 2.63-9.24 2.63-8.11 0-13.21-4.99-13.21-13.26 0-7.84 4.73-13.69 12.83-13.69 7.57 0 10.9 5.1 10.9 11.06Zm-11.11-9.07c-4.99 0-6.71 5.42-6.93 9.18h5.53c2.25 0 5.64-.05 7.25-.11 0-3.81-.64-9.07-5.85-9.07ZM75.19 38.5c-2.68 0-5.64-.81-6.93-1.5.11-1.23.48-3.22 1.02-4.89h.86c.7 2.9 3.11 4.29 5.8 4.29s5.16-1.4 5.16-4.62c0-3.01-1.83-3.97-5.69-5.26-3.22-1.07-6.07-2.52-6.07-7.09 0-5.64 4.99-7.57 9.02-7.57 2.58 0 5.26.54 6.66 1.23-.43 1.07-.97 3.11-1.24 4.67h-.86c-.54-2.36-1.72-3.97-4.72-3.97-2.36 0-4.51 1.18-4.51 4.03 0 2.63 1.83 3.71 4.94 4.67 4.46 1.4 7.03 3.22 7.03 7.2 0 5.96-4.94 8.81-10.47 8.81ZM93.03 6.28c-1.72 0-3.11-1.45-3.11-3.17S91.32 0 93.03 0s3.11 1.45 3.11 3.11-1.4 3.17-3.11 3.17Zm0 31.57c-.97 0-2.15.05-2.9.11.27-2.95.38-8.97.38-12.19v-2.26c0-3.22-.11-7.95-.38-11.01.75.05 1.93.11 2.9.11s2.15-.05 2.9-.11c-.27 3.17-.38 7.79-.38 11.01v2.26c0 3.22.11 9.13.38 12.19-.75-.05-1.93-.11-2.9-.11ZM105.23 37.26c-2.2-.48-3.76-1.83-3.76-3.92 0-2.85 2.42-4.19 4.89-4.78v-.11c-3.01-.91-5.53-3.38-5.53-7.41 0-6.5 4.46-9.18 10.69-9.18 1.45 0 3.44.32 5.1.7.64.16 1.99.32 2.85.32l5.91-.21v2.09h-5.58l-.05.11c1.61 1.13 2.2 2.95 2.2 5.32 0 5.75-4.19 8.97-10.31 8.97-.97 0-1.83-.05-2.52-.11-1.72-.21-3.22.8-3.28 2.52-.05 2.04 2.09 2.36 7.89 2.42 6.6.11 11.06 1.4 11.06 7.36s-4.89 11.22-13.53 11.22c-5.58 0-11.81-2.09-11.87-8.75 0-1.88.64-3.49 1.45-4.46 1.34-.7 2.79-1.34 4.4-1.93v-.16Zm6.07.64c-1.29-.05-3.17-.11-4.46-.21-1.77.75-3.33 2.47-3.33 5.91 0 5.37 3.92 7.09 7.68 7.09 4.08 0 8.7-2.04 8.7-7.25 0-4.19-2.74-5.37-8.59-5.53Zm.05-24.16c-3.92 0-5.32 2.9-5.32 6.98s1.77 6.6 5.37 6.6 5.37-3.06 5.37-6.98c0-4.19-1.56-6.6-5.42-6.6ZM148.66 37.86c-1.02 0-2.2.05-2.85.11.21-3.33.32-9.5.32-13.53v-1.61c0-3.6-.7-7.79-5.37-7.79-4.35 0-6.87 3.17-6.87 8.48v3.6c0 3.22.11 7.79.38 10.85-.75-.05-1.88-.11-2.9-.11-.97 0-2.09.05-2.85.11.27-3.01.38-8.97.38-12.19v-2.26c0-3.22-.11-7.46-.38-11.01 1.02.05 1.88.11 2.85.11.91 0 1.88-.05 2.63-.11a51.36 51.36 0 0 0-.16 4.3h.21c1.88-2.95 4.89-4.83 8.48-4.83 6.87 0 8.75 4.13 8.75 9.29 0 1.77-.16 4.3-.16 6.82v.64c0 2.36.11 7.09.27 9.24-.64-.05-1.83-.11-2.74-.11ZM160.25 6.28c-1.72 0-3.11-1.45-3.11-3.17S158.54 0 160.25 0s3.11 1.45 3.11 3.11-1.4 3.17-3.11 3.17Zm0 31.57c-.97 0-2.15.05-2.9.11.27-2.95.38-8.97.38-12.19v-2.26c0-3.22-.11-7.95-.38-11.01.75.05 1.93.11 2.9.11s2.15-.05 2.9-.11c-.27 3.17-.38 7.79-.38 11.01v2.26c0 3.22.11 9.13.38 12.19-.75-.05-1.93-.11-2.9-.11ZM188.22 37.86c-1.02 0-2.2.05-2.85.11.21-3.33.32-9.5.32-13.53v-1.61c0-3.6-.7-7.79-5.37-7.79-4.35 0-6.87 3.17-6.87 8.48v3.6c0 3.22.11 7.79.38 10.85-.75-.05-1.88-.11-2.9-.11-.97 0-2.09.05-2.85.11.27-3.01.38-8.97.38-12.19v-2.26c0-3.22-.11-7.46-.38-11.01 1.02.05 1.88.11 2.85.11.91 0 1.88-.05 2.63-.11a51.36 51.36 0 0 0-.16 4.3h.21c1.88-2.95 4.89-4.83 8.48-4.83 6.87 0 8.75 4.13 8.75 9.29 0 1.77-.16 4.3-.16 6.82v.64c0 2.36.11 7.09.27 9.24-.64-.05-1.83-.11-2.74-.11ZM199.17 37.26c-2.2-.48-3.76-1.83-3.76-3.92 0-2.85 2.42-4.19 4.89-4.78v-.11c-3.01-.91-5.53-3.38-5.53-7.41 0-6.5 4.46-9.18 10.69-9.18 1.45 0 3.44.32 5.1.7.64.16 1.99.32 2.85.32l5.91-.21v2.09h-5.58l-.05.11c1.61 1.13 2.2 2.95 2.2 5.32 0 5.75-4.19 8.97-10.31 8.97-.97 0-1.83-.05-2.52-.11-1.72-.21-3.22.8-3.28 2.52-.05 2.04 2.09 2.36 7.89 2.42 6.6.11 11.06 1.4 11.06 7.36s-4.89 11.22-13.53 11.22c-5.58 0-11.81-2.09-11.87-8.75 0-1.88.64-3.49 1.45-4.46 1.34-.7 2.79-1.34 4.4-1.93v-.16Zm6.07.64c-1.29-.05-3.17-.11-4.46-.21-1.77.75-3.33 2.47-3.33 5.91 0 5.37 3.92 7.09 7.68 7.09 4.08 0 8.7-2.04 8.7-7.25 0-4.19-2.74-5.37-8.59-5.53Zm.05-24.16c-3.92 0-5.32 2.9-5.32 6.98s1.77 6.6 5.37 6.6 5.37-3.06 5.37-6.98c0-4.19-1.56-6.6-5.42-6.6ZM251.25 38.77c-11.65 0-19.38-7.46-19.38-19.17S239.59.43 251.25.43s19.44 7.36 19.44 19.17-7.73 19.17-19.44 19.17Zm0-36.14c-7.84 0-13.16 5.64-13.16 16.97s5.32 16.86 13.16 16.86 13.21-5.75 13.21-16.86-5.32-16.97-13.21-16.97ZM293.93 37.86c-.91 0-1.88.05-2.63.11.11-1.4.16-2.85.16-4.3h-.21c-1.88 2.9-4.99 4.78-8.65 4.78-6.87 0-8.64-4.03-8.64-9.24 0-1.77.16-4.3.16-6.82v-.64c0-2.36-.11-7.09-.27-9.24.64.05 1.83.11 2.85.11.97 0 2.09-.05 2.79-.11-.16 3.33-.32 9.5-.32 13.53v1.56c0 3.65.64 7.79 5.26 7.79s6.98-3.38 6.98-8.43v-3.6c0-3.22-.11-7.79-.38-10.85.7.05 1.93.11 2.9.11s2.09-.05 2.9-.11c-.27 3.01-.38 8.97-.38 12.19v2.25c0 3.22.11 7.46.38 11.01-1.02-.05-1.93-.11-2.9-.11ZM316.15 16.97l-.38.05c-.75-.59-1.88-.86-2.95-.86-3.81 0-5.64 3.54-5.64 7.95v2.09c0 3.22.11 8.7.38 11.76-.75-.05-1.93-.11-2.9-.11s-2.15.05-2.9.11c.27-2.95.43-8.97.43-12.19v-2.26c0-3.22-.11-7.79-.43-11.01.75.05 1.93.11 2.9.11s1.99-.05 2.58-.11c-.16 1.29-.32 3.76-.32 5.48h.21c1.88-3.87 4.4-5.85 7.57-5.85 1.07 0 2.04.16 2.68.38l.11.32c-.43.86-1.07 2.9-1.34 4.13ZM34.39 74.99v4.3c0 5.48.11 10.63.21 13.64h-2.63c-4.4-5.64-14.61-17.5-23.14-26.79-.38-.38-.7-.86-1.13-1.4l-.16.05v9.13c0 6.44.32 14.61.97 18.9-.7-.05-1.61-.11-2.2-.11s-1.5.05-2.2.11c.43-4.3.7-12.46.7-18.9v-2.68c0-6.77-.16-12.94-.21-15.41h2.9c6.28 7.89 16.86 19.65 23.09 26.42.32.32.59.7 1.02 1.18l.11-.05V75c0-6.44-.32-14.61-.97-18.9.86.05 1.61.11 2.25.11.59 0 1.5-.05 2.09-.11-.43 4.29-.7 12.46-.7 18.9ZM61.88 77.67c0 .48-.05 1.29-.16 2.04l-.32.32c-4.03-.05-8.64-.11-11.54-.11h-6.07c-.05.48-.05.91-.05 1.34 0 5.37 2.95 9.77 9.02 9.77 3.22 0 6.07-1.34 7.84-3.38l.54.27c-.27.97-.48 2.31-.54 3.01-2.2 1.56-5.64 2.63-9.24 2.63-8.11 0-13.21-4.99-13.21-13.26 0-7.84 4.73-13.69 12.83-13.69 7.57 0 10.9 5.1 10.9 11.06ZM50.77 68.6c-4.99 0-6.71 5.42-6.93 9.18h5.53c2.25 0 5.64-.05 7.25-.11 0-3.81-.64-9.07-5.85-9.07ZM92.43 92.81a22.6 22.6 0 0 0-2.04-.11c-.7 0-1.5.05-2.09.11-.91-3.44-3.71-12.19-6.12-19.17h-.21c-2.04 5.37-5.26 14.44-6.82 19.17-.48-.05-1.56-.11-2.09-.11-.7 0-1.5.05-2.04.11-1.07-3.92-5.69-17.18-8.81-25.34l.21-.11c.81.05 1.93.11 2.63.11.91 0 2.2 0 3.11-.11 1.56 5.75 4.3 14.18 6.34 19.81h.16c1.77-4.78 5.26-15.04 6.5-19.81.64.05 1.45.11 1.99.11.64 0 1.66-.05 2.15-.11 1.67 5.96 4.4 14.28 6.44 19.81h.16c1.83-4.73 5.48-14.82 6.77-19.81.59.05 1.24.11 1.72.11.59 0 1.34-.05 1.83-.11l.16.11c-3.33 7.68-8.21 20.3-9.93 25.34ZM127.65 92.81c-2.58 0-6.66-.11-9.07-.11-1.45 0-3.92.05-5.75.11.27-4.46.43-10.31.43-15.14v-6.44c0-4.83-.16-10.69-.43-15.14 1.5.05 4.03.11 5.75.11 2.58 0 6.39-.11 9.07-.11 12.73 0 19.49 4.62 19.49 17.61 0 14.17-10.15 19.12-19.49 19.12Zm-1.23-34.42c-2.63 0-5.32.21-7.46.54-.21 3.22-.27 8.64-.27 12.24v6.39c0 3.44.05 9.24.27 12.4 1.5.32 3.97.48 6.34.48 7.36 0 15.52-2.85 15.52-16.75 0-12.24-6.17-15.3-14.39-15.3ZM154.33 61.13c-1.72 0-3.11-1.45-3.11-3.17s1.4-3.11 3.11-3.11 3.11 1.45 3.11 3.11-1.4 3.17-3.11 3.17Zm0 31.57c-.97 0-2.15.05-2.9.11.27-2.95.38-8.97.38-12.19v-2.26c0-3.22-.11-7.95-.38-11.01.75.05 1.93.11 2.9.11s2.15-.05 2.9-.11c-.27 3.17-.38 7.79-.38 11.01v2.26c0 3.22.11 9.13.38 12.19-.75-.05-1.93-.11-2.9-.11ZM166.53 92.11c-2.2-.48-3.76-1.83-3.76-3.92 0-2.85 2.42-4.19 4.89-4.78v-.11c-3.01-.91-5.53-3.38-5.53-7.41 0-6.5 4.46-9.18 10.69-9.18 1.45 0 3.44.32 5.1.7.64.16 1.99.32 2.85.32l5.91-.21v2.09h-5.58l-.05.11c1.61 1.13 2.2 2.95 2.2 5.32 0 5.75-4.19 8.97-10.31 8.97-.97 0-1.83-.05-2.52-.11-1.72-.21-3.22.8-3.28 2.52-.05 2.04 2.09 2.36 7.89 2.42 6.6.11 11.06 1.4 11.06 7.36s-4.89 11.22-13.53 11.22c-5.58 0-11.81-2.09-11.87-8.75 0-1.88.64-3.49 1.45-4.46 1.34-.7 2.79-1.34 4.4-1.93v-.16Zm6.07.64c-1.29-.05-3.17-.11-4.46-.21-1.77.75-3.33 2.47-3.33 5.91 0 5.37 3.92 7.09 7.68 7.09 4.08 0 8.7-2.04 8.7-7.25 0-4.19-2.74-5.37-8.59-5.53Zm.05-24.16c-3.92 0-5.32 2.9-5.32 6.98s1.77 6.6 5.37 6.6 5.37-3.06 5.37-6.98c0-4.19-1.56-6.6-5.42-6.6ZM192.75 61.13c-1.72 0-3.11-1.45-3.11-3.17s1.4-3.11 3.11-3.11 3.11 1.45 3.11 3.11-1.4 3.17-3.11 3.17Zm0 31.57c-.97 0-2.15.05-2.9.11.27-2.95.38-8.97.38-12.19v-2.26c0-3.22-.11-7.95-.38-11.01.75.05 1.93.11 2.9.11s2.15-.05 2.9-.11c-.27 3.17-.38 7.79-.38 11.01v2.26c0 3.22.11 9.13.38 12.19-.75-.05-1.93-.11-2.9-.11ZM208.46 93.13c-4.13 0-5.64-2.47-5.64-6.66 0-3.92.32-10.74.32-16.86h-4.19v-2.09h4.24c0-1.18 0-3.38-.11-5.53 1.34-.43 3.87-1.34 5.15-2.2l.38.21c-.21 2.15-.43 5.69-.43 7.52h6.5v2.09h-6.55c-.16 4.56-.32 10.42-.32 14.77 0 3.81.59 6.07 3.71 6.07 1.13 0 2.36-.27 3.06-.59l.21.11.11 1.4c-1.77 1.13-4.3 1.77-6.44 1.77ZM236.54 92.97c-2.85 0-4.24-1.5-4.51-3.76-1.61 1.99-4.3 3.92-7.95 3.92s-7.2-2.15-7.2-7.03c0-4.4 2.74-6.55 7.52-7.46 6.98-1.34 7.68-1.83 7.68-3.17v-.64c0-3.49-1.5-5.91-5.75-5.91-2.95 0-4.99 1.88-5.53 5.37h-1.02c-.16-1.83-.54-3.6-.81-4.67 1.93-1.83 5.69-3.01 9.07-3.01 7.95 0 9.18 4.19 9.18 9.61 0 2.52-.27 8-.27 10.69s.7 4.19 2.85 4.19c.43 0 .7 0 .91-.05v1.24c-1.07.38-2.74.7-4.19.7Zm-14.5-7.52c0 3.71 1.99 4.94 4.3 4.94s4.89-1.56 5.58-4.03c.16-1.83.21-4.99.21-7.52-7.2 1.18-10.09 2.47-10.09 6.6ZM247.22 92.71c-1.02 0-2.2.05-2.95.11.21-4.3.38-11.38.38-16.22v-6.39c0-4.83-.16-13.75-.38-17.67.75.05 1.93.11 2.95.11.91 0 2.09-.05 2.85-.11-.21 3.92-.38 12.83-.38 17.67v6.39c0 4.83.16 11.87.38 16.22-.7-.05-1.93-.11-2.85-.11ZM295.81 92.81c-1.18-.05-2.68-.11-3.65-.11-.81 0-1.88.05-3.01.11-.97-3.49-2.9-9.02-4.67-13.85-1.88-.05-4.72-.05-6.98-.05s-4.35 0-6.44.05c-2.09 5.05-4.13 10.58-5.05 13.85-.59-.05-1.4-.11-2.04-.11-.75 0-1.61.05-2.2.11l-.16-.11c5.96-12.56 11.65-24.86 16.91-37.05h2.68c4.4 11.92 12.03 31.14 14.77 37.05l-.16.11Zm-17.56-30.39c-1.61 3.44-4.62 10.2-6.17 14.01 1.5.05 3.76.05 5.53.05 1.93 0 4.4 0 5.96-.05-1.07-2.95-3.65-9.93-5.32-14.01ZM312.78 71.82l-.38.05c-.75-.59-1.88-.86-2.95-.86-3.81 0-5.64 3.54-5.64 7.95v2.09c0 3.22.11 8.7.38 11.76-.75-.05-1.93-.11-2.9-.11s-2.15.05-2.9.11c.27-2.95.43-8.97.43-12.19v-2.26c0-3.22-.11-7.79-.43-11.01.75.05 1.93.11 2.9.11s1.99-.05 2.58-.11c-.16 1.29-.32 3.76-.32 5.48h.21c1.88-3.87 4.4-5.85 7.57-5.85 1.07 0 2.04.16 2.68.38l.11.32c-.43.86-1.07 2.9-1.34 4.13ZM335.19 90.83c-1.77 1.56-4.99 2.63-8.65 2.63-6.77 0-13.21-3.81-13.21-13.42s6.87-13.32 13.85-13.32c3.76 0 7.2 1.07 8.7 2.15-.54 1.18-1.13 3.28-1.4 4.83l-.91.05c-.59-2.9-2.63-4.89-6.07-4.89-6.07 0-8.54 5.32-8.54 11.12 0 6.39 2.9 10.85 8.91 10.85 3.06 0 5.64-1.18 7.2-3.44l.64.32c-.27.75-.54 2.31-.54 3.12ZM343.66 71.71h.21c1.93-3.01 4.89-4.89 8.54-4.89 6.87 0 8.75 4.19 8.75 9.29 0 1.77-.16 4.3-.16 6.82v.64c0 2.36.11 7.09.27 9.24-.64-.05-1.83-.11-2.79-.11s-2.15.05-2.9.11c.21-3.33.43-9.5.43-13.53v-1.61c0-3.76-.86-7.79-5.42-7.79-4.08 0-6.82 3.06-6.82 8.64v3.44c0 3.22.11 7.79.38 10.85-.7-.05-1.93-.11-2.9-.11s-2.15.05-2.9.11c.21-4.3.38-11.38.38-16.22v-5.75c0-4.83-.16-14.07-.38-18.31.75.05 1.93.11 2.9.11s2.2-.05 2.95-.11c-.38 4.24-.54 13.42-.54 18.31v.86ZM369.05 61.13c-1.72 0-3.11-1.45-3.11-3.17s1.4-3.11 3.11-3.11 3.11 1.45 3.11 3.11-1.4 3.17-3.11 3.17Zm0 31.57c-.97 0-2.15.05-2.9.11.27-2.95.38-8.97.38-12.19v-2.26c0-3.22-.11-7.95-.38-11.01.75.05 1.93.11 2.9.11s2.15-.05 2.9-.11c-.27 3.17-.38 7.79-.38 11.01v2.26c0 3.22.11 9.13.38 12.19-.75-.05-1.93-.11-2.9-.11ZM384.78 93.13c-4.13 0-5.64-2.47-5.64-6.66 0-3.92.32-10.74.32-16.86h-4.19v-2.09h4.24c0-1.18 0-3.38-.11-5.53 1.34-.43 3.87-1.34 5.15-2.2l.38.21c-.21 2.15-.43 5.69-.43 7.52h6.5v2.09h-6.55c-.16 4.56-.32 10.42-.32 14.77 0 3.81.59 6.07 3.71 6.07 1.13 0 2.36-.27 3.06-.59l.21.11.11 1.4c-1.77 1.13-4.3 1.77-6.44 1.77ZM414.97 77.67c0 .48-.05 1.29-.16 2.04l-.32.32c-4.03-.05-8.64-.11-11.54-.11h-6.07c-.05.48-.05.91-.05 1.34 0 5.37 2.95 9.77 9.02 9.77 3.22 0 6.07-1.34 7.84-3.38l.54.27c-.27.97-.48 2.31-.54 3.01-2.2 1.56-5.64 2.63-9.24 2.63-8.11 0-13.21-4.99-13.21-13.26 0-7.84 4.73-13.69 12.83-13.69 7.57 0 10.9 5.1 10.9 11.06Zm-11.11-9.07c-4.99 0-6.71 5.42-6.93 9.18h5.53c2.25 0 5.64-.05 7.25-.11 0-3.81-.64-9.07-5.85-9.07ZM439.45 90.83c-1.77 1.56-4.99 2.63-8.65 2.63-6.77 0-13.21-3.81-13.21-13.42s6.87-13.32 13.85-13.32c3.76 0 7.2 1.07 8.7 2.15-.54 1.18-1.13 3.28-1.4 4.83l-.91.05c-.59-2.9-2.63-4.89-6.07-4.89-6.07 0-8.54 5.32-8.54 11.12 0 6.39 2.9 10.85 8.91 10.85 3.06 0 5.64-1.18 7.2-3.44l.64.32c-.27.75-.54 2.31-.54 3.12ZM451.64 93.13c-4.13 0-5.64-2.47-5.64-6.66 0-3.92.32-10.74.32-16.86h-4.19v-2.09h4.24c0-1.18 0-3.38-.11-5.53 1.34-.43 3.87-1.34 5.15-2.2l.38.21c-.21 2.15-.43 5.69-.43 7.52h6.5v2.09h-6.55c-.16 4.56-.32 10.42-.32 14.77 0 3.81.59 6.07 3.71 6.07 1.13 0 2.36-.27 3.06-.59l.21.11.11 1.4c-1.77 1.13-4.3 1.77-6.44 1.77ZM480.04 92.71c-.91 0-1.88.05-2.63.11.11-1.4.16-2.85.16-4.3h-.21c-1.88 2.9-4.99 4.78-8.65 4.78-6.87 0-8.64-4.03-8.64-9.24 0-1.77.16-4.3.16-6.82v-.64c0-2.36-.11-7.09-.27-9.24.64.05 1.83.11 2.85.11.97 0 2.09-.05 2.79-.11-.16 3.33-.32 9.5-.32 13.53v1.56c0 3.65.64 7.79 5.26 7.79s6.98-3.38 6.98-8.43v-3.6c0-3.22-.11-7.79-.38-10.85.7.05 1.93.11 2.9.11s2.09-.05 2.9-.11c-.27 3.01-.38 8.97-.38 12.19v2.25c0 3.22.11 7.46.38 11.01-1.02-.05-1.93-.11-2.9-.11ZM501.19 71.82l-.38.05c-.75-.59-1.88-.86-2.95-.86-3.81 0-5.64 3.54-5.64 7.95v2.09c0 3.22.11 8.7.38 11.76-.75-.05-1.93-.11-2.9-.11s-2.15.05-2.9.11c.27-2.95.43-8.97.43-12.19v-2.26c0-3.22-.11-7.79-.43-11.01.75.05 1.93.11 2.9.11s1.99-.05 2.58-.11c-.16 1.29-.32 3.76-.32 5.48h.21c1.88-3.87 4.4-5.85 7.57-5.85 1.07 0 2.04.16 2.68.38l.11.32c-.43.86-1.07 2.9-1.34 4.13ZM525.51 77.67c0 .48-.05 1.29-.16 2.04l-.32.32c-4.03-.05-8.64-.11-11.54-.11h-6.07c-.05.48-.05.91-.05 1.34 0 5.37 2.95 9.77 9.02 9.77 3.22 0 6.07-1.34 7.84-3.38l.54.27c-.27.97-.48 2.31-.54 3.01-2.2 1.56-5.64 2.63-9.24 2.63-8.11 0-13.21-4.99-13.21-13.26 0-7.84 4.73-13.69 12.83-13.69 7.57 0 10.9 5.1 10.9 11.06ZM514.4 68.6c-4.99 0-6.71 5.42-6.93 9.18H513c2.25 0 5.64-.05 7.25-.11 0-3.81-.64-9.07-5.85-9.07Z"/>
  <g>
    <path d="M4 139.12v-19.48H0v-2.2h10.41v2.2h-4v19.48H4ZM14.87 129.37v9.76h-2.42v-21.68h2.42v9.76h5.33v-9.76h2.42v21.68H20.2v-9.76h-5.33ZM32.86 127.04v2.17h-5.3v7.71h6.5v2.2h-8.92v-21.68h8.92v2.2h-6.5v7.4h5.3ZM43.86 139.12h-2.17v-21.68h3.07l5.02 15.67v-15.67h2.14v21.68h-2.51l-5.54-17.53v17.53ZM62.16 127.04v2.17h-5.3v7.71h6.5v2.2h-8.92v-21.68h8.92v2.2h-6.5v7.4h5.3ZM71.71 139.12H68.4l-2.97-21.68h2.35l2.54 18.46 2.42-18.43h2.39l2.38 18.46 2.45-18.49h2.11l-2.94 21.68h-3.19l-2.08-14.71-2.14 14.71ZM99 122.67v1.95h-2.29v-2.08c0-1.95-.77-3.13-2.54-3.13s-2.54 1.18-2.54 3.13V134c0 1.95.8 3.13 2.54 3.13s2.54-1.18 2.54-3.13v-2.82H99v2.7c0 3.28-1.55 5.45-4.89 5.45s-4.86-2.17-4.86-5.45v-11.21c0-3.28 1.55-5.45 4.86-5.45s4.89 2.17 4.89 5.45ZM101.21 122.67c0-3.31 1.64-5.45 4.96-5.45s4.99 2.14 4.99 5.45v11.21c0 3.28-1.64 5.45-4.99 5.45s-4.96-2.17-4.96-5.45v-11.21Zm2.39 11.34c0 1.98.84 3.13 2.57 3.13s2.57-1.15 2.57-3.13v-11.46c0-1.95-.81-3.13-2.57-3.13s-2.57 1.18-2.57 3.13v11.46ZM115.71 139.12h-2.17v-21.68h3.07l5.02 15.67v-15.67h2.14v21.68h-2.51l-5.54-17.53v17.53ZM129.79 139.12v-19.48h-4v-2.2h10.41v2.2h-4v19.48h-2.42ZM145.96 127.04v2.17h-5.3v7.71h6.5v2.2h-8.92v-21.68h8.92v2.2h-6.5v7.4h5.3ZM155.14 129.77l-3.62 9.35h-2.29l4.37-11.18-4.09-10.5h2.51l3.35 8.67 3.38-8.67h2.26l-4.06 10.5 4.34 11.18h-2.54l-3.59-9.35ZM166.89 139.12v-19.48h-4v-2.2h10.41v2.2h-4v19.48h-2.42ZM189.97 122.67v1.95h-2.29v-2.08c0-1.95-.77-3.13-2.54-3.13s-2.54 1.18-2.54 3.13V134c0 1.95.8 3.13 2.54 3.13s2.54-1.18 2.54-3.13v-2.82h2.29v2.7c0 3.28-1.55 5.45-4.89 5.45s-4.86-2.17-4.86-5.45v-11.21c0-3.28 1.55-5.45 4.86-5.45s4.89 2.17 4.89 5.45ZM192.18 122.67c0-3.31 1.64-5.45 4.96-5.45s4.99 2.14 4.99 5.45v11.21c0 3.28-1.64 5.45-4.99 5.45s-4.96-2.17-4.96-5.45v-11.21Zm2.39 11.34c0 1.98.84 3.13 2.57 3.13s2.57-1.15 2.57-3.13v-11.46c0-1.95-.81-3.13-2.57-3.13s-2.57 1.18-2.57 3.13v11.46ZM206.68 139.12h-2.17v-21.68h3.07l5.02 15.67v-15.67h2.14v21.68h-2.51l-5.54-17.53v17.53ZM224.67 127.54v2.2h-4.99v9.39h-2.42v-21.68h8.61v2.2h-6.2v7.9h4.99ZM235.76 127.04v2.17h-5.3v7.71h6.5v2.2h-8.92v-21.68h8.92v2.2h-6.5v7.4h5.3ZM244.11 117.44c3.41 0 4.83 1.73 4.83 4.96v1.77c0 2.38-.84 3.87-2.7 4.46 1.98.59 2.73 2.2 2.73 4.52v3.38c0 .96.03 1.86.43 2.6h-2.45c-.28-.62-.4-1.18-.4-2.63v-3.41c0-2.45-1.15-3.22-3.16-3.22h-1.7v9.26h-2.42v-21.68h4.83Zm-.62 10.22c1.92 0 3.07-.62 3.07-2.97v-2.08c0-1.95-.71-2.97-2.51-2.97h-2.35v8.02h1.8ZM259.36 127.04v2.17h-5.3v7.71h6.5v2.2h-8.92v-21.68h8.92v2.2h-6.5v7.4h5.3ZM265.03 139.12h-2.17v-21.68h3.07l5.02 15.67v-15.67h2.14v21.68h-2.51l-5.54-17.53v17.53ZM285.24 122.67v1.95h-2.29v-2.08c0-1.95-.77-3.13-2.54-3.13s-2.54 1.18-2.54 3.13V134c0 1.95.8 3.13 2.54 3.13s2.54-1.18 2.54-3.13v-2.82h2.29v2.7c0 3.28-1.55 5.45-4.89 5.45s-4.86-2.17-4.86-5.45v-11.21c0-3.28 1.55-5.45 4.86-5.45s4.89 2.17 4.89 5.45ZM295.25 127.04v2.17h-5.3v7.71h6.5v2.2h-8.92v-21.68h8.92v2.2h-6.5v7.4h5.3ZM308.29 139.12v-21.03h-4.74v-.65h10.16v.65h-4.74v21.03h-.68ZM315.34 122.77c0-3.04 1.3-5.48 4.58-5.48s4.65 2.45 4.65 5.48v11.03c0 3.04-1.3 5.48-4.65 5.48s-4.58-2.45-4.58-5.48v-11.03Zm.68 11.06c0 2.66 1.02 4.83 3.9 4.83s3.96-2.17 3.96-4.83v-11.09c0-2.66-1.05-4.83-3.96-4.83s-3.9 2.17-3.9 4.83v11.09ZM329.52 128.34l-1.64 2.48v8.3h-.68v-21.68h.68v12.24l8.05-12.24h.74l-6.72 10.25 7.28 11.43h-.74l-6.97-10.78ZM344.47 130.36l-5.05-12.92h.68l4.74 11.99 4.74-11.99h.71l-5.14 12.92v8.77h-.68v-8.77ZM352.16 122.77c0-3.59 1.58-5.48 4.58-5.48s4.65 1.89 4.65 5.48v11.03c0 3.59-1.58 5.48-4.65 5.48s-4.58-1.89-4.58-5.48v-11.03Zm.68 11.06c0 3.19 1.33 4.83 3.9 4.83s3.96-1.64 3.96-4.83v-11.09c0-3.19-1.36-4.83-3.96-4.83s-3.9 1.64-3.9 4.83v11.09ZM378.31 122.83c0 6.04-8.24 8.05-8.36 15.52v.12h8.24v.65h-8.92v-.46c0-8.12 8.36-9.97 8.36-15.8 0-2.73-.87-4.96-3.87-4.96s-3.84 2.35-3.84 4.96v1.18h-.65v-1.15c0-3 1.18-5.61 4.52-5.61s4.52 2.48 4.52 5.54ZM380.84 122.77c0-3.07 1.3-5.48 4.62-5.48s4.62 2.42 4.62 5.48v11.03c0 3.04-1.3 5.48-4.62 5.48s-4.62-2.45-4.62-5.48v-11.03Zm.68 11.03c0 2.7 1.05 4.86 3.93 4.86s3.93-2.17 3.93-4.86v-11.06c0-2.66-1.05-4.83-3.93-4.83s-3.93 2.17-3.93 4.83v11.06ZM401.68 122.83c0 6.04-8.24 8.05-8.36 15.52v.12h8.24v.65h-8.92v-.46c0-8.12 8.36-9.97 8.36-15.8 0-2.73-.87-4.96-3.87-4.96s-3.84 2.35-3.84 4.96v1.18h-.65v-1.15c0-3 1.18-5.61 4.52-5.61s4.52 2.48 4.52 5.54ZM413.28 122.83c0 6.04-8.24 8.05-8.36 15.52v.12h8.24v.65h-8.92v-.46c0-8.12 8.36-9.97 8.36-15.8 0-2.73-.87-4.96-3.87-4.96s-3.84 2.35-3.84 4.96v1.18h-.65v-1.15c0-3 1.18-5.61 4.52-5.61s4.52 2.48 4.52 5.54ZM427.87 128.34v.65h-6.07v10.13h-.68v-21.68h7.96v.65h-7.28v10.25h6.07ZM434.05 130.87c1.03-.21 2.33-.48 3.17-.79.88-.3 1.21-.85 1.21-2.63 0-1.36-.15-1.96-.6-2.57-.51-.69-1.51-1.18-2.63-1.18-3.59 0-3.66 2.96-3.66 4.14h-.6v-.51c0-2.05 1.24-4.17 4.26-4.17 2.05 0 3.84 1.18 3.84 3.75v10.24c0 1.18.39 1.45.91 1.42.15 0 .39-.03.6-.06v.54c-.33.06-.54.06-.72.06-.79 0-1.39-.3-1.39-2.02v-.6h-.06c-.7 1.81-2.12 2.99-4.08 2.99-2.54 0-3.96-1.72-3.96-4.44 0-2.48 1.45-3.72 3.72-4.17Zm4.38-1c-.48.57-1.45.91-4.08 1.42-2.48.48-3.41 1.69-3.41 3.81 0 2.63 1.51 3.84 3.44 3.84 1.63 0 4.05-1.39 4.05-5.53v-3.54ZM442.67 117.55h.6v21.57h-.6v-21.57ZM446.59 117.55h.6v21.57h-.6v-21.57Z"/>
  </g>
</svg>