<?xml version="1.0" encoding="UTF-8"?><svg id="Layer_2" xmlns="http://www.w3.org/2000/svg" viewBox="0 0 621 355"><defs><style>.cls-1{fill:#01bdc5;}.cls-2{fill:#8064d8;}.cls-3{fill:#414040;}.cls-4{fill:#27cdaf;}.cls-5{fill:#38b6e3;}.cls-6{fill:#5fe48f;}.cls-7{fill:#339fdd;}.cls-8{fill:#7aa5ee;}</style></defs><g id="Layer_1-2"><g><path class="cls-3" d="M153.39,220.31h0c-.61-.04-1.46-.08-2.47-.08-2.08,0-7.98,.91-10.26,8.37-2.41,7.86,6.14,8.36,10.92,.84l-1.03,5.16h4.53l2.85-14.28h-4.54Zm-8.36,10.83c-.46-.45-.62-1.66,.85-4.56,1.46-2.89,3.44-4.01,4.94-4.01,.84,0,1.57,.13,2.07,.24v.05l-.14,.65c-2.32,4.63-6.72,8.61-7.72,7.63h0Z"/><path class="cls-3" d="M217.62,220.31h0c-.61-.04-1.46-.08-2.47-.08-2.08,0-7.98,.91-10.26,8.37-2.41,7.86,6.14,8.36,10.91,.84l-1.03,5.16h4.54l2.85-14.28h-4.53Zm-8.36,10.83c-.46-.45-.61-1.66,.85-4.56,1.46-2.89,3.44-4.01,4.95-4.01,.83,0,1.57,.13,2.07,.24v.05l-.14,.65c-2.32,4.63-6.72,8.61-7.72,7.62h0Z"/><path class="cls-3" d="M253.73,220.31h0c-.61-.04-1.46-.08-2.46-.08-2.09,0-7.99,.91-10.27,8.37-2.4,7.86,6.14,8.36,10.91,.84l-1.02,5.16h4.53l2.85-14.28h-4.53Zm-8.36,10.83c-.46-.45-.61-1.66,.85-4.56,1.46-2.89,3.44-4.01,4.95-4.01,.84,0,1.57,.13,2.06,.24v.05l-.14,.65c-2.32,4.63-6.72,8.61-7.72,7.63h0Z"/><path class="cls-3" d="M109.17,220.28l-.02,.06c-.61-.06-1.58-.12-2.78-.12-2.08,0-7.98,.91-10.26,8.37-2.4,7.84,6.07,8.36,10.86,.93l-.97,4.84c-.16,.83-.53,1.55-1.12,2.17-.58,.62-1.64,.92-3.15,.92-.64,0-1.29-.05-1.94-.13-.65-.08-1.33-.21-2.04-.4-.7-.18-1.61-.47-2.74-.87l.32,3.24c1.91,.48,3.82,.72,5.76,.72,1.69,0,3.27-.25,4.75-.75,1.47-.5,2.58-1.22,3.33-2.15,.74-.94,1.37-2.68,1.87-5.22l2.31-11.59h-4.18Zm-8.69,10.85c-.45-.45-.61-1.66,.85-4.56,1.46-2.89,3.44-4.01,4.94-4.01,.95,0,1.79,.17,2.27,.29l-.02,.08-.02-.07c-2.22,4.9-6.98,9.3-8.03,8.26h0Z"/><path class="cls-3" d="M274.42,220.28l-.02,.06c-.61-.06-1.58-.12-2.79-.12-2.08,0-7.98,.91-10.26,8.37-2.4,7.84,6.07,8.36,10.86,.92l-.97,4.85c-.17,.83-.54,1.55-1.12,2.17-.59,.62-1.63,.92-3.15,.92-.64,0-1.28-.05-1.93-.13-.66-.08-1.34-.21-2.04-.4-.7-.18-1.62-.47-2.74-.87l.33,3.24c1.9,.48,3.82,.72,5.76,.72,1.69,0,3.28-.25,4.75-.75,1.48-.5,2.58-1.22,3.32-2.15,.75-.94,1.37-2.68,1.88-5.22l2.32-11.59h-4.18Zm-8.69,10.85c-.45-.45-.61-1.66,.85-4.56,1.46-2.89,3.44-4.01,4.95-4.01,.96,0,1.78,.17,2.27,.29l-.02,.08-.02-.07c-2.22,4.9-6.98,9.3-8.03,8.26h0Z"/><path class="cls-3" d="M60.22,234.56l3.84-19.25h9.51c2.42,0,4.22,.22,5.41,.66,1.19,.44,2.14,1.15,2.85,2.14,.71,.99,1.11,2.28,1.16,3.87,.08,2.31-.46,4.46-1.63,6.47-1.16,2.01-2.72,3.53-4.65,4.56-1.93,1.03-4.49,1.54-7.66,1.54h-8.82Zm5.27-2.64h2.7c2.14,0,3.89-.4,5.23-1.2,1.35-.8,2.44-1.98,3.27-3.53,.83-1.55,1.22-3.16,1.16-4.84-.06-1.55-.67-2.67-1.85-3.36-1.17-.69-3.28-1.04-6.32-1.04h-1.41l-2.79,13.95h0Z"/><path class="cls-3" d="M85.5,234.56l2.85-14.28h4.54l-2.85,14.28h-4.54Zm3.33-16.69l.67-3.38h4.54l-.67,3.38h-4.55Z"/><path class="cls-3" d="M116.09,234.56l2.85-14.28h4.53l-2.85,14.28h-4.53Zm3.32-16.69l.68-3.38h4.54l-.68,3.38h-4.55Z"/><path class="cls-3" d="M135.73,234.45c-1.04,.24-2.04,.38-3.04,.38-1.65,0-2.82-.31-3.51-.92-.7-.61-1.06-1.29-1.09-2.04-.01-.46,.06-1.11,.22-1.96l1.44-7.21h-2.55l.54-2.41h2.49l.48-2.41,4.64-.52-.58,2.93h3.47l-.48,2.41h-3.47l-1.38,6.94c-.11,.54-.17,.97-.16,1.28,.02,.5,.21,.85,.56,1.04,.36,.19,.72,.29,1.09,.29,.6,0,1.21-.11,1.82-.33l-.51,2.53h0Z"/><path class="cls-3" d="M160.68,234.56l4.1-20.53h4.54l-4.1,20.53h-4.53Z"/><path class="cls-3" d="M199.1,233.98c-3.35,.7-6.24,1.05-8.66,1.05-2.9,0-5.17-.66-6.81-1.97-1.64-1.32-2.5-3.07-2.58-5.27-.08-2.2,.5-4.32,1.75-6.35,1.24-2.03,2.93-3.64,5.07-4.84,2.13-1.2,4.72-1.79,7.75-1.79,1.91,0,4.15,.25,6.75,.75l-.6,3.11c-1.15-.36-2.08-.61-2.76-.77-.69-.16-1.33-.27-1.93-.34-.6-.07-1.2-.11-1.8-.11-1.83,0-3.41,.43-4.75,1.27-1.34,.84-2.43,2.08-3.27,3.72-.84,1.65-1.23,3.29-1.17,4.93,.05,1.57,.61,2.79,1.67,3.68,1.06,.88,2.53,1.33,4.41,1.33,.87,0,1.77-.14,2.7-.4l1.22-6.11h4.63l-1.61,8.1h0Z"/><path class="cls-3" d="M224.75,234.56l2.85-14.28h4.53l-1.17,5.92c1.12-1.94,2.39-3.47,3.81-4.57,1.42-1.11,2.73-1.67,3.93-1.67,.41,0,.78,0,1.42,.03l-1.19,3.64c-.66-.15-1.06-.14-1.44-.14-1.14,0-2.34,.66-3.63,1.97-1.28,1.31-2.49,2.76-3.63,4.35l-.96,4.75h-4.53Z"/><path class="cls-3" d="M295.9,233.2c-1.58,.64-3.09,1.08-4.51,1.32-1.43,.25-2.64,.37-3.62,.37-1.28,0-2.43-.22-3.47-.65-1.03-.43-1.78-1.02-2.25-1.79-.47-.76-.71-1.56-.74-2.38-.06-1.67,.41-3.33,1.4-4.96,.99-1.63,2.3-2.9,3.91-3.8,1.61-.91,3.34-1.36,5.18-1.36,1.36,0,2.43,.28,3.2,.85,.77,.57,1.18,1.3,1.21,2.2,.04,1.04-.34,2.04-1.13,2.99-.79,.95-1.99,1.75-3.6,2.39-1.62,.64-3.52,1.02-5.7,1.12,.1,1.12,.48,1.87,1.14,2.25,.66,.38,1.38,.57,2.18,.57s1.85-.17,3.21-.51c1.35-.34,2.74-.87,4.18-1.6l-.6,2.99h0Zm-9.87-6.1c2.04,0,3.55-.36,4.53-1.07,.98-.71,1.46-1.45,1.43-2.22-.01-.34-.15-.64-.41-.89-.27-.26-.65-.39-1.15-.39-.78,0-1.61,.39-2.48,1.15-.88,.77-1.51,1.9-1.9,3.42h0Z"/><path class="cls-3" d="M46.22,217.33h-9.94c-.63-.01-1.6,.19-2.18,.42l-22.04,8.98c-.57,.23-.67,.78-.23,1.2l10.29,8.62c.45,.43,1.33,.78,1.95,.78h14.03c.62,.02,1.31-.46,1.54-1.03l2.29-5.82c.23-.57-.1-1.05-.72-1.05h-4.77c-.63,0-1.46,.47-1.69,1.04l-.94,2.37c-.22,.58-.92,1.05-1.53,1.05h-1.78c-.63,0-1.51-.34-1.98-.75l-6.34-4.6c-.46-.42-.38-.94,.2-1.19l13.63-5.81c.57-.24,1.55-.44,2.17-.44l6.73-.03c.62,0,1.17-.44,1.39-1.01l.64-1.67c.22-.58-.1-1.05-.72-1.05h0Zm-12.69-2.43l-15.04-8.3c-.54-.29-1.49-.56-2.11-.57l-8.42-.04c-.62,0-1.31,.46-1.52,1.03L.06,224.22c-.21,.58,.12,1.06,.74,1.06H8.83c.62,.01,1.6-.18,2.18-.41l22.45-8.99c.58-.23,.61-.67,.07-.97h0Zm-10.55,.59l-10.71,4.46c-.58,.24-1.55,.43-2.17,.43h-.86c-.63,0-.96-.48-.74-1.05l2.95-7.94c.22-.59,.9-1.06,1.52-1.06h.84c.63,0,1.58,.25,2.13,.52l7.09,3.7c.55,.28,.53,.71-.04,.95h0Z"/><path class="cls-3" d="M41.45,19.53c0,3.66-.6,6.82-1.82,9.48-1.22,2.66-2.83,4.84-4.85,6.55-2.02,1.71-4.35,2.98-7,3.81-2.65,.83-5.4,1.24-8.29,1.24-.15,0-.65,0-1.47-.03-.83-.02-1.75-.04-2.78-.09-1.02-.04-2-.06-2.95-.09-.95-.02-1.6-.03-1.99-.03h-1.15c-.39,0-.81,0-1.27,.03-.46,.02-1,.04-1.61,.09-.61,.04-1.32,.08-2.14,.12,.12-1.46,.22-2.87,.29-4.22,.08-1.35,.14-2.87,.2-4.56,.05-1.69,.11-3.68,.14-5.95,.04-2.27,.05-5.07,.05-8.38,0-2.15,0-3.97-.03-5.43-.02-1.46-.04-2.79-.09-3.98-.04-1.19-.09-2.37-.14-3.53-.05-1.15-.13-2.51-.2-4.05,3.15,.12,6.32,.17,9.47,.17,2.58,0,4.89,.02,6.93,.05,2.04,.04,3.9,.19,5.57,.46,1.68,.27,3.22,.69,4.62,1.27s2.79,1.41,4.13,2.49c1.27,1,2.31,2.09,3.12,3.26,.81,1.17,1.45,2.39,1.94,3.64s.82,2.52,1.01,3.81c.19,1.29,.29,2.57,.29,3.84v.03Zm-6.4,.69c0-1.08-.08-2.24-.23-3.47-.15-1.23-.44-2.46-.86-3.7-.42-1.24-1.02-2.42-1.79-3.55-.77-1.14-1.75-2.16-2.95-3.09-1-.77-2.07-1.36-3.17-1.76-1.12-.41-2.25-.7-3.41-.89-1.16-.19-2.32-.31-3.5-.34-1.17-.04-2.34-.05-3.5-.05h-1.7c-.44,0-.84,0-1.18,.03-.34,.02-.69,.05-1.01,.09-.32,.04-.72,.08-1.18,.12-.12,2.66-.19,5.41-.23,8.27-.04,2.85-.05,5.61-.05,8.27v6.41c0,1.61,0,3,.03,4.16,.02,1.15,.04,2.24,.05,3.26,.02,1.02,.04,2.25,.09,3.67,1,.12,1.94,.2,2.8,.26,.87,.05,1.99,.09,3.38,.09,.61,0,1.41,0,2.37-.03,.96-.02,1.99-.12,3.09-.29,1.1-.17,2.21-.45,3.33-.84,1.12-.39,2.17-.93,3.17-1.61,1.35-.96,2.44-2.06,3.29-3.29,.85-1.23,1.51-2.52,1.97-3.87,.46-1.36,.77-2.69,.95-4.05,.17-1.35,.26-2.6,.26-3.76h-.01Z"/><path class="cls-3" d="M50.84,26.58c0,.42,0,.93,.03,1.51,.03,.58,.08,1.21,.17,1.88,.1,.68,.25,1.38,.46,2.11,.22,.73,.51,1.43,.89,2.08,.66,1.08,1.37,1.93,2.14,2.54,.76,.61,1.53,1.07,2.28,1.36s1.44,.46,2.08,.52c.63,.05,1.16,.09,1.59,.09,1.42,0,2.66-.18,3.7-.55,1.04-.37,1.94-.81,2.69-1.32,.75-.52,1.35-1.04,1.79-1.56,.44-.52,.77-.94,1.01-1.24l.69,.17c-.19,.81-.3,1.47-.32,1.99-.02,.52-.04,1.01-.09,1.47-1.27,1.24-2.8,2.16-4.56,2.8-1.78,.63-3.83,.96-6.19,.96-2.2,0-4.18-.33-5.92-1.01-1.75-.67-3.24-1.64-4.44-2.88-1.21-1.25-2.15-2.77-2.8-4.53-.66-1.78-.98-3.78-.98-6.01,0-2,.28-3.89,.84-5.66,.56-1.78,1.41-3.33,2.54-4.65,1.13-1.32,2.57-2.39,4.3-3.17,1.73-.79,3.79-1.18,6.18-1.18,2.15,0,3.97,.28,5.43,.84,1.46,.56,2.67,1.28,3.62,2.16,.95,.88,1.66,1.88,2.14,2.97,.48,1.1,.84,2.17,1.07,3.24,.23,1.07,.36,2.06,.38,2.97,.02,.93,.03,1.64,.03,2.14h-20.74l-.02-.02Zm14.96-2.43c0-.46-.04-1.23-.12-2.28-.08-1.05-.32-2.13-.75-3.21-.42-1.08-1.11-2.03-2.06-2.86-.95-.83-2.28-1.24-4.01-1.24-2.54,0-4.43,.87-5.69,2.63-1.25,1.75-2.01,4.08-2.28,6.96h14.92Z"/><path class="cls-3" d="M90.69,18.95c-.12-.42-.31-.96-.58-1.61-.27-.66-.83-1.27-1.68-1.85-.61-.42-1.28-.69-1.99-.81-.71-.12-1.3-.17-1.76-.17-1.78,0-3.11,.42-4.01,1.24-.9,.83-1.36,1.86-1.36,3.09,0,.85,.19,1.56,.58,2.14,.39,.58,.85,1.07,1.39,1.47s1.13,.72,1.76,.96c.63,.23,1.21,.41,1.7,.52,1.27,.34,2.48,.69,3.62,1.04,1.13,.34,2.13,.81,2.98,1.39,.85,.58,1.51,1.32,1.99,2.25,.48,.93,.72,2.1,.72,3.52,0,1.12-.2,2.23-.6,3.33-.41,1.1-1.04,2.09-1.94,2.98-.89,.89-2.03,1.61-3.43,2.16-1.41,.56-3.11,.84-5.11,.84-1.15,0-2.23-.11-3.21-.32-.98-.22-1.84-.45-2.57-.72-.73-.27-1.33-.54-1.82-.81-.48-.27-.8-.46-.95-.58,.19-.34,.37-.75,.52-1.22,.15-.46,.29-.91,.41-1.36,.12-.44,.2-.85,.26-1.22,.05-.37,.11-.65,.14-.84l.69-.17c.19,.51,.49,1.1,.89,1.8,.41,.69,1.14,1.37,2.23,2.02,.73,.42,1.45,.71,2.16,.87,.71,.16,1.4,.23,2.06,.23,.73,0,1.45-.1,2.16-.29,.71-.19,1.33-.48,1.87-.87,.54-.39,.97-.87,1.3-1.47,.32-.59,.5-1.3,.5-2.11s-.13-1.49-.41-2.02c-.27-.54-.71-1.01-1.33-1.42-.62-.41-1.44-.79-2.49-1.15-1.03-.37-2.31-.8-3.81-1.3-.61-.19-1.31-.46-2.08-.81-.77-.34-1.49-.82-2.14-1.42-.66-.59-1.22-1.33-1.68-2.23-.46-.89-.69-1.97-.69-3.24,0-.81,.14-1.71,.43-2.71,.29-1,.81-1.94,1.56-2.8,.75-.87,1.78-1.6,3.07-2.2,1.29-.59,2.94-.89,4.94-.89s3.62,.23,4.82,.69c1.22,.46,2.15,.87,2.81,1.22-.31,.77-.56,1.53-.75,2.25-.19,.72-.32,1.6-.41,2.6h-.75Z"/><path class="cls-3" d="M104.93,3.17c0,.88-.31,1.63-.93,2.23-.61,.6-1.37,.89-2.25,.89s-1.58-.3-2.2-.89c-.61-.59-.93-1.33-.93-2.23s.31-1.64,.93-2.25c.61-.61,1.35-.93,2.2-.93s1.64,.31,2.25,.93c.61,.61,.93,1.37,.93,2.25h0Zm-5.78,22.76c0-3.27-.05-5.93-.14-7.97-.1-2.04-.2-3.81-.31-5.32,.42,.12,.84,.2,1.24,.26,.41,.05,.94,.09,1.59,.09s1.22-.03,1.68-.09c.46-.05,.9-.14,1.32-.26-.04,.81-.08,1.61-.12,2.4-.04,.79-.08,1.74-.12,2.86-.04,1.12-.07,2.46-.09,4.05-.02,1.58-.03,3.54-.03,5.9v1.82c0,.56,.02,1.27,.05,2.14,.04,.87,.09,1.98,.14,3.35,.05,1.37,.13,3.19,.21,5.46-.39-.12-.76-.2-1.13-.26-.37-.05-.94-.09-1.7-.09-.81,0-1.41,.03-1.8,.09-.39,.05-.79,.14-1.22,.26,.04-1.08,.09-2.24,.14-3.5,.05-1.25,.11-2.52,.14-3.79,.04-1.27,.06-2.54,.09-3.81,.02-1.27,.03-2.46,.03-3.58h.02Z"/><path class="cls-3" d="M109.8,21.56c0-1.54,.3-2.89,.89-4.08,.59-1.18,1.41-2.15,2.43-2.95,1.02-.79,2.22-1.39,3.58-1.79,1.37-.41,2.82-.6,4.36-.6,.66,0,1.3,.02,1.94,.05,.63,.04,1.28,.12,1.94,.23,.76,.12,1.41,.22,1.9,.29,.5,.08,.96,.14,1.39,.17,.42,.04,.84,.06,1.24,.09,.41,.02,.89,.03,1.48,.03h1.22c.34,0,.7,0,1.07-.03,.37-.02,.78-.04,1.24-.05,.46-.02,1.03-.06,1.73-.14-.04,.23-.07,.47-.12,.72-.04,.25-.05,.5-.05,.72,0,.27,.02,.52,.05,.75,.03,.24,.07,.48,.12,.75-.77-.08-1.65-.12-2.62-.12h-2.69c.69,.61,1.27,1.39,1.73,2.31,.46,.93,.69,2,.69,3.24,0,1.54-.3,2.9-.89,4.08-.6,1.17-1.42,2.16-2.45,2.97-1.03,.81-2.26,1.42-3.67,1.82-1.41,.41-2.94,.6-4.6,.6-.15,0-.44,0-.87-.03-.42-.02-.86-.04-1.32-.09-.46-.04-.87-.06-1.24-.09-.37-.02-.57-.03-.6-.03-.85,0-1.49,.29-1.9,.87-.42,.58-.64,1.22-.64,1.9,0,.39,.05,.76,.17,1.13,.12,.37,.4,.69,.84,.98,.44,.29,1.12,.52,2.02,.69,.9,.17,2.14,.26,3.72,.26h.84c.41,0,.82,0,1.24-.03,.42-.02,.83-.03,1.22-.03h.81c1.23,.04,2.27,.13,3.12,.26,.85,.14,1.58,.3,2.19,.49,.61,.19,1.12,.42,1.5,.69,.39,.27,.73,.54,1.04,.81,.73,.66,1.3,1.44,1.7,2.37,.41,.93,.6,1.95,.6,3.07,0,1.04-.23,2.27-.67,3.7-.44,1.42-1.24,2.79-2.4,4.08-1.16,1.29-2.71,2.39-4.68,3.29-1.96,.9-4.47,1.36-7.51,1.36-2.31,0-4.26-.27-5.83-.81-1.58-.54-2.84-1.23-3.79-2.06-.95-.83-1.61-1.75-2.02-2.78-.41-1.02-.6-2.01-.6-2.97,0-1.31,.27-2.42,.81-3.35,.54-.93,1.17-1.68,1.91-2.25,.73-.58,1.44-1.02,2.14-1.32,.69-.31,1.19-.52,1.51-.63-.92-.27-1.68-.59-2.25-.98-.58-.39-1.01-.79-1.3-1.22-.29-.42-.49-.87-.58-1.32-.1-.46-.14-.88-.14-1.27,0-.96,.2-1.79,.6-2.49,.41-.69,.87-1.26,1.39-1.7,.52-.44,1.04-.77,1.56-1.01,.52-.23,.89-.39,1.13-.46-2-.76-3.43-1.87-4.31-3.29-.86-1.42-1.3-3.02-1.3-4.8h.01Zm12.31,32.35c1.51,0,2.83-.2,3.99-.6,1.16-.4,2.12-.94,2.88-1.59,.76-.66,1.36-1.42,1.76-2.31,.41-.88,.6-1.81,.6-2.78,0-1.35-.31-2.42-.95-3.24-.63-.81-1.43-1.43-2.37-1.88-.95-.44-1.96-.74-3.03-.89-1.08-.15-2.08-.23-3-.23-.34,0-1.01,.04-1.99,.12-.98,.08-1.99,.31-3.03,.72-1.04,.41-1.97,1.05-2.78,1.97-.81,.91-1.22,2.18-1.22,3.84,0,2.15,.84,3.84,2.52,5.06,1.68,1.22,3.89,1.82,6.62,1.82h-.01Zm-.81-25.25c1.31,0,2.39-.25,3.24-.75,.85-.5,1.51-1.13,1.99-1.88,.49-.75,.82-1.57,1.01-2.45s.29-1.73,.29-2.54c0-1.27-.18-2.34-.55-3.21-.37-.87-.85-1.58-1.44-2.14-.59-.56-1.27-.96-2.02-1.22-.75-.25-1.49-.38-2.23-.38-1.46,0-2.61,.3-3.44,.89s-1.45,1.3-1.87,2.11c-.42,.81-.69,1.65-.81,2.52-.12,.86-.17,1.57-.17,2.11,0,2.42,.59,4.19,1.76,5.28,1.17,1.1,2.59,1.65,4.25,1.65h-.01Z"/><path class="cls-3" d="M140.14,24.73c0-1.93-.03-3.95-.09-6.07s-.13-4.2-.2-6.24c.54,.08,1.02,.15,1.44,.23,.42,.08,.9,.12,1.44,.12s1.02-.04,1.44-.12,.88-.15,1.39-.23c0,.23-.02,.6-.05,1.13-.03,.53-.06,1.07-.09,1.65-.02,.58-.04,1.13-.09,1.65s-.05,.87-.05,1.07c.39-.69,.86-1.38,1.44-2.06,.58-.68,1.29-1.28,2.14-1.82,.85-.54,1.81-.97,2.89-1.3,1.09-.33,2.31-.49,3.7-.49,2.35,0,4.2,.37,5.54,1.1s2.34,1.62,2.98,2.69c.63,1.07,1.03,2.16,1.18,3.33,.15,1.15,.23,2.14,.23,2.95,0,.12,0,.44-.03,.98-.02,.54-.03,1.22-.03,2.02s-.02,1.69-.05,2.63c-.04,.95-.05,1.86-.05,2.74s0,1.69-.03,2.4c-.02,.71-.03,1.23-.03,1.53v1.27c0,.58,0,1.18,.03,1.82,.02,.63,.04,1.23,.05,1.76,.02,.54,.04,.93,.09,1.15-.42-.12-.84-.2-1.24-.26-.41-.05-.97-.09-1.7-.09-.78,0-1.37,.03-1.79,.09-.42,.05-.85,.14-1.27,.26,.12-1.54,.21-3.07,.29-4.6,.07-1.52,.13-2.9,.17-4.13,.04-1.23,.05-2.28,.05-3.15v-1.7c0-1.42-.04-2.82-.14-4.19-.1-1.37-.37-2.57-.81-3.62-.44-1.04-1.11-1.87-1.99-2.51-.88-.63-2.14-.96-3.76-.96-3.16,0-5.46,1.32-6.88,3.98-.27,.51-.47,1.24-.6,2.23-.14,.98-.23,2.03-.29,3.15-.05,1.12-.1,2.21-.12,3.26-.02,1.07-.03,1.94-.03,2.63,0,2.27,.05,4.18,.17,5.69,.12,1.52,.22,2.82,.29,3.9-.42-.08-.87-.15-1.36-.23-.48-.08-1.05-.12-1.7-.12s-1.23,.04-1.7,.12c-.48,.08-.94,.15-1.36,.23,.08-.88,.14-1.8,.21-2.74,.05-.95,.12-2.03,.17-3.26,.05-1.23,.11-2.65,.14-4.25,.04-1.59,.05-3.48,.05-5.63l-.02,.02Z"/><path class="cls-3" d="M177.85,3.17c0,.88-.31,1.63-.93,2.23-.61,.6-1.37,.89-2.25,.89s-1.58-.3-2.2-.89c-.61-.59-.93-1.33-.93-2.23s.31-1.64,.93-2.25c.61-.61,1.35-.93,2.2-.93s1.64,.31,2.25,.93c.61,.61,.93,1.37,.93,2.25h0Zm-5.78,22.76c0-3.27-.05-5.93-.14-7.97-.1-2.04-.2-3.81-.31-5.32,.42,.12,.84,.2,1.24,.26,.41,.05,.94,.09,1.59,.09s1.22-.03,1.68-.09c.46-.05,.9-.14,1.32-.26-.04,.81-.07,1.61-.12,2.4-.04,.79-.08,1.74-.12,2.86-.04,1.12-.06,2.46-.09,4.05-.02,1.58-.03,3.54-.03,5.9v1.82c0,.56,.02,1.27,.05,2.14,.04,.87,.09,1.98,.14,3.35,.05,1.37,.13,3.19,.2,5.46-.39-.12-.76-.2-1.13-.26-.37-.05-.94-.09-1.7-.09-.81,0-1.41,.03-1.8,.09-.39,.05-.79,.14-1.22,.26,.04-1.08,.09-2.24,.14-3.5,.05-1.25,.11-2.52,.14-3.79,.04-1.27,.07-2.54,.09-3.81,.02-1.27,.03-2.46,.03-3.58h.02Z"/><path class="cls-3" d="M184.23,24.73c0-1.93-.03-3.95-.09-6.07s-.13-4.2-.21-6.24c.54,.08,1.02,.15,1.44,.23,.42,.08,.9,.12,1.44,.12s1.02-.04,1.44-.12c.42-.08,.88-.15,1.39-.23,0,.23-.02,.6-.05,1.13-.03,.53-.06,1.07-.09,1.65-.02,.58-.04,1.13-.09,1.65s-.05,.87-.05,1.07c.39-.69,.86-1.38,1.44-2.06,.58-.68,1.29-1.28,2.14-1.82,.85-.54,1.81-.97,2.9-1.3,1.09-.33,2.31-.49,3.7-.49,2.35,0,4.2,.37,5.54,1.1s2.34,1.62,2.98,2.69c.63,1.07,1.03,2.16,1.18,3.33,.15,1.15,.23,2.14,.23,2.95,0,.12,0,.44-.03,.98-.02,.54-.03,1.22-.03,2.02s-.02,1.69-.05,2.63c-.04,.95-.05,1.86-.05,2.74s0,1.69-.03,2.4c-.02,.71-.03,1.23-.03,1.53v1.27c0,.58,0,1.18,.03,1.82,.02,.63,.04,1.23,.05,1.76,.02,.54,.04,.93,.09,1.15-.42-.12-.84-.2-1.24-.26-.41-.05-.97-.09-1.7-.09-.77,0-1.37,.03-1.79,.09-.42,.05-.85,.14-1.27,.26,.12-1.54,.21-3.07,.29-4.6,.08-1.52,.13-2.9,.17-4.13,.04-1.23,.05-2.28,.05-3.15v-1.7c0-1.42-.04-2.82-.14-4.19-.1-1.37-.37-2.57-.81-3.62-.44-1.04-1.11-1.87-1.99-2.51-.88-.63-2.14-.96-3.76-.96-3.16,0-5.46,1.32-6.88,3.98-.27,.51-.47,1.24-.6,2.23-.14,.98-.23,2.03-.29,3.15-.05,1.12-.1,2.21-.12,3.26-.02,1.07-.03,1.94-.03,2.63,0,2.27,.05,4.18,.17,5.69,.12,1.52,.21,2.82,.29,3.9-.42-.08-.87-.15-1.36-.23-.48-.08-1.06-.12-1.7-.12s-1.23,.04-1.7,.12c-.48,.08-.94,.15-1.36,.23,.07-.88,.14-1.8,.21-2.74,.05-.95,.12-2.03,.17-3.26,.05-1.23,.11-2.65,.14-4.25,.04-1.59,.05-3.48,.05-5.63l-.02,.02Z"/><path class="cls-3" d="M214.49,21.56c0-1.54,.3-2.89,.89-4.08,.59-1.18,1.41-2.15,2.43-2.95,1.02-.79,2.22-1.39,3.58-1.79,1.37-.41,2.82-.6,4.36-.6,.66,0,1.3,.02,1.94,.05,.63,.04,1.28,.12,1.94,.23,.76,.12,1.41,.22,1.9,.29s.96,.14,1.39,.17c.42,.04,.84,.06,1.24,.09,.41,.02,.89,.03,1.48,.03h1.22c.34,0,.7,0,1.07-.03,.37-.02,.78-.04,1.24-.05,.46-.02,1.03-.06,1.73-.14-.04,.23-.08,.47-.12,.72-.04,.25-.05,.5-.05,.72,0,.27,.02,.52,.05,.75,.03,.24,.07,.48,.12,.75-.78-.08-1.65-.12-2.63-.12h-2.69c.69,.61,1.27,1.39,1.73,2.31,.46,.93,.69,2,.69,3.24,0,1.54-.3,2.9-.89,4.08-.6,1.17-1.42,2.16-2.45,2.97-1.03,.81-2.26,1.42-3.67,1.82-1.41,.41-2.94,.6-4.6,.6-.15,0-.44,0-.87-.03-.42-.02-.86-.04-1.32-.09-.46-.04-.87-.06-1.24-.09s-.57-.03-.6-.03c-.85,0-1.49,.29-1.91,.87-.42,.58-.63,1.22-.63,1.9,0,.39,.05,.76,.17,1.13,.12,.37,.4,.69,.84,.98,.44,.29,1.12,.52,2.02,.69,.9,.17,2.14,.26,3.72,.26h.84c.41,0,.82,0,1.24-.03,.42-.02,.83-.03,1.22-.03h.81c1.23,.04,2.27,.13,3.12,.26,.85,.14,1.58,.3,2.2,.49,.61,.19,1.12,.42,1.5,.69,.39,.27,.73,.54,1.04,.81,.73,.66,1.3,1.44,1.7,2.37,.41,.93,.6,1.95,.6,3.07,0,1.04-.23,2.27-.67,3.7-.44,1.42-1.24,2.79-2.4,4.08-1.16,1.29-2.71,2.39-4.68,3.29-1.96,.9-4.47,1.36-7.51,1.36-2.31,0-4.26-.27-5.83-.81-1.58-.54-2.84-1.23-3.79-2.06-.95-.83-1.61-1.75-2.02-2.78s-.6-2.01-.6-2.97c0-1.31,.27-2.42,.81-3.35,.54-.93,1.17-1.68,1.9-2.25,.73-.58,1.44-1.02,2.14-1.32,.69-.31,1.19-.52,1.51-.63-.93-.27-1.68-.59-2.25-.98-.58-.39-1.01-.79-1.3-1.22-.29-.42-.49-.87-.58-1.32-.1-.46-.14-.88-.14-1.27,0-.96,.2-1.79,.6-2.49,.41-.69,.87-1.26,1.39-1.7,.52-.44,1.04-.77,1.56-1.01,.52-.23,.89-.39,1.13-.46-2-.76-3.43-1.87-4.3-3.29-.86-1.42-1.3-3.02-1.3-4.8h.01Zm12.31,32.35c1.51,0,2.83-.2,3.99-.6,1.16-.4,2.12-.94,2.88-1.59,.76-.66,1.36-1.42,1.77-2.31,.41-.88,.6-1.81,.6-2.78,0-1.35-.31-2.42-.95-3.24-.63-.81-1.43-1.43-2.37-1.88-.95-.44-1.96-.74-3.04-.89-1.08-.15-2.08-.23-3-.23-.35,0-1.01,.04-1.99,.12-.98,.08-1.99,.31-3.04,.72-1.04,.41-1.97,1.05-2.78,1.97-.81,.91-1.22,2.18-1.22,3.84,0,2.15,.84,3.84,2.52,5.06,1.68,1.22,3.88,1.82,6.62,1.82h-.01Zm-.81-25.25c1.31,0,2.39-.25,3.24-.75,.85-.5,1.51-1.13,1.99-1.88,.49-.75,.82-1.57,1.01-2.45s.29-1.73,.29-2.54c0-1.27-.18-2.34-.55-3.21-.37-.87-.85-1.58-1.44-2.14-.59-.56-1.27-.96-2.02-1.22-.75-.25-1.5-.38-2.23-.38-1.46,0-2.62,.3-3.44,.89s-1.45,1.3-1.87,2.11c-.42,.81-.69,1.65-.81,2.52-.12,.86-.17,1.57-.17,2.11,0,2.42,.59,4.19,1.76,5.28,1.17,1.1,2.59,1.65,4.25,1.65h-.01Z"/><path class="cls-3" d="M279.84,.12c3,0,5.82,.43,8.47,1.3,2.65,.87,4.94,2.15,6.91,3.87,1.97,1.72,3.52,3.82,4.65,6.33,1.13,2.51,1.7,5.37,1.7,8.61,0,3-.52,5.81-1.56,8.41-1.04,2.6-2.53,4.85-4.45,6.76-1.93,1.9-4.26,3.4-7.02,4.48-2.76,1.08-5.84,1.61-9.28,1.61-3.16,0-6.07-.47-8.73-1.42-2.66-.95-4.95-2.3-6.88-4.08-1.93-1.78-3.43-3.93-4.51-6.47-1.08-2.54-1.61-5.41-1.61-8.61s.49-5.9,1.5-8.44c1-2.54,2.45-4.72,4.36-6.55,1.9-1.83,4.24-3.25,6.99-4.27,2.76-1.02,5.9-1.53,9.45-1.53h0Zm-15.71,20.74c0,2.81,.38,5.35,1.13,7.6,.75,2.25,1.8,4.16,3.15,5.73,1.35,1.56,2.96,2.76,4.82,3.58,1.86,.83,3.92,1.24,6.16,1.24s4.36-.41,6.27-1.22c1.92-.81,3.55-2,4.94-3.58,1.39-1.58,2.46-3.52,3.24-5.81,.77-2.29,1.15-4.92,1.15-7.89,0-.73-.04-1.57-.12-2.52-.08-.95-.21-1.9-.41-2.88-.19-.98-.45-1.97-.77-2.95-.32-.98-.74-1.89-1.24-2.74-.78-1.31-1.7-2.41-2.78-3.29-1.08-.88-2.21-1.59-3.38-2.11-1.17-.52-2.35-.88-3.53-1.1-1.17-.22-2.25-.31-3.21-.31-1.93,0-3.81,.33-5.66,1.01-1.85,.68-3.5,1.74-4.94,3.21-1.44,1.46-2.6,3.35-3.5,5.66-.88,2.31-1.32,5.1-1.32,8.38h-.01Z"/><path class="cls-3" d="M318.93,37.56c1.81,0,3.26-.44,4.36-1.32,1.1-.88,1.87-1.8,2.33-2.71,.54-1.04,.85-2.12,.93-3.24,.08-1.12,.12-2.08,.12-2.88,0-.93,0-2.07-.03-3.43-.02-1.37-.04-2.77-.05-4.19-.02-1.42-.05-2.79-.12-4.1-.05-1.31-.11-2.39-.14-3.24,.42,.08,.89,.15,1.41,.23,.52,.08,1.09,.12,1.7,.12,.66,0,1.18-.04,1.59-.12,.41-.08,.82-.15,1.24-.23-.12,1.73-.24,3.86-.38,6.38-.14,2.52-.2,5.28-.2,8.29,0,2.15,0,3.93,.03,5.32,.02,1.39,.04,2.56,.05,3.53,.02,.96,.04,1.8,.09,2.51s.1,1.43,.17,2.16c-.5-.08-.95-.15-1.36-.23-.41-.08-.89-.12-1.48-.12-.54,0-.99,.03-1.36,.09s-.82,.14-1.36,.26c.04-.42,.06-.79,.09-1.1,.02-.31,.04-.65,.05-1.01,.02-.37,.04-.81,.05-1.32,.02-.52,.04-1.21,.09-2.06-.73,1.31-1.53,2.36-2.4,3.15-.86,.79-1.73,1.4-2.6,1.82-.87,.42-1.7,.7-2.49,.84-.79,.13-1.45,.2-1.99,.2-2.27,0-4.07-.38-5.37-1.13-1.31-.75-2.3-1.66-2.97-2.71-.68-1.05-1.11-2.15-1.3-3.29-.19-1.14-.29-2.11-.29-2.92,0-.42,.02-1.22,.05-2.37,.04-1.15,.06-2.39,.09-3.7,.02-1.31,.04-2.55,.09-3.72,.04-1.17,.05-2.01,.05-2.51,0-1.08-.02-2.25-.05-3.53-.04-1.27-.1-2.22-.17-2.83,.42,.12,.86,.2,1.3,.26,.44,.05,.99,.09,1.65,.09,.61,0,1.14-.03,1.59-.09,.45-.05,.87-.14,1.3-.26-.19,2.12-.32,4.28-.41,6.5-.07,2.22-.12,4.11-.12,5.69,0,1.7,.03,3.33,.09,4.89,.05,1.56,.28,2.94,.67,4.13,.39,1.19,1,2.15,1.85,2.86,.85,.71,2.04,1.07,3.58,1.07l.02-.02Z"/><path class="cls-3" d="M353.96,17.91c-.39-.19-.79-.37-1.22-.52-.42-.15-1.02-.23-1.79-.23-.81,0-1.54,.12-2.2,.34-.66,.23-1.22,.52-1.68,.87-.46,.36-.84,.71-1.13,1.1-.29,.39-.51,.71-.67,.98-.19,.46-.36,.91-.49,1.36-.13,.44-.23,1.02-.29,1.73-.05,.71-.1,1.63-.12,2.74-.02,1.12-.03,2.56-.03,4.34v1.65c0,.79,.02,1.5,.05,2.11,.04,1,.08,1.81,.12,2.42,.04,.61,.07,1.13,.09,1.53,.02,.41,.04,.77,.05,1.1,.02,.32,.03,.72,.03,1.18-.42-.12-.86-.2-1.3-.26s-1.04-.09-1.82-.09c-.69,0-1.24,.03-1.65,.09s-.82,.14-1.24,.26c.12-.93,.21-1.79,.29-2.6,.07-.81,.14-1.73,.2-2.78,.05-1.04,.1-2.29,.12-3.76,.02-1.46,.03-3.34,.03-5.61,0-1.61,0-3.06-.03-4.3-.02-1.25-.05-2.4-.12-3.43-.05-1.04-.12-2.02-.17-2.95-.05-.93-.11-1.85-.14-2.78,.42,.12,.85,.2,1.3,.26,.45,.05,.99,.09,1.65,.09s1.19-.03,1.61-.09c.42-.05,.87-.14,1.32-.26-.23,1.61-.37,2.97-.41,4.08-.04,1.11-.05,1.92-.05,2.45,.23-.58,.59-1.28,1.1-2.11,.49-.83,1.15-1.6,1.96-2.34,.81-.73,1.82-1.32,3.04-1.79,1.22-.46,2.67-.61,4.36-.46-.12,.42-.23,.94-.35,1.53-.12,.6-.17,1.33-.17,2.23v.6c0,.22,.04,.55,.12,1.01l-.41,.29h.02Z"/><path class="cls-3" d="M8.18,77.72c.04,2.35,.06,4.41,.09,6.19,.02,1.78,.05,3.38,.12,4.82,.05,1.44,.11,2.78,.14,3.99,.04,1.22,.09,2.4,.14,3.55,.05,1.15,.13,2.35,.2,3.58,.08,1.24,.15,2.6,.23,4.1-.34-.07-.7-.15-1.07-.23-.37-.07-.82-.12-1.36-.12s-.96,.04-1.27,.12c-.31,.08-.63,.15-.98,.23,.08-.73,.15-1.84,.23-3.32,.08-1.49,.15-3.12,.23-4.91,.08-1.8,.14-3.63,.2-5.52,.05-1.88,.09-3.58,.09-5.08,0-.58,0-1.56-.03-2.95-.02-1.39-.04-2.84-.05-4.36-.01-1.52-.04-2.96-.05-4.3-.02-1.35-.03-2.29-.03-2.83v-6.93c.19,.04,.36,.06,.5,.09,.13,.02,.28,.03,.43,.03,.19,0,.38,0,.55-.03,.17-.02,.4-.04,.67-.09l1.9,2.25c.39,.46,.77,.91,1.15,1.36,.39,.44,.83,.94,1.32,1.47,.5,.54,1.07,1.15,1.7,1.82,.64,.68,1.4,1.47,2.28,2.4,1.93,2.04,3.59,3.81,4.99,5.28,1.41,1.49,2.65,2.79,3.72,3.93,1.08,1.14,2.06,2.15,2.92,3.07,.86,.91,1.73,1.8,2.6,2.69,.86,.88,1.76,1.81,2.69,2.78,.93,.97,2,2.07,3.24,3.29v-11.58c0-2.6-.03-4.94-.09-7.02-.05-2.08-.13-4.04-.23-5.87-.1-1.83-.24-3.79-.43-5.87,.31,.08,.65,.15,1.01,.23,.37,.08,.77,.12,1.24,.12s.89-.04,1.3-.12c.41-.08,.8-.15,1.18-.23-.5,4.2-.79,8.37-.86,12.51-.08,4.14-.12,8.31-.12,12.51v3.76c0,1.39,0,2.79,.03,4.19,.02,1.41,.04,2.77,.05,4.08,.02,1.31,.06,2.49,.14,3.53-.23-.04-.42-.06-.58-.09-.15-.02-.32-.03-.52-.03-.15,0-.3,0-.43,.03-.13,.02-.3,.04-.49,.09-.31-.34-.77-.89-1.42-1.65-.63-.75-1.38-1.6-2.23-2.54-.85-.94-1.76-1.96-2.74-3.04-.98-1.08-1.96-2.13-2.95-3.15-.98-1.02-1.93-1.99-2.83-2.92-.9-.93-1.68-1.69-2.34-2.31-.5-.46-.99-.94-1.47-1.42l-1.47-1.47-11.27-11.73v3.64h.02Z"/><path class="cls-3" d="M50.45,89.92c0,.42,0,.93,.03,1.51,.03,.58,.08,1.21,.17,1.88,.1,.68,.25,1.38,.46,2.11,.22,.73,.51,1.43,.89,2.08,.66,1.08,1.37,1.93,2.14,2.54,.76,.61,1.53,1.07,2.28,1.36,.75,.29,1.44,.46,2.08,.52,.63,.05,1.16,.09,1.59,.09,1.42,0,2.66-.18,3.7-.55,1.04-.37,1.94-.81,2.69-1.32,.75-.52,1.35-1.04,1.79-1.56,.44-.52,.77-.94,1.01-1.24l.69,.17c-.19,.81-.3,1.47-.32,1.99-.02,.52-.04,1.01-.09,1.47-1.27,1.24-2.8,2.16-4.56,2.8-1.78,.63-3.83,.96-6.19,.96-2.2,0-4.18-.33-5.92-1.01-1.75-.67-3.24-1.64-4.44-2.88-1.21-1.25-2.15-2.77-2.8-4.53-.66-1.78-.98-3.78-.98-6.01,0-2,.28-3.89,.84-5.66,.56-1.78,1.41-3.33,2.54-4.65,1.13-1.32,2.57-2.39,4.3-3.17,1.73-.79,3.79-1.18,6.18-1.18,2.15,0,3.97,.28,5.43,.84,1.46,.56,2.67,1.28,3.62,2.16,.95,.88,1.66,1.88,2.14,2.97,.48,1.1,.84,2.17,1.07,3.24,.23,1.07,.36,2.06,.38,2.97,.02,.93,.03,1.64,.03,2.14h-20.74l-.02-.02Zm14.96-2.43c0-.46-.04-1.23-.12-2.28-.08-1.05-.32-2.13-.75-3.21-.42-1.08-1.11-2.03-2.06-2.86-.95-.83-2.28-1.24-4.01-1.24-2.54,0-4.43,.87-5.69,2.63-1.25,1.75-2.01,4.08-2.28,6.96h14.92Z"/><path class="cls-3" d="M93.04,83.56c-.12,0-.29,.26-.52,.77-.23,.52-.48,1.16-.75,1.94-.12,.34-.37,1.05-.75,2.14-.39,1.08-.85,2.41-1.39,3.99-.54,1.58-1.15,3.36-1.85,5.35-.69,1.98-1.39,4.06-2.08,6.21-.27-.07-.58-.15-.95-.23-.37-.07-.77-.12-1.24-.12-.54,0-.96,.04-1.27,.12-.31,.08-.56,.15-.75,.23-.12-.49-.39-1.39-.81-2.66-.42-1.27-.94-2.77-1.53-4.48-.59-1.71-1.26-3.55-1.99-5.52-.73-1.97-1.46-3.91-2.2-5.83-.73-1.93-1.43-3.73-2.11-5.43-.68-1.69-1.24-3.12-1.7-4.27,.31,.08,.75,.15,1.32,.23,.58,.08,1.25,.12,2.02,.12,.23,0,.63,0,1.22-.03,.58-.02,1.29-.13,2.14-.32,.31,1.43,.81,3.26,1.51,5.49,.69,2.24,1.54,4.9,2.54,7.97,.12,.31,.31,.88,.58,1.73,.27,.85,.56,1.71,.86,2.6,.31,.88,.59,1.68,.87,2.37,.27,.69,.46,1.04,.58,1.04s.42-.56,.93-1.68c.5-1.12,1.1-2.63,1.79-4.53,.69-1.9,1.43-4.15,2.23-6.73,.79-2.58,1.57-5.34,2.34-8.27,.46,.12,.86,.2,1.18,.26,.32,.05,.74,.09,1.24,.09,.54,0,.97-.04,1.3-.12,.32-.08,.68-.15,1.07-.23,.27,1.24,.57,2.42,.89,3.58,.32,1.15,.68,2.34,1.07,3.55,.39,1.22,.8,2.5,1.24,3.84,.44,1.35,.94,2.85,1.47,4.51,.58,1.78,1.06,3.16,1.44,4.19,.39,1.02,.68,1.53,.87,1.53,.12,0,.41-.51,.86-1.53,.45-1.02,1.03-2.45,1.7-4.3,.67-1.85,1.43-4.08,2.28-6.67,.85-2.6,1.71-5.5,2.6-8.7,.34,.12,.67,.19,.98,.23,.31,.04,.67,.05,1.1,.05,.66,0,1.15-.03,1.51-.09,.35-.05,.67-.13,.98-.2-.42,.81-.95,1.88-1.56,3.24-.61,1.36-1.27,2.85-1.96,4.51-.69,1.66-1.42,3.41-2.16,5.26-.75,1.85-1.49,3.68-2.2,5.49-.71,1.81-1.4,3.55-2.06,5.23-.66,1.68-1.22,3.16-1.68,4.48-.19-.07-.46-.15-.81-.23-.35-.07-.73-.12-1.15-.12-.19,0-.46,.02-.81,.05-.34,.03-.78,.13-1.27,.29-.46-1.54-.89-2.96-1.3-4.25-.41-1.29-.84-2.6-1.3-3.93-.46-1.33-.96-2.74-1.51-4.25-.54-1.51-1.15-3.24-1.85-5.2-.31-.81-.56-1.47-.75-1.99-.19-.52-.34-.77-.46-.77h0Z"/><path class="cls-3" d="M169.01,82.87c0,3.66-.6,6.82-1.82,9.48-1.22,2.66-2.83,4.84-4.85,6.55-2.02,1.71-4.35,2.98-7,3.81-2.65,.83-5.4,1.24-8.29,1.24-.15,0-.65,0-1.47-.03-.83-.02-1.75-.04-2.78-.09-1.02-.04-2-.07-2.95-.09-.95-.02-1.6-.03-1.99-.03h-1.15c-.39,0-.81,0-1.27,.03-.46,.02-1,.04-1.61,.09-.61,.04-1.32,.07-2.14,.12,.12-1.46,.22-2.87,.29-4.22,.08-1.35,.14-2.87,.2-4.56,.05-1.69,.11-3.68,.14-5.95,.04-2.27,.05-5.07,.05-8.38,0-2.15,0-3.97-.03-5.43-.02-1.46-.04-2.79-.09-3.98-.04-1.19-.09-2.37-.14-3.53-.05-1.15-.13-2.51-.2-4.05,3.15,.12,6.32,.17,9.47,.17,2.58,0,4.88,.02,6.93,.05,2.05,.04,3.9,.19,5.58,.46,1.68,.27,3.22,.69,4.62,1.27,1.4,.58,2.79,1.41,4.13,2.49,1.27,1,2.31,2.09,3.12,3.26,.81,1.17,1.45,2.39,1.94,3.64,.48,1.25,.82,2.52,1.01,3.81,.19,1.29,.29,2.57,.29,3.84v.03Zm-6.4,.69c0-1.08-.07-2.24-.23-3.47-.15-1.23-.44-2.46-.86-3.7-.42-1.24-1.02-2.42-1.79-3.55-.77-1.14-1.76-2.16-2.95-3.09-1-.77-2.07-1.36-3.17-1.76-1.12-.41-2.25-.7-3.41-.89-1.16-.19-2.32-.31-3.5-.34-1.17-.04-2.33-.05-3.5-.05h-1.7c-.44,0-.84,0-1.18,.03-.34,.02-.69,.05-1.01,.09-.32,.04-.72,.08-1.18,.12-.12,2.66-.19,5.41-.23,8.27-.04,2.85-.05,5.61-.05,8.27v6.41c0,1.61,0,3,.03,4.16,.02,1.15,.04,2.24,.05,3.26,.02,1.02,.04,2.25,.09,3.67,1,.12,1.94,.21,2.8,.26,.87,.05,1.99,.09,3.38,.09,.61,0,1.41,0,2.37-.03,.96-.02,1.99-.12,3.09-.29,1.1-.17,2.21-.45,3.32-.84,1.12-.39,2.17-.93,3.18-1.61,1.35-.96,2.44-2.06,3.29-3.29,.85-1.23,1.51-2.52,1.97-3.87,.46-1.36,.77-2.69,.95-4.05,.17-1.35,.26-2.6,.26-3.76h-.01Z"/><path class="cls-3" d="M180.74,66.51c0,.88-.31,1.63-.93,2.23-.61,.6-1.37,.89-2.25,.89s-1.58-.3-2.2-.89c-.61-.59-.93-1.33-.93-2.23s.31-1.64,.93-2.25c.61-.61,1.35-.93,2.2-.93s1.63,.31,2.25,.93c.61,.61,.93,1.37,.93,2.25h0Zm-5.78,22.76c0-3.27-.05-5.93-.14-7.97-.1-2.04-.2-3.81-.31-5.32,.42,.12,.84,.2,1.24,.26,.41,.05,.94,.09,1.59,.09s1.22-.03,1.68-.09c.46-.05,.9-.14,1.32-.26-.04,.81-.07,1.61-.12,2.4s-.08,1.74-.12,2.86c-.04,1.12-.06,2.46-.09,4.05-.02,1.58-.03,3.54-.03,5.9v1.82c0,.56,.02,1.27,.05,2.14,.04,.87,.09,1.98,.14,3.35,.05,1.37,.13,3.19,.2,5.46-.39-.12-.76-.2-1.13-.26s-.94-.09-1.7-.09c-.81,0-1.41,.03-1.8,.09-.39,.05-.79,.14-1.22,.26,.04-1.08,.09-2.24,.14-3.5,.05-1.25,.11-2.52,.14-3.79,.04-1.27,.07-2.54,.09-3.81,.02-1.27,.03-2.46,.03-3.58h.02Z"/><path class="cls-3" d="M185.62,84.89c0-1.54,.3-2.89,.89-4.08,.59-1.18,1.41-2.15,2.43-2.95,1.02-.79,2.22-1.39,3.58-1.79,1.37-.41,2.82-.6,4.36-.6,.66,0,1.3,.02,1.94,.05,.63,.04,1.28,.12,1.94,.23,.76,.12,1.41,.22,1.9,.29,.5,.08,.96,.14,1.39,.17,.42,.04,.84,.06,1.24,.09,.41,.02,.89,.03,1.47,.03h1.22c.35,0,.7,0,1.07-.03,.37-.02,.77-.04,1.24-.05,.46-.02,1.03-.06,1.73-.14-.04,.23-.07,.47-.12,.72-.04,.25-.05,.5-.05,.72,0,.27,.02,.52,.05,.75,.03,.24,.08,.48,.12,.75-.77-.08-1.65-.12-2.63-.12h-2.69c.69,.61,1.27,1.39,1.73,2.31,.46,.93,.69,2,.69,3.24,0,1.54-.3,2.9-.89,4.08-.6,1.17-1.42,2.16-2.45,2.97-1.03,.81-2.26,1.42-3.67,1.82-1.41,.41-2.94,.6-4.6,.6-.15,0-.44,0-.87-.03-.42-.02-.86-.04-1.32-.09-.46-.04-.87-.06-1.24-.09s-.57-.03-.6-.03c-.85,0-1.49,.29-1.9,.87-.42,.58-.64,1.22-.64,1.9,0,.39,.05,.76,.17,1.13,.12,.37,.4,.69,.84,.98,.44,.29,1.12,.52,2.02,.69,.9,.17,2.14,.26,3.72,.26h.84c.41,0,.82,0,1.24-.03,.42-.02,.83-.03,1.22-.03h.81c1.23,.04,2.27,.13,3.12,.26,.85,.14,1.58,.3,2.2,.49,.61,.19,1.12,.42,1.49,.69,.39,.27,.73,.54,1.04,.81,.73,.66,1.3,1.44,1.7,2.37,.41,.93,.6,1.95,.6,3.07,0,1.04-.23,2.27-.67,3.7-.44,1.42-1.24,2.79-2.4,4.08-1.16,1.29-2.71,2.39-4.68,3.29-1.96,.9-4.47,1.36-7.51,1.36-2.31,0-4.26-.27-5.83-.81-1.58-.54-2.84-1.23-3.79-2.06-.95-.83-1.61-1.76-2.02-2.78-.41-1.02-.6-2.01-.6-2.97,0-1.31,.27-2.42,.81-3.35,.54-.93,1.17-1.68,1.9-2.25,.73-.58,1.44-1.02,2.14-1.32,.69-.31,1.19-.52,1.51-.64-.92-.27-1.68-.59-2.25-.98-.58-.39-1.01-.78-1.3-1.22-.29-.42-.48-.87-.58-1.32-.1-.46-.14-.88-.14-1.27,0-.96,.21-1.79,.6-2.49,.41-.69,.87-1.26,1.39-1.7,.52-.44,1.04-.77,1.56-1.01,.52-.23,.89-.39,1.13-.46-2-.76-3.43-1.87-4.3-3.29-.86-1.42-1.3-3.02-1.3-4.8h0Zm12.31,32.35c1.51,0,2.83-.2,3.99-.6,1.16-.4,2.12-.94,2.88-1.59,.76-.66,1.36-1.42,1.76-2.31,.41-.88,.6-1.81,.6-2.78,0-1.35-.31-2.42-.95-3.24-.64-.81-1.43-1.43-2.37-1.88-.95-.44-1.96-.74-3.03-.89-1.08-.15-2.08-.23-3-.23-.34,0-1.01,.04-1.99,.12-.98,.07-1.99,.31-3.03,.72-1.04,.41-1.97,1.06-2.78,1.97-.81,.92-1.22,2.19-1.22,3.84,0,2.15,.84,3.84,2.52,5.06,1.68,1.22,3.88,1.82,6.62,1.82h-.01Zm-.81-25.25c1.31,0,2.39-.25,3.24-.75,.85-.5,1.51-1.13,1.99-1.88,.48-.75,.82-1.57,1.01-2.45,.19-.88,.29-1.73,.29-2.54,0-1.27-.18-2.34-.55-3.21-.37-.87-.85-1.58-1.44-2.14-.59-.56-1.27-.96-2.02-1.22-.75-.25-1.5-.38-2.23-.38-1.46,0-2.61,.3-3.44,.89-.83,.59-1.45,1.3-1.87,2.11-.42,.81-.69,1.65-.81,2.52-.12,.86-.17,1.57-.17,2.11,0,2.42,.59,4.19,1.76,5.28,1.17,1.1,2.59,1.65,4.25,1.65h0Z"/><path class="cls-3" d="M221.96,66.51c0,.88-.31,1.63-.93,2.23-.61,.6-1.37,.89-2.25,.89s-1.58-.3-2.19-.89c-.61-.59-.93-1.33-.93-2.23s.31-1.64,.93-2.25c.61-.61,1.35-.93,2.19-.93s1.64,.31,2.25,.93c.61,.61,.93,1.37,.93,2.25h0Zm-5.78,22.76c0-3.27-.04-5.93-.14-7.97s-.21-3.81-.31-5.32c.42,.12,.84,.2,1.24,.26,.41,.05,.94,.09,1.59,.09s1.22-.03,1.68-.09c.46-.05,.9-.14,1.33-.26-.04,.81-.07,1.61-.12,2.4s-.07,1.74-.12,2.86c-.04,1.12-.06,2.46-.09,4.05-.02,1.58-.03,3.54-.03,5.9v1.82c0,.56,.02,1.27,.05,2.14,.03,.87,.09,1.98,.14,3.35,.05,1.37,.13,3.19,.2,5.46-.39-.12-.76-.2-1.13-.26-.37-.05-.94-.09-1.7-.09-.81,0-1.41,.03-1.79,.09-.39,.05-.78,.14-1.22,.26,.04-1.08,.09-2.24,.14-3.5,.05-1.25,.11-2.52,.14-3.79,.04-1.27,.07-2.54,.09-3.81,.02-1.27,.03-2.46,.03-3.58h0Z"/><path class="cls-3" d="M229.67,79.05h-1.15c-.31,0-.61,0-.93,.03-.31,.02-.66,.05-1.04,.09-.39,.04-.88,.08-1.51,.12,.04-.19,.06-.41,.09-.63,.02-.23,.03-.5,.03-.81s0-.57-.03-.77c-.02-.22-.04-.43-.09-.67,.42,.04,1.04,.1,1.85,.17,.39,.04,.81,.06,1.27,.09,.46,.02,.96,.03,1.51,.03v-2.83c0-.88-.04-2.08-.12-3.58,.39-.08,.86-.23,1.44-.46,.58-.23,1.14-.48,1.7-.75,.56-.27,1.09-.54,1.59-.81,.49-.27,.88-.48,1.15-.64-.08,1.19-.13,2.15-.17,2.88-.04,.73-.06,1.4-.09,1.99-.02,.6-.04,1.21-.05,1.82,0,.61-.04,1.41-.09,2.37,1.08,0,2.14-.03,3.18-.09s2.06-.13,3.07-.2c-.04,.23-.07,.45-.09,.67-.02,.22-.03,.47-.03,.77s0,.57,.03,.79c.02,.22,.04,.41,.09,.6-.73-.04-1.66-.08-2.78-.12-1.12-.04-2.27-.05-3.47-.05-.12,2.66-.19,5.29-.23,7.92-.04,2.62-.05,5.26-.05,7.92,0,2.35,.26,4.14,.78,5.37,.52,1.24,1.6,1.85,3.26,1.85,.27,0,.68-.04,1.24-.12,.56-.08,1.03-.15,1.41-.23-.07,.31-.12,.56-.12,.75s.04,.48,.12,.87c-.66,.39-1.47,.67-2.45,.84-.98,.17-1.8,.26-2.45,.26-1.66,0-2.98-.37-3.96-1.1-.98-.73-1.72-1.52-2.23-2.37-.23-.39-.42-.94-.58-1.65-.15-.71-.23-1.97-.23-3.79v-1.99c0-.52,0-1.22,.03-2.08,.02-.86,.04-1.97,.09-3.33v-9.15Z"/><path class="cls-3" d="M245.26,82.75l.23-3.76c.46-.34,.98-.73,1.56-1.14,.58-.42,1.25-.8,2.02-1.13,.76-.34,1.62-.62,2.57-.85,.95-.23,2.01-.34,3.21-.34,1.12,0,2.4,.16,3.84,.5,1.44,.32,2.74,1.03,3.9,2.11,.66,.66,1.22,1.45,1.68,2.4,.46,.95,.69,2.3,.69,4.08,0,.42,0,1.14-.03,2.14-.03,1-.04,2.06-.09,3.15-.04,1.1-.06,2.13-.09,3.09-.02,.97-.03,1.64-.03,2.02,0,1.27,0,2.34,.03,3.21,.02,.86,.1,1.56,.23,2.08,.13,.52,.35,.89,.63,1.13,.29,.24,.7,.35,1.24,.35,.34,0,.64-.03,.86-.09,.23-.05,.42-.13,.58-.2l.05,1.61c-.66,.31-1.31,.59-1.97,.87-.66,.27-1.39,.41-2.2,.41-.97,0-1.86-.3-2.69-.89-.83-.59-1.4-1.55-1.7-2.86-.46,.46-.96,.94-1.5,1.42-.54,.48-1.15,.91-1.85,1.3-.7,.39-1.49,.7-2.37,.96-.88,.25-1.88,.38-3,.38-1.51,0-2.76-.25-3.76-.75-1-.51-1.82-1.14-2.45-1.9-.63-.78-1.09-1.6-1.36-2.49-.27-.89-.41-1.73-.41-2.55,0-1.54,.28-2.79,.84-3.73,.56-.95,1.29-1.72,2.19-2.31,.9-.6,1.94-1.05,3.09-1.36,1.15-.3,2.31-.6,3.46-.87l5.03-1.1c.81-.19,1.37-.5,1.68-.93,.31-.42,.46-1.04,.46-1.85,0-1.97-.6-3.51-1.82-4.63-1.22-1.12-2.77-1.68-4.65-1.68-1.19,0-2.18,.16-2.97,.49-.79,.32-1.43,.72-1.94,1.18-.51,.46-.87,.94-1.13,1.42-.25,.48-.43,.87-.55,1.18h-1.56l.02-.06Zm14.51,6.76c-2.51,.39-4.48,.82-5.92,1.3-1.44,.48-2.55,1.01-3.33,1.59-.78,.58-1.26,1.22-1.47,1.9-.22,.69-.31,1.42-.31,2.2,0,.93,.16,1.7,.5,2.34,.32,.64,.73,1.14,1.22,1.51,.48,.37,1.01,.62,1.59,.78,.58,.15,1.12,.23,1.61,.23,.73,0,1.46-.13,2.19-.41,.73-.27,1.39-.66,1.96-1.15,.57-.5,1.04-1.08,1.42-1.73,.36-.66,.55-1.39,.55-2.2v-6.36h-.01Z"/><path class="cls-3" d="M272.11,81.71c0-2.2,0-4.09-.03-5.69-.02-1.6-.03-2.99-.03-4.19s0-2.23-.03-3.09c-.02-.86-.04-1.69-.05-2.49-.02-.79-.04-1.57-.09-2.34-.04-.77-.1-1.64-.17-2.6,.51,.08,1,.15,1.49,.23,.48,.08,1,.12,1.55,.12s1.05-.04,1.55-.12c.48-.08,1-.15,1.55-.23-.08,2.08-.14,3.92-.2,5.52-.05,1.6-.1,3.17-.12,4.74-.02,1.56-.04,3.23-.05,4.99-.01,1.77-.03,3.91-.03,6.41,0,2.27,0,4.26,.03,5.98,.02,1.71,.04,3.35,.09,4.89s.09,3.11,.14,4.71c.05,1.6,.13,3.4,.2,5.4-.43-.12-.86-.21-1.31-.29-.45-.08-1.07-.12-1.84-.12s-1.31,.04-1.72,.12c-.41,.08-.83,.17-1.26,.29,.08-1.46,.14-2.75,.2-3.87,.05-1.12,.1-2.42,.12-3.9,.02-1.49,.03-3.34,.03-5.57v-8.9h0Z"/><path class="cls-3" d="M304.06,88.82c-.58,1.35-1.38,3.28-2.4,5.81-1.02,2.52-2.01,5.63-2.97,9.33-.35-.07-.69-.15-1.04-.23-.36-.07-.79-.12-1.32-.12s-1,.04-1.39,.12c-.39,.08-.77,.15-1.15,.23,.85-1.85,1.79-3.9,2.8-6.16,1.02-2.25,2.08-4.58,3.17-7,1.1-2.41,2.21-4.86,3.33-7.37,1.12-2.51,2.18-4.94,3.21-7.31,1.02-2.37,1.98-4.63,2.89-6.79,.9-2.15,1.7-4.1,2.4-5.83,.23,.04,.45,.08,.67,.12,.21,.04,.47,.05,.77,.05,.27,0,.49,0,.67-.03,.17-.02,.38-.06,.6-.14,.73,2.04,1.67,4.44,2.8,7.19,1.13,2.75,2.35,5.63,3.64,8.61,1.29,2.98,2.58,5.94,3.87,8.87,1.29,2.93,2.44,5.55,3.47,7.89,1.02,2.34,1.86,4.22,2.54,5.66,.68,1.44,1.01,2.18,1.01,2.23-.49-.07-1.01-.15-1.53-.23-.52-.07-1.15-.12-1.88-.12s-1.44,.04-2.02,.12c-.58,.08-1.13,.15-1.68,.23-1-3.51-2.05-6.5-3.12-8.99-1.08-2.49-1.98-4.53-2.71-6.16h-14.61Zm7.22-17.26l-6.07,14.32h12.31l-6.24-14.32Z"/><path class="cls-3" d="M350.53,81.24c-.39-.19-.79-.37-1.22-.52-.42-.15-1.02-.23-1.79-.23-.81,0-1.54,.12-2.2,.34s-1.22,.52-1.68,.87c-.46,.34-.84,.71-1.13,1.1-.29,.39-.51,.71-.67,.98-.19,.46-.35,.91-.49,1.36-.14,.44-.23,1.02-.29,1.73-.05,.71-.1,1.62-.12,2.74-.02,1.12-.03,2.56-.03,4.34v1.65c0,.79,.02,1.5,.05,2.11,.04,1,.08,1.81,.12,2.42,.04,.61,.06,1.13,.09,1.53,.02,.4,.04,.78,.05,1.1,.02,.32,.03,.72,.03,1.18-.42-.12-.86-.2-1.3-.26-.44-.05-1.06-.09-1.82-.09-.69,0-1.24,.03-1.65,.09-.41,.05-.82,.14-1.24,.26,.12-.92,.21-1.79,.29-2.6,.08-.82,.14-1.73,.2-2.78,.05-1.04,.1-2.29,.12-3.76,.02-1.46,.03-3.34,.03-5.61,0-1.61,0-3.06-.03-4.3-.03-1.25-.05-2.4-.12-3.43-.05-1.04-.12-2.02-.17-2.95-.05-.93-.11-1.85-.14-2.78,.42,.12,.86,.2,1.3,.26,.44,.05,.99,.09,1.65,.09s1.19-.03,1.61-.09c.42-.05,.86-.14,1.32-.26-.23,1.61-.37,2.97-.41,4.08-.04,1.1-.05,1.92-.05,2.45,.23-.58,.59-1.28,1.1-2.11,.51-.83,1.15-1.6,1.97-2.34,.81-.73,1.82-1.32,3.04-1.79s2.67-.61,4.36-.46c-.12,.42-.23,.94-.34,1.53-.12,.6-.17,1.33-.17,2.23v.6c0,.22,.04,.55,.12,1.01l-.41,.29h.01Z"/><path class="cls-3" d="M376.67,99.1c-.27,.77-.43,1.42-.49,1.94-.05,.52-.11,.99-.14,1.41-.88,.58-2.06,1.1-3.5,1.56-1.44,.46-3.13,.69-5.06,.69-2.73,0-5.08-.42-7.02-1.24-1.95-.83-3.54-1.93-4.77-3.29-1.24-1.37-2.13-2.92-2.69-4.65-.56-1.73-.84-3.52-.84-5.37,0-2.2,.34-4.2,1.04-6.01,.7-1.81,1.69-3.36,3-4.65,1.31-1.29,2.91-2.28,4.8-2.97,1.89-.69,4.02-1.04,6.41-1.04,1.73,0,3.39,.17,4.97,.52s3.1,.95,4.56,1.79c-.42,1.12-.72,2.08-.89,2.88-.17,.81-.3,1.49-.38,2.02h-.69c-.42-1.08-.94-1.94-1.53-2.57-.6-.64-1.22-1.12-1.85-1.44-.63-.32-1.28-.54-1.94-.63-.66-.1-1.23-.14-1.73-.14-3.24,0-5.67,1.07-7.31,3.17-1.64,2.12-2.45,4.99-2.45,8.61,0,2.66,.37,4.8,1.1,6.41,.73,1.61,1.62,2.87,2.69,3.76,1.06,.88,2.16,1.47,3.33,1.76,1.16,.29,2.15,.43,3,.43,1.2,0,2.54-.24,4.05-.72,1.5-.49,2.78-1.28,3.81-2.4l.52,.17h-.01Z"/><path class="cls-3" d="M385.77,81.24c.39-.69,.86-1.38,1.44-2.06,.58-.68,1.28-1.28,2.11-1.82,.83-.54,1.79-.97,2.88-1.3,1.1-.33,2.34-.5,3.72-.5,2.35,0,4.2,.37,5.54,1.1,1.35,.73,2.33,1.63,2.98,2.69,.64,1.07,1.03,2.16,1.18,3.33,.15,1.15,.23,2.14,.23,2.95,0,.12,0,.44-.03,.98-.02,.54-.03,1.22-.03,2.02s-.02,1.69-.05,2.63c-.04,.95-.05,1.86-.05,2.74s0,1.69-.03,2.4c-.02,.71-.03,1.23-.03,1.53v1.27c0,.58,0,1.18,.03,1.82,.02,.63,.04,1.23,.05,1.76,.02,.54,.04,.93,.09,1.15-.42-.12-.84-.21-1.24-.26-.41-.05-.97-.09-1.7-.09-.77,0-1.37,.03-1.79,.09-.42,.05-.85,.14-1.27,.26,.12-1.54,.21-3.07,.29-4.6,.08-1.52,.13-2.89,.17-4.13,.04-1.23,.05-2.28,.05-3.15v-1.7c0-1.42-.04-2.82-.14-4.19-.1-1.37-.37-2.57-.81-3.62-.44-1.04-1.11-1.87-1.99-2.51-.88-.63-2.14-.96-3.76-.96-1.43,0-2.63,.26-3.58,.77-.96,.52-1.73,1.11-2.31,1.76-.27,.31-.53,.66-.77,1.04-.25,.39-.46,.87-.64,1.44-.17,.58-.31,1.31-.41,2.2-.1,.88-.14,1.98-.14,3.29,0,2.12,0,3.9,.03,5.32,.02,1.43,.04,2.66,.09,3.7,.04,1.04,.08,1.97,.12,2.8,.04,.83,.1,1.67,.17,2.52-.42-.12-.87-.21-1.36-.26-.48-.05-1.07-.09-1.76-.09s-1.26,.03-1.7,.09c-.44,.05-.87,.14-1.3,.26,.12-2.35,.22-4.84,.29-7.48,.07-2.64,.12-5.13,.12-7.48v-12.54c0-1.97,0-3.62-.03-4.97-.02-1.35-.04-2.56-.05-3.64-.02-1.08-.04-2.12-.09-3.12-.04-1-.07-2.14-.12-3.41,.42,.08,.85,.15,1.3,.23,.44,.08,1.01,.12,1.7,.12s1.23-.04,1.73-.12c.49-.08,.96-.15,1.39-.23,0,.23-.02,.6-.05,1.13-.03,.53-.08,1.1-.12,1.73-.04,.64-.07,1.28-.09,1.94-.02,.66-.03,1.22-.03,1.68,0,1.24,0,2.23-.03,2.98-.02,.75-.03,1.39-.03,1.9s0,1-.03,1.44c-.02,.44-.03,.96-.03,1.53l-.12,5.61h.01Z"/><path class="cls-3" d="M418.33,66.51c0,.88-.31,1.63-.93,2.23-.61,.6-1.37,.89-2.25,.89s-1.58-.3-2.2-.89c-.61-.59-.93-1.33-.93-2.23s.31-1.64,.93-2.25c.61-.61,1.35-.93,2.2-.93s1.64,.31,2.25,.93c.61,.61,.93,1.37,.93,2.25h0Zm-5.78,22.76c0-3.27-.05-5.93-.14-7.97-.1-2.04-.21-3.81-.31-5.32,.42,.12,.84,.2,1.24,.26,.41,.05,.94,.09,1.59,.09s1.22-.03,1.68-.09c.46-.05,.9-.14,1.32-.26-.04,.81-.08,1.61-.12,2.4s-.07,1.74-.12,2.86c-.04,1.12-.07,2.46-.09,4.05-.02,1.58-.03,3.54-.03,5.9v1.82c0,.56,.02,1.27,.05,2.14,.04,.87,.09,1.98,.14,3.35,.05,1.37,.13,3.19,.21,5.46-.39-.12-.76-.2-1.13-.26s-.94-.09-1.7-.09c-.81,0-1.41,.03-1.8,.09-.39,.05-.78,.14-1.22,.26,.04-1.08,.09-2.24,.14-3.5,.05-1.25,.11-2.52,.14-3.79,.04-1.27,.06-2.54,.09-3.81,.02-1.27,.03-2.46,.03-3.58h.02Z"/><path class="cls-3" d="M426.04,79.05h-1.15c-.31,0-.61,0-.93,.03-.31,.02-.66,.05-1.03,.09-.39,.04-.88,.08-1.51,.12,.04-.19,.07-.41,.09-.63,.02-.23,.03-.5,.03-.81s0-.57-.03-.77c-.02-.22-.04-.43-.09-.67,.42,.04,1.04,.1,1.85,.17,.39,.04,.81,.06,1.27,.09,.46,.02,.96,.03,1.51,.03v-2.83c0-.88-.04-2.08-.12-3.58,.39-.08,.86-.23,1.44-.46,.58-.23,1.14-.48,1.7-.75,.56-.27,1.09-.54,1.59-.81,.49-.27,.88-.48,1.15-.64-.07,1.19-.14,2.15-.17,2.88-.04,.73-.06,1.4-.09,1.99-.02,.6-.04,1.21-.05,1.82-.02,.61-.04,1.41-.09,2.37,1.08,0,2.14-.03,3.18-.09,1.04-.05,2.05-.13,3.07-.2-.04,.23-.07,.45-.09,.67-.02,.22-.03,.47-.03,.77s0,.57,.03,.79c.03,.22,.04,.41,.09,.6-.73-.04-1.66-.08-2.78-.12-1.12-.04-2.27-.05-3.47-.05-.12,2.66-.19,5.29-.23,7.92-.04,2.62-.05,5.26-.05,7.92,0,2.35,.26,4.14,.78,5.37,.52,1.24,1.6,1.85,3.26,1.85,.27,0,.68-.04,1.24-.12,.56-.08,1.03-.15,1.42-.23-.07,.31-.12,.56-.12,.75s.04,.48,.12,.87c-.66,.39-1.47,.67-2.45,.84-.98,.17-1.8,.26-2.45,.26-1.66,0-2.97-.37-3.96-1.1-.98-.73-1.72-1.52-2.23-2.37-.23-.39-.42-.94-.58-1.65-.15-.71-.23-1.97-.23-3.79v-1.99c0-.52,0-1.22,.03-2.08,.02-.86,.04-1.97,.09-3.33v-9.15Z"/><path class="cls-3" d="M444.13,89.92c0,.42,0,.93,.03,1.51,.02,.58,.08,1.21,.17,1.88,.1,.68,.25,1.38,.46,2.11,.21,.73,.51,1.43,.89,2.08,.66,1.08,1.37,1.93,2.14,2.54,.77,.61,1.53,1.07,2.28,1.36,.75,.29,1.44,.46,2.08,.52,.64,.05,1.16,.09,1.59,.09,1.42,0,2.66-.18,3.7-.55,1.04-.37,1.94-.81,2.69-1.32,.75-.52,1.35-1.04,1.79-1.56,.44-.52,.77-.94,1.01-1.24l.69,.17c-.19,.81-.3,1.47-.31,1.99-.02,.52-.04,1.01-.09,1.47-1.27,1.24-2.8,2.16-4.56,2.8-1.78,.63-3.83,.96-6.18,.96-2.2,0-4.18-.33-5.92-1.01-1.75-.67-3.24-1.64-4.45-2.88-1.22-1.25-2.15-2.77-2.81-4.53-.66-1.78-.98-3.78-.98-6.01,0-2,.28-3.89,.84-5.66,.56-1.78,1.41-3.33,2.54-4.65,1.14-1.32,2.57-2.39,4.3-3.17,1.73-.79,3.8-1.18,6.18-1.18,2.16,0,3.97,.28,5.43,.84,1.46,.56,2.67,1.28,3.62,2.16s1.66,1.88,2.14,2.97c.49,1.1,.84,2.17,1.07,3.24,.23,1.07,.36,2.06,.38,2.97,.02,.93,.03,1.64,.03,2.14h-20.74l-.03-.02Zm14.97-2.43c0-.46-.04-1.23-.12-2.28-.07-1.05-.32-2.13-.75-3.21-.43-1.08-1.11-2.03-2.06-2.86-.95-.83-2.28-1.24-4.01-1.24-2.54,0-4.43,.87-5.69,2.63-1.25,1.75-2.01,4.08-2.28,6.96h14.92Z"/><path class="cls-3" d="M492.34,99.1c-.27,.77-.43,1.42-.5,1.94-.05,.52-.11,.99-.14,1.41-.88,.58-2.04,1.1-3.5,1.56-1.44,.46-3.13,.69-5.06,.69-2.73,0-5.08-.42-7.02-1.24-1.95-.83-3.53-1.93-4.77-3.29-1.24-1.37-2.13-2.92-2.69-4.65-.56-1.73-.84-3.52-.84-5.37,0-2.2,.34-4.2,1.04-6.01,.69-1.81,1.69-3.36,3-4.65,1.31-1.29,2.91-2.28,4.8-2.97,1.89-.69,4.02-1.04,6.41-1.04,1.73,0,3.39,.17,4.97,.52s3.1,.95,4.56,1.79c-.42,1.12-.72,2.08-.89,2.88-.17,.81-.3,1.49-.38,2.02h-.69c-.42-1.08-.94-1.94-1.53-2.57-.59-.64-1.22-1.12-1.85-1.44-.63-.32-1.28-.54-1.94-.63-.66-.1-1.24-.14-1.73-.14-3.24,0-5.67,1.07-7.31,3.17-1.64,2.12-2.45,4.99-2.45,8.61,0,2.66,.37,4.8,1.1,6.41s1.62,2.87,2.69,3.76c1.07,.88,2.16,1.47,3.33,1.76,1.15,.29,2.15,.43,3,.43,1.19,0,2.54-.24,4.05-.72,1.51-.49,2.78-1.28,3.81-2.4l.52,.17h-.01Z"/><path class="cls-3" d="M498.98,79.05h-1.15c-.31,0-.61,0-.93,.03-.31,.02-.66,.05-1.04,.09-.39,.04-.88,.08-1.51,.12,.04-.19,.06-.41,.09-.63,.02-.23,.03-.5,.03-.81s0-.57-.03-.77c-.02-.22-.04-.43-.09-.67,.42,.04,1.04,.1,1.85,.17,.39,.04,.81,.06,1.27,.09,.46,.02,.96,.03,1.51,.03v-2.83c0-.88-.04-2.08-.12-3.58,.39-.08,.86-.23,1.44-.46,.58-.23,1.14-.48,1.7-.75,.56-.27,1.09-.54,1.59-.81,.49-.27,.88-.48,1.15-.64-.08,1.19-.13,2.15-.17,2.88-.04,.73-.06,1.4-.09,1.99-.02,.6-.04,1.21-.05,1.82,0,.61-.04,1.41-.09,2.37,1.08,0,2.14-.03,3.18-.09,1.03-.05,2.05-.13,3.07-.2-.04,.23-.07,.45-.09,.67-.02,.22-.03,.47-.03,.77s0,.57,.03,.79c.02,.22,.04,.41,.09,.6-.73-.04-1.66-.08-2.78-.12-1.12-.04-2.27-.05-3.47-.05-.12,2.66-.19,5.29-.23,7.92-.04,2.62-.05,5.26-.05,7.92,0,2.35,.26,4.14,.77,5.37,.52,1.24,1.6,1.85,3.26,1.85,.27,0,.68-.04,1.24-.12,.56-.08,1.03-.15,1.41-.23-.08,.31-.12,.56-.12,.75s.04,.48,.12,.87c-.66,.39-1.47,.67-2.45,.84-.98,.17-1.8,.26-2.45,.26-1.66,0-2.98-.37-3.96-1.1-.98-.73-1.72-1.52-2.23-2.37-.23-.39-.42-.94-.58-1.65-.15-.71-.23-1.97-.23-3.79v-1.99c0-.52,0-1.22,.03-2.08,.02-.86,.04-1.97,.09-3.33v-9.15Z"/><path class="cls-3" d="M525.7,100.89c1.81,0,3.26-.44,4.36-1.32,1.1-.88,1.88-1.8,2.35-2.71,.54-1.04,.85-2.12,.93-3.24,.08-1.12,.12-2.08,.12-2.88,0-.93,0-2.07-.03-3.43-.02-1.37-.04-2.77-.05-4.19-.02-1.42-.05-2.79-.12-4.1-.05-1.31-.11-2.39-.14-3.24,.42,.08,.89,.15,1.42,.23,.52,.08,1.09,.12,1.7,.12,.66,0,1.18-.04,1.59-.12,.41-.08,.82-.15,1.24-.23-.12,1.73-.24,3.86-.38,6.38-.13,2.52-.2,5.28-.2,8.29,0,2.15,0,3.93,.03,5.32,.02,1.39,.04,2.56,.05,3.53,.01,.97,.04,1.8,.09,2.51,.04,.71,.1,1.43,.17,2.16-.51-.07-.96-.15-1.36-.23-.41-.07-.89-.12-1.47-.12-.54,0-.99,.03-1.36,.09-.37,.05-.82,.14-1.36,.26,.04-.42,.07-.78,.09-1.1,.02-.31,.04-.65,.05-1.01,.02-.37,.04-.81,.05-1.32,.01-.52,.04-1.21,.09-2.06-.73,1.31-1.53,2.36-2.4,3.15-.87,.79-1.73,1.4-2.6,1.82-.87,.42-1.7,.7-2.49,.84-.79,.13-1.45,.21-1.99,.21-2.27,0-4.07-.38-5.37-1.13-1.31-.75-2.3-1.66-2.98-2.71-.68-1.06-1.11-2.15-1.3-3.29-.19-1.14-.29-2.11-.29-2.92,0-.42,.02-1.22,.05-2.37,.04-1.15,.06-2.39,.09-3.7,.02-1.31,.04-2.55,.09-3.72,.04-1.17,.05-2.01,.05-2.51,0-1.08-.02-2.25-.05-3.53-.04-1.27-.1-2.22-.17-2.83,.42,.12,.85,.2,1.3,.26,.45,.05,.99,.09,1.65,.09,.61,0,1.14-.03,1.59-.09,.44-.05,.87-.14,1.3-.26-.19,2.12-.32,4.28-.41,6.5-.08,2.22-.12,4.11-.12,5.69,0,1.7,.03,3.33,.09,4.89,.05,1.56,.28,2.94,.67,4.13,.39,1.19,1,2.15,1.85,2.86,.85,.71,2.05,1.07,3.58,1.07v-.02Z"/><path class="cls-3" d="M560.73,81.24c-.39-.19-.79-.37-1.22-.52-.42-.15-1.02-.23-1.79-.23-.81,0-1.54,.12-2.2,.34s-1.22,.52-1.68,.87c-.46,.34-.84,.71-1.13,1.1-.29,.39-.51,.71-.67,.98-.19,.46-.35,.91-.49,1.36-.14,.44-.23,1.02-.29,1.73-.05,.71-.1,1.62-.12,2.74-.02,1.12-.03,2.56-.03,4.34v1.65c0,.79,.02,1.5,.05,2.11,.04,1,.08,1.81,.12,2.42,.04,.61,.06,1.13,.09,1.53,.02,.4,.04,.78,.05,1.1,.02,.32,.03,.72,.03,1.18-.42-.12-.86-.2-1.3-.26-.44-.05-1.05-.09-1.82-.09-.69,0-1.24,.03-1.65,.09s-.82,.14-1.24,.26c.12-.92,.21-1.79,.29-2.6,.07-.82,.14-1.73,.2-2.78,.05-1.04,.1-2.29,.12-3.76,.02-1.46,.03-3.34,.03-5.61,0-1.61,0-3.06-.03-4.3-.03-1.25-.05-2.4-.12-3.43-.05-1.04-.12-2.02-.17-2.95-.05-.93-.11-1.85-.14-2.78,.42,.12,.86,.2,1.3,.26,.44,.05,.99,.09,1.65,.09s1.19-.03,1.61-.09c.42-.05,.86-.14,1.32-.26-.23,1.61-.37,2.97-.41,4.08-.04,1.1-.05,1.92-.05,2.45,.23-.58,.59-1.28,1.1-2.11,.51-.83,1.15-1.6,1.97-2.34,.81-.73,1.82-1.32,3.03-1.79s2.67-.61,4.36-.46c-.12,.42-.23,.94-.34,1.53-.12,.6-.17,1.33-.17,2.23v.6c0,.22,.04,.55,.12,1.01l-.41,.29h.01Z"/><path class="cls-3" d="M568.26,89.92c0,.42,0,.93,.03,1.51,.03,.58,.08,1.21,.17,1.88,.1,.68,.25,1.38,.46,2.11,.22,.73,.51,1.43,.89,2.08,.66,1.08,1.37,1.93,2.14,2.54,.76,.61,1.53,1.07,2.28,1.36,.75,.29,1.44,.46,2.08,.52,.64,.05,1.16,.09,1.59,.09,1.42,0,2.66-.18,3.7-.55,1.04-.37,1.94-.81,2.69-1.32,.75-.52,1.35-1.04,1.79-1.56,.44-.52,.78-.94,1.01-1.24l.69,.17c-.19,.81-.3,1.47-.32,1.99-.02,.52-.04,1.01-.09,1.47-1.27,1.24-2.8,2.16-4.56,2.8-1.78,.63-3.83,.96-6.19,.96-2.2,0-4.18-.33-5.92-1.01-1.75-.67-3.24-1.64-4.45-2.88-1.21-1.25-2.15-2.77-2.8-4.53-.66-1.78-.98-3.78-.98-6.01,0-2,.28-3.89,.84-5.66,.56-1.78,1.41-3.33,2.54-4.65,1.13-1.32,2.57-2.39,4.3-3.17,1.73-.79,3.79-1.18,6.18-1.18,2.15,0,3.97,.28,5.43,.84,1.46,.56,2.67,1.28,3.62,2.16s1.66,1.88,2.14,2.97c.48,1.1,.84,2.17,1.07,3.24,.23,1.07,.36,2.06,.38,2.97,.02,.93,.03,1.64,.03,2.14h-20.74l-.02-.02Zm14.96-2.43c0-.46-.04-1.23-.12-2.28-.08-1.05-.32-2.13-.75-3.21-.42-1.08-1.11-2.03-2.05-2.86-.95-.83-2.28-1.24-4.01-1.24-2.54,0-4.43,.87-5.69,2.63-1.25,1.75-2.01,4.08-2.28,6.96h14.92Z"/><path class="cls-3" d="M4.3,160.61v-20.97H0v-2.37H11.2v2.37H6.9v20.97h-2.59Z"/><path class="cls-3" d="M16,150.11v10.5h-2.6v-23.33h2.6v10.5h5.74v-10.5h2.6v23.33h-2.6v-10.5h-5.74Z"/><path class="cls-3" d="M35.36,147.61v2.34h-5.7v8.3h7v2.37h-9.6v-23.33h9.6v2.37h-7v7.96h5.7Z"/><path class="cls-3" d="M47.2,160.61h-2.34v-23.33h3.3l5.4,16.86v-16.86h2.3v23.33h-2.7l-5.96-18.87v18.87h-.01Z"/><path class="cls-3" d="M66.89,147.61v2.34h-5.7v8.3h7.01v2.37h-9.6v-23.33h9.6v2.37h-7.01v7.96h5.7Z"/><path class="cls-3" d="M77.17,160.61h-3.56l-3.2-23.33h2.53l2.73,19.87,2.6-19.83h2.56l2.56,19.87,2.64-19.9h2.27l-3.16,23.33h-3.43l-2.23-15.83-2.3,15.83h-.01Z"/><path class="cls-3" d="M106.54,142.91v2.1h-2.46v-2.24c0-2.1-.84-3.37-2.73-3.37s-2.73,1.27-2.73,3.37v12.33c0,2.1,.86,3.37,2.73,3.37s2.73-1.27,2.73-3.37v-3.03h2.46v2.91c0,3.53-1.67,5.87-5.26,5.87s-5.23-2.34-5.23-5.87v-12.06c0-3.53,1.67-5.86,5.23-5.86s5.26,2.33,5.26,5.86h0Z"/><path class="cls-3" d="M108.92,142.91c0-3.56,1.76-5.86,5.34-5.86s5.37,2.3,5.37,5.86v12.06c0,3.53-1.76,5.87-5.37,5.87s-5.34-2.34-5.34-5.87v-12.06Zm2.57,12.2c0,2.13,.9,3.37,2.77,3.37s2.77-1.24,2.77-3.37v-12.33c0-2.1-.86-3.37-2.77-3.37s-2.77,1.27-2.77,3.37v12.33Z"/><path class="cls-3" d="M124.52,160.61h-2.33v-23.33h3.3l5.4,16.86v-16.86h2.3v23.33h-2.7l-5.96-18.87v18.87h-.01Z"/><path class="cls-3" d="M139.68,160.61v-20.97h-4.3v-2.37h11.2v2.37h-4.3v20.97h-2.59Z"/><path class="cls-3" d="M157.08,147.61v2.34h-5.7v8.3h7v2.37h-9.6v-23.33h9.6v2.37h-7v7.96h5.7Z"/><path class="cls-3" d="M166.96,150.55l-3.9,10.06h-2.46l4.7-12.03-4.4-11.3h2.7l3.6,9.33,3.64-9.33h2.43l-4.37,11.3,4.67,12.03h-2.73l-3.86-10.06h-.02Z"/><path class="cls-3" d="M179.6,160.61v-20.97h-4.3v-2.37h11.2v2.37h-4.31v20.97h-2.59Z"/><path class="cls-3" d="M204.44,142.91v2.1h-2.46v-2.24c0-2.1-.83-3.37-2.73-3.37s-2.73,1.27-2.73,3.37v12.33c0,2.1,.86,3.37,2.73,3.37s2.73-1.27,2.73-3.37v-3.03h2.46v2.91c0,3.53-1.67,5.87-5.26,5.87s-5.23-2.34-5.23-5.87v-12.06c0-3.53,1.67-5.86,5.23-5.86s5.26,2.33,5.26,5.86h0Z"/><path class="cls-3" d="M206.82,142.91c0-3.56,1.76-5.86,5.34-5.86s5.37,2.3,5.37,5.86v12.06c0,3.53-1.76,5.87-5.37,5.87s-5.34-2.34-5.34-5.87v-12.06Zm2.56,12.2c0,2.13,.9,3.37,2.77,3.37s2.77-1.24,2.77-3.37v-12.33c0-2.1-.87-3.37-2.77-3.37s-2.77,1.27-2.77,3.37v12.33Z"/><path class="cls-3" d="M222.42,160.61h-2.34v-23.33h3.3l5.4,16.86v-16.86h2.3v23.33h-2.7l-5.96-18.87v18.87h-.01Z"/><path class="cls-3" d="M241.79,148.15v2.37h-5.37v10.1h-2.6v-23.33h9.27v2.37h-6.67v8.5h5.38Z"/><path class="cls-3" d="M253.72,147.61v2.34h-5.7v8.3h7.01v2.37h-9.6v-23.33h9.6v2.37h-7.01v7.96h5.7Z"/><path class="cls-3" d="M262.7,137.28c3.67,0,5.2,1.86,5.2,5.34v1.9c0,2.56-.9,4.17-2.9,4.8,2.13,.63,2.94,2.37,2.94,4.87v3.64c0,1.03,.03,2,.46,2.8h-2.64c-.3-.67-.43-1.27-.43-2.83v-3.67c0-2.64-1.24-3.46-3.4-3.46h-1.83v9.96h-2.6v-23.33h5.21Zm-.67,10.99c2.07,0,3.3-.67,3.3-3.2v-2.24c0-2.1-.76-3.2-2.7-3.2h-2.53v8.63h1.93Z"/><path class="cls-3" d="M279.12,147.61v2.34h-5.7v8.3h7v2.37h-9.6v-23.33h9.6v2.37h-7v7.96h5.7Z"/><path class="cls-3" d="M285.22,160.61h-2.33v-23.33h3.3l5.4,16.86v-16.86h2.3v23.33h-2.7l-5.96-18.87v18.87h-.01Z"/><path class="cls-3" d="M306.97,142.91v2.1h-2.46v-2.24c0-2.1-.84-3.37-2.73-3.37s-2.73,1.27-2.73,3.37v12.33c0,2.1,.86,3.37,2.73,3.37s2.73-1.27,2.73-3.37v-3.03h2.46v2.91c0,3.53-1.67,5.87-5.26,5.87s-5.23-2.34-5.23-5.87v-12.06c0-3.53,1.67-5.86,5.23-5.86s5.26,2.33,5.26,5.86h0Z"/><path class="cls-3" d="M317.74,147.61v2.34h-5.7v8.3h6.99v2.37h-9.6v-23.33h9.6v2.37h-6.99v7.96h5.7Z"/><path class="cls-3" d="M331.77,160.61v-22.63h-5.1v-.7h10.93v.7h-5.1v22.63h-.73Z"/><path class="cls-3" d="M339.36,143.02c0-3.27,1.4-5.9,4.93-5.9s5,2.64,5,5.9v11.87c0,3.27-1.4,5.9-5,5.9s-4.93-2.64-4.93-5.9v-11.87Zm.73,11.9c0,2.86,1.1,5.2,4.2,5.2s4.26-2.34,4.26-5.2v-11.94c0-2.86-1.13-5.2-4.26-5.2s-4.2,2.34-4.2,5.2v11.94Z"/><path class="cls-3" d="M354.62,149.01l-1.76,2.67v8.93h-.73v-23.33h.73v13.17l8.66-13.17h.8l-7.23,11.03,7.83,12.3h-.8l-7.5-11.6h0Z"/><path class="cls-3" d="M370.71,151.18l-5.44-13.9h.73l5.1,12.9,5.1-12.9h.76l-5.53,13.9v9.44h-.73v-9.44Z"/><path class="cls-3" d="M378.98,143.02c0-3.86,1.7-5.9,4.93-5.9s5,2.03,5,5.9v11.87c0,3.86-1.7,5.9-5,5.9s-4.93-2.03-4.93-5.9v-11.87Zm.73,11.9c0,3.43,1.43,5.2,4.2,5.2s4.26-1.76,4.26-5.2v-11.94c0-3.43-1.46-5.2-4.26-5.2s-4.2,1.76-4.2,5.2v11.94Z"/><path class="cls-3" d="M407.13,143.08c0,6.5-8.87,8.66-9,16.7v.13h8.87v.7h-9.6v-.5c0-8.74,9-10.73,9-17,0-2.94-.94-5.34-4.16-5.34s-4.13,2.53-4.13,5.34v1.27h-.7v-1.24c0-3.23,1.27-6.04,4.86-6.04s4.86,2.67,4.86,5.96h0Z"/><path class="cls-3" d="M409.85,143.02c0-3.3,1.4-5.9,4.97-5.9s4.97,2.6,4.97,5.9v11.87c0,3.27-1.4,5.9-4.97,5.9s-4.97-2.64-4.97-5.9v-11.87Zm.73,11.87c0,2.91,1.13,5.23,4.23,5.23s4.23-2.34,4.23-5.23v-11.9c0-2.86-1.13-5.2-4.23-5.2s-4.23,2.34-4.23,5.2v11.9Z"/><path class="cls-3" d="M432.28,143.08c0,6.5-8.87,8.66-9,16.7v.13h8.87v.7h-9.6v-.5c0-8.74,9-10.73,9-17,0-2.94-.94-5.34-4.17-5.34s-4.13,2.53-4.13,5.34v1.27h-.7v-1.24c0-3.23,1.27-6.04,4.86-6.04s4.86,2.67,4.86,5.96h0Z"/><path class="cls-3" d="M444.76,143.08c0,6.5-8.87,8.66-9,16.7v.13h8.87v.7h-9.6v-.5c0-8.74,9-10.73,9-17,0-2.94-.94-5.34-4.16-5.34s-4.13,2.53-4.13,5.34v1.27h-.7v-1.24c0-3.23,1.27-6.04,4.86-6.04s4.86,2.67,4.86,5.96h0Z"/><path class="cls-3" d="M460.46,149.01v.7h-6.53v10.9h-.73v-23.33h8.57v.7h-7.83v11.03h6.53Z"/><path class="cls-3" d="M467.11,151.73c1.11-.23,2.51-.52,3.41-.85,.95-.32,1.3-.92,1.3-2.83,0-1.46-.16-2.11-.64-2.77-.55-.74-1.62-1.27-2.83-1.27-3.87,0-3.94,3.18-3.94,4.46h-.65v-.55c0-2.21,1.33-4.49,4.58-4.49,2.21,0,4.13,1.27,4.13,4.04v11.02c0,1.27,.42,1.56,.98,1.53,.16,0,.42-.03,.66-.07v.58c-.36,.07-.58,.07-.77,.07-.85,0-1.5-.32-1.5-2.17v-.65h-.07c-.75,1.95-2.28,3.22-4.39,3.22-2.73,0-4.26-1.85-4.26-4.78,0-2.67,1.56-4,4-4.49h-.02Zm4.71-1.08c-.52,.61-1.56,.98-4.39,1.53-2.67,.52-3.67,1.82-3.67,4.1,0,2.83,1.62,4.13,3.7,4.13,1.75,0,4.36-1.5,4.36-5.95v-3.81Z"/><path class="cls-3" d="M476.4,137.4h.65v23.21h-.65v-23.21h0Z"/><path class="cls-3" d="M480.61,137.4h.65v23.21h-.65v-23.21h0Z"/><path class="cls-7" d="M485.89,253.97c.41-2.72,.78-5.31,1.1-7.79,.31-2.5,.47-4.99,.47-7.49s-.15-4.99-.47-7.49c-.31-2.5-.69-5.07-1.1-7.79,2.72,.41,5.31,.78,7.8,1.1,2.5,.31,4.99,.47,7.5,.47s4.99-.15,7.5-.47c2.5-.31,5.08-.69,7.8-1.1-.41,2.72-.78,5.3-1.1,7.79-.31,2.5-.47,4.99-.47,7.49s.15,4.99,.47,7.49c.31,2.5,.69,5.08,1.1,7.79-2.72-.41-5.31-.78-7.8-1.1-2.5-.31-4.99-.47-7.5-.47s-4.99,.15-7.5,.47c-2.5,.31-5.08,.69-7.8,1.1Z"/><path class="cls-8" d="M485.89,223.42c-.66-2.67-1.32-5.19-1.98-7.61-.66-2.42-1.48-4.79-2.44-7.09-.96-2.3-2.06-4.55-3.3-6.73-1.24-2.18-2.58-4.44-4-6.78,2.67-.66,5.2-1.31,7.63-1.98,2.43-.66,4.8-1.48,7.1-2.43,2.31-.96,4.56-2.05,6.74-3.29,2.18-1.24,4.45-2.58,6.8-3.99,.66,2.66,1.32,5.19,1.98,7.61,.66,2.42,1.48,4.79,2.44,7.09,.96,2.3,2.06,4.55,3.3,6.73,1.24,2.18,2.58,4.44,4,6.78-2.67,.66-5.2,1.31-7.62,1.98-2.43,.66-4.8,1.48-7.1,2.44-2.3,.96-4.56,2.05-6.74,3.29s-4.45,2.58-6.8,3.99h0Z"/><path class="cls-6" d="M516.5,253.97c.41-2.72,.78-5.31,1.1-7.79,.31-2.5,.47-4.99,.47-7.49s-.15-4.99-.47-7.49c-.31-2.5-.69-5.07-1.1-7.79,2.72,.41,5.31,.78,7.8,1.1,2.5,.31,4.99,.47,7.5,.47s4.99-.15,7.5-.47c2.5-.31,5.08-.69,7.8-1.1-.41,2.72-.78,5.3-1.1,7.79-.31,2.5-.47,4.99-.47,7.49s.15,4.99,.47,7.49c.31,2.5,.69,5.08,1.1,7.79-2.72-.41-5.31-.78-7.8-1.1-2.5-.31-4.99-.47-7.5-.47s-4.99,.15-7.5,.47c-2.5,.31-5.08,.69-7.8,1.1Z"/><path class="cls-1" d="M547.1,223.42c-1.64-2.21-3.21-4.3-4.75-6.29-1.55-1.99-3.21-3.86-4.97-5.62-1.76-1.76-3.64-3.42-5.63-4.96-1.99-1.54-4.09-3.11-6.3-4.74,2.21-1.63,4.3-3.2,6.3-4.74,1.99-1.54,3.87-3.2,5.63-4.96,1.76-1.76,3.42-3.63,4.97-5.62,1.55-1.99,3.12-4.08,4.75-6.29,1.64,2.21,3.21,4.3,4.75,6.29s3.21,3.86,4.97,5.62c1.76,1.76,3.64,3.42,5.63,4.96,1.99,1.54,4.09,3.11,6.3,4.74-2.21,1.63-4.3,3.2-6.3,4.74-1.99,1.54-3.87,3.2-5.63,4.96-1.76,1.76-3.42,3.63-4.97,5.62-1.55,1.99-3.12,4.08-4.75,6.29h0Z"/><path class="cls-6" d="M547.1,180.21c-1.64-2.21-3.21-4.3-4.75-6.29-1.55-1.99-3.21-3.86-4.97-5.62-1.76-1.76-3.64-3.42-5.63-4.96-1.99-1.54-4.09-3.11-6.3-4.74,2.21-1.63,4.3-3.2,6.3-4.74,1.99-1.54,3.87-3.2,5.63-4.96,1.76-1.76,3.42-3.63,4.97-5.62,1.55-1.99,3.12-4.08,4.75-6.29,1.64,2.21,3.21,4.3,4.75,6.29s3.21,3.86,4.97,5.62c1.76,1.76,3.64,3.42,5.63,4.96,1.99,1.54,4.09,3.11,6.3,4.74-2.21,1.63-4.3,3.2-6.3,4.74-1.99,1.54-3.87,3.2-5.63,4.96-1.76,1.76-3.42,3.63-4.97,5.62-1.55,1.99-3.12,4.08-4.75,6.29Z"/><path class="cls-2" d="M590.4,223.42c-1.64-2.21-3.21-4.3-4.75-6.29-1.55-1.99-3.21-3.86-4.97-5.62-1.76-1.76-3.64-3.42-5.63-4.96-1.99-1.54-4.09-3.11-6.3-4.74,2.21-1.63,4.3-3.2,6.3-4.74,1.99-1.54,3.87-3.2,5.63-4.96,1.76-1.76,3.42-3.63,4.97-5.62s3.12-4.08,4.75-6.29c1.64,2.21,3.21,4.3,4.75,6.29,1.55,1.99,3.21,3.86,4.97,5.62,1.76,1.76,3.64,3.42,5.63,4.96,1.99,1.54,4.09,3.11,6.3,4.74-2.21,1.63-4.3,3.2-6.3,4.74-1.99,1.54-3.87,3.2-5.63,4.96-1.76,1.76-3.42,3.63-4.97,5.62-1.54,1.99-3.12,4.08-4.75,6.29h0Z"/><path class="cls-6" d="M599.35,306.14c-1.64-2.21-3.21-4.3-4.75-6.29-1.55-1.99-3.21-3.86-4.97-5.62-1.76-1.76-3.64-3.42-5.63-4.96s-4.09-3.11-6.3-4.74c2.21-1.63,4.3-3.2,6.3-4.74s3.87-3.2,5.63-4.96c1.76-1.76,3.42-3.63,4.97-5.62,1.55-1.99,3.12-4.08,4.75-6.29,1.64,2.21,3.21,4.3,4.75,6.29,1.54,1.99,3.21,3.86,4.97,5.62,1.76,1.76,3.64,3.42,5.63,4.96,1.99,1.54,4.09,3.11,6.3,4.74-2.21,1.63-4.3,3.2-6.3,4.74-1.99,1.54-3.87,3.2-5.63,4.96-1.76,1.76-3.42,3.63-4.97,5.62-1.55,1.99-3.12,4.08-4.75,6.29Z"/><path class="cls-6" d="M433.64,275.58c-1.64-2.21-3.21-4.3-4.75-6.29-1.55-1.99-3.21-3.86-4.97-5.62-1.76-1.76-3.64-3.42-5.63-4.96-1.99-1.54-4.09-3.11-6.3-4.74,2.21-1.63,4.3-3.2,6.3-4.74,1.99-1.54,3.87-3.2,5.63-4.96,1.76-1.76,3.42-3.63,4.97-5.62,1.55-1.99,3.12-4.08,4.75-6.29,1.64,2.21,3.21,4.3,4.75,6.29,1.55,1.99,3.21,3.86,4.97,5.62,1.76,1.76,3.64,3.42,5.63,4.96,1.99,1.54,4.09,3.11,6.3,4.74-2.21,1.63-4.3,3.2-6.3,4.74-1.99,1.54-3.87,3.2-5.63,4.96-1.76,1.76-3.42,3.63-4.97,5.62-1.55,1.99-3.12,4.08-4.75,6.29Z"/><path class="cls-7" d="M455.29,284.52c.41-2.72,.78-5.3,1.1-7.79,.31-2.5,.47-4.99,.47-7.48s-.15-4.99-.47-7.49c-.31-2.5-.69-5.07-1.1-7.79,2.72,.41,5.31,.78,7.8,1.1,2.5,.31,4.99,.47,7.5,.47s4.99-.15,7.5-.47c2.5-.31,5.08-.69,7.8-1.1-.41,2.72-.78,5.3-1.1,7.79-.31,2.5-.47,4.99-.47,7.49s.15,4.99,.47,7.48c.31,2.5,.69,5.08,1.1,7.79-2.72-.41-5.31-.78-7.8-1.1s-4.99-.47-7.5-.47-4.99,.15-7.5,.47c-2.5,.31-5.08,.69-7.8,1.1Z"/><path class="cls-5" d="M547.1,284.52c.41-2.72,.78-5.3,1.1-7.79,.31-2.5,.47-4.99,.47-7.48s-.15-4.99-.47-7.49c-.31-2.5-.69-5.07-1.1-7.79,2.72,.41,5.31,.78,7.8,1.1,2.5,.31,4.99,.47,7.5,.47s4.99-.15,7.5-.47c2.5-.31,5.08-.69,7.8-1.1-.41,2.72-.78,5.3-1.1,7.79-.31,2.5-.47,4.99-.47,7.49s.15,4.99,.47,7.48c.31,2.5,.69,5.08,1.1,7.79-2.72-.41-5.31-.78-7.8-1.1-2.5-.31-4.99-.47-7.5-.47s-4.99,.15-7.5,.47c-2.5,.31-5.08,.69-7.8,1.1h0Z"/><path class="cls-4" d="M485.89,315.09c.64-2.7,1.02-5.31,1.33-7.79,.31-2.5,.52-4.99,.52-7.49s-.2-4.99-.52-7.49c-.31-2.5-.7-5.09-1.33-7.79,2.71,.64,5.31,1.02,7.8,1.33,2.5,.31,4.99,.52,7.5,.52s4.99-.2,7.5-.52c2.5-.31,5.21-.7,7.8-1.33-.64,2.69-1.02,5.3-1.33,7.79-.31,2.5-.52,4.99-.52,7.49s.2,4.99,.52,7.49c.31,2.5,.7,5.13,1.33,7.79-2.71-.64-5.31-1.02-7.8-1.33-2.5-.31-4.99-.52-7.5-.52s-4.99,.2-7.5,.52c-2.5,.31-5.1,.7-7.8,1.33Z"/><path class="cls-8" d="M516.5,315.09c.64-2.7,1.02-5.31,1.33-7.79,.31-2.5,.52-4.99,.52-7.49s-.2-4.99-.52-7.49c-.31-2.5-.7-5.09-1.33-7.79,2.71,.64,5.31,1.02,7.8,1.33,2.5,.31,4.99,.52,7.5,.52s4.99-.2,7.5-.52c2.5-.31,5.21-.7,7.8-1.33-.64,2.69-1.02,5.3-1.33,7.79-.31,2.5-.52,4.99-.52,7.49s.21,4.99,.52,7.49c.31,2.5,.7,5.13,1.33,7.79-2.71-.64-5.31-1.02-7.8-1.33-2.5-.31-4.99-.52-7.5-.52s-4.99,.2-7.5,.52c-2.5,.31-5.1,.7-7.8,1.33Z"/><path class="cls-4" d="M485.89,284.52c.64-2.7,1.02-5.3,1.33-7.79,.31-2.5,.52-4.99,.52-7.48s-.2-4.99-.52-7.49c-.31-2.5-.7-5.09-1.33-7.79,2.71,.64,5.31,1.02,7.8,1.33,2.5,.31,4.99,.52,7.5,.52s4.99-.2,7.5-.52c2.5-.31,5.21-.7,7.8-1.33-.64,2.69-1.02,5.3-1.33,7.79-.31,2.5-.52,4.99-.52,7.49s.2,4.99,.52,7.48c.31,2.5,.7,5.13,1.33,7.79-2.71-.64-5.31-1.02-7.8-1.33-2.5-.31-4.99-.52-7.5-.52s-4.99,.2-7.5,.52c-2.5,.31-5.1,.7-7.8,1.33Z"/><path class="cls-4" d="M516.5,284.52c.64-2.7,1.02-5.3,1.33-7.79,.31-2.5,.52-4.99,.52-7.48s-.2-4.99-.52-7.49c-.31-2.5-.7-5.09-1.33-7.79,2.71,.64,5.31,1.02,7.8,1.33,2.5,.31,4.99,.52,7.5,.52s4.99-.2,7.5-.52c2.5-.31,5.21-.7,7.8-1.33-.64,2.69-1.02,5.3-1.33,7.79-.31,2.5-.52,4.99-.52,7.49s.21,4.99,.52,7.48c.31,2.5,.7,5.13,1.33,7.79-2.71-.64-5.31-1.02-7.8-1.33-2.5-.31-4.99-.52-7.5-.52s-4.99,.2-7.5,.52c-2.5,.31-5.1,.7-7.8,1.33Z"/><path class="cls-4" d="M516.5,315.08c.24,2.8,.87,5.38,1.53,7.8s1.39,4.83,2.34,7.13c.96,2.31,2.15,4.51,3.4,6.7,1.25,2.19,2.64,4.49,4.45,6.61-2.82,.26-5.39,.87-7.82,1.53s-4.84,1.39-7.14,2.33c-2.31,.96-4.52,2.14-6.71,3.39-2.2,1.24-4.43,2.61-6.62,4.44-.26-2.82-.87-5.38-1.53-7.8-.66-2.42-1.39-4.83-2.34-7.13-.95-2.29-2.15-4.51-3.4-6.7-1.25-2.19-2.62-4.42-4.45-6.6,2.82-.26,5.39-.87,7.82-1.53s4.84-1.39,7.14-2.33c2.3-.94,4.52-2.14,6.71-3.39,2.2-1.24,4.64-2.7,6.62-4.44Z"/></g></g></svg>