<svg width="35" height="35" viewBox="0 0 35 35" fill="none" xmlns="http://www.w3.org/2000/svg">
<g clip-path="url(#clip0_53_642)">
<path d="M21.9287 21.9456H20.8725V21.3588C20.8725 21.1241 21.1072 20.8894 21.3419 20.8894H21.4592C21.694 20.8894 21.9287 21.1241 21.9287 21.3588V21.9456ZM18.0559 20.6547C17.8212 20.6547 17.5865 20.772 17.5865 21.0067V23.9406C17.5865 24.1754 17.8212 24.4101 18.0559 24.2927C18.2906 24.2927 18.5253 24.1754 18.5253 23.9406V21.1241C18.5253 20.772 18.2906 20.6547 18.0559 20.6547ZM24.3932 19.0117V24.5274C24.3932 25.9357 23.2196 26.9919 21.8113 26.9919H11.2492C9.84093 26.9919 8.66736 25.9357 8.66736 24.5274V19.0117C8.66736 17.6034 9.84093 16.5472 11.2492 16.5472H21.8113C23.2196 16.5472 24.2758 17.7207 24.3932 19.0117ZM11.9533 25.2316V19.3637H13.2443V18.4249H9.72357V19.2464H10.7798V25.1142L11.9533 25.2316ZM15.8261 20.1852H14.7699V23.2365C14.7699 23.7059 14.7699 23.9406 14.7699 23.9406C14.6525 24.1754 14.3005 24.4101 14.0658 23.9406C14.0658 23.8233 14.0658 23.5886 14.0658 23.2365V20.0679H13.0096V23.1191C13.0096 23.5886 13.0096 23.9406 13.0096 24.058C13.0096 24.2927 13.0096 24.6448 13.2443 24.8795C13.7137 25.2316 14.6526 24.7621 14.8873 24.2927V24.9969H15.7088L15.8261 20.1852ZM19.3468 23.8233V21.2414C19.3468 20.3026 18.6427 19.5984 17.5865 20.4199V18.5422H16.5303V25.2316H17.4691L17.5865 24.7621C18.6427 25.701 19.3468 24.9969 19.3468 23.8233ZM22.7502 23.4712H21.9287V24.058C21.9287 24.2927 21.694 24.5274 21.4592 24.5274H21.3419C21.1072 24.5274 20.8725 24.2927 20.8725 24.058V22.8844H22.7502V22.1803C22.7502 21.7109 22.7502 21.3588 22.6328 20.8894C22.5154 19.9505 21.2245 19.8332 20.5204 20.3026C20.2857 20.4199 20.1683 20.6547 20.051 20.8894C20.051 21.1241 20.051 21.4762 20.051 21.9456V23.4712C20.051 26.0531 23.1022 25.701 22.7502 23.4712ZM18.5253 15.0215C18.6427 15.1389 18.76 15.2562 18.8774 15.3736C18.9947 15.491 19.1121 15.491 19.3468 15.491C19.4642 15.491 19.6989 15.491 19.8162 15.3736C19.8162 15.2562 19.9336 15.1389 20.051 15.0215V15.491H21.2245V10.2099H20.2857V14.2C20.2857 14.4347 20.051 14.5521 19.9336 14.5521C19.6989 14.5521 19.5815 14.3174 19.5815 14.2V10.2099H18.408V13.7306C18.408 14.2 18.408 14.4347 18.408 14.6695C18.5253 14.7868 18.5253 14.9042 18.5253 15.0215ZM14.8873 12.0876C14.8873 11.7355 14.8873 11.2661 15.0046 10.914C15.122 10.6793 15.2393 10.4446 15.474 10.2099C15.7088 10.0926 15.9435 9.97519 16.2955 9.97519C16.5303 9.97519 16.765 9.97519 16.9997 10.0926C17.2344 10.2099 17.3518 10.3273 17.4691 10.562C17.5865 10.7967 17.7038 11.0314 17.7038 11.1488C17.7038 11.5008 17.8212 11.7355 17.8212 11.9703V13.2612C17.8212 13.7306 17.7038 14.0827 17.7038 14.4347C17.7038 14.6695 17.5865 14.9042 17.4691 15.0215C17.3518 15.1389 17.2344 15.3736 16.9997 15.491C16.765 15.491 16.5303 15.6083 16.2955 15.6083C16.0608 15.6083 15.8261 15.6083 15.5914 15.491C15.474 15.3736 15.3567 15.2562 15.2393 15.1389C15.122 14.9042 15.0046 14.7868 15.0046 14.5521C15.0046 14.2 14.8873 13.848 14.8873 13.4959V12.0876ZM15.8261 14.2C15.8261 14.4347 16.0608 14.6695 16.2955 14.6695C16.5303 14.6695 16.765 14.4347 16.765 14.2C16.765 14.2 16.765 14.2 16.765 14.0827V11.3835C16.765 11.1488 16.5303 10.914 16.2955 10.914C16.0608 10.914 15.8261 11.1488 15.8261 11.3835C15.8261 11.3835 15.8261 11.3835 15.8261 11.5008V14.2ZM12.5401 15.6083H13.7137V11.6182L15.0046 8.21484H13.7137L13.0096 10.7967L12.3054 8.21484H11.1318L12.5401 11.6182V15.6083Z" fill="#F3F3F3"/>
</g>
<defs>
<clipPath id="clip0_53_642">
<rect width="18.7771" height="18.7771" fill="white" transform="translate(7.14172 8.21484)"/>
</clipPath>
</defs>
</svg>
