<svg width="35" height="35" viewBox="0 0 35 35" fill="none" xmlns="http://www.w3.org/2000/svg">
<g clip-path="url(#clip0_53_628)">
<path d="M16.4634 9.85784C18.9279 9.85784 19.2799 9.85784 20.2188 9.85784C20.8056 9.85784 21.3923 9.97519 21.9791 10.2099C22.3312 10.3273 22.8006 10.562 23.0353 10.914C23.3874 11.2661 23.6221 11.6182 23.7395 11.9703C23.9742 12.557 24.0916 13.1438 24.0916 13.7306C24.0916 14.6695 24.0916 15.0215 24.0916 17.486C24.0916 19.9505 24.0916 20.3026 24.0916 21.2414C24.0916 21.8282 23.9742 22.415 23.7395 23.0018C23.6221 23.3539 23.3874 23.8233 23.0353 24.058C22.6833 24.4101 22.3312 24.6448 21.9791 24.7621C21.3923 24.9969 20.8056 25.1142 20.2188 25.1142C19.2799 25.1142 18.9279 25.1142 16.4634 25.1142C13.9989 25.1142 13.6468 25.1142 12.708 25.1142C12.1212 25.1142 11.5344 24.9969 10.9476 24.7621C10.5955 24.6448 10.1261 24.4101 9.89139 24.058C9.53932 23.7059 9.30461 23.3539 9.18725 23.0018C8.95254 22.415 8.83518 21.8282 8.83518 21.2414C8.83518 20.3026 8.83518 19.9505 8.83518 17.486C8.83518 15.0215 8.83518 14.6695 8.83518 13.7306C8.83518 13.1438 8.95254 12.557 9.18725 11.9703C9.30461 11.6182 9.53932 11.1488 9.89139 10.914C10.2435 10.562 10.5955 10.3273 10.9476 10.2099C11.5344 9.97519 12.1212 9.85784 12.708 9.85784C13.6468 9.85784 13.9989 9.85784 16.4634 9.85784ZM16.4634 8.21484C13.8815 8.21484 13.6468 8.21484 12.5906 8.21484C11.7691 8.3322 11.065 8.44956 10.3608 8.68427C9.77403 8.91898 9.18725 9.27105 8.71782 9.74048C8.13104 10.2099 7.77897 10.7967 7.54426 11.5008C7.30954 12.205 7.19219 12.9091 7.07483 13.7306C7.07483 14.7868 7.07483 15.0215 7.07483 17.6034C7.07483 20.1852 7.07483 20.4199 7.07483 21.4762C7.07483 22.2976 7.19219 23.0018 7.54426 23.7059C7.77897 24.2927 8.13104 24.8795 8.60047 25.3489C9.06989 25.8183 9.65668 26.1704 10.2435 26.4051C11.065 26.7572 11.7691 26.8746 12.5906 26.9919C13.6468 26.9919 13.8815 26.9919 16.4634 26.9919C19.0452 26.9919 19.2799 26.9919 20.3361 26.9919C21.1576 26.9919 21.8618 26.8746 22.5659 26.5225C23.1527 26.2878 23.7395 25.9357 24.2089 25.4663C24.6783 24.9969 25.0304 24.4101 25.2651 23.8233C25.4998 23.1191 25.7345 22.2976 25.7345 21.5935C25.7345 20.5373 25.7345 20.3026 25.7345 17.7207C25.7345 15.1389 25.7345 14.9042 25.7345 13.848C25.7345 13.0265 25.6172 12.3223 25.2651 11.6182C25.0304 11.0314 24.6783 10.4446 24.2089 9.97519C23.7395 9.50577 23.1527 9.1537 22.5659 8.91898C21.8618 8.44956 21.1576 8.3322 20.3361 8.21484C19.2799 8.21484 19.0452 8.21484 16.4634 8.21484Z" fill="#F3F3F3"/>
<path d="M16.4633 12.7915C13.7641 12.7915 11.6517 14.9039 11.6517 17.6031C11.6517 20.3023 13.7641 22.4148 16.4633 22.4148C19.1625 22.4148 21.2749 20.3023 21.2749 17.6031C21.2749 14.9039 19.1625 12.7915 16.4633 12.7915ZM16.4633 20.7718C14.7029 20.7718 13.2947 19.3635 13.2947 17.6031C13.2947 15.8428 14.7029 14.4345 16.4633 14.4345C18.2236 14.4345 19.6319 15.8428 19.6319 17.6031C19.6319 19.3635 18.2236 20.7718 16.4633 20.7718Z" fill="#F3F3F3"/>
<path d="M21.5097 13.7304C22.1579 13.7304 22.6833 13.205 22.6833 12.5569C22.6833 11.9087 22.1579 11.3833 21.5097 11.3833C20.8616 11.3833 20.3362 11.9087 20.3362 12.5569C20.3362 13.205 20.8616 13.7304 21.5097 13.7304Z" fill="#F3F3F3"/>
</g>
<defs>
<clipPath id="clip0_53_628">
<rect width="18.7771" height="18.7771" fill="white" transform="translate(7.07483 8.21484)"/>
</clipPath>
</defs>
</svg>
