<svg width="35" height="35" viewBox="0 0 35 35" fill="none" xmlns="http://www.w3.org/2000/svg">
<g clip-path="url(#clip0_53_635)">
<path d="M26.7068 11.6752C26.0521 11.9558 25.3039 12.1428 24.5557 12.2363C25.3039 11.7687 25.9586 11.0205 26.2392 10.1787C25.491 10.6464 24.6492 10.9269 23.8075 11.114C22.4045 9.61755 19.9728 9.52402 18.4764 10.9269C17.7281 11.6752 17.2605 12.6104 17.2605 13.6393C17.2605 13.9198 17.2605 14.2004 17.354 14.481C14.2676 14.3875 11.4618 12.9846 9.59121 10.6464C8.56241 12.3299 9.03004 14.5745 10.7135 15.6969C10.1524 15.6969 9.49768 15.5098 9.03004 15.2292V15.3228C9.03004 17.0998 10.3394 18.6898 12.0229 19.0639C11.7424 19.1574 11.3682 19.1574 10.9941 19.1574C10.7135 19.1574 10.5265 19.1574 10.2459 19.0639C10.7135 20.5603 12.1165 21.6827 13.8 21.6827C12.4906 22.7115 10.8071 23.2726 9.12357 23.2726C8.84299 23.2726 8.56241 23.2726 8.18829 23.1791C9.8718 24.3014 11.9294 24.8626 13.987 24.8626C19.8793 24.8626 24.7427 20.1862 24.7427 14.2939C24.7427 14.2004 24.7427 14.2004 24.7427 14.1069V13.6393C25.5845 13.1716 26.1457 12.4234 26.7068 11.6752Z" fill="#F3F3F3"/>
</g>
<defs>
<clipPath id="clip0_53_635">
<rect width="18.425" height="18.425" fill="white" transform="translate(8.28186 8.21484)"/>
</clipPath>
</defs>
</svg>
