<?xml version="1.0" encoding="UTF-8"?><svg id="Layer_2" xmlns="http://www.w3.org/2000/svg" viewBox="0 0 35 35"><defs><style>.cls-1{fill:none;}.cls-2{fill:#1da1f2;}</style></defs><g id="Layer_1-2"><g><rect class="cls-1" width="35" height="35"/><path class="cls-2" d="M26.71,11.68c-.65,.28-1.4,.47-2.15,.56,.75-.47,1.4-1.22,1.68-2.06-.75,.47-1.59,.75-2.43,.94-1.4-1.5-3.83-1.59-5.33-.19-.75,.75-1.22,1.68-1.22,2.71,0,.28,0,.56,.09,.84-3.09-.09-5.89-1.5-7.76-3.83-1.03,1.68-.56,3.93,1.12,5.05-.56,0-1.22-.19-1.68-.47v.09c0,1.78,1.31,3.37,2.99,3.74-.28,.09-.65,.09-1.03,.09-.28,0-.47,0-.75-.09,.47,1.5,1.87,2.62,3.55,2.62-1.31,1.03-2.99,1.59-4.68,1.59-.28,0-.56,0-.94-.09,1.68,1.12,3.74,1.68,5.8,1.68,5.89,0,10.76-4.68,10.76-10.57v-.65c.84-.47,1.4-1.22,1.96-1.96Z"/></g></g></svg>