<svg width="35" height="35" viewBox="0 0 35 35" fill="none" xmlns="http://www.w3.org/2000/svg">
<path d="M21.4763 8.22038H19.0118C16.6647 8.10303 14.6696 9.86338 14.5523 12.2105C14.5523 12.4452 14.5523 12.5626 14.5523 12.7973V14.9097H12.0878C11.8531 14.9097 11.7357 15.0271 11.7357 15.2618V18.3131C11.7357 18.6651 11.8531 18.7825 12.0878 18.7825H14.5523V26.528C14.5523 26.7627 14.6696 26.8801 14.9043 26.8801H18.073C18.3077 26.8801 18.425 26.7627 18.425 26.528V18.7825H21.2416C21.4763 18.7825 21.5937 18.6651 21.5937 18.4304V15.3791C21.5937 15.1444 21.359 15.0271 21.2416 15.0271H18.5424V13.1494C18.5424 12.3279 18.7771 11.8584 19.8333 11.8584H21.4763C21.711 11.8584 21.8284 11.7411 21.8284 11.5064V8.57246C21.8284 8.33774 21.711 8.22038 21.4763 8.22038Z" fill="#F3F3F3"/>
</svg>
