<?xml version="1.0" encoding="UTF-8"?><svg id="Layer_2" xmlns="http://www.w3.org/2000/svg" viewBox="0 0 235 159.9"><g id="Layer_2-2"><g id="Layer_1-2"><g><path d="M2.5,138.9v-12.1H0v-1.4H6.5v1.4h-2.5v12.1h-1.5Zm6.8-6.1v6.1h-1.5v-13.5h1.5v6.1h3.3v-6.1h1.5v13.5h-1.5v-6.1h-3.3Zm11.2-1.4v1.4h-3.2v4.8h4.1v1.4h-5.6v-13.5h5.6v1.4h-4.1v4.6l3.2-.1h0Zm6.9,7.5h-1.4v-13.5h1.9l3.1,9.8v-9.8h1.3v13.5h-1.6l-3.4-10.9v10.9h.1Zm11.4-7.5v1.4h-3.3v4.8h4.1v1.4h-5.6v-13.5h5.6v1.4h-4.1v4.6l3.3-.1h0Zm6,7.5h-2.1l-1.9-13.5h1.5l1.6,11.5,1.5-11.5h1.5l1.5,11.5,1.5-11.5h1.3l-1.8,13.5h-2l-1.3-9.1-1.3,9.1h0Zm17-10.3v1.2h-1.4v-1.3c0-1.2-.5-1.9-1.6-1.9s-1.6,.7-1.6,1.9v7.1c0,1.2,.5,1.9,1.6,1.9s1.6-.7,1.6-1.9v-1.8h1.4v1.7c0,2-1,3.4-3,3.4s-3-1.4-3-3.4v-7c0-2,1-3.4,3-3.4s3,1.5,3,3.5h0Zm1.5,0c0-2.1,1-3.4,3.1-3.4s3.1,1.3,3.1,3.4v7c0,2-1,3.4-3.1,3.4s-3.1-1.4-3.1-3.4v-7Zm1.4,7.1c0,1.2,.5,1.9,1.6,1.9s1.6-.7,1.6-1.9v-7.1c0-1.2-.5-1.9-1.6-1.9s-1.6,.7-1.6,1.9v7.1Zm7.6,3.2h-1.4v-13.5h1.9l3.1,9.8v-9.8h1.3v13.5h-1.6l-3.5-10.9,.2,10.9h0Zm8.9,0v-12.1h-2.5v-1.4h6.5v1.4h-2.5v12.1h-1.5Zm10.1-7.5v1.4h-3.3v4.8h4v1.4h-5.5v-13.5h5.5v1.4h-4v4.6l3.3-.1h0Zm5.8,1.7l-2.2,5.8h-1.4l2.7-7-2.5-6.5h1.6l2.1,5.4,2.1-5.4h1.4l-2.5,6.5,2.7,7h-1.8l-2.2-5.8h0Zm7.3,5.8v-12.1h-2.5v-1.4h6.5v1.4h-2.5v12.1h-1.5Zm14.4-10.3v1.2h-1.4v-1.3c0-1.2-.5-1.9-1.6-1.9s-1.6,.7-1.6,1.9v7.1c0,1.2,.5,1.9,1.6,1.9s1.6-.7,1.6-1.9v-1.8h1.4v1.7c0,2-1,3.4-3,3.4s-3-1.4-3-3.4v-7c0-2,1-3.4,3-3.4s3,1.5,3,3.5h0Zm1.4,0c0-2.1,1-3.4,3.1-3.4s3.1,1.3,3.1,3.4v7c0,2-1,3.4-3.1,3.4s-3.1-1.4-3.1-3.4v-7Zm1.5,7.1c0,1.2,.5,1.9,1.6,1.9s1.6-.7,1.6-1.9v-7.1c0-1.2-.5-1.9-1.6-1.9s-1.6,.7-1.6,1.9v7.1Zm7.6,3.2h-1.4v-13.5h1.9l3.1,9.8v-9.8h1.3v13.5h-1.6l-3.5-10.9,.2,10.9h0Zm11.3-7.2v1.4h-3.1v5.8h-1.5v-13.5h5.4v1.4h-3.9v4.9h3.1Zm6.9-.3v1.4h-3.3v4.8h4v1.4h-5.5v-13.5h5.5v1.4h-4v4.6l3.3-.1h0Zm5.3-6c2.1,0,3,1.1,3,3.1v1.1c0,1.5-.5,2.4-1.7,2.8,1.2,.4,1.7,1.4,1.7,2.8v2.1c0,.6,0,1.2,.3,1.6h-1.5c-.2-.4-.2-.7-.2-1.6v-2.1c0-1.5-.7-2-2-2h-1.1v5.8h-1.5v-13.5h3v-.1Zm-.4,6.3c1.2,0,1.9-.4,1.9-1.9v-1.3c0-1.2-.4-1.9-1.6-1.9h-1.4v5h1.1v.1Zm9.9-.3v1.4h-3.3v4.8h4v1.4h-5.5v-13.5h5.5v1.4h-4v4.6l3.3-.1h0Zm3.6,7.5h-1.4v-13.5h1.9l3.1,9.8v-9.8h1.3v13.5h-1.6l-3.5-10.9,.2,10.9h0Zm12.7-10.3v1.2h-1.4v-1.3c0-1.2-.5-1.9-1.6-1.9s-1.6,.7-1.6,1.9v7.1c0,1.2,.5,1.9,1.6,1.9s1.6-.7,1.6-1.9v-1.8h1.4v1.7c0,2-1,3.4-3,3.4s-3-1.4-3-3.4v-7c0-2,1-3.4,3-3.4s3,1.5,3,3.5h0Zm6.2,2.8v1.4h-3.3v4.8h4v1.4h-5.5v-13.5h5.5v1.4h-4v4.6l3.3-.1h0ZM3.1,159.7v-13.1H.2v-.4H6.5v.4H3.6v13.1h-.5Zm4.5-10.1c0-1.9,.8-3.4,2.9-3.4s2.9,1.5,2.9,3.4v6.9c0,1.9-.8,3.4-2.9,3.4s-2.9-1.5-2.9-3.4v-6.9Zm.4,6.8c0,1.7,.6,3,2.4,3s2.5-1.4,2.5-3v-6.9c0-1.7-.7-3-2.5-3s-2.4,1.4-2.4,3v6.9Zm8.4-3.4l-1,1.5v5.2h-.4v-13.5h.4v7.6l5-7.6h.5l-4.2,6.4,4.5,7.1h-.5l-4.3-6.7h0Zm9.4,1.3l-3.1-8h.4l2.9,7.5,2.9-7.5h.4l-3.2,8v5.4h-.4v-5.4h.1Zm4.9-4.7c0-2.2,1-3.4,2.9-3.4s2.9,1.2,2.9,3.4v6.9c0,2.2-1,3.4-2.9,3.4s-2.9-1.2-2.9-3.4v-6.9Zm.4,6.8c0,2,.8,3,2.4,3s2.5-1,2.5-3v-6.9c0-2-.9-3-2.5-3s-2.4,1-2.4,3v6.9Zm15.8-6.8c0,3.8-5.1,5-5.2,9.7v.1h5.1v.4h-5.5v-.3c0-5.1,5.2-6.2,5.2-9.8,0-1.7-.5-3.1-2.4-3.1s-2.4,1.5-2.4,3.1v.7h-.4v-.7c0-1.9,.7-3.5,2.8-3.5s2.8,1.5,2.8,3.4h0Zm1.7,0c0-1.9,.8-3.4,2.9-3.4s2.9,1.5,2.9,3.4v6.9c0,1.9-.8,3.4-2.9,3.4s-2.9-1.5-2.9-3.4v-6.9Zm.4,6.8c0,1.7,.7,3,2.5,3s2.5-1.4,2.5-3v-6.9c0-1.7-.7-3-2.5-3s-2.5,1.4-2.5,3v6.9Zm12.6-6.8c0,3.8-5.1,5-5.2,9.7v.1h5.1v.4h-5.5v-.3c0-5.1,5.2-6.2,5.2-9.8,0-1.7-.5-3.1-2.4-3.1s-2.4,1.5-2.4,3.1v.7h-.4v-.7c0-1.9,.7-3.5,2.8-3.5s2.8,1.5,2.8,3.4h0Zm7.3,0c0,3.8-5.1,5-5.2,9.7v.1h5.1v.4h-5.5v-.3c0-5.1,5.2-6.2,5.2-9.8,0-1.7-.5-3.1-2.4-3.1s-2.4,1.5-2.4,3.1v.7h-.4v-.7c0-1.9,.7-3.5,2.8-3.5s2.8,1.5,2.8,3.4h0Zm9.1,3.3v.4h-3.8v6.3h-.4v-13.5h5v.4h-4.5v6.4h3.7Zm3.9,1.5c.6-.1,1.5-.3,2-.5s.8-.5,.8-1.6c0-.9-.1-1.2-.4-1.6-.3-.4-.9-.7-1.6-.7-2.2,0-2.3,1.8-2.3,2.6h-.4v-.3c0-1.3,.8-2.6,2.6-2.6,1.3,0,2.4,.7,2.4,2.3v6.4c0,.7,.2,.9,.6,.9h.4v.3h-.5c-.5,0-.9-.2-.9-1.3v-.4h0c-.4,1.1-1.3,1.9-2.5,1.9-1.6,0-2.5-1.1-2.5-2.8,0-1.5,.9-2.3,2.3-2.6h0Zm2.7-.6c-.3,.4-.9,.6-2.5,.9-1.5,.3-2.1,1.1-2.1,2.4,0,1.6,.9,2.4,2.1,2.4,1,0,2.5-.9,2.5-3.4v-2.3Zm2.7-7.6h.4v13.4h-.4v-13.4Zm2.5,0h.4v13.4h-.4v-13.4Z"/><path d="M14.5,27.9c-1.9,0-4.9-.1-6.7-.1-1.1,0-2.9,0-4.2,.1,.2-3.3,.3-7.6,.3-11.1v-4.7c0-3.6-.1-7.9-.3-11.1,1.1,0,3,.1,4.2,.1,1.9,0,4.7-.1,6.7-.1,9.4,0,14.3,3.4,14.3,12.9,0,10.3-7.5,14-14.3,14h0ZM13.5,2.6c-1.9,0-3.9,.2-5.5,.4-.2,2.4-.2,6.4-.2,9v4.7c0,2.5,0,6.8,.2,9.1,1.1,.2,2.9,.4,4.7,.4,5.4,0,11.4-2.1,11.4-12.3,0-9.1-4.5-11.3-10.6-11.3h0Zm35,14.1c0,.4,0,1-.1,1.5l-.2,.2c-3,0-6.4-.1-8.5-.1h-4.5v1c0,4,2.2,7.2,6.6,7.2,2.4,0,4.5-1,5.8-2.5l.4,.2c-.2,.7-.4,1.7-.4,2.2-1.6,1.1-4.1,1.9-6.8,1.9-6,0-9.7-3.7-9.7-9.8s3.5-10.1,9.4-10.1c5.5,.2,8,4,8,8.3h0Zm-8.2-6.6c-3.7,0-4.9,4-5.1,6.8h4.1c1.7,0,4.2,0,5.3-.1,0-2.8-.5-6.7-4.3-6.7h0Zm15.5,18.2c-2,0-4.1-.6-5.1-1.1,.1-.9,.4-2.4,.8-3.6h.6c.5,2.1,2.3,3.2,4.3,3.2s3.8-1,3.8-3.4c0-2.2-1.3-2.9-4.2-3.9-2.4-.8-4.5-1.9-4.5-5.2,0-4.1,3.7-5.6,6.6-5.6,1.9,0,3.9,.4,4.9,.9-.3,.8-.7,2.3-.9,3.4h-.6c-.4-1.7-1.3-2.9-3.5-2.9-1.7,0-3.3,.9-3.3,3,0,1.9,1.3,2.7,3.6,3.4,3.3,1,5.2,2.4,5.2,5.3,0,4.4-3.6,6.5-7.7,6.5h0Zm13.3-23.7c-1.3,0-2.3-1.1-2.3-2.3s1-2.3,2.3-2.3,2.3,1.1,2.3,2.3-1,2.3-2.3,2.3Zm0,23.2c-.7,0-1.6,0-2.1,.1,.2-2.2,.3-6.6,.3-9v-1.7c0-2.4-.1-5.8-.3-8.1,.5,0,1.4,.1,2.1,.1s1.6,0,2.1-.1c-.2,2.3-.3,5.7-.3,8.1v1.7c0,2.4,.1,6.7,.3,9-.5-.1-1.4-.1-2.1-.1Zm9.2-.4c-1.6-.4-2.8-1.3-2.8-2.9,0-2.1,1.8-3.1,3.6-3.5v-.1c-2.2-.7-4.1-2.5-4.1-5.5,0-4.8,3.3-6.8,7.9-6.8,1.1,0,2.5,.2,3.8,.5,.5,.1,1.5,.2,2.1,.2l4.3-.2v1.5h-4.1v.1c1.2,.8,1.6,2.2,1.6,3.9,0,4.2-3.1,6.6-7.6,6.6-.7,0-1.3,0-1.9-.1-1.3-.2-2.4,.6-2.4,1.9,0,1.5,1.5,1.7,5.8,1.8,4.9,.1,8.1,1,8.1,5.4s-3.6,8.2-10,8.2c-4.1,0-8.7-1.5-8.7-6.4,0-1.4,.5-2.6,1.1-3.3,1-.5,2-1,3.2-1.4l.1,.1h0Zm4.4,.4c-1,0-2.3-.1-3.3-.2-1.3,.5-2.5,1.8-2.5,4.3,0,4,2.9,5.2,5.6,5.2,3,0,6.4-1.5,6.4-5.3,.2-3-1.9-3.8-6.2-4h0Zm.1-17.7c-2.9,0-3.9,2.1-3.9,5.1s1.3,4.9,4,4.9,4-2.2,4-5.1c-.1-3.1-1.3-4.9-4.1-4.9h0Zm27.6,17.7c-.8,0-1.6,0-2.1,.1,.2-2.5,.2-7,.2-10v-1.2c0-2.6-.5-5.7-4-5.7-3.2,0-5,2.3-5,6.2v2.6c0,2.4,.1,5.7,.3,8-.5,0-1.4-.1-2.1-.1s-1.5,0-2.1,.1c.2-2.2,.3-6.6,.3-9v-1.7c0-2.4-.1-5.5-.3-8.1,.8,0,1.4,.1,2.1,.1s1.4,0,1.9-.1c-.1,.9-.1,2-.1,3.2h.2c1.4-2.2,3.6-3.6,6.2-3.6,5,0,6.4,3,6.4,6.8,0,1.3-.1,3.2-.1,5v.5c0,1.7,.1,5.2,.2,6.8-.5,.1-1.3,.1-2,.1h0Zm8.7-23.2c-1.3,0-2.3-1.1-2.3-2.3s1-2.3,2.3-2.3,2.3,1.1,2.3,2.3-1,2.3-2.3,2.3Zm0,23.2c-.7,0-1.6,0-2.1,.1,.2-2.2,.3-6.6,.3-9v-1.7c0-2.4-.1-5.8-.3-8.1,.5,0,1.4,.1,2.1,.1s1.6,0,2.1-.1c-.2,2.3-.3,5.7-.3,8.1v1.7c0,2.4,.1,6.7,.3,9-.5-.1-1.4-.1-2.1-.1Zm20.6,0c-.8,0-1.6,0-2.1,.1,.2-2.5,.2-7,.2-10v-1.2c0-2.6-.5-5.7-4-5.7-3.2,0-5,2.3-5,6.2v2.6c0,2.4,.1,5.7,.3,8-.5,0-1.4-.1-2.1-.1s-1.5,0-2.1,.1c.2-2.2,.3-6.6,.3-9v-1.7c0-2.4-.1-5.5-.3-8.1,.8,0,1.4,.1,2.1,.1s1.4,0,1.9-.1c-.1,.9-.1,2-.1,3.2h.2c1.4-2.2,3.6-3.6,6.2-3.6,5,0,6.4,3,6.4,6.8,0,1.3-.1,3.2-.1,5v.5c0,1.7,.1,5.2,.2,6.8-.5,.1-1.3,.1-2,.1h0Zm8-.4c-1.6-.4-2.8-1.3-2.8-2.9,0-2.1,1.8-3.1,3.6-3.5v-.1c-2.2-.7-4.1-2.5-4.1-5.5,0-4.8,3.3-6.8,7.9-6.8,1.1,0,2.5,.2,3.8,.5,.5,.1,1.5,.2,2.1,.2l4.3-.2v1.5h-4.1v.1c1.2,.8,1.6,2.2,1.6,3.9,0,4.2-3.1,6.6-7.6,6.6-.7,0-1.3,0-1.9-.1-1.3-.2-2.4,.6-2.4,1.9,0,1.5,1.5,1.7,5.8,1.8,4.9,.1,8.1,1,8.1,5.4s-3.6,8.2-10,8.2c-4.1,0-8.7-1.5-8.7-6.4,0-1.4,.5-2.6,1.1-3.3,1-.5,2-1,3.2-1.4l.1,.1h0Zm4.5,.4c-1,0-2.3-.1-3.3-.2-1.3,.5-2.5,1.8-2.5,4.3,0,4,2.9,5.2,5.6,5.2,3,0,6.4-1.5,6.4-5.3,.1-3-1.9-3.8-6.2-4h0Zm0-17.7c-2.9,0-3.9,2.1-3.9,5.1s1.3,4.9,4,4.9,4-2.2,4-5.1c-.1-3.1-1.2-4.9-4.1-4.9h0Zm33.8,18.4c-8.6,0-14.3-5.5-14.3-14.1S177.4,.3,186,.3s14.3,5.4,14.3,14.1-5.7,14.1-14.3,14.1Zm0-26.6c-5.8,0-9.7,4.1-9.7,12.5s3.9,12.4,9.7,12.4,9.7-4.2,9.7-12.4-3.9-12.5-9.7-12.5Zm31.4,25.9c-.7,0-1.4,0-1.9,.1,.1-1,.1-2.1,.1-3.2h-.2c-1.4,2.1-3.7,3.5-6.4,3.5-5,0-6.4-3-6.4-6.8,0-1.3,.1-3.2,.1-5v-.5c0-1.7-.1-5.2-.2-6.8,.5,0,1.3,.1,2.1,.1,.7,0,1.5,0,2-.1-.1,2.4-.2,7-.2,9.9v1.1c0,2.7,.5,5.7,3.9,5.7s5.1-2.5,5.1-6.2v-2.6c0-2.4-.1-5.7-.3-8,.5,0,1.4,.1,2.1,.1s1.5,0,2.1-.1c-.2,2.2-.3,6.6-.3,9v1.7c0,2.4,.1,5.5,.3,8.1h-1.9Zm16.4-15.4h-.3c-.5-.4-1.4-.6-2.2-.6-2.8,0-4.1,2.6-4.1,5.8v1.5c0,2.4,.1,6.4,.3,8.7-.5,0-1.4-.1-2.1-.1s-1.6,0-2.1,.1c.2-2.2,.3-6.6,.3-9v-1.7c0-2.4-.1-5.7-.3-8.1,.5,0,1.4,.1,2.1,.1s1.5,0,1.9-.1c-.1,.9-.2,2.8-.2,4h.2c1.4-2.8,3.2-4.3,5.6-4.3,.8,0,1.5,.1,2,.3l.1,.2c-.6,.9-1,2.4-1.2,3.2h0ZM25.6,55.1v3.2c0,4,.1,7.8,.2,10h-1.9c-3.2-4.2-10.7-12.9-17-19.7-.3-.3-.5-.6-.8-1h-.1v6.7c0,4.7,.2,10.7,.7,13.9-.5,0-1.2-.1-1.6-.1s-1.1,0-1.6,.1c.3-3.2,.5-9.2,.5-13.9v-2c0-5-.1-9.5-.2-11.3h2.1c4.6,5.8,12.4,14.5,17,19.4,.2,.2,.4,.5,.8,.9h.1v-6.2c0-4.7-.2-10.7-.7-13.9,.6,0,1.2,.1,1.7,.1,.4,0,1.1,0,1.5-.1-.5,3.2-.7,9.2-.7,13.9h0Zm20.3,2c0,.4,0,1-.1,1.5l-.2,.2c-3,0-6.4-.1-8.5-.1h-4.5v1c0,3.9,2.2,7.2,6.6,7.2,2.4,0,4.5-1,5.8-2.5l.4,.2c-.2,.7-.4,1.7-.4,2.2-1.6,1.1-4.1,1.9-6.8,1.9-6,0-9.7-3.7-9.7-9.8s3.5-10.1,9.4-10.1c5.5,.1,8,3.9,8,8.3h0Zm-8.2-6.7c-3.7,0-4.9,4-5.1,6.8h4.1c1.7,0,4.1,0,5.3-.1,0-2.8-.5-6.7-4.3-6.7h0Zm30.6,17.8c-.3,0-1-.1-1.5-.1s-1.1,0-1.5,.1c-.7-2.5-2.7-9-4.5-14.1h-.2c-1.5,4-3.9,10.6-5,14.1-.4,0-1.1-.1-1.5-.1-.5,0-1.1,0-1.5,.1-.8-2.9-4.2-12.6-6.5-18.6l.2-.1c.6,0,1.4,.1,1.9,.1,.7,0,1.6,0,2.3-.1,1.1,4.2,3.2,10.4,4.7,14.6h.1c1.3-3.5,3.9-11.1,4.8-14.6,.5,0,1.1,.1,1.5,.1,.5,0,1.2,0,1.6-.1,1.2,4.4,3.2,10.5,4.7,14.6h.1c1.3-3.5,4-10.9,5-14.6,.4,0,.9,.1,1.3,.1s1,0,1.3-.1l.1,.1c-2.5,5.6-6.1,14.9-7.4,18.6h0Zm25.9,0c-1.9,0-4.9-.1-6.7-.1-1.1,0-2.9,0-4.2,.1,.2-3.3,.3-7.6,.3-11.1v-4.7c0-3.5-.1-7.9-.3-11.1,1.1,0,3,.1,4.2,.1,1.9,0,4.7-.1,6.7-.1,9.4,0,14.3,3.4,14.3,13,0,10.3-7.4,13.9-14.3,13.9h0Zm-.9-25.3c-1.9,0-3.9,.2-5.5,.4-.2,2.4-.2,6.4-.2,9v4.7c0,2.5,0,6.8,.2,9.1,1.1,.2,2.9,.4,4.7,.4,5.4,0,11.4-2.1,11.4-12.3,0-9-4.5-11.3-10.6-11.3h0Zm20.5,2c-1.3,0-2.3-1.1-2.3-2.3s1-2.3,2.3-2.3,2.3,1.1,2.3,2.3-1,2.3-2.3,2.3Zm0,23.2c-.7,0-1.6,0-2.1,.1,.2-2.2,.3-6.6,.3-9v-1.7c0-2.4-.1-5.8-.3-8.1,.5,0,1.4,.1,2.1,.1s1.6,0,2.1-.1c-.2,2.3-.3,5.7-.3,8.1v1.7c0,2.4,.1,6.7,.3,9-.5,0-1.4-.1-2.1-.1Zm9.2-.4c-1.6-.4-2.8-1.3-2.8-2.9,0-2.1,1.8-3.1,3.6-3.5v-.1c-2.2-.7-4.1-2.5-4.1-5.5,0-4.8,3.3-6.8,7.9-6.8,1.1,0,2.5,.2,3.8,.5,.5,.1,1.5,.2,2.1,.2l4.3-.2v1.5h-4.1v.1c1.2,.8,1.6,2.2,1.6,3.9,0,4.2-3.1,6.6-7.6,6.6-.7,0-1.3,0-1.9-.1-1.3-.2-2.4,.6-2.4,1.9,0,1.5,1.5,1.7,5.8,1.8,4.9,.1,8.1,1,8.1,5.4s-3.6,8.2-10,8.2c-4.1,0-8.7-1.5-8.7-6.4,0-1.4,.5-2.6,1.1-3.3,1-.5,2-1,3.2-1.4l.1,.1h0Zm4.5,.5c-1,0-2.3-.1-3.3-.2-1.3,.6-2.5,1.8-2.5,4.3,0,3.9,2.9,5.2,5.6,5.2,3,0,6.4-1.5,6.4-5.3,.1-3-1.9-3.9-6.2-4h0Zm0-17.8c-2.9,0-3.9,2.1-3.9,5.1s1.3,4.9,4,4.9,4-2.2,4-5.1c-.1-3.1-1.3-4.9-4.1-4.9h0Zm14.9-5.5c-1.3,0-2.3-1.1-2.3-2.3s1-2.3,2.3-2.3,2.3,1.1,2.3,2.3-1,2.3-2.3,2.3Zm0,23.2c-.7,0-1.6,0-2.1,.1,.2-2.2,.3-6.6,.3-9v-1.7c0-2.4-.1-5.8-.3-8.1,.5,0,1.4,.1,2.1,.1s1.6,0,2.1-.1c-.2,2.3-.3,5.7-.3,8.1v1.7c0,2.4,.1,6.7,.3,9-.5,0-1.3-.1-2.1-.1Zm11.8,.4c-3,0-4.1-1.8-4.1-4.9,0-2.9,.2-7.9,.2-12.4h-3.1v-1.5h3.1c0-.9,0-2.5-.1-4.1,1-.3,2.8-1,3.8-1.6l.3,.2c-.2,1.6-.3,4.2-.3,5.5h4.8v1.5h-4.8c-.1,3.4-.2,7.7-.2,10.9,0,2.8,.4,4.5,2.7,4.5,.8,0,1.7-.2,2.2-.4l.2,.1,.1,1c-1.4,.7-3.2,1.2-4.8,1.2h0Zm20.8-.2c-2.1,0-3.1-1.1-3.3-2.8-1.2,1.5-3.2,2.9-5.8,2.9s-5.3-1.6-5.3-5.2c0-3.2,2-4.8,5.5-5.5,5.1-1,5.6-1.3,5.6-2.3v-.5c0-2.6-1.1-4.3-4.2-4.3-2.2,0-3.7,1.4-4.1,4h-.8c-.1-1.2-.3-2.3-.6-3.4,1.4-1.3,4.2-2.2,6.7-2.2,5.8,0,6.8,3.1,6.8,7.1,0,1.9-.2,5.9-.2,7.9s.5,3.1,2.1,3.1h.7v.9c-.8,.1-2.1,.3-3.1,.3h0Zm-10.7-5.5c0,2.7,1.5,3.6,3.2,3.6s3.6-1.1,4.1-3c.1-1.3,.2-3.7,.2-5.5-5.3,.9-7.5,1.9-7.5,4.9h0Zm18.7,5.3c-.8,0-1.6,0-2.2,.1,.2-3.2,.3-8.4,.3-11.9v-4.7c0-3.5-.1-10.1-.3-13,.5,0,1.4,.1,2.2,.1,.7,0,1.5,0,2.1-.1-.2,2.9-.3,9.4-.3,13v4.7c0,3.5,.1,8.7,.3,11.9-.5,0-1.4-.1-2.1-.1ZM25.3,105.6c-.9,0-2-.1-2.7-.1-.6,0-1.4,0-2.2,.1-.7-2.6-2.1-6.6-3.4-10.2H7.2c-1.5,3.7-3,7.8-3.7,10.2-.4,0-1-.1-1.5-.1-.6,0-1.2,0-1.6,.1l-.1-.1c4.4-9.2,8.6-18.3,12.4-27.2h2c3.2,8.8,8.9,22.9,10.9,27.2l-.3,.1h0Zm-12.9-22.3c-1.2,2.5-3.4,7.5-4.5,10.3h8.5c-.9-2.2-2.8-7.3-4-10.3h0Zm25.5,6.9h-.3c-.6-.4-1.4-.6-2.2-.6-2.8,0-4.1,2.6-4.1,5.8v1.5c0,2.4,.1,6.4,.3,8.7-.6,0-1.4-.1-2.1-.1s-1.6,0-2.1,.1c.2-2.2,.3-6.6,.3-9v-1.7c0-2.4-.1-5.7-.3-8.1,.6,0,1.4,.1,2.1,.1s1.5,0,1.9-.1c-.1,.9-.2,2.8-.2,4h.2c1.4-2.8,3.2-4.3,5.6-4.3,.8,0,1.5,.1,2,.3l.1,.2c-.5,.8-.9,2.3-1.2,3.2h0Zm16.7,14c-1.3,1.1-3.7,1.9-6.4,1.9-5,0-9.7-2.8-9.7-9.9s5.1-9.8,10.2-9.8c2.8,0,5.3,.8,6.4,1.6-.4,.9-.8,2.4-1,3.6h-.7c-.4-2.1-1.9-3.6-4.5-3.6-4.5,0-6.3,3.9-6.3,8.2,0,4.7,2.1,8,6.5,8,2.2,0,4.1-.9,5.3-2.5l.5,.2c-.1,.5-.3,1.7-.3,2.3h0Zm6.4-14.1h.2c1.4-2.2,3.6-3.6,6.3-3.6,5,0,6.4,3.1,6.4,6.8,0,1.3-.1,3.2-.1,5v.5c0,1.7,.1,5.2,.2,6.8-.5,0-1.3-.1-2-.1s-1.6,0-2.1,.1c.2-2.4,.3-7,.3-9.9v-1.2c0-2.8-.6-5.7-4-5.7-3,0-5,2.2-5,6.4v2.5c0,2.4,.1,5.7,.3,8-.5,0-1.4-.1-2.1-.1s-1.6,0-2.1,.1c.2-3.2,.3-8.4,.3-11.9v-4.3c0-3.6-.1-10.3-.3-13.5,.5,0,1.4,.1,2.1,.1s1.6,0,2.2-.1c-.3,3.1-.4,9.9-.4,13.5l-.2,.6h0Zm18.7-7.8c-1.3,0-2.3-1.1-2.3-2.3s1-2.3,2.3-2.3,2.3,1.1,2.3,2.3-1.1,2.3-2.3,2.3Zm0,23.2c-.7,0-1.6,0-2.1,.1,.2-2.2,.3-6.6,.3-9v-1.7c0-2.4-.1-5.8-.3-8.1,.5,0,1.4,.1,2.1,.1s1.6,0,2.1-.1c-.2,2.3-.3,5.7-.3,8.1v1.7c0,2.4,.1,6.7,.3,9-.5,0-1.4-.1-2.1-.1Zm11.6,.3c-3,0-4.1-1.8-4.1-4.9,0-2.9,.2-7.9,.2-12.4h-3.1v-1.5h3.1c0-.9,0-2.5-.1-4.1,1-.3,2.8-1,3.8-1.6l.3,.2c-.2,1.6-.3,4.2-.3,5.5h4.8v1.5h-4.8c-.1,3.4-.2,7.7-.2,10.9,0,2.8,.4,4.5,2.7,4.5,.8,0,1.7-.2,2.2-.4l.2,.1,.1,1c-1.4,.8-3.3,1.2-4.8,1.2h0Zm22.3-11.3c0,.4,0,.9-.1,1.5l-.2,.2c-3,0-6.4-.1-8.5-.1h-4.5v1c0,3.9,2.2,7.2,6.6,7.2,2.4,0,4.5-1,5.8-2.5l.4,.2c-.2,.7-.4,1.7-.4,2.2-1.6,1.1-4.1,1.9-6.8,1.9-6,0-9.7-3.7-9.7-9.8s3.5-10.1,9.4-10.1c5.6,.1,8.1,3.9,8,8.3h0Zm-8.1-6.7c-3.7,0-4.9,4-5.1,6.8h4.1c1.7,0,4.1,0,5.3-.1,0-2.8-.5-6.7-4.3-6.7h0Zm26.1,16.4c-1.3,1.1-3.7,1.9-6.4,1.9-5,0-9.7-2.8-9.7-9.9s5-9.8,10.2-9.8c2.8,0,5.3,.8,6.4,1.6-.4,.9-.8,2.4-1,3.6h-.7c-.4-2.1-1.9-3.6-4.5-3.6-4.5,0-6.3,3.9-6.3,8.2,0,4.7,2.1,8,6.5,8,2.2,0,4.1-.9,5.3-2.5l.5,.2c-.1,.5-.3,1.7-.3,2.3Zm9,1.6c-3,0-4.1-1.8-4.1-4.9,0-2.9,.2-7.9,.2-12.4h-3.1v-1.5h3.1c0-.9,0-2.5-.1-4.1,1-.3,2.8-1,3.8-1.6l.3,.2c-.2,1.6-.3,4.2-.3,5.5h4.8v1.5h-4.8c-.1,3.4-.2,7.7-.2,10.9,0,2.8,.4,4.5,2.7,4.5,.8,0,1.7-.2,2.2-.4l.2,.1,.1,1c-1.4,.8-3.2,1.2-4.8,1.2h0Zm20.9-.3c-.7,0-1.4,0-1.9,.1,.1-1,.1-2.1,.1-3.2h-.2c-1.4,2.1-3.7,3.5-6.4,3.5-5,0-6.4-3-6.4-6.8,0-1.3,.1-3.2,.1-5v-.5c0-1.7-.1-5.2-.2-6.8,.5,0,1.3,.1,2.1,.1,.7,0,1.5,0,2-.1-.1,2.4-.2,7-.2,9.9v1.1c0,2.7,.5,5.7,3.9,5.7s5.1-2.5,5.1-6.2v-2.7c0-2.4-.1-5.7-.3-8,.5,0,1.4,.1,2.1,.1s1.5,0,2.1-.1c-.2,2.2-.3,6.6-.3,9v1.7c0,2.4,.1,5.5,.3,8.1-.6,.2-1.2,.1-1.9,.1h0Zm15.6-15.3h-.3c-.5-.4-1.4-.6-2.2-.6-2.8,0-4.1,2.6-4.1,5.8v1.5c0,2.4,.1,6.4,.3,8.7-.5,0-1.4-.1-2.1-.1s-1.6,0-2.1,.1c.2-2.2,.3-6.6,.3-9v-1.7c0-2.4-.1-5.7-.3-8.1,.5,0,1.4,.1,2.1,.1s1.5,0,1.9-.1c-.1,.9-.2,2.8-.2,4h.2c1.4-2.8,3.2-4.3,5.6-4.3,.8,0,1.5,.1,2,.3l.1,.2c-.6,.8-1.1,2.3-1.2,3.2h0Zm17.8,4.3c0,.4,0,.9-.1,1.5l-.2,.2c-3,0-6.4-.1-8.5-.1h-4.5v1c0,3.9,2.2,7.2,6.6,7.2,2.4,0,4.5-1,5.8-2.5l.4,.2c-.2,.7-.4,1.7-.4,2.2-1.6,1.1-4.1,1.9-6.8,1.9-6,0-9.7-3.7-9.7-9.8s3.5-10.1,9.4-10.1c5.6,.1,8.1,3.9,8,8.3h0Zm-8.1-6.7c-3.7,0-4.9,4-5.1,6.8h4.1c1.7,0,4.1,0,5.3-.1,0-2.8-.5-6.7-4.3-6.7h0Z"/></g></g></g></svg>