<?xml version="1.0" encoding="utf-8"?>
<!-- Generator: Adobe Illustrator 26.3.1, SVG Export Plug-In . SVG Version: 6.00 Build 0)  -->
<svg version="1.1" id="Layer_2_00000067923401948095794270000015992822632847433130_"
	 xmlns="http://www.w3.org/2000/svg" xmlns:xlink="http://www.w3.org/1999/xlink" x="0px" y="0px" viewBox="0 0 622.1 352.5"
	 style="enable-background:new 0 0 622.1 352.5;" xml:space="preserve">
<g id="Layer_1-2">
	<g>
		<path d="M21.5,42.6c-2.9,0-7.5-0.1-10.2-0.1c-1.6,0-4.4,0.1-6.4,0.1c0.3-5,0.5-11.6,0.5-17v-7.2c0-5.4-0.2-12-0.5-17
			c1.7,0.1,4.5,0.1,6.4,0.1c2.9,0,7.2-0.1,10.2-0.1c14.3,0,21.9,5.2,21.9,19.8C43.4,37,32,42.6,21.5,42.6z M20.1,4
			c-3,0-6,0.2-8.4,0.6c-0.2,3.6-0.3,9.7-0.3,13.7v7.2c0,3.9,0.1,10.4,0.3,13.9c1.7,0.4,4.5,0.5,7.1,0.5c8.2,0,17.4-3.2,17.4-18.8
			C36.3,7.4,29.3,4,20.1,4L20.1,4z M73.3,25.6c0,0.5-0.1,1.5-0.2,2.3l-0.4,0.4c-4.5-0.1-9.7-0.1-12.9-0.1H53c-0.1,0.5-0.1,1-0.1,1.5
			c0,6,3.3,11,10.1,11c3.6,0,6.8-1.5,8.8-3.8l0.6,0.3c-0.3,1.1-0.5,2.6-0.6,3.4c-2.5,1.8-6.3,3-10.3,3c-9.1,0-14.8-5.6-14.8-14.9
			c0-8.8,5.3-15.4,14.4-15.4C69.6,13.2,73.3,18.9,73.3,25.6L73.3,25.6z M60.9,15.4c-5.6,0-7.5,6.1-7.8,10.3h6.2
			c2.5,0,6.3-0.1,8.1-0.1C67.4,21.3,66.7,15.4,60.9,15.4z M84.3,43.2c-3,0-6.3-0.9-7.8-1.7c0.1-1.4,0.5-3.6,1.2-5.5h1
			c0.8,3.2,3.5,4.8,6.5,4.8s5.8-1.6,5.8-5.2c0-3.4-2.1-4.5-6.4-5.9c-3.6-1.2-6.8-2.8-6.8-7.9c0-6.3,5.6-8.5,10.1-8.5
			c2.9,0,5.9,0.6,7.5,1.4c-0.5,1.2-1.1,3.5-1.4,5.2h-1c-0.6-2.6-1.9-4.4-5.3-4.4c-2.7,0-5.1,1.3-5.1,4.5c0,3,2.1,4.1,5.5,5.2
			c5,1.6,7.9,3.6,7.9,8.1C96,40,90.5,43.2,84.3,43.2z M104.3,7c-1.9,0-3.5-1.6-3.5-3.5s1.6-3.5,3.5-3.5s3.5,1.6,3.5,3.5
			S106.2,7,104.3,7z M104.3,42.4c-1.1,0-2.4,0.1-3.2,0.1c0.3-3.3,0.4-10,0.4-13.7v-2.5c0-3.6-0.1-8.9-0.4-12.3
			c0.8,0.1,2.2,0.1,3.2,0.1s2.4-0.1,3.2-0.1c-0.3,3.5-0.4,8.7-0.4,12.3v2.5c0,3.6,0.1,10.2,0.4,13.7
			C106.7,42.5,105.4,42.4,104.3,42.4z M118,41.8c-2.5-0.5-4.2-2-4.2-4.4c0-3.2,2.7-4.7,5.5-5.4v-0.1c-3.4-1-6.2-3.8-6.2-8.3
			c0-7.3,5-10.3,12-10.3c1.6,0,3.9,0.4,5.7,0.8c0.7,0.2,2.2,0.4,3.2,0.4l6.6-0.2v2.3h-6.3l-0.1,0.1c1.8,1.3,2.5,3.3,2.5,6
			c0,6.4-4.7,10-11.6,10c-1.1,0-2.1-0.1-2.8-0.1c-1.9-0.2-3.6,0.9-3.7,2.8c-0.1,2.3,2.3,2.7,8.8,2.7c7.4,0.1,12.4,1.6,12.4,8.2
			s-5.5,12.6-15.2,12.6c-6.3,0-13.2-2.3-13.3-9.8c0-2.1,0.7-3.9,1.6-5c1.5-0.8,3.1-1.5,4.9-2.2L118,41.8L118,41.8z M124.8,42.5
			c-1.4-0.1-3.6-0.1-5-0.2c-2,0.8-3.7,2.8-3.7,6.6c0,6,4.4,8,8.6,8c4.6,0,9.7-2.3,9.7-8.1C134.4,44,131.3,42.7,124.8,42.5z
			 M124.8,15.4c-4.4,0-6,3.2-6,7.8s2,7.4,6,7.4s6-3.4,6-7.8C130.9,18.1,129.2,15.4,124.8,15.4z M166.7,42.4c-1.1,0-2.5,0.1-3.2,0.1
			c0.2-3.7,0.4-10.6,0.4-15.2v-1.8c0-4-0.8-8.7-6-8.7c-4.9,0-7.7,3.5-7.7,9.5v4c0,3.6,0.1,8.7,0.4,12.2c-0.8-0.1-2.1-0.1-3.2-0.1
			c-1.1,0-2.4,0.1-3.2,0.1c0.3-3.4,0.4-10,0.4-13.7v-2.5c0-3.6-0.1-8.4-0.4-12.3c1.1,0.1,2.1,0.1,3.2,0.1c1,0,2.1-0.1,2.9-0.1
			c-0.1,1.4-0.2,3.1-0.2,4.8h0.2c2.1-3.3,5.5-5.4,9.5-5.4c7.7,0,9.8,4.6,9.8,10.4c0,2-0.2,4.8-0.2,7.6v0.7c0,2.7,0.1,8,0.3,10.3
			C169,42.5,167.7,42.4,166.7,42.4L166.7,42.4z M179.6,7c-1.9,0-3.5-1.6-3.5-3.5s1.6-3.5,3.5-3.5s3.5,1.6,3.5,3.5S181.6,7,179.6,7z
			 M179.6,42.4c-1.1,0-2.4,0.1-3.2,0.1c0.3-3.3,0.4-10,0.4-13.7v-2.5c0-3.6-0.1-8.9-0.4-12.3c0.8,0.1,2.2,0.1,3.2,0.1
			s2.4-0.1,3.2-0.1c-0.3,3.5-0.4,8.7-0.4,12.3v2.5c0,3.6,0.1,10.2,0.4,13.7C182.1,42.5,180.7,42.4,179.6,42.4z M211,42.4
			c-1.1,0-2.5,0.1-3.2,0.1c0.2-3.7,0.4-10.6,0.4-15.2v-1.8c0-4-0.8-8.7-6-8.7c-4.9,0-7.7,3.5-7.7,9.5v4c0,3.6,0.1,8.7,0.4,12.2
			c-0.8-0.1-2.1-0.1-3.2-0.1c-1.1,0-2.4,0.1-3.2,0.1c0.3-3.4,0.4-10,0.4-13.7v-2.5c0-3.6-0.1-8.4-0.4-12.3c1.1,0.1,2.1,0.1,3.2,0.1
			c1,0,2.1-0.1,2.9-0.1c-0.1,1.4-0.2,3.1-0.2,4.8h0.2c2.1-3.3,5.5-5.4,9.5-5.4c7.7,0,9.8,4.6,9.8,10.4c0,2-0.2,4.8-0.2,7.6v0.7
			c0,2.7,0.1,8,0.3,10.3C213.3,42.5,212,42.4,211,42.4L211,42.4z M223.3,41.8c-2.5-0.5-4.2-2-4.2-4.4c0-3.2,2.7-4.7,5.5-5.4v-0.1
			c-3.4-1-6.2-3.8-6.2-8.3c0-7.3,5-10.3,12-10.3c1.6,0,3.9,0.4,5.7,0.8c0.7,0.2,2.2,0.4,3.2,0.4l6.6-0.2v2.3h-6.3l-0.1,0.1
			c1.8,1.3,2.5,3.3,2.5,6c0,6.4-4.7,10-11.6,10c-1.1,0-2.1-0.1-2.8-0.1c-1.9-0.2-3.6,0.9-3.7,2.8c-0.1,2.3,2.4,2.7,8.9,2.7
			c7.4,0.1,12.4,1.6,12.4,8.2s-5.5,12.6-15.2,12.6c-6.3,0-13.2-2.3-13.3-9.8c0-2.1,0.7-3.9,1.6-5c1.5-0.8,3.1-1.5,4.9-2.2
			L223.3,41.8L223.3,41.8z M230.1,42.5c-1.4-0.1-3.6-0.1-5-0.2c-2,0.8-3.7,2.8-3.7,6.6c0,6,4.4,8,8.6,8c4.6,0,9.8-2.3,9.8-8.1
			C239.7,44,236.6,42.7,230.1,42.5z M230.1,15.4c-4.4,0-6,3.2-6,7.8s2,7.4,6,7.4s6-3.4,6-7.8C236.2,18.1,234.5,15.4,230.1,15.4z
			 M281.7,43.5c-13.1,0-21.7-8.4-21.7-21.5s8.7-21.5,21.7-21.5s21.8,8.2,21.8,21.5S294.8,43.5,281.7,43.5z M281.7,3
			c-8.8,0-14.8,6.3-14.8,19s6,18.9,14.8,18.9s14.8-6.4,14.8-18.9S290.5,3,281.7,3z M329.5,42.4c-1,0-2.1,0.1-3,0.1
			c0.1-1.6,0.2-3.2,0.2-4.8h-0.2c-2.1,3.2-5.6,5.4-9.7,5.4c-7.7,0-9.7-4.5-9.7-10.3c0-2,0.2-4.8,0.2-7.6v-0.7c0-2.6-0.1-8-0.3-10.4
			c0.7,0.1,2,0.1,3.2,0.1c1.1,0,2.4-0.1,3.1-0.1c-0.2,3.7-0.4,10.7-0.4,15.2V31c0,4.1,0.7,8.7,5.9,8.7s7.8-3.8,7.8-9.5v-4
			c0-3.6-0.1-8.7-0.4-12.2c0.8,0.1,2.2,0.1,3.2,0.1s2.4-0.1,3.2-0.1c-0.3,3.4-0.4,10-0.4,13.7v2.5c0,3.6,0.1,8.4,0.4,12.3
			C331.6,42.5,330.6,42.5,329.5,42.4L329.5,42.4z M354.4,19l-0.4,0.1c-0.8-0.7-2.1-1-3.3-1c-4.3,0-6.3,4-6.3,8.9v2.4
			c0,3.6,0.1,9.8,0.4,13.2c-0.8-0.1-2.2-0.1-3.2-0.1s-2.4,0.1-3.2,0.1c0.3-3.3,0.5-10,0.5-13.7v-2.5c0-3.6-0.1-8.7-0.5-12.3
			c0.8,0.1,2.2,0.1,3.2,0.1s2.2-0.1,2.9-0.1c-0.2,1.4-0.4,4.2-0.4,6.1h0.2c2.1-4.3,4.9-6.6,8.5-6.6c1.2,0,2.3,0.2,3,0.4l0.1,0.4
			C355.5,15.4,354.8,17.6,354.4,19L354.4,19z M38.6,84.1v4.8c0,6.1,0.1,11.9,0.2,15.3h-3c-4.9-6.3-16.4-19.6-26-30
			c-0.4-0.4-0.8-1-1.3-1.6l-0.2,0.1v10.2c0,7.2,0.4,16.4,1.1,21.2C8.6,104,7.6,104,6.9,104s-1.7,0.1-2.5,0.1
			c0.5-4.8,0.8-14,0.8-21.2v-3C5.2,72.3,5,65.4,5,62.6h3.2c7,8.8,18.9,22,25.9,29.6c0.4,0.4,0.7,0.8,1.2,1.3l0.1-0.1V84
			c0-7.2-0.4-16.4-1.1-21.2c1,0.1,1.8,0.1,2.5,0.1s1.7-0.1,2.3-0.1C38.9,67.7,38.6,76.8,38.6,84.1L38.6,84.1z M69.4,87.1
			c0,0.5-0.1,1.4-0.2,2.3l-0.4,0.4c-4.5-0.1-9.7-0.1-12.9-0.1h-6.8c-0.1,0.5-0.1,1-0.1,1.5c0,6,3.3,11,10.1,11
			c3.6,0,6.8-1.5,8.8-3.8l0.6,0.3c-0.3,1.1-0.5,2.6-0.6,3.4c-2.5,1.8-6.3,2.9-10.3,2.9c-9.1,0-14.8-5.6-14.8-14.9
			c0-8.8,5.3-15.3,14.4-15.3C65.7,74.7,69.4,80.4,69.4,87.1L69.4,87.1z M56.9,76.9c-5.6,0-7.5,6.1-7.8,10.3h6.2
			c2.5,0,6.3-0.1,8.1-0.1C63.5,82.8,62.8,76.9,56.9,76.9L56.9,76.9z M103.6,104.1c-0.5-0.1-1.6-0.1-2.3-0.1c-0.8,0-1.7,0.1-2.3,0.1
			c-1-3.8-4.2-13.7-6.9-21.5h-0.2c-2.3,6-5.9,16.2-7.7,21.5c-0.5-0.1-1.8-0.1-2.3-0.1c-0.8,0-1.7,0.1-2.3,0.1
			c-1.2-4.4-6.4-19.3-9.9-28.4l0.2-0.1c0.9,0.1,2.2,0.1,2.9,0.1c1,0,2.5,0,3.5-0.1c1.8,6.4,4.8,15.9,7.1,22.2h0.2
			c2-5.4,5.9-16.9,7.3-22.2c0.7,0.1,1.6,0.1,2.2,0.1c0.7,0,1.9-0.1,2.4-0.1c1.9,6.7,4.9,16,7.2,22.2h0.2c2.1-5.3,6.1-16.6,7.6-22.2
			c0.7,0.1,1.4,0.1,1.9,0.1c0.7,0,1.5-0.1,2.1-0.1l0.2,0.1C111,84.2,105.5,98.4,103.6,104.1L103.6,104.1z M143.1,104.1
			c-2.9,0-7.5-0.1-10.2-0.1c-1.6,0-4.4,0.1-6.4,0.1c0.3-5,0.5-11.6,0.5-17v-7.2c0-5.4-0.2-12-0.5-17c1.7,0.1,4.5,0.1,6.4,0.1
			c2.9,0,7.2-0.1,10.2-0.1c14.3,0,21.9,5.2,21.9,19.8C165,98.5,153.6,104.1,143.1,104.1z M141.7,65.5c-2.9,0-6,0.2-8.4,0.6
			c-0.2,3.6-0.3,9.7-0.3,13.7V87c0,3.8,0.1,10.3,0.3,13.9c1.7,0.4,4.4,0.5,7.1,0.5c8.2,0,17.4-3.2,17.4-18.8
			C157.9,68.9,150.9,65.5,141.7,65.5L141.7,65.5z M173,68.5c-1.9,0-3.5-1.6-3.5-3.6s1.6-3.5,3.5-3.5s3.5,1.6,3.5,3.5
			S174.9,68.5,173,68.5z M173,103.9c-1.1,0-2.4,0.1-3.2,0.1c0.3-3.3,0.4-10.1,0.4-13.7v-2.5c0-3.6-0.1-8.9-0.4-12.3
			c0.8,0.1,2.2,0.1,3.2,0.1s2.4-0.1,3.2-0.1c-0.3,3.6-0.4,8.7-0.4,12.3v2.5c0,3.6,0.1,10.2,0.4,13.7
			C175.4,104,174.1,103.9,173,103.9z M186.7,103.3c-2.5-0.5-4.2-2.1-4.2-4.4c0-3.2,2.7-4.7,5.5-5.4v-0.1c-3.4-1-6.2-3.8-6.2-8.3
			c0-7.3,5-10.3,12-10.3c1.6,0,3.9,0.4,5.7,0.8c0.7,0.2,2.2,0.4,3.2,0.4l6.6-0.2V78H203l-0.1,0.1c1.8,1.3,2.5,3.3,2.5,6
			c0,6.4-4.7,10.1-11.6,10.1c-1.1,0-2.1-0.1-2.8-0.1c-1.9-0.2-3.6,0.9-3.7,2.8c-0.1,2.3,2.4,2.7,8.9,2.7c7.4,0.1,12.4,1.6,12.4,8.2
			s-5.5,12.6-15.2,12.6c-6.3,0-13.2-2.3-13.3-9.8c0-2.1,0.7-3.9,1.6-5c1.5-0.8,3.1-1.5,4.9-2.2C186.7,103.5,186.7,103.3,186.7,103.3
			z M193.5,104c-1.4-0.1-3.6-0.1-5-0.2c-2,0.8-3.7,2.8-3.7,6.6c0,6,4.4,7.9,8.6,7.9c4.6,0,9.8-2.3,9.8-8.1
			C203.1,105.5,200.1,104.2,193.5,104z M193.6,76.9c-4.4,0-6,3.2-6,7.8s2,7.4,6,7.4s6-3.4,6-7.8C199.6,79.6,197.9,76.9,193.6,76.9z
			 M216.1,68.5c-1.9,0-3.5-1.6-3.5-3.6s1.6-3.5,3.5-3.5s3.5,1.6,3.5,3.5S218,68.5,216.1,68.5z M216.1,103.9c-1.1,0-2.4,0.1-3.2,0.1
			c0.3-3.3,0.4-10.1,0.4-13.7v-2.5c0-3.6-0.1-8.9-0.4-12.3c0.8,0.1,2.2,0.1,3.2,0.1s2.4-0.1,3.2-0.1c-0.3,3.6-0.4,8.7-0.4,12.3v2.5
			c0,3.6,0.1,10.2,0.4,13.7C218.5,104,217.2,103.9,216.1,103.9z M233.7,104.4c-4.6,0-6.3-2.8-6.3-7.5c0-4.4,0.4-12,0.4-18.9H223
			v-2.4h4.8c0-1.3,0-3.8-0.1-6.2c1.5-0.5,4.3-1.5,5.8-2.5l0.4,0.2c-0.2,2.4-0.5,6.4-0.5,8.4h7.3V78h-7.3c-0.2,5.1-0.4,11.7-0.4,16.5
			c0,4.3,0.7,6.8,4.1,6.8c1.3,0,2.6-0.3,3.4-0.7l0.2,0.1l0.1,1.6C238.9,103.7,236.1,104.4,233.7,104.4L233.7,104.4z M265.2,104.2
			c-3.2,0-4.8-1.7-5.1-4.2c-1.8,2.2-4.8,4.4-8.9,4.4s-8.1-2.4-8.1-7.9c0-4.9,3.1-7.3,8.4-8.4c7.8-1.5,8.6-2.1,8.6-3.6v-0.7
			c0-3.9-1.7-6.6-6.4-6.6c-3.3,0-5.6,2.1-6.2,6h-1.1c-0.2-2.1-0.6-4-0.9-5.2c2.2-2.1,6.4-3.4,10.2-3.4c8.9,0,10.3,4.7,10.3,10.8
			c0,2.8-0.3,9-0.3,12s0.8,4.7,3.2,4.7c0.5,0,0.8,0,1-0.1v1.4C268.7,103.9,266.8,104.2,265.2,104.2L265.2,104.2z M248.9,95.8
			c0,4.2,2.2,5.5,4.8,5.5c2.6,0,5.5-1.8,6.3-4.5c0.2-2.1,0.2-5.6,0.2-8.4C252.2,89.7,248.9,91.2,248.9,95.8L248.9,95.8z
			 M277.2,103.9c-1.1,0-2.5,0.1-3.3,0.1c0.2-4.8,0.4-12.8,0.4-18.2v-7.2c0-5.4-0.2-15.4-0.4-19.8c0.8,0.1,2.2,0.1,3.3,0.1
			c1,0,2.4-0.1,3.2-0.1c-0.2,4.4-0.4,14.4-0.4,19.8v7.2c0,5.4,0.2,13.3,0.4,18.2C279.6,104,278.2,103.9,277.2,103.9z M331.6,104.1
			c-1.3-0.1-3-0.1-4.1-0.1c-0.9,0-2.1,0.1-3.4,0.1c-1.1-3.9-3.2-10.1-5.2-15.5c-2.1-0.1-5.3-0.1-7.8-0.1s-4.9,0-7.2,0.1
			c-2.4,5.7-4.6,11.9-5.7,15.5c-0.8-0.1-1.5-0.1-2.3-0.1s-1.8,0.1-2.5,0.1l-0.2-0.1c6.7-14.1,13.1-27.9,19-41.5h3
			c4.9,13.4,13.5,34.9,16.6,41.5L331.6,104.1L331.6,104.1z M312,70c-1.8,3.8-5.2,11.4-6.9,15.7c1.7,0.1,4.2,0.1,6.2,0.1
			c2.2,0,4.9,0,6.7-0.1C316.7,82.4,313.8,74.6,312,70z M350.7,80.5l-0.4,0.1c-0.8-0.7-2.1-1-3.3-1c-4.3,0-6.3,4-6.3,8.9v2.3
			c0,3.6,0.1,9.8,0.4,13.2c-0.8-0.1-2.2-0.1-3.2-0.1s-2.4,0.1-3.2,0.1c0.3-3.3,0.5-10.1,0.5-13.7v-2.5c0-3.6-0.1-8.7-0.5-12.3
			c0.8,0.1,2.2,0.1,3.2,0.1s2.2-0.1,2.9-0.1c-0.2,1.4-0.4,4.2-0.4,6.1h0.2c2.1-4.3,4.9-6.6,8.5-6.6c1.2,0,2.3,0.2,3,0.4l0.1,0.4
			C351.7,76.8,351,79.1,350.7,80.5L350.7,80.5z M375.8,101.8c-2,1.8-5.6,2.9-9.7,2.9c-7.6,0-14.8-4.3-14.8-15.1s7.7-14.9,15.5-14.9
			c4.2,0,8.1,1.2,9.8,2.4c-0.6,1.3-1.3,3.7-1.6,5.4l-1,0.1c-0.7-3.2-3-5.5-6.8-5.5c-6.8,0-9.6,6-9.6,12.5c0,7.2,3.2,12.2,10,12.2
			c3.4,0,6.3-1.3,8.1-3.8l0.7,0.4C376.1,99.2,375.8,100.9,375.8,101.8L375.8,101.8z M385.3,80.4h0.2c2.2-3.4,5.5-5.5,9.6-5.5
			c7.7,0,9.8,4.7,9.8,10.4c0,2-0.2,4.8-0.2,7.7v0.7c0,2.7,0.1,7.9,0.3,10.3c-0.7-0.1-2-0.1-3.1-0.1s-2.4,0.1-3.2,0.1
			c0.2-3.7,0.5-10.7,0.5-15.2V87c0-4.2-1-8.7-6.1-8.7c-4.6,0-7.6,3.4-7.6,9.7v3.8c0,3.6,0.1,8.7,0.4,12.2c-0.8-0.1-2.2-0.1-3.2-0.1
			s-2.4,0.1-3.2,0.1c0.2-4.8,0.4-12.8,0.4-18.2v-6.4c0-5.4-0.2-15.8-0.4-20.5c0.8,0.1,2.2,0.1,3.2,0.1s2.5-0.1,3.3-0.1
			c-0.4,4.8-0.6,15.1-0.6,20.5L385.3,80.4L385.3,80.4z M413.7,68.5c-1.9,0-3.5-1.6-3.5-3.6s1.6-3.5,3.5-3.5s3.5,1.6,3.5,3.5
			S415.7,68.5,413.7,68.5z M413.7,103.9c-1.1,0-2.4,0.1-3.2,0.1c0.3-3.3,0.4-10.1,0.4-13.7v-2.5c0-3.6-0.1-8.9-0.4-12.3
			c0.8,0.1,2.2,0.1,3.2,0.1s2.4-0.1,3.2-0.1c-0.3,3.6-0.4,8.7-0.4,12.3v2.5c0,3.6,0.1,10.2,0.4,13.7
			C416.1,104,414.8,103.9,413.7,103.9z M431.4,104.4c-4.6,0-6.3-2.8-6.3-7.5c0-4.4,0.4-12,0.4-18.9h-4.7v-2.4h4.8
			c0-1.3,0-3.8-0.1-6.2c1.5-0.5,4.3-1.5,5.8-2.5l0.4,0.2c-0.2,2.4-0.5,6.4-0.5,8.4h7.3V78H431c-0.2,5.1-0.4,11.7-0.4,16.5
			c0,4.3,0.7,6.8,4.1,6.8c1.3,0,2.6-0.3,3.4-0.7l0.2,0.1l0.1,1.6C436.6,103.7,433.8,104.4,431.4,104.4L431.4,104.4z M465.2,87.1
			c0,0.5-0.1,1.4-0.2,2.3l-0.4,0.4c-4.5-0.1-9.7-0.1-12.9-0.1H445c-0.1,0.5-0.1,1-0.1,1.5c0,6,3.3,11,10.1,11c3.6,0,6.8-1.5,8.8-3.8
			l0.6,0.3c-0.3,1.1-0.5,2.6-0.6,3.4c-2.5,1.8-6.3,2.9-10.4,2.9c-9.1,0-14.8-5.6-14.8-14.9c0-8.8,5.3-15.3,14.4-15.3
			C461.5,74.7,465.2,80.4,465.2,87.1L465.2,87.1z M452.8,76.9c-5.6,0-7.5,6.1-7.8,10.3h6.2c2.5,0,6.3-0.1,8.1-0.1
			C459.3,82.8,458.6,76.9,452.8,76.9L452.8,76.9z M492.7,101.8c-2,1.8-5.6,2.9-9.7,2.9c-7.6,0-14.8-4.3-14.8-15.1
			s7.7-14.9,15.5-14.9c4.2,0,8.1,1.2,9.8,2.4c-0.6,1.3-1.3,3.7-1.6,5.4l-1,0.1c-0.7-3.2-3-5.5-6.8-5.5c-6.8,0-9.6,6-9.6,12.5
			c0,7.2,3.2,12.2,10,12.2c3.4,0,6.3-1.3,8.1-3.8l0.7,0.4C493,99.2,492.7,100.9,492.7,101.8L492.7,101.8z M506.3,104.4
			c-4.6,0-6.3-2.8-6.3-7.5c0-4.4,0.4-12,0.4-18.9h-4.7v-2.4h4.8c0-1.3,0-3.8-0.1-6.2c1.5-0.5,4.3-1.5,5.8-2.5l0.4,0.2
			c-0.2,2.4-0.5,6.4-0.5,8.4h7.3V78H506c-0.2,5.1-0.4,11.7-0.4,16.5c0,4.3,0.7,6.8,4.1,6.8c1.3,0,2.7-0.3,3.4-0.7l0.2,0.1l0.1,1.6
			C511.6,103.7,508.7,104.4,506.3,104.4L506.3,104.4z M538.2,103.9c-1,0-2.1,0.1-3,0.1c0.1-1.6,0.2-3.2,0.2-4.8h-0.2
			c-2.1,3.2-5.6,5.4-9.7,5.4c-7.7,0-9.7-4.5-9.7-10.3c0-2,0.2-4.8,0.2-7.7v-0.7c0-2.7-0.1-7.9-0.3-10.3c0.7,0.1,2,0.1,3.2,0.1
			c1.1,0,2.3-0.1,3.1-0.1c-0.2,3.7-0.4,10.7-0.4,15.2v1.8c0,4.1,0.7,8.7,5.9,8.7s7.8-3.8,7.8-9.4v-4c0-3.6-0.1-8.7-0.4-12.2
			c0.8,0.1,2.2,0.1,3.2,0.1s2.3-0.1,3.2-0.1c-0.3,3.4-0.4,10.1-0.4,13.7v2.5c0,3.6,0.1,8.4,0.4,12.3
			C540.3,104,539.3,103.9,538.2,103.9L538.2,103.9z M561.9,80.5l-0.4,0.1c-0.8-0.7-2.1-1-3.3-1c-4.3,0-6.3,4-6.3,8.9v2.3
			c0,3.6,0.1,9.8,0.4,13.2c-0.8-0.1-2.2-0.1-3.2-0.1s-2.4,0.1-3.2,0.1c0.3-3.3,0.5-10.1,0.5-13.7v-2.5c0-3.6-0.1-8.7-0.5-12.3
			c0.8,0.1,2.2,0.1,3.2,0.1s2.2-0.1,2.9-0.1c-0.2,1.4-0.4,4.2-0.4,6.1h0.2c2.1-4.3,4.9-6.6,8.5-6.6c1.2,0,2.3,0.2,3,0.4l0.1,0.4
			C562.9,76.8,562.2,79.1,561.9,80.5L561.9,80.5z M589.2,87.1c0,0.5-0.1,1.4-0.2,2.3l-0.4,0.4c-4.5-0.1-9.7-0.1-12.9-0.1h-6.8
			c-0.1,0.5-0.1,1-0.1,1.5c0,6,3.3,11,10.1,11c3.6,0,6.8-1.5,8.8-3.8l0.6,0.3c-0.3,1.1-0.5,2.6-0.6,3.4c-2.5,1.8-6.3,2.9-10.3,2.9
			c-9.1,0-14.8-5.6-14.8-14.9c0-8.8,5.3-15.3,14.4-15.3C585.4,74.7,589.2,80.4,589.2,87.1L589.2,87.1z M576.7,76.9
			c-5.6,0-7.5,6.1-7.8,10.3h6.2c2.5,0,6.3-0.1,8.1-0.1C583.3,82.8,582.5,76.9,576.7,76.9L576.7,76.9z"/>
		<g>
			<path d="M4.5,156v-21.8H0v-2.5h11.7v2.5H7.2V156H4.5z M16.7,145v11H14v-24.3h2.7v10.9h6v-10.9h2.7V156h-2.7v-11H16.7z
				 M36.8,142.4v2.4h-5.9v8.6h7.3v2.5h-10v-24.3h10v2.5h-7.3v8.3H36.8L36.8,142.4z M49.2,156h-2.4v-24.3h3.4l5.6,17.6v-17.6h2.4V156
				h-2.8l-6.2-19.7V156L49.2,156z M69.7,142.4v2.4h-5.9v8.6H71v2.5H61v-24.3h10v2.5h-7.3v8.3H69.7L69.7,142.4z M80.4,156h-3.7
				l-3.3-24.3H76l2.8,20.7l2.7-20.7h2.7l2.7,20.7l2.7-20.7H92L88.7,156h-3.6l-2.3-16.5L80.4,156L80.4,156z M111,137.5v2.2h-2.6v-2.3
				c0-2.2-0.9-3.5-2.8-3.5s-2.8,1.3-2.8,3.5v12.9c0,2.2,0.9,3.5,2.8,3.5s2.8-1.3,2.8-3.5v-3.2h2.6v3c0,3.7-1.7,6.1-5.5,6.1
				s-5.4-2.4-5.4-6.1v-12.6c0-3.7,1.7-6.1,5.4-6.1S111,133.8,111,137.5z M113.5,137.5c0-3.7,1.8-6.1,5.6-6.1s5.6,2.4,5.6,6.1v12.6
				c0,3.7-1.8,6.1-5.6,6.1s-5.6-2.4-5.6-6.1V137.5z M116.2,150.2c0,2.2,0.9,3.5,2.9,3.5s2.9-1.3,2.9-3.5v-12.9
				c0-2.2-0.9-3.5-2.9-3.5s-2.9,1.3-2.9,3.5V150.2z M129.7,156h-2.4v-24.3h3.4l5.6,17.6v-17.6h2.4V156H136l-6.2-19.7L129.7,156
				L129.7,156z M145.5,156v-21.8H141v-2.5h11.7v2.5h-4.5V156H145.5z M163.6,142.4v2.4h-5.9v8.6h7.3v2.5h-10v-24.3h10v2.5h-7.3v8.3
				H163.6L163.6,142.4z M173.9,145.5l-4.1,10.5h-2.6l4.9-12.5l-4.6-11.8h2.8l3.8,9.7l3.8-9.7h2.5l-4.6,11.8l4.9,12.5H178
				L173.9,145.5L173.9,145.5z M187.1,156v-21.8h-4.5v-2.5h11.7v2.5h-4.5V156H187.1z M213,137.5v2.2h-2.6v-2.3c0-2.2-0.9-3.5-2.9-3.5
				s-2.9,1.3-2.9,3.5v12.9c0,2.2,0.9,3.5,2.9,3.5s2.9-1.3,2.9-3.5v-3.2h2.6v3c0,3.7-1.7,6.1-5.5,6.1s-5.4-2.4-5.4-6.1v-12.6
				c0-3.7,1.7-6.1,5.4-6.1S213,133.8,213,137.5z M215.4,137.5c0-3.7,1.8-6.1,5.6-6.1s5.6,2.4,5.6,6.1v12.6c0,3.7-1.8,6.1-5.6,6.1
				s-5.6-2.4-5.6-6.1V137.5z M218.1,150.2c0,2.2,0.9,3.5,2.9,3.5s2.9-1.3,2.9-3.5v-12.9c0-2.2-0.9-3.5-2.9-3.5s-2.9,1.3-2.9,3.5
				V150.2z M231.7,156h-2.4v-24.3h3.4l5.6,17.6v-17.6h2.4V156h-2.8l-6.2-19.7V156L231.7,156z M251.9,143v2.5h-5.6V156h-2.7v-24.3
				h9.6v2.5h-6.9v8.9L251.9,143L251.9,143z M264.3,142.4v2.4h-5.9v8.6h7.3v2.5h-10v-24.3h10v2.5h-7.3v8.3H264.3L264.3,142.4z
				 M273.7,131.7c3.8,0,5.4,1.9,5.4,5.6v2c0,2.7-0.9,4.3-3,5c2.2,0.7,3.1,2.5,3.1,5.1v3.8c0,1.1,0,2.1,0.5,2.9H277
				c-0.3-0.7-0.5-1.3-0.5-2.9v-3.8c0-2.7-1.3-3.6-3.5-3.6h-2V156h-2.7v-24.3H273.7L273.7,131.7z M273,143.1c2.1,0,3.4-0.7,3.4-3.3
				v-2.3c0-2.2-0.8-3.3-2.8-3.3H271v9L273,143.1L273,143.1z M290.8,142.4v2.4h-5.9v8.6h7.3v2.5h-10v-24.3h10v2.5h-7.3v8.3H290.8
				L290.8,142.4z M297.1,156h-2.4v-24.3h3.4l5.6,17.6v-17.6h2.4V156h-2.8l-6.2-19.7V156L297.1,156z M319.8,137.5v2.2h-2.6v-2.3
				c0-2.2-0.9-3.5-2.9-3.5s-2.9,1.3-2.9,3.5v12.9c0,2.2,0.9,3.5,2.9,3.5s2.9-1.3,2.9-3.5v-3.2h2.6v3c0,3.7-1.7,6.1-5.5,6.1
				s-5.5-2.4-5.5-6.1v-12.6c0-3.7,1.7-6.1,5.5-6.1S319.8,133.8,319.8,137.5z M331,142.4v2.4h-5.9v8.6h7.3v2.5h-10v-24.3h10v2.5h-7.3
				v8.3H331L331,142.4z M345.6,156v-23.6h-5.3v-0.7h11.4v0.7h-5.3V156H345.6L345.6,156z M353.5,137.6c0-3.4,1.5-6.1,5.1-6.1
				s5.2,2.7,5.2,6.1V150c0,3.4-1.5,6.1-5.2,6.1s-5.1-2.7-5.1-6.1V137.6z M354.3,150c0,3,1.1,5.4,4.4,5.4s4.4-2.4,4.4-5.4v-12.4
				c0-3-1.2-5.4-4.4-5.4s-4.4,2.4-4.4,5.4V150z M369.4,143.9l-1.8,2.8v9.3h-0.8v-24.3h0.8v13.7l9-13.7h0.8l-7.5,11.5l8.2,12.8h-0.8
				L369.4,143.9L369.4,143.9z M386.2,146.1l-5.7-14.5h0.8l5.3,13.4l5.3-13.4h0.8l-5.8,14.5v9.8h-0.8L386.2,146.1L386.2,146.1z
				 M394.8,137.6c0-4,1.8-6.1,5.1-6.1s5.2,2.1,5.2,6.1V150c0,4-1.8,6.1-5.2,6.1s-5.1-2.1-5.1-6.1V137.6z M395.6,150
				c0,3.6,1.5,5.4,4.4,5.4s4.4-1.8,4.4-5.4v-12.4c0-3.6-1.5-5.4-4.4-5.4s-4.4,1.8-4.4,5.4V150z M424.1,137.7c0,6.8-9.2,9-9.4,17.4
				v0.1h9.2v0.7h-10v-0.5c0-9.1,9.4-11.2,9.4-17.7c0-3.1-1-5.6-4.3-5.6s-4.3,2.6-4.3,5.6v1.3H414v-1.3c0-3.4,1.3-6.3,5.1-6.3
				S424.1,134.3,424.1,137.7L424.1,137.7z M427,137.6c0-3.4,1.5-6.1,5.2-6.1s5.2,2.7,5.2,6.1V150c0,3.4-1.5,6.1-5.2,6.1
				s-5.2-2.7-5.2-6.1V137.6z M427.7,150c0,3,1.2,5.4,4.4,5.4s4.4-2.4,4.4-5.4v-12.4c0-3-1.2-5.4-4.4-5.4s-4.4,2.4-4.4,5.4V150z
				 M450.3,137.7c0,6.8-9.2,9-9.4,17.4v0.1h9.2v0.7h-10v-0.5c0-9.1,9.4-11.2,9.4-17.7c0-3.1-1-5.6-4.3-5.6s-4.3,2.6-4.3,5.6v1.3
				h-0.7v-1.3c0-3.4,1.3-6.3,5.1-6.3S450.3,134.3,450.3,137.7L450.3,137.7z M463.3,137.7c0,6.8-9.2,9-9.4,17.4v0.1h9.2v0.7h-10v-0.5
				c0-9.1,9.4-11.2,9.4-17.7c0-3.1-1-5.6-4.3-5.6s-4.3,2.6-4.3,5.6v1.3h-0.7v-1.3c0-3.4,1.3-6.3,5.1-6.3S463.3,134.3,463.3,137.7
				L463.3,137.7z M479.7,143.9v0.7h-6.8V156h-0.8v-24.3h8.9v0.7h-8.2v11.5H479.7z M486.6,146.7c1.1-0.2,2.6-0.5,3.6-0.9
				c1-0.3,1.4-0.9,1.4-2.9c0-1.5-0.2-2.2-0.7-2.9c-0.6-0.8-1.7-1.3-3-1.3c-4,0-4.1,3.3-4.1,4.6h-0.7v-0.6c0-2.3,1.4-4.7,4.8-4.7
				c2.3,0,4.3,1.3,4.3,4.2v11.5c0,1.3,0.4,1.6,1,1.6c0.2,0,0.4,0,0.7-0.1v0.6c-0.4,0.1-0.6,0.1-0.8,0.1c-0.9,0-1.6-0.3-1.6-2.3V153
				h-0.1c-0.8,2-2.4,3.4-4.6,3.4c-2.9,0-4.4-1.9-4.4-5C482.4,148.6,484.1,147.2,486.6,146.7L486.6,146.7z M491.5,145.6
				c-0.5,0.6-1.6,1-4.6,1.6c-2.8,0.5-3.8,1.9-3.8,4.3c0,2.9,1.7,4.3,3.9,4.3c1.8,0,4.5-1.6,4.5-6.2V145.6z M496.3,131.8h0.7V156
				h-0.7V131.8L496.3,131.8z M500.7,131.8h0.7V156h-0.7V131.8L500.7,131.8z"/>
		</g>
	</g>
</g>
</svg>
