<svg id="Layer_2" xmlns="http://www.w3.org/2000/svg" viewBox="0 0 622.13 352.49">
  <defs>
    <style>
      .cls-3{fill:#27cdaf}.cls-5{fill:#5fe48f}.cls-6{fill:#339fdd}.cls-7{fill:#7aa5ee}
    </style>
  </defs>
  <g id="Layer_1-2">
    <path d="M154.52 217.8c-.61-.04-1.46-.08-2.47-.08-2.08 0-7.98.91-10.26 8.37-2.41 7.86 6.14 8.36 10.92.84l-1.03 5.16h4.53l2.85-14.28h-4.54Zm-8.36 10.83c-.46-.45-.62-1.66.85-4.56 1.46-2.89 3.44-4.01 4.94-4.01.84 0 1.57.13 2.07.24v.05l-.14.65c-2.32 4.63-6.72 8.61-7.72 7.63ZM218.75 217.8c-.61-.04-1.46-.08-2.47-.08-2.08 0-7.98.91-10.26 8.37-2.41 7.86 6.14 8.36 10.91.84l-1.03 5.16h4.54l2.85-14.28h-4.53Zm-8.36 10.83c-.46-.45-.61-1.66.85-4.56 1.46-2.89 3.44-4.01 4.95-4.01.83 0 1.57.13 2.07.24v.05l-.14.65c-2.32 4.63-6.72 8.61-7.72 7.62ZM254.86 217.8c-.61-.04-1.46-.08-2.46-.08-2.09 0-7.99.91-10.27 8.37-2.4 7.86 6.14 8.36 10.91.84l-1.02 5.16h4.53l2.85-14.28h-4.53Zm-8.36 10.83c-.46-.45-.61-1.66.85-4.56 1.46-2.89 3.44-4.01 4.95-4.01.84 0 1.57.13 2.06.24v.05l-.14.65c-2.32 4.63-6.72 8.61-7.72 7.63ZM110.3 217.77l-.02.06c-.61-.06-1.58-.12-2.78-.12-2.08 0-7.98.91-10.26 8.37-2.4 7.84 6.07 8.36 10.86.93l-.97 4.84c-.16.83-.53 1.55-1.12 2.17-.58.62-1.64.92-3.15.92a15.935 15.935 0 0 1-3.98-.53c-.7-.18-1.61-.47-2.74-.87l.32 3.24c1.91.48 3.82.72 5.76.72 1.69 0 3.27-.25 4.75-.75 1.47-.5 2.58-1.22 3.33-2.15.74-.94 1.37-2.68 1.87-5.22l2.31-11.59h-4.18Zm-8.69 10.85c-.45-.45-.61-1.66.85-4.56 1.46-2.89 3.44-4.01 4.94-4.01.95 0 1.79.17 2.27.29l-.02.08-.02-.07c-2.22 4.9-6.98 9.3-8.03 8.26ZM275.56 217.77l-.02.06c-.61-.06-1.58-.12-2.79-.12-2.08 0-7.98.91-10.26 8.37-2.4 7.84 6.07 8.36 10.86.92l-.97 4.85c-.17.83-.54 1.55-1.12 2.17-.59.62-1.63.92-3.15.92-.64 0-1.28-.05-1.93-.13-.66-.08-1.34-.21-2.04-.4-.7-.18-1.62-.47-2.74-.87l.33 3.24c1.9.48 3.82.72 5.76.72 1.69 0 3.28-.25 4.75-.75 1.48-.5 2.58-1.22 3.32-2.15.75-.94 1.37-2.68 1.88-5.22l2.32-11.59h-4.18Zm-8.69 10.85c-.45-.45-.61-1.66.85-4.56 1.46-2.89 3.44-4.01 4.95-4.01.96 0 1.78.17 2.27.29l-.02.08-.02-.07c-2.22 4.9-6.98 9.3-8.03 8.26ZM61.35 232.05l3.84-19.25h9.51c2.42 0 4.22.22 5.41.66 1.19.44 2.14 1.15 2.85 2.14.71.99 1.11 2.28 1.16 3.87.08 2.31-.46 4.46-1.63 6.47-1.16 2.01-2.72 3.53-4.65 4.56-1.93 1.03-4.49 1.54-7.66 1.54h-8.82Zm5.27-2.64h2.7c2.14 0 3.89-.4 5.23-1.2 1.35-.8 2.44-1.98 3.27-3.53.83-1.55 1.22-3.16 1.16-4.84-.06-1.55-.67-2.67-1.85-3.36-1.17-.69-3.28-1.04-6.32-1.04H69.4l-2.79 13.95ZM86.63 232.05l2.85-14.28h4.54l-2.85 14.28h-4.54Zm3.33-16.69.67-3.38h4.54l-.67 3.38h-4.55ZM117.22 232.05l2.85-14.28h4.53l-2.85 14.28h-4.53Zm3.32-16.69.68-3.38h4.54l-.68 3.38h-4.55ZM136.86 231.94c-1.04.24-2.04.38-3.04.38-1.65 0-2.82-.31-3.51-.92-.7-.61-1.06-1.29-1.09-2.04-.01-.46.06-1.11.22-1.96l1.44-7.21h-2.55l.54-2.41h2.49l.48-2.41 4.64-.52-.58 2.93h3.47l-.48 2.41h-3.47l-1.38 6.94c-.11.54-.17.97-.16 1.28.02.5.21.85.56 1.04.36.19.72.29 1.09.29.6 0 1.21-.11 1.82-.33l-.51 2.53ZM161.81 232.05l4.1-20.53h4.54l-4.1 20.53h-4.53ZM200.23 231.47c-3.35.7-6.24 1.05-8.66 1.05-2.9 0-5.17-.66-6.81-1.97-1.64-1.32-2.5-3.07-2.58-5.27-.08-2.2.5-4.32 1.75-6.35 1.24-2.03 2.93-3.64 5.07-4.84 2.13-1.2 4.72-1.79 7.75-1.79 1.91 0 4.15.25 6.75.75l-.6 3.11a40.54 40.54 0 0 0-2.76-.77c-.69-.16-1.33-.27-1.93-.34-.6-.07-1.2-.11-1.8-.11-1.83 0-3.41.43-4.75 1.27-1.34.84-2.43 2.08-3.27 3.72-.84 1.65-1.23 3.29-1.17 4.93.05 1.57.61 2.79 1.67 3.68 1.06.88 2.53 1.33 4.41 1.33.87 0 1.77-.14 2.7-.4l1.22-6.11h4.63l-1.61 8.1ZM225.88 232.05l2.85-14.28h4.53l-1.17 5.92c1.12-1.94 2.39-3.47 3.81-4.57 1.42-1.11 2.73-1.67 3.93-1.67.41 0 .78 0 1.42.03l-1.19 3.64c-.66-.15-1.06-.14-1.44-.14-1.14 0-2.34.66-3.63 1.97a37.34 37.34 0 0 0-3.63 4.35l-.96 4.75h-4.53ZM297.03 230.69c-1.58.64-3.09 1.08-4.51 1.32-1.43.25-2.64.37-3.62.37-1.28 0-2.43-.22-3.47-.65-1.03-.43-1.78-1.02-2.25-1.79-.47-.76-.71-1.56-.74-2.38-.06-1.67.41-3.33 1.4-4.96s2.3-2.9 3.91-3.8c1.61-.91 3.34-1.36 5.18-1.36 1.36 0 2.43.28 3.2.85s1.18 1.3 1.21 2.2c.04 1.04-.34 2.04-1.13 2.99-.79.95-1.99 1.75-3.6 2.39-1.62.64-3.52 1.02-5.7 1.12.1 1.12.48 1.87 1.14 2.25.66.38 1.38.57 2.18.57s1.85-.17 3.21-.51c1.35-.34 2.74-.87 4.18-1.6l-.6 2.99Zm-9.87-6.1c2.04 0 3.55-.36 4.53-1.07.98-.71 1.46-1.45 1.43-2.22-.01-.34-.15-.64-.41-.89-.27-.26-.65-.39-1.15-.39-.78 0-1.61.39-2.48 1.15-.88.77-1.51 1.9-1.9 3.42ZM47.35 214.82h-9.94c-.63-.01-1.6.19-2.18.42l-22.04 8.98c-.57.23-.67.78-.23 1.2l10.29 8.62c.45.43 1.33.78 1.95.78h14.03c.62.02 1.31-.46 1.54-1.03l2.29-5.82c.23-.57-.1-1.05-.72-1.05h-4.77c-.63 0-1.46.47-1.69 1.04l-.94 2.37c-.22.58-.92 1.05-1.53 1.05h-1.78c-.63 0-1.51-.34-1.98-.75l-6.34-4.6c-.46-.42-.38-.94.2-1.19l13.63-5.81c.57-.24 1.55-.44 2.17-.44l6.73-.03c.62 0 1.17-.44 1.39-1.01l.64-1.67c.22-.58-.1-1.05-.72-1.05Zm-12.69-2.43-15.04-8.3c-.54-.29-1.49-.56-2.11-.57l-8.42-.04c-.62 0-1.31.46-1.52 1.03L1.2 221.7c-.21.58.12 1.06.74 1.06h8.02c.62.01 1.6-.18 2.18-.41l22.45-8.99c.58-.23.61-.67.07-.97Zm-10.55.59-10.71 4.46c-.58.24-1.55.43-2.17.43h-.86c-.63 0-.96-.48-.74-1.05l2.95-7.94c.22-.59.9-1.06 1.52-1.06h.84c.63 0 1.58.25 2.13.52l7.09 3.7c.55.28.53.71-.04.95Z"/>
    <path class="cls-6" d="M487.03 251.46c.41-2.72.78-5.31 1.1-7.79.31-2.5.47-4.99.47-7.49s-.15-4.99-.47-7.49c-.31-2.5-.69-5.07-1.1-7.79 2.72.41 5.31.78 7.8 1.1 2.5.31 4.99.47 7.5.47s4.99-.15 7.5-.47c2.5-.31 5.08-.69 7.8-1.1-.41 2.72-.78 5.3-1.1 7.79-.31 2.5-.47 4.99-.47 7.49s.15 4.99.47 7.49c.31 2.5.69 5.08 1.1 7.79-2.72-.41-5.31-.78-7.8-1.1-2.5-.31-4.99-.47-7.5-.47s-4.99.15-7.5.47c-2.5.31-5.08.69-7.8 1.1Z"/>
    <path class="cls-7" d="M487.03 220.91c-.66-2.67-1.32-5.19-1.98-7.61a58.13 58.13 0 0 0-2.44-7.09c-.96-2.3-2.06-4.55-3.3-6.73a280.04 280.04 0 0 0-4-6.78c2.67-.66 5.2-1.31 7.63-1.98 2.43-.66 4.8-1.48 7.1-2.43 2.31-.96 4.56-2.05 6.74-3.29 2.18-1.24 4.45-2.58 6.8-3.99.66 2.66 1.32 5.19 1.98 7.61a58.13 58.13 0 0 0 2.44 7.09c.96 2.3 2.06 4.55 3.3 6.73 1.24 2.18 2.58 4.44 4 6.78-2.67.66-5.2 1.31-7.62 1.98-2.43.66-4.8 1.48-7.1 2.44s-4.56 2.05-6.74 3.29-4.45 2.58-6.8 3.99Z"/>
    <path class="cls-5" d="M517.63 251.46c.41-2.72.78-5.31 1.1-7.79.31-2.5.47-4.99.47-7.49s-.15-4.99-.47-7.49c-.31-2.5-.69-5.07-1.1-7.79 2.72.41 5.31.78 7.8 1.1 2.5.31 4.99.47 7.5.47s4.99-.15 7.5-.47c2.5-.31 5.08-.69 7.8-1.1-.41 2.72-.78 5.3-1.1 7.79-.31 2.5-.47 4.99-.47 7.49s.15 4.99.47 7.49c.31 2.5.69 5.08 1.1 7.79-2.72-.41-5.31-.78-7.8-1.1-2.5-.31-4.99-.47-7.5-.47s-4.99.15-7.5.47c-2.5.31-5.08.69-7.8 1.1Z"/>
    <path d="M548.24 220.91c-1.64-2.21-3.21-4.3-4.75-6.29a60.643 60.643 0 0 0-4.97-5.62 59.237 59.237 0 0 0-5.63-4.96c-1.99-1.54-4.09-3.11-6.3-4.74 2.21-1.63 4.3-3.2 6.3-4.74 1.99-1.54 3.87-3.2 5.63-4.96 1.76-1.76 3.42-3.63 4.97-5.62 1.55-1.99 3.12-4.08 4.75-6.29 1.64 2.21 3.21 4.3 4.75 6.29s3.21 3.86 4.97 5.62c1.76 1.76 3.64 3.42 5.63 4.96 1.99 1.54 4.09 3.11 6.3 4.74-2.21 1.63-4.3 3.2-6.3 4.74-1.99 1.54-3.87 3.2-5.63 4.96a60.643 60.643 0 0 0-4.97 5.62c-1.55 1.99-3.12 4.08-4.75 6.29Z" style="fill:#01bdc5"/>
    <path class="cls-5" d="M548.24 177.7c-1.64-2.21-3.21-4.3-4.75-6.29a60.643 60.643 0 0 0-4.97-5.62 59.237 59.237 0 0 0-5.63-4.96c-1.99-1.54-4.09-3.11-6.3-4.74 2.21-1.63 4.3-3.2 6.3-4.74 1.99-1.54 3.87-3.2 5.63-4.96 1.76-1.76 3.42-3.63 4.97-5.62 1.55-1.99 3.12-4.08 4.75-6.29 1.64 2.21 3.21 4.3 4.75 6.29s3.21 3.86 4.97 5.62c1.76 1.76 3.64 3.42 5.63 4.96 1.99 1.54 4.09 3.11 6.3 4.74-2.21 1.63-4.3 3.2-6.3 4.74-1.99 1.54-3.87 3.2-5.63 4.96a60.643 60.643 0 0 0-4.97 5.62c-1.55 1.99-3.12 4.08-4.75 6.29Z"/>
    <path d="M591.53 220.91c-1.64-2.21-3.21-4.3-4.75-6.29a60.643 60.643 0 0 0-4.97-5.62 59.237 59.237 0 0 0-5.63-4.96c-1.99-1.54-4.09-3.11-6.3-4.74 2.21-1.63 4.3-3.2 6.3-4.74 1.99-1.54 3.87-3.2 5.63-4.96 1.76-1.76 3.42-3.63 4.97-5.62s3.12-4.08 4.75-6.29c1.64 2.21 3.21 4.3 4.75 6.29 1.55 1.99 3.21 3.86 4.97 5.62 1.76 1.76 3.64 3.42 5.63 4.96 1.99 1.54 4.09 3.11 6.3 4.74-2.21 1.63-4.3 3.2-6.3 4.74-1.99 1.54-3.87 3.2-5.63 4.96a60.643 60.643 0 0 0-4.97 5.62c-1.54 1.99-3.12 4.08-4.75 6.29Z" style="fill:#8064d8"/>
    <path class="cls-5" d="M600.48 303.63c-1.64-2.21-3.21-4.3-4.75-6.29a60.643 60.643 0 0 0-4.97-5.62c-1.76-1.76-3.64-3.42-5.63-4.96s-4.09-3.11-6.3-4.74c2.21-1.63 4.3-3.2 6.3-4.74s3.87-3.2 5.63-4.96c1.76-1.76 3.42-3.63 4.97-5.62 1.55-1.99 3.12-4.08 4.75-6.29 1.64 2.21 3.21 4.3 4.75 6.29 1.54 1.99 3.21 3.86 4.97 5.62 1.76 1.76 3.64 3.42 5.63 4.96 1.99 1.54 4.09 3.11 6.3 4.74-2.21 1.63-4.3 3.2-6.3 4.74-1.99 1.54-3.87 3.2-5.63 4.96a60.643 60.643 0 0 0-4.97 5.62c-1.55 1.99-3.12 4.08-4.75 6.29ZM434.77 273.07c-1.64-2.21-3.21-4.3-4.75-6.29a60.643 60.643 0 0 0-4.97-5.62 59.237 59.237 0 0 0-5.63-4.96c-1.99-1.54-4.09-3.11-6.3-4.74 2.21-1.63 4.3-3.2 6.3-4.74 1.99-1.54 3.87-3.2 5.63-4.96 1.76-1.76 3.42-3.63 4.97-5.62 1.55-1.99 3.12-4.08 4.75-6.29 1.64 2.21 3.21 4.3 4.75 6.29 1.55 1.99 3.21 3.86 4.97 5.62 1.76 1.76 3.64 3.42 5.63 4.96 1.99 1.54 4.09 3.11 6.3 4.74-2.21 1.63-4.3 3.2-6.3 4.74-1.99 1.54-3.87 3.2-5.63 4.96a60.643 60.643 0 0 0-4.97 5.62c-1.55 1.99-3.12 4.08-4.75 6.29Z"/>
    <path class="cls-6" d="M456.42 282.01c.41-2.72.78-5.3 1.1-7.79.31-2.5.47-4.99.47-7.48s-.15-4.99-.47-7.49c-.31-2.5-.69-5.07-1.1-7.79 2.72.41 5.31.78 7.8 1.1 2.5.31 4.99.47 7.5.47s4.99-.15 7.5-.47c2.5-.31 5.08-.69 7.8-1.1-.41 2.72-.78 5.3-1.1 7.79-.31 2.5-.47 4.99-.47 7.49s.15 4.99.47 7.48c.31 2.5.69 5.08 1.1 7.79-2.72-.41-5.31-.78-7.8-1.1s-4.99-.47-7.5-.47-4.99.15-7.5.47c-2.5.31-5.08.69-7.8 1.1Z"/>
    <path d="M548.24 282.01c.41-2.72.78-5.3 1.1-7.79.31-2.5.47-4.99.47-7.48s-.15-4.99-.47-7.49c-.31-2.5-.69-5.07-1.1-7.79 2.72.41 5.31.78 7.8 1.1 2.5.31 4.99.47 7.5.47s4.99-.15 7.5-.47c2.5-.31 5.08-.69 7.8-1.1-.41 2.72-.78 5.3-1.1 7.79-.31 2.5-.47 4.99-.47 7.49s.15 4.99.47 7.48c.31 2.5.69 5.08 1.1 7.79-2.72-.41-5.31-.78-7.8-1.1-2.5-.31-4.99-.47-7.5-.47s-4.99.15-7.5.47c-2.5.31-5.08.69-7.8 1.1Z" style="fill:#38b6e3"/>
    <path class="cls-3" d="M487.03 312.58c.64-2.7 1.02-5.31 1.33-7.79.31-2.5.52-4.99.52-7.49s-.2-4.99-.52-7.49c-.31-2.5-.7-5.09-1.33-7.79 2.71.64 5.31 1.02 7.8 1.33 2.5.31 4.99.52 7.5.52s4.99-.2 7.5-.52c2.5-.31 5.21-.7 7.8-1.33-.64 2.69-1.02 5.3-1.33 7.79-.31 2.5-.52 4.99-.52 7.49s.2 4.99.52 7.49c.31 2.5.7 5.13 1.33 7.79-2.71-.64-5.31-1.02-7.8-1.33-2.5-.31-4.99-.52-7.5-.52s-4.99.2-7.5.52c-2.5.31-5.1.7-7.8 1.33Z"/>
    <path class="cls-7" d="M517.63 312.58c.64-2.7 1.02-5.31 1.33-7.79.31-2.5.52-4.99.52-7.49s-.2-4.99-.52-7.49c-.31-2.5-.7-5.09-1.33-7.79 2.71.64 5.31 1.02 7.8 1.33 2.5.31 4.99.52 7.5.52s4.99-.2 7.5-.52c2.5-.31 5.21-.7 7.8-1.33-.64 2.69-1.02 5.3-1.33 7.79-.31 2.5-.52 4.99-.52 7.49s.21 4.99.52 7.49c.31 2.5.7 5.13 1.33 7.79-2.71-.64-5.31-1.02-7.8-1.33-2.5-.31-4.99-.52-7.5-.52s-4.99.2-7.5.52c-2.5.31-5.1.7-7.8 1.33Z"/>
    <path class="cls-3" d="M487.03 282.01c.64-2.7 1.02-5.3 1.33-7.79.31-2.5.52-4.99.52-7.48s-.2-4.99-.52-7.49c-.31-2.5-.7-5.09-1.33-7.79 2.71.64 5.31 1.02 7.8 1.33 2.5.31 4.99.52 7.5.52s4.99-.2 7.5-.52c2.5-.31 5.21-.7 7.8-1.33-.64 2.69-1.02 5.3-1.33 7.79-.31 2.5-.52 4.99-.52 7.49s.2 4.99.52 7.48c.31 2.5.7 5.13 1.33 7.79-2.71-.64-5.31-1.02-7.8-1.33-2.5-.31-4.99-.52-7.5-.52s-4.99.2-7.5.52c-2.5.31-5.1.7-7.8 1.33ZM517.63 282.01c.64-2.7 1.02-5.3 1.33-7.79.31-2.5.52-4.99.52-7.48s-.2-4.99-.52-7.49c-.31-2.5-.7-5.09-1.33-7.79 2.71.64 5.31 1.02 7.8 1.33 2.5.31 4.99.52 7.5.52s4.99-.2 7.5-.52c2.5-.31 5.21-.7 7.8-1.33-.64 2.69-1.02 5.3-1.33 7.79-.31 2.5-.52 4.99-.52 7.49s.21 4.99.52 7.48c.31 2.5.7 5.13 1.33 7.79-2.71-.64-5.31-1.02-7.8-1.33-2.5-.31-4.99-.52-7.5-.52s-4.99.2-7.5.52c-2.5.31-5.1.7-7.8 1.33ZM517.63 312.56c.24 2.8.87 5.38 1.53 7.8s1.39 4.83 2.34 7.13c.96 2.31 2.15 4.51 3.4 6.7 1.25 2.19 2.64 4.49 4.45 6.61-2.82.26-5.39.87-7.82 1.53s-4.84 1.39-7.14 2.33c-2.31.96-4.52 2.14-6.71 3.39-2.2 1.24-4.43 2.61-6.62 4.44-.26-2.82-.87-5.38-1.53-7.8s-1.39-4.83-2.34-7.13c-.95-2.29-2.15-4.51-3.4-6.7-1.25-2.19-2.62-4.42-4.45-6.6 2.82-.26 5.39-.87 7.82-1.53s4.84-1.39 7.14-2.33c2.3-.94 4.52-2.14 6.71-3.39 2.2-1.24 4.64-2.7 6.62-4.44Z"/>
    <g>
      <path d="M21.52 42.56c-2.89 0-7.46-.12-10.17-.12-1.63 0-4.39.06-6.44.12.3-5 .48-11.56.48-16.98v-7.22c0-5.42-.18-11.98-.48-16.98 1.69.06 4.52.12 6.44.12 2.89 0 7.16-.12 10.17-.12 14.27 0 21.85 5.18 21.85 19.75 0 15.89-11.38 21.43-21.85 21.43ZM20.14 3.97c-2.95 0-5.96.24-8.37.6-.24 3.61-.3 9.69-.3 13.72v7.16c0 3.85.06 10.35.3 13.91 1.69.36 4.46.54 7.1.54 8.25 0 17.4-3.19 17.4-18.78 0-13.73-6.92-17.16-16.13-17.16ZM73.34 25.58c0 .54-.06 1.45-.18 2.29l-.36.36c-4.52-.06-9.69-.12-12.94-.12h-6.8c-.06.54-.06 1.02-.06 1.5 0 6.02 3.31 10.96 10.11 10.96 3.61 0 6.8-1.5 8.79-3.79l.6.3c-.3 1.08-.54 2.59-.6 3.37-2.47 1.75-6.32 2.95-10.35 2.95-9.09 0-14.81-5.6-14.81-14.87 0-8.79 5.3-15.35 14.39-15.35 8.49 0 12.22 5.72 12.22 12.4ZM60.88 15.41c-5.6 0-7.53 6.08-7.77 10.29h6.2c2.53 0 6.32-.06 8.13-.12 0-4.27-.72-10.17-6.56-10.17ZM84.3 43.16c-3.01 0-6.32-.9-7.77-1.69.12-1.38.54-3.61 1.15-5.48h.96c.78 3.25 3.49 4.82 6.5 4.82s5.78-1.56 5.78-5.18c0-3.37-2.05-4.45-6.38-5.9-3.61-1.2-6.8-2.83-6.8-7.95 0-6.32 5.6-8.49 10.11-8.49 2.89 0 5.9.6 7.46 1.38-.48 1.2-1.08 3.49-1.38 5.24h-.96c-.6-2.65-1.93-4.45-5.3-4.45-2.65 0-5.06 1.32-5.06 4.52 0 2.95 2.05 4.15 5.54 5.24 5 1.57 7.89 3.61 7.89 8.07 0 6.68-5.54 9.87-11.74 9.87ZM104.29 7.04c-1.93 0-3.49-1.62-3.49-3.55S102.36 0 104.29 0s3.49 1.63 3.49 3.49-1.57 3.55-3.49 3.55Zm0 35.4c-1.08 0-2.41.06-3.25.12.3-3.31.42-10.05.42-13.66v-2.53c0-3.61-.12-8.91-.42-12.34.84.06 2.17.12 3.25.12s2.41-.06 3.25-.12c-.3 3.55-.42 8.73-.42 12.34v2.53c0 3.61.12 10.23.42 13.66-.84-.06-2.17-.12-3.25-.12ZM117.97 41.78c-2.47-.54-4.22-2.05-4.22-4.39 0-3.19 2.71-4.69 5.48-5.36v-.12c-3.37-1.02-6.2-3.79-6.2-8.31 0-7.28 5-10.29 11.98-10.29 1.63 0 3.85.36 5.72.78.72.18 2.23.36 3.19.36l6.62-.24v2.35h-6.26l-.06.12c1.8 1.26 2.47 3.31 2.47 5.96 0 6.44-4.7 10.05-11.56 10.05-1.08 0-2.05-.06-2.83-.12-1.93-.24-3.61.9-3.67 2.83-.06 2.29 2.35 2.65 8.85 2.71 7.41.12 12.4 1.57 12.4 8.25s-5.48 12.58-15.17 12.58c-6.26 0-13.24-2.35-13.3-9.81 0-2.11.72-3.91 1.62-5 1.51-.78 3.13-1.51 4.94-2.17v-.18Zm6.8.72c-1.45-.06-3.55-.12-5-.24-1.99.84-3.73 2.77-3.73 6.62 0 6.02 4.39 7.95 8.61 7.95 4.58 0 9.75-2.29 9.75-8.13 0-4.69-3.07-6.02-9.63-6.2Zm.06-27.09c-4.39 0-5.96 3.25-5.96 7.83s1.99 7.4 6.02 7.4 6.02-3.43 6.02-7.83c0-4.7-1.75-7.4-6.08-7.4ZM166.66 42.44c-1.15 0-2.47.06-3.19.12.24-3.73.36-10.65.36-15.17v-1.81c0-4.03-.78-8.73-6.02-8.73-4.88 0-7.71 3.55-7.71 9.51v4.03c0 3.61.12 8.73.42 12.16-.84-.06-2.11-.12-3.25-.12-1.08 0-2.35.06-3.19.12.3-3.37.42-10.05.42-13.66v-2.53c0-3.61-.12-8.37-.42-12.34 1.14.06 2.11.12 3.19.12 1.02 0 2.11-.06 2.95-.12-.12 1.45-.18 3.07-.18 4.82h.24c2.11-3.31 5.48-5.42 9.51-5.42 7.71 0 9.81 4.63 9.81 10.41 0 1.99-.18 4.82-.18 7.65v.72c0 2.65.12 7.95.3 10.35-.72-.06-2.05-.12-3.07-.12ZM179.65 7.04c-1.93 0-3.49-1.62-3.49-3.55S177.72 0 179.65 0s3.49 1.63 3.49 3.49-1.57 3.55-3.49 3.55Zm0 35.4c-1.08 0-2.41.06-3.25.12.3-3.31.42-10.05.42-13.66v-2.53c0-3.61-.12-8.91-.42-12.34.84.06 2.17.12 3.25.12s2.41-.06 3.25-.12c-.3 3.55-.42 8.73-.42 12.34v2.53c0 3.61.12 10.23.42 13.66-.84-.06-2.17-.12-3.25-.12ZM211.01 42.44c-1.14 0-2.47.06-3.19.12.24-3.73.36-10.65.36-15.17v-1.81c0-4.03-.78-8.73-6.02-8.73-4.88 0-7.71 3.55-7.71 9.51v4.03c0 3.61.12 8.73.42 12.16-.84-.06-2.11-.12-3.25-.12-1.08 0-2.35.06-3.19.12.3-3.37.42-10.05.42-13.66v-2.53c0-3.61-.12-8.37-.42-12.34 1.14.06 2.11.12 3.19.12 1.02 0 2.11-.06 2.95-.12-.12 1.45-.18 3.07-.18 4.82h.24c2.11-3.31 5.48-5.42 9.51-5.42 7.71 0 9.81 4.63 9.81 10.41 0 1.99-.18 4.82-.18 7.65v.72c0 2.65.12 7.95.3 10.35-.72-.06-2.05-.12-3.07-.12ZM223.29 41.78c-2.47-.54-4.21-2.05-4.21-4.39 0-3.19 2.71-4.69 5.48-5.36v-.12c-3.37-1.02-6.2-3.79-6.2-8.31 0-7.28 5-10.29 11.98-10.29 1.62 0 3.85.36 5.72.78.72.18 2.23.36 3.19.36l6.62-.24v2.35h-6.26l-.06.12c1.81 1.26 2.47 3.31 2.47 5.96 0 6.44-4.69 10.05-11.56 10.05-1.08 0-2.05-.06-2.83-.12-1.93-.24-3.61.9-3.67 2.83-.06 2.29 2.35 2.65 8.85 2.71 7.4.12 12.4 1.57 12.4 8.25s-5.48 12.58-15.17 12.58c-6.26 0-13.24-2.35-13.3-9.81 0-2.11.72-3.91 1.62-5 1.5-.78 3.13-1.51 4.94-2.17v-.18Zm6.8.72c-1.45-.06-3.55-.12-5-.24-1.99.84-3.73 2.77-3.73 6.62 0 6.02 4.39 7.95 8.61 7.95 4.57 0 9.75-2.29 9.75-8.13 0-4.69-3.07-6.02-9.63-6.2Zm.06-27.09c-4.39 0-5.96 3.25-5.96 7.83s1.99 7.4 6.02 7.4 6.02-3.43 6.02-7.83c0-4.7-1.75-7.4-6.08-7.4ZM281.67 43.46c-13.06 0-21.73-8.37-21.73-21.49S268.61.48 281.67.48s21.79 8.25 21.79 21.49-8.67 21.49-21.79 21.49Zm0-40.51c-8.79 0-14.75 6.32-14.75 19.02s5.96 18.9 14.75 18.9 14.81-6.44 14.81-18.9-5.96-19.02-14.81-19.02ZM329.52 42.44c-1.02 0-2.11.06-2.95.12.12-1.57.18-3.19.18-4.82h-.24c-2.11 3.25-5.6 5.36-9.69 5.36-7.71 0-9.69-4.52-9.69-10.35 0-1.99.18-4.82.18-7.65v-.72c0-2.65-.12-7.95-.3-10.35.72.06 2.05.12 3.19.12 1.08 0 2.35-.06 3.13-.12-.18 3.73-.36 10.66-.36 15.17v1.75c0 4.09.72 8.73 5.9 8.73s7.83-3.79 7.83-9.45V26.2c0-3.61-.12-8.73-.42-12.16.78.06 2.17.12 3.25.12s2.35-.06 3.25-.12c-.3 3.37-.42 10.05-.42 13.67v2.53c0 3.61.12 8.37.42 12.34-1.14-.06-2.17-.12-3.25-.12ZM354.44 19.02l-.42.06c-.84-.66-2.11-.96-3.31-.96-4.27 0-6.32 3.97-6.32 8.91v2.35c0 3.61.12 9.75.42 13.18-.84-.06-2.17-.12-3.25-.12s-2.41.06-3.25.12c.3-3.31.48-10.05.48-13.66v-2.53c0-3.61-.12-8.73-.48-12.34.84.06 2.17.12 3.25.12s2.23-.06 2.89-.12c-.18 1.45-.36 4.21-.36 6.14h.24c2.11-4.33 4.94-6.56 8.49-6.56 1.2 0 2.29.18 3.01.42l.12.36c-.48.96-1.2 3.25-1.5 4.64ZM38.56 84.07v4.82c0 6.14.12 11.92.24 15.29h-2.95C30.91 97.86 19.48 84.56 9.9 74.14c-.42-.42-.78-.96-1.26-1.57l-.18.06v10.23c0 7.22.36 16.37 1.08 21.19-.78-.06-1.81-.12-2.47-.12s-1.69.06-2.47.12c.48-4.82.78-13.97.78-21.19v-3.01c0-7.58-.18-14.51-.24-17.28h3.25c7.04 8.85 18.9 22.03 25.88 29.62.36.36.66.78 1.15 1.32l.12-.06v-9.39c0-7.22-.36-16.37-1.08-21.19.96.06 1.8.12 2.53.12.66 0 1.69-.06 2.35-.12-.48 4.82-.78 13.97-.78 21.19ZM69.37 87.08c0 .54-.06 1.45-.18 2.29l-.36.36c-4.51-.06-9.69-.12-12.94-.12h-6.8c-.06.54-.06 1.02-.06 1.5 0 6.02 3.31 10.96 10.11 10.96 3.61 0 6.8-1.5 8.79-3.79l.6.3c-.3 1.08-.54 2.59-.6 3.37-2.47 1.75-6.32 2.95-10.35 2.95-9.09 0-14.81-5.6-14.81-14.87 0-8.79 5.3-15.35 14.39-15.35 8.49 0 12.22 5.72 12.22 12.4ZM56.91 76.91c-5.6 0-7.53 6.08-7.76 10.29h6.2c2.53 0 6.32-.06 8.13-.12 0-4.27-.72-10.17-6.56-10.17ZM103.62 104.05c-.48-.06-1.57-.12-2.29-.12-.78 0-1.69.06-2.35.12-1.02-3.85-4.15-13.66-6.86-21.49h-.24c-2.29 6.02-5.9 16.19-7.65 21.49-.54-.06-1.75-.12-2.35-.12-.78 0-1.69.06-2.29.12-1.2-4.39-6.38-19.26-9.87-28.41l.24-.12c.9.06 2.17.12 2.95.12 1.02 0 2.47 0 3.49-.12 1.75 6.44 4.82 15.89 7.1 22.21h.18c1.99-5.36 5.9-16.86 7.28-22.21.72.06 1.63.12 2.23.12.72 0 1.87-.06 2.41-.12 1.87 6.68 4.94 16.01 7.22 22.21h.18c2.05-5.3 6.14-16.62 7.58-22.21.66.06 1.38.12 1.93.12.66 0 1.5-.06 2.05-.12l.18.12c-3.73 8.61-9.21 22.75-11.14 28.41ZM143.1 104.05c-2.89 0-7.46-.12-10.17-.12-1.62 0-4.39.06-6.44.12.3-5 .48-11.56.48-16.98v-7.22c0-5.42-.18-11.98-.48-16.98 1.68.06 4.51.12 6.44.12 2.89 0 7.16-.12 10.17-.12 14.27 0 21.85 5.18 21.85 19.75 0 15.89-11.38 21.43-21.85 21.43Zm-1.38-38.59c-2.95 0-5.96.24-8.37.6-.24 3.61-.3 9.69-.3 13.72v7.16c0 3.85.06 10.35.3 13.91 1.68.36 4.45.54 7.1.54 8.25 0 17.4-3.19 17.4-18.78 0-13.73-6.92-17.16-16.13-17.16ZM173.02 68.53c-1.93 0-3.49-1.62-3.49-3.55s1.57-3.49 3.49-3.49 3.49 1.63 3.49 3.49-1.57 3.55-3.49 3.55Zm0 35.4c-1.08 0-2.41.06-3.25.12.3-3.31.42-10.05.42-13.66v-2.53c0-3.61-.12-8.91-.42-12.34.84.06 2.17.12 3.25.12s2.41-.06 3.25-.12c-.3 3.55-.42 8.73-.42 12.34v2.53c0 3.61.12 10.23.42 13.66-.84-.06-2.17-.12-3.25-.12ZM186.7 103.27c-2.47-.54-4.22-2.05-4.22-4.39 0-3.19 2.71-4.69 5.48-5.36v-.12c-3.37-1.02-6.2-3.79-6.2-8.31 0-7.28 5-10.29 11.98-10.29 1.63 0 3.85.36 5.72.78.72.18 2.23.36 3.19.36l6.62-.24v2.35h-6.26l-.06.12c1.8 1.26 2.47 3.31 2.47 5.96 0 6.44-4.7 10.05-11.56 10.05-1.08 0-2.05-.06-2.83-.12-1.93-.24-3.61.9-3.67 2.83-.06 2.29 2.35 2.65 8.85 2.71 7.41.12 12.4 1.57 12.4 8.25s-5.48 12.58-15.17 12.58c-6.26 0-13.24-2.35-13.3-9.81 0-2.11.72-3.91 1.62-5 1.51-.78 3.13-1.51 4.94-2.17v-.18Zm6.8.72c-1.45-.06-3.55-.12-5-.24-1.99.84-3.73 2.77-3.73 6.62 0 6.02 4.39 7.95 8.61 7.95 4.58 0 9.75-2.29 9.75-8.13 0-4.69-3.07-6.02-9.63-6.2Zm.06-27.09c-4.39 0-5.96 3.25-5.96 7.83s1.99 7.4 6.02 7.4 6.02-3.43 6.02-7.83c0-4.7-1.75-7.4-6.08-7.4ZM216.09 68.53c-1.93 0-3.49-1.62-3.49-3.55s1.56-3.49 3.49-3.49 3.49 1.63 3.49 3.49-1.57 3.55-3.49 3.55Zm0 35.4c-1.08 0-2.41.06-3.25.12.3-3.31.42-10.05.42-13.66v-2.53c0-3.61-.12-8.91-.42-12.34.84.06 2.17.12 3.25.12s2.41-.06 3.25-.12c-.3 3.55-.42 8.73-.42 12.34v2.53c0 3.61.12 10.23.42 13.66-.84-.06-2.17-.12-3.25-.12ZM233.7 104.41c-4.64 0-6.32-2.77-6.32-7.46 0-4.39.36-12.04.36-18.9h-4.7V75.7h4.76c0-1.32 0-3.79-.12-6.2 1.5-.48 4.34-1.51 5.78-2.47l.42.24c-.24 2.41-.48 6.38-.48 8.43h7.28v2.35h-7.34c-.18 5.12-.36 11.68-.36 16.55 0 4.27.66 6.8 4.15 6.8 1.27 0 2.65-.3 3.43-.66l.24.12.12 1.56c-1.99 1.26-4.82 1.99-7.22 1.99ZM265.19 104.23c-3.19 0-4.76-1.69-5.06-4.21-1.81 2.23-4.82 4.39-8.91 4.39s-8.07-2.41-8.07-7.89c0-4.94 3.07-7.34 8.43-8.37 7.83-1.51 8.61-2.05 8.61-3.55v-.72c0-3.91-1.69-6.62-6.44-6.62-3.31 0-5.6 2.11-6.2 6.02h-1.14c-.18-2.05-.6-4.03-.9-5.24 2.17-2.05 6.38-3.37 10.17-3.37 8.91 0 10.29 4.69 10.29 10.78 0 2.83-.3 8.97-.3 11.98s.78 4.69 3.19 4.69c.48 0 .78 0 1.02-.06v1.38c-1.2.42-3.07.78-4.69.78Zm-16.25-8.43c0 4.15 2.23 5.54 4.82 5.54s5.48-1.75 6.26-4.52c.18-2.05.24-5.6.24-8.43-8.07 1.32-11.32 2.77-11.32 7.4ZM277.16 103.93c-1.15 0-2.47.06-3.31.12.24-4.82.42-12.76.42-18.18v-7.16c0-5.42-.18-15.41-.42-19.81.84.06 2.17.12 3.31.12 1.02 0 2.35-.06 3.19-.12-.24 4.39-.42 14.39-.42 19.81v7.16c0 5.42.18 13.3.42 18.18-.78-.06-2.17-.12-3.19-.12ZM331.63 104.05c-1.32-.06-3.01-.12-4.09-.12-.9 0-2.11.06-3.37.12-1.08-3.91-3.25-10.11-5.24-15.53-2.11-.06-5.3-.06-7.83-.06s-4.87 0-7.22.06c-2.35 5.66-4.64 11.86-5.66 15.53a27.8 27.8 0 0 0-2.29-.12c-.84 0-1.8.06-2.47.12l-.18-.12c6.68-14.09 13.06-27.87 18.96-41.54h3.01c4.94 13.36 13.49 34.91 16.56 41.54l-.18.12Zm-19.68-34.07c-1.8 3.85-5.18 11.44-6.92 15.71 1.68.06 4.21.06 6.2.06 2.17 0 4.94 0 6.68-.06-1.2-3.31-4.09-11.14-5.96-15.71ZM350.66 80.51l-.42.06c-.84-.66-2.11-.96-3.31-.96-4.27 0-6.32 3.97-6.32 8.91v2.35c0 3.61.12 9.75.42 13.18-.84-.06-2.17-.12-3.25-.12s-2.41.06-3.25.12c.3-3.31.48-10.05.48-13.66v-2.53c0-3.61-.12-8.73-.48-12.34.84.06 2.17.12 3.25.12s2.23-.06 2.89-.12c-.18 1.45-.36 4.21-.36 6.14h.24c2.11-4.33 4.94-6.56 8.49-6.56 1.2 0 2.29.18 3.01.42l.12.36c-.48.96-1.2 3.25-1.5 4.64ZM375.78 101.83c-1.99 1.75-5.6 2.95-9.69 2.95-7.58 0-14.81-4.27-14.81-15.05s7.71-14.93 15.53-14.93c4.22 0 8.07 1.2 9.75 2.41-.6 1.32-1.26 3.67-1.57 5.42l-1.02.06c-.66-3.25-2.95-5.48-6.8-5.48-6.8 0-9.57 5.96-9.57 12.46 0 7.16 3.25 12.16 9.99 12.16 3.43 0 6.32-1.32 8.07-3.85l.72.36c-.3.84-.6 2.59-.6 3.49ZM385.27 80.39h.24c2.17-3.37 5.48-5.48 9.57-5.48 7.71 0 9.81 4.69 9.81 10.41 0 1.99-.18 4.82-.18 7.65v.72c0 2.65.12 7.95.3 10.35-.72-.06-2.05-.12-3.13-.12s-2.41.06-3.25.12c.24-3.73.48-10.65.48-15.17v-1.81c0-4.21-.96-8.73-6.08-8.73-4.57 0-7.64 3.43-7.64 9.69v3.85c0 3.61.12 8.73.42 12.16-.78-.06-2.17-.12-3.25-.12s-2.41.06-3.25.12c.24-4.82.42-12.76.42-18.18v-6.44c0-5.42-.18-15.77-.42-20.53.84.06 2.17.12 3.25.12s2.47-.06 3.31-.12c-.42 4.75-.6 15.05-.6 20.53v.96ZM413.74 68.53c-1.93 0-3.49-1.62-3.49-3.55s1.57-3.49 3.49-3.49 3.49 1.63 3.49 3.49-1.57 3.55-3.49 3.55Zm0 35.4c-1.08 0-2.41.06-3.25.12.3-3.31.42-10.05.42-13.66v-2.53c0-3.61-.12-8.91-.42-12.34.84.06 2.17.12 3.25.12s2.41-.06 3.25-.12c-.3 3.55-.42 8.73-.42 12.34v2.53c0 3.61.12 10.23.42 13.66-.84-.06-2.17-.12-3.25-.12ZM431.38 104.41c-4.64 0-6.32-2.77-6.32-7.46 0-4.39.36-12.04.36-18.9h-4.7V75.7h4.76c0-1.32 0-3.79-.12-6.2 1.5-.48 4.34-1.51 5.78-2.47l.42.24c-.24 2.41-.48 6.38-.48 8.43h7.28v2.35h-7.34c-.18 5.12-.36 11.68-.36 16.55 0 4.27.66 6.8 4.15 6.8 1.27 0 2.65-.3 3.43-.66l.24.12.12 1.56c-1.99 1.26-4.82 1.99-7.22 1.99ZM465.23 87.08c0 .54-.06 1.45-.18 2.29l-.36.36c-4.51-.06-9.69-.12-12.94-.12h-6.8c-.06.54-.06 1.02-.06 1.5 0 6.02 3.31 10.96 10.11 10.96 3.61 0 6.8-1.5 8.79-3.79l.6.3c-.3 1.08-.54 2.59-.6 3.37-2.47 1.75-6.32 2.95-10.35 2.95-9.09 0-14.81-5.6-14.81-14.87 0-8.79 5.3-15.35 14.39-15.35 8.49 0 12.22 5.72 12.22 12.4Zm-12.46-10.17c-5.6 0-7.53 6.08-7.76 10.29h6.2c2.53 0 6.32-.06 8.13-.12 0-4.27-.72-10.17-6.56-10.17ZM492.67 101.83c-1.99 1.75-5.6 2.95-9.69 2.95-7.58 0-14.81-4.27-14.81-15.05s7.71-14.93 15.53-14.93c4.21 0 8.07 1.2 9.75 2.41-.6 1.32-1.27 3.67-1.57 5.42l-1.02.06c-.66-3.25-2.95-5.48-6.8-5.48-6.8 0-9.57 5.96-9.57 12.46 0 7.16 3.25 12.16 9.99 12.16 3.43 0 6.32-1.32 8.07-3.85l.72.36c-.3.84-.6 2.59-.6 3.49ZM506.33 104.41c-4.64 0-6.32-2.77-6.32-7.46 0-4.39.36-12.04.36-18.9h-4.69V75.7h4.76c0-1.32 0-3.79-.12-6.2 1.5-.48 4.33-1.51 5.78-2.47l.42.24c-.24 2.41-.48 6.38-.48 8.43h7.28v2.35h-7.34c-.18 5.12-.36 11.68-.36 16.55 0 4.27.66 6.8 4.15 6.8 1.26 0 2.65-.3 3.43-.66l.24.12.12 1.56c-1.99 1.26-4.82 1.99-7.22 1.99ZM538.17 103.93c-1.02 0-2.11.06-2.95.12.12-1.57.18-3.19.18-4.82h-.24c-2.11 3.25-5.6 5.36-9.69 5.36-7.71 0-9.69-4.52-9.69-10.35 0-1.99.18-4.82.18-7.65v-.72c0-2.65-.12-7.95-.3-10.35.72.06 2.05.12 3.19.12 1.08 0 2.35-.06 3.13-.12-.18 3.73-.36 10.66-.36 15.17v1.75c0 4.09.72 8.73 5.9 8.73s7.83-3.79 7.83-9.45v-4.03c0-3.61-.12-8.73-.42-12.16.78.06 2.17.12 3.25.12s2.35-.06 3.25-.12c-.3 3.37-.42 10.05-.42 13.67v2.53c0 3.61.12 8.37.42 12.34-1.14-.06-2.17-.12-3.25-.12ZM561.89 80.51l-.42.06c-.84-.66-2.11-.96-3.31-.96-4.27 0-6.32 3.97-6.32 8.91v2.35c0 3.61.12 9.75.42 13.18-.84-.06-2.17-.12-3.25-.12s-2.41.06-3.25.12c.3-3.31.48-10.05.48-13.66v-2.53c0-3.61-.12-8.73-.48-12.34.84.06 2.17.12 3.25.12s2.23-.06 2.89-.12c-.18 1.45-.36 4.21-.36 6.14h.24c2.11-4.33 4.94-6.56 8.49-6.56 1.2 0 2.29.18 3.01.42l.12.36c-.48.96-1.2 3.25-1.5 4.64ZM589.15 87.08c0 .54-.06 1.45-.18 2.29l-.36.36c-4.51-.06-9.69-.12-12.94-.12h-6.8c-.06.54-.06 1.02-.06 1.5 0 6.02 3.31 10.96 10.11 10.96 3.61 0 6.8-1.5 8.79-3.79l.6.3c-.3 1.08-.54 2.59-.6 3.37-2.47 1.75-6.32 2.95-10.35 2.95-9.09 0-14.81-5.6-14.81-14.87 0-8.79 5.3-15.35 14.39-15.35 8.49 0 12.22 5.72 12.22 12.4Zm-12.46-10.17c-5.6 0-7.53 6.08-7.76 10.29h6.2c2.53 0 6.32-.06 8.13-.12 0-4.27-.72-10.17-6.56-10.17Z"/>
      <g>
        <path d="M4.48 155.97v-21.84H0v-2.47h11.67v2.47H7.19v21.84H4.48ZM16.67 145.03v10.94h-2.71v-24.31h2.71v10.94h5.97v-10.94h2.71v24.31h-2.71v-10.94h-5.97ZM36.84 142.43v2.43H30.9v8.65h7.29v2.47h-10v-24.31h10v2.47H30.9v8.3h5.94ZM49.17 155.97h-2.43v-24.31h3.44l5.63 17.57v-17.57h2.4v24.31H55.4l-6.22-19.66v19.66ZM69.69 142.43v2.43h-5.94v8.65h7.29v2.47h-10v-24.31h10v2.47h-7.29v8.3h5.94ZM80.4 155.97h-3.71l-3.33-24.31H76l2.85 20.7 2.71-20.66h2.67l2.67 20.7 2.74-20.73H92l-3.3 24.31h-3.58l-2.33-16.49-2.4 16.49ZM110.99 137.53v2.19h-2.57v-2.33c0-2.19-.87-3.51-2.85-3.51s-2.85 1.32-2.85 3.51v12.85c0 2.19.9 3.51 2.85 3.51s2.85-1.32 2.85-3.51v-3.16h2.57v3.02c0 3.68-1.74 6.11-5.49 6.11s-5.45-2.43-5.45-6.11v-12.57c0-3.68 1.74-6.11 5.45-6.11s5.49 2.43 5.49 6.11ZM113.47 137.53c0-3.72 1.84-6.11 5.56-6.11s5.59 2.4 5.59 6.11v12.57c0 3.68-1.84 6.11-5.59 6.11s-5.56-2.43-5.56-6.11v-12.57Zm2.68 12.71c0 2.22.94 3.51 2.88 3.51s2.88-1.29 2.88-3.51v-12.85c0-2.19-.9-3.51-2.88-3.51s-2.88 1.32-2.88 3.51v12.85ZM129.73 155.97h-2.43v-24.31h3.44l5.63 17.57v-17.57h2.4v24.31h-2.81l-6.22-19.66v19.66ZM145.51 155.97v-21.84h-4.48v-2.47h11.67v2.47h-4.48v21.84h-2.71ZM163.63 142.43v2.43h-5.94v8.65h7.29v2.47h-10v-24.31h10v2.47h-7.29v8.3h5.94ZM173.92 145.48l-4.06 10.49h-2.57l4.9-12.54-4.58-11.77h2.81l3.75 9.72 3.79-9.72h2.54l-4.55 11.77 4.86 12.54h-2.85l-4.03-10.49ZM187.11 155.97v-21.84h-4.48v-2.47h11.67v2.47h-4.48v21.84h-2.71ZM212.98 137.53v2.19h-2.57v-2.33c0-2.19-.87-3.51-2.85-3.51s-2.85 1.32-2.85 3.51v12.85c0 2.19.9 3.51 2.85 3.51s2.85-1.32 2.85-3.51v-3.16h2.57v3.02c0 3.68-1.74 6.11-5.49 6.11s-5.45-2.43-5.45-6.11v-12.57c0-3.68 1.74-6.11 5.45-6.11s5.49 2.43 5.49 6.11ZM215.45 137.53c0-3.72 1.84-6.11 5.56-6.11s5.59 2.4 5.59 6.11v12.57c0 3.68-1.84 6.11-5.59 6.11s-5.56-2.43-5.56-6.11v-12.57Zm2.67 12.71c0 2.22.94 3.51 2.88 3.51s2.88-1.29 2.88-3.51v-12.85c0-2.19-.9-3.51-2.88-3.51s-2.88 1.32-2.88 3.51v12.85ZM231.71 155.97h-2.43v-24.31h3.44l5.63 17.57v-17.57h2.4v24.31h-2.81l-6.22-19.66v19.66ZM251.88 142.98v2.47h-5.59v10.52h-2.71v-24.31h9.65v2.47h-6.95v8.85h5.59ZM264.31 142.43v2.43h-5.94v8.65h7.29v2.47h-10v-24.31h10v2.47h-7.29v8.3h5.94ZM273.67 131.66c3.82 0 5.42 1.94 5.42 5.56v1.98c0 2.67-.94 4.34-3.02 5 2.22.66 3.06 2.47 3.06 5.07v3.79c0 1.08.03 2.08.49 2.92h-2.74c-.31-.69-.45-1.32-.45-2.95v-3.82c0-2.74-1.29-3.61-3.54-3.61h-1.91v10.38h-2.71v-24.31h5.42Zm-.7 11.46c2.15 0 3.44-.69 3.44-3.33v-2.33c0-2.19-.8-3.33-2.81-3.33h-2.64v8.99h2.01ZM290.77 142.43v2.43h-5.94v8.65h7.29v2.47h-10v-24.31h10v2.47h-7.29v8.3h5.94ZM297.12 155.97h-2.43v-24.31h3.44l5.63 17.57v-17.57h2.4v24.31h-2.81l-6.22-19.66v19.66ZM319.78 137.53v2.19h-2.57v-2.33c0-2.19-.87-3.51-2.85-3.51s-2.85 1.32-2.85 3.51v12.85c0 2.19.9 3.51 2.85 3.51s2.85-1.32 2.85-3.51v-3.16h2.57v3.02c0 3.68-1.74 6.11-5.49 6.11s-5.45-2.43-5.45-6.11v-12.57c0-3.68 1.74-6.11 5.45-6.11s5.49 2.43 5.49 6.11ZM331.01 142.43v2.43h-5.94v8.65h7.29v2.47h-10v-24.31h10v2.47h-7.29v8.3h5.94ZM345.63 155.97v-23.58h-5.31v-.73h11.39v.73h-5.31v23.58h-.76ZM353.52 137.63c0-3.4 1.46-6.15 5.14-6.15s5.21 2.74 5.21 6.15v12.36c0 3.4-1.46 6.15-5.21 6.15s-5.14-2.74-5.14-6.15v-12.36Zm.76 12.4c0 2.99 1.15 5.42 4.37 5.42s4.44-2.43 4.44-5.42V137.6c0-2.99-1.18-5.42-4.44-5.42s-4.37 2.43-4.37 5.42v12.43ZM369.43 143.88l-1.84 2.78v9.31h-.76v-24.31h.76v13.72l9.03-13.72h.83l-7.53 11.49 8.16 12.81h-.83l-7.81-12.08ZM386.19 146.14l-5.66-14.48h.76l5.31 13.44 5.31-13.44h.8l-5.77 14.48v9.83h-.76v-9.83ZM394.81 137.63c0-4.03 1.77-6.15 5.14-6.15s5.21 2.12 5.21 6.15v12.36c0 4.03-1.77 6.15-5.21 6.15s-5.14-2.12-5.14-6.15v-12.36Zm.76 12.4c0 3.58 1.49 5.42 4.37 5.42s4.44-1.84 4.44-5.42V137.6c0-3.58-1.53-5.42-4.44-5.42s-4.37 1.84-4.37 5.42v12.43ZM424.12 137.7c0 6.77-9.24 9.03-9.38 17.4v.14h9.24v.73h-10v-.52c0-9.1 9.38-11.18 9.38-17.71 0-3.06-.97-5.56-4.34-5.56s-4.3 2.64-4.3 5.56v1.32h-.73v-1.29c0-3.37 1.32-6.29 5.07-6.29s5.07 2.78 5.07 6.22ZM426.96 137.63c0-3.44 1.46-6.15 5.17-6.15s5.17 2.71 5.17 6.15v12.36c0 3.4-1.46 6.15-5.17 6.15s-5.17-2.74-5.17-6.15v-12.36Zm.76 12.36c0 3.02 1.18 5.45 4.41 5.45s4.41-2.43 4.41-5.45v-12.4c0-2.99-1.18-5.42-4.41-5.42s-4.41 2.43-4.41 5.42v12.4ZM450.33 137.7c0 6.77-9.24 9.03-9.38 17.4v.14h9.24v.73h-10v-.52c0-9.1 9.38-11.18 9.38-17.71 0-3.06-.97-5.56-4.34-5.56s-4.31 2.64-4.31 5.56v1.32h-.73v-1.29c0-3.37 1.32-6.29 5.07-6.29s5.07 2.78 5.07 6.22ZM463.33 137.7c0 6.77-9.24 9.03-9.38 17.4v.14h9.24v.73h-10v-.52c0-9.1 9.38-11.18 9.38-17.71 0-3.06-.97-5.56-4.34-5.56s-4.3 2.64-4.3 5.56v1.32h-.73v-1.29c0-3.37 1.32-6.29 5.07-6.29s5.07 2.78 5.07 6.22ZM479.69 143.88v.73h-6.81v11.36h-.76v-24.31h8.92v.73h-8.16v11.49h6.81ZM486.61 146.72c1.15-.24 2.61-.54 3.56-.88.98-.34 1.36-.95 1.36-2.95 0-1.52-.17-2.2-.68-2.88-.58-.78-1.69-1.32-2.95-1.32-4.03 0-4.1 3.32-4.1 4.64h-.68v-.58c0-2.3 1.39-4.67 4.78-4.67 2.3 0 4.3 1.32 4.3 4.2v11.48c0 1.32.44 1.63 1.02 1.59.17 0 .44-.03.68-.07v.61c-.37.07-.61.07-.81.07-.88 0-1.56-.34-1.56-2.27v-.68h-.07c-.78 2.03-2.37 3.35-4.57 3.35-2.85 0-4.44-1.93-4.44-4.98 0-2.78 1.63-4.17 4.17-4.67Zm4.91-1.12c-.54.64-1.63 1.02-4.57 1.59-2.78.54-3.83 1.9-3.83 4.27 0 2.95 1.69 4.3 3.86 4.3 1.83 0 4.54-1.56 4.54-6.2v-3.96ZM496.28 131.79h.68v24.18h-.68v-24.18ZM500.67 131.79h.68v24.18h-.68v-24.18Z"/>
      </g>
    </g>
  </g>
</svg>