<svg width="251" height="82" viewBox="0 0 251 82" fill="none" xmlns="http://www.w3.org/2000/svg">
<path d="M88.9488 39.6248C88.8821 39.5551 88.8021 39.4996 88.7134 39.4617C88.6247 39.4238 88.5293 39.4042 88.4328 39.4042C88.3364 39.4042 88.2409 39.4238 88.1523 39.4617C88.0636 39.4996 87.9835 39.5551 87.9168 39.6248L80.6667 46.8973C80.6001 46.9672 80.5199 47.0228 80.4312 47.0608C80.3424 47.0988 80.2468 47.1184 80.1503 47.1184C80.0537 47.1184 79.9581 47.0988 79.8694 47.0608C79.7806 47.0228 79.7004 46.9672 79.6338 46.8973L74.4486 41.6968C74.3794 41.6295 74.3244 41.5489 74.2868 41.46C74.2493 41.371 74.2299 41.2754 74.2299 41.1788C74.2299 41.0823 74.2493 40.9867 74.2868 40.8977C74.3244 40.8087 74.3794 40.7282 74.4486 40.6608L75.4805 39.6248L78.0736 42.2261C78.6257 42.7743 79.3722 43.0821 80.1503 43.0821C80.9283 43.0821 81.6748 42.7743 82.2269 42.2261L84.82 39.6248C85.367 39.0691 85.6735 38.3207 85.6735 37.541C85.6735 36.7613 85.367 36.0129 84.82 35.4573L82.2269 32.856C81.6748 32.3077 80.9283 32 80.1503 32C79.3722 32 78.6257 32.3077 78.0736 32.856L71.8534 39.0945C71.3065 39.65 71 40.3983 71 41.1778C71 41.9573 71.3065 42.7056 71.8534 43.2611L78.0736 49.4986C78.6256 50.0471 79.3721 50.355 80.1503 50.355C80.9284 50.355 81.675 50.0471 82.2269 49.4986L90.0062 41.6958C90.0754 41.6285 90.1304 41.5479 90.168 41.4589C90.2055 41.37 90.2249 41.2744 90.2249 41.1778C90.2249 41.0812 90.2055 40.9856 90.168 40.8967C90.1304 40.8077 90.0754 40.7272 90.0062 40.6598L88.9488 39.6248ZM78.0736 37.0235L79.6338 35.4573C79.7008 35.388 79.7811 35.333 79.8698 35.2954C79.9585 35.2578 80.0539 35.2384 80.1503 35.2384C80.2466 35.2384 80.342 35.2578 80.4307 35.2954C80.5195 35.333 80.5997 35.388 80.6667 35.4573L82.2269 37.0235C82.2961 37.0908 82.351 37.1713 82.3886 37.2601C82.4261 37.349 82.4454 37.4445 82.4454 37.541C82.4454 37.6375 82.4261 37.733 82.3886 37.8219C82.351 37.9108 82.2961 37.9912 82.2269 38.0585L80.6667 39.6248C80.6001 39.6947 80.5199 39.7503 80.4312 39.7883C80.3424 39.8263 80.2468 39.8459 80.1503 39.8459C80.0537 39.8459 79.9581 39.8263 79.8694 39.7883C79.7806 39.7503 79.7004 39.6947 79.6338 39.6248L78.0736 38.0585C78.0045 37.9912 77.9495 37.9108 77.912 37.8219C77.8744 37.733 77.8551 37.6375 77.8551 37.541C77.8551 37.4445 77.8744 37.349 77.912 37.2601C77.9495 37.1713 78.0045 37.0908 78.0736 37.0235Z" fill="#F3F3F3"/>
<path d="M100.987 35.1387C99.3894 35.1387 97.8568 35.7735 96.7268 36.9035C95.5968 38.0335 94.962 39.5661 94.962 41.1641C94.962 42.7622 95.5968 44.2948 96.7268 45.4247C97.8568 46.5547 99.3894 47.1896 100.987 47.1896C102.013 47.1911 103.022 46.928 103.917 46.4257C104.811 45.9234 105.561 45.1989 106.094 44.3221L103.924 43.2341C103.547 43.7771 103.027 44.205 102.422 44.4704C101.816 44.7357 101.149 44.8282 100.494 44.7375C99.8393 44.6467 99.2225 44.3764 98.7119 43.9564C98.2014 43.5364 97.8172 42.9832 97.602 42.3582H106.863C106.947 41.9656 106.992 41.5656 106.998 41.1641C107 39.5687 106.369 38.0376 105.242 36.9076C104.116 35.7777 102.587 35.1414 100.992 35.1387H100.987ZM97.6 39.97C97.8428 39.2649 98.2997 38.6532 98.9069 38.2202C99.514 37.7871 100.241 37.5544 100.987 37.5544C101.733 37.5544 102.46 37.7871 103.067 38.2202C103.674 38.6532 104.131 39.2649 104.374 39.97H97.6Z" fill="#F3F3F3"/>
<path d="M126.203 35.1387C124.605 35.1387 123.072 35.7735 121.942 36.9035C120.812 38.0335 120.177 39.5661 120.177 41.1641C120.177 42.7622 120.812 44.2948 121.942 45.4247C123.072 46.5547 124.605 47.1896 126.203 47.1896C127.229 47.1912 128.238 46.9281 129.132 46.4258C130.027 45.9235 130.777 45.1989 131.309 44.3221L129.139 43.2341C128.763 43.7774 128.243 44.2057 127.637 44.4713C127.031 44.7369 126.364 44.8294 125.709 44.7387C125.054 44.6479 124.437 44.3774 123.927 43.9572C123.416 43.537 123.032 42.9835 122.817 42.3582H132.077C132.161 41.9655 132.205 41.5655 132.21 41.1641C132.183 37.846 129.511 35.1387 126.204 35.1387H126.203ZM122.816 39.97C123.059 39.2648 123.516 38.6529 124.123 38.2198C124.73 37.7866 125.457 37.5538 126.203 37.5538C126.949 37.5538 127.676 37.7866 128.283 38.2198C128.89 38.6529 129.347 39.2648 129.589 39.97H122.816Z" fill="#F3F3F3"/>
<path d="M162.187 35.1612C160.995 35.1573 159.828 35.5075 158.834 36.1672C157.841 36.8269 157.066 37.7666 156.607 38.8673C156.147 39.968 156.025 41.1801 156.256 42.3502C156.486 43.5203 157.058 44.5957 157.9 45.4403C158.742 46.2849 159.816 46.8607 160.985 47.0948C162.154 47.3289 163.367 47.2107 164.469 46.7552C165.571 46.2997 166.513 45.5275 167.176 44.5362C167.839 43.5449 168.193 42.3791 168.193 41.1866C168.192 39.5922 167.56 38.063 166.434 36.9337C165.309 35.8044 163.782 35.1671 162.187 35.1612ZM162.187 44.7964C161.473 44.7986 160.774 44.5888 160.179 44.1935C159.583 43.7982 159.119 43.2352 158.844 42.5758C158.569 41.9164 158.496 41.1902 158.634 40.4893C158.772 39.7883 159.115 39.1441 159.619 38.6381C160.124 38.1322 160.767 37.7872 161.468 37.647C162.168 37.5069 162.894 37.5777 163.555 37.8506C164.215 38.1234 164.779 38.5861 165.176 39.18C165.574 39.7738 165.786 40.4722 165.786 41.1866C165.786 42.1422 165.408 43.059 164.733 43.7357C164.058 44.4125 163.143 44.7939 162.187 44.7964Z" fill="#F3F3F3"/>
<path d="M151.391 41.1641V37.5544H153.802V35.1611H151.391V32.7495H148.984V35.1611H147.793V37.5544H148.984V41.1641C148.984 42.7593 149.616 44.2895 150.741 45.4197C151.867 46.5498 153.395 47.1877 154.99 47.1936V44.7739C153.006 44.8004 151.391 43.1811 151.391 41.1641Z" fill="#F3F3F3"/>
<path d="M172.983 37.5544H178.989V35.1387H172.983C172.025 35.1387 171.107 35.519 170.43 36.1959C169.753 36.8729 169.373 37.7911 169.373 38.7484C169.373 39.7058 169.753 40.624 170.43 41.3009C171.107 41.9779 172.025 42.3582 172.983 42.3582H175.39C175.701 42.3673 175.996 42.4971 176.213 42.7201C176.429 42.9432 176.55 43.2419 176.55 43.5528C176.55 43.8637 176.429 44.1624 176.213 44.3854C175.996 44.6084 175.701 44.7383 175.39 44.7474H169.384V47.163H175.39C176.348 47.163 177.266 46.7827 177.943 46.1058C178.62 45.4288 179 44.5106 179 43.5533C179 42.5959 178.62 41.6778 177.943 41.0008C177.266 40.3238 176.348 39.9435 175.39 39.9435H172.983C172.672 39.9344 172.377 39.8046 172.16 39.5816C171.944 39.3585 171.823 39.0599 171.823 38.7489C171.823 38.438 171.944 38.1393 172.16 37.9163C172.377 37.6933 172.672 37.5634 172.983 37.5544Z" fill="#F3F3F3"/>
<path d="M113.688 44.3762C113.676 44.3927 113.66 44.406 113.641 44.4152C113.623 44.4244 113.602 44.4292 113.582 44.4292C113.561 44.4292 113.541 44.4244 113.523 44.4152C113.504 44.406 113.488 44.3927 113.476 44.3762L110.592 35.1611H108.183C108.183 35.1611 111.253 45.3847 111.28 45.4377C111.332 45.634 111.413 45.8215 111.519 45.9945C111.728 46.3569 112.029 46.6583 112.391 46.8687C112.753 47.079 113.163 47.1911 113.582 47.1937C114.001 47.1981 114.415 47.0895 114.778 46.8792C115.141 46.6689 115.441 46.3647 115.646 45.9986C115.747 45.823 115.826 45.6361 115.883 45.4418C115.91 45.3847 118.979 35.1611 118.979 35.1611H116.572L113.688 44.3762Z" fill="#F3F3F3"/>
<path d="M139.988 35.1611C139.015 35.1601 138.06 35.4239 137.226 35.9242C136.392 36.4245 135.709 37.1424 135.252 38.001C135.005 38.4688 134.827 38.9695 134.722 39.4878C134.648 39.8455 134.614 40.2104 134.62 40.5758V47.1937H137.029V40.5799C137.03 39.8825 137.273 39.2071 137.716 38.6689C137.769 38.6159 137.796 38.567 137.849 38.5099C137.875 38.4833 137.875 38.4568 137.902 38.4568C138.179 38.1774 138.508 37.9559 138.872 37.8055C139.235 37.6551 139.625 37.5788 140.019 37.5809C140.412 37.581 140.802 37.6588 141.165 37.8096C141.528 37.9605 141.858 38.1816 142.136 38.4601C142.413 38.7387 142.634 39.0693 142.783 39.4331C142.933 39.7968 143.01 40.1865 143.008 40.5799V47.1937H145.416V40.5799C145.423 40.2496 145.389 39.9197 145.314 39.5979C145.087 38.3513 144.43 37.2241 143.456 36.4132C142.483 35.6022 141.255 35.1591 139.988 35.1611Z" fill="#F3F3F3"/>
</svg>
