<svg width="188" height="119" viewBox="0 0 188 119" fill="none" xmlns="http://www.w3.org/2000/svg">
<g clip-path="url(#clip0_773_890)">
<path d="M107.259 53.5347C105.407 53.5347 103.92 54.0456 102.379 54.8174C102.395 50.3585 102.45 46.4715 102.553 45L93.5605 46.7714V47.5932L94.4375 47.7098C95.6902 47.8875 96.1749 48.6316 96.3166 50.3418C96.5998 53.6124 96.5617 71.1539 96.3166 73.9691C98.7403 74.5244 101.355 74.952 103.98 74.952C111.115 74.952 115.407 70.4542 115.407 63.341C115.407 57.6383 111.921 53.5403 107.253 53.5403L107.259 53.5347ZM104.122 73.4972C103.61 73.4972 102.951 73.4139 102.586 73.3472C102.444 71.376 102.357 63.2577 102.368 56.1668C103.196 55.8836 103.746 55.8169 104.465 55.8169C107.422 55.8169 109.078 59.293 109.084 63.6797C109.094 69.2659 107.047 73.5027 104.122 73.5027" fill="black"/>
<path d="M59.644 45.6442H36V46.8048L37.2582 46.9769C39.061 47.2434 39.7582 48.3818 39.9652 50.9805C40.3682 55.9503 40.3138 64.8404 39.9652 69.1216C39.7528 71.7148 39.061 72.8531 37.2582 73.1252L36 73.2973V74.4579H51.1908V73.2973L49.5949 73.1252C47.792 72.8587 47.1003 71.7203 46.8879 69.1216C46.7408 67.3558 46.6482 64.3739 46.6156 60.8757L49.7474 60.9756C51.8389 61.0478 52.7104 62.6248 53.2169 64.9625H54.388V55.2173H53.2169C52.7104 57.5606 51.8389 59.1376 49.7474 59.2098L46.6047 59.3098C46.5829 54.7065 46.67 50.2808 46.8825 47.621H51.5503C55.1941 47.621 57.1385 49.981 58.364 54.1456L59.7693 53.7458L59.6386 45.6387L59.644 45.6442Z" fill="black"/>
<path d="M67.3238 53.3066C74.045 53.3066 77.3838 57.9488 77.3838 64.0736C77.3838 70.1984 73.6147 74.9516 66.8935 74.9516C60.1723 74.9516 56.8335 70.3094 56.8335 64.1846C56.8335 58.0599 60.6026 53.3066 67.3238 53.3066V53.3066ZM66.9752 54.6338C64.0068 54.6338 63.1734 58.7262 63.1734 64.1291C63.1734 69.532 64.4915 73.6245 67.2475 73.6245C70.216 73.6245 71.0493 69.532 71.0493 64.1291C71.0493 58.7262 69.7312 54.6338 66.9752 54.6338" fill="black"/>
<path d="M117.063 64.3185C117.057 58.6546 120.565 53.3184 127.493 53.3184C133.13 53.3184 135.821 57.5774 135.848 63.1524H123.277C123.136 68.2055 125.652 71.9204 130.456 71.9204C132.569 71.9204 133.713 71.3817 134.988 70.3878L135.576 71.1096C134.182 73.0809 131.273 74.9522 127.411 74.9522C121.355 74.9522 117.068 70.5766 117.063 64.3185ZM123.326 61.7087L129.634 61.5754C129.661 58.7324 129.214 54.6677 126.954 54.6677C124.694 54.6677 123.386 58.5158 123.332 61.7142" fill="black"/>
<path d="M151.78 54.4228C150.287 53.7231 148.054 53.3066 145.707 53.3066C140.652 53.3066 137.586 56.3218 137.586 59.8534C137.586 63.385 139.89 64.9121 143.076 66.0671C146.507 67.3164 147.406 68.2882 147.406 69.9041C147.406 71.5199 146.208 73.1247 144.056 73.1247C141.518 73.1247 139.601 71.6032 138.13 67.4108L137.101 67.6829L137.281 73.6744C138.953 74.3686 141.812 74.946 144.383 74.946C149.737 74.946 152.989 72.2807 152.989 67.955C152.989 65.0509 151.6 63.4572 148.087 62.069C144.291 60.5698 142.973 59.6258 142.973 57.8378C142.973 56.0497 144.144 54.7892 145.767 54.7892C148.207 54.7892 149.868 56.3329 150.963 59.9478L151.992 59.6757L151.764 54.4172L151.78 54.4228Z" fill="black"/>
<path d="M94.9222 53.8848C92.6564 52.5021 88.5224 53.1574 86.4254 58.0661L86.5289 53.2906L77.5691 55.062V55.8893L78.446 56.0004C79.6987 56.1781 80.1835 56.9222 80.3306 58.6324C80.6138 61.9031 80.5757 67.7447 80.3306 70.5599C80.1835 72.2647 79.6987 73.0143 78.446 73.192L77.5691 73.3086V74.4691H90.0474V73.3086L88.4189 73.192C87.1661 73.0198 86.6814 72.2647 86.5343 70.5599C86.311 67.9779 86.262 62.8359 86.4744 59.482C87.0735 58.4714 90.0038 57.6551 92.7272 59.5209L94.9276 53.8903L94.9222 53.8848Z" fill="black"/>
<path d="M127.733 51.2307C126.9 51.2307 126.36 50.8364 126.006 50.3422L126.633 49.687C126.949 50.0979 127.265 50.3311 127.722 50.3311C128.234 50.3311 128.577 49.9868 128.577 49.2539V45.6445H129.547V49.2816C129.547 50.5866 128.8 51.2307 127.733 51.2307V51.2307Z" fill="black"/>
<path d="M135.712 51.1528H134.71L134.16 49.8256H131.605L131.05 51.1528H130.075L132.45 45.6055H133.327L135.701 51.1528H135.712ZM132.88 46.7605L131.954 48.9649H133.811L132.88 46.7605V46.7605Z" fill="black"/>
<path d="M138.659 49.3816H137.586V51.1529H136.638V45.6445H138.768C140.026 45.6445 140.821 46.3664 140.821 47.4936C140.821 48.7375 139.852 49.3816 138.659 49.3816V49.3816ZM138.692 46.5274H137.586V48.5098H138.692C139.411 48.5098 139.857 48.11 139.857 47.5158C139.857 46.8606 139.4 46.5274 138.692 46.5274Z" fill="black"/>
<path d="M146.339 51.1528H145.337L144.786 49.8256H142.232L141.676 51.1528H140.701L143.076 45.6055H143.959L146.333 51.1528H146.339ZM143.506 46.7605L142.581 48.9649H144.438L143.506 46.7605V46.7605Z" fill="black"/>
<path d="M150.843 45.6445H151.78V51.1529H150.985L148.006 47.2326V51.1529H147.074V45.6445H147.951L150.843 49.4538V45.6445Z" fill="black"/>
</g>
<defs>
<clipPath id="clip0_773_890">
<rect width="117" height="29.952" fill="white" transform="translate(36 45)"/>
</clipPath>
</defs>
</svg>
