<svg width="250" height="119" viewBox="0 0 250 119" fill="none" xmlns="http://www.w3.org/2000/svg">
<path d="M68.5859 57.3386L62.4964 51.215V54.9658H62.1814C61.9742 54.4232 61.7267 53.8968 61.4412 53.3909C61.1934 52.9461 60.8792 52.5416 60.5095 52.1914C60.1483 51.857 59.7246 51.5974 59.2627 51.4276C58.7217 51.2417 58.1521 51.1529 57.5802 51.1651H54.2861V59.0604H55.483C56.0001 59.0726 56.5146 58.9834 56.9975 58.7979C57.395 58.6396 57.75 58.3906 58.0343 58.0709C58.3222 57.7318 58.5512 57.3467 58.7115 56.9317C58.9011 56.4678 59.047 55.9871 59.1472 55.496H59.4622V63.3362H59.1472C59.0352 62.869 58.9022 62.4175 58.7482 61.9818C58.605 61.5674 58.3968 61.1785 58.1314 60.8295C57.8738 60.4998 57.5467 60.231 57.1734 60.0421C56.7301 59.8361 56.2446 59.7372 55.756 59.7534H54.2861V67.7222H56.3282V68.5673H48.5851V67.7222H50.6272V62.4096L43.9314 55.2545V63.785H45.0968V64.4596H42.0232V63.785H43.0337V53.8109H42.0232V53.1206H45.8842L50.7191 58.0105V51.1651H48.5851V50.3147H61.6014L53.9502 42.6241C53.9502 42.6241 52.559 41.2199 51.1626 42.6241L36.3432 57.3386C36.3432 57.3386 34.9494 58.7402 36.3432 60.1418L51.1626 74.8589C51.1626 74.8589 52.5564 76.2579 53.9502 74.8589L68.5859 60.1418C68.5859 60.1418 69.9796 58.7402 68.5859 57.3386Z" fill="black"/>
<path d="M48.5851 51.1649H50.7269V58.0103L45.8842 53.1203H42.0231V53.7949H43.0337V63.7848H42.0231V64.4593H45.0967V63.7848H43.9313V55.2543L50.6193 62.4094V67.7219H48.5851V68.5671H56.3281V67.7219H54.2861V59.7531H55.7481C56.2366 59.7369 56.7221 59.8358 57.1654 60.0418C57.5387 60.2308 57.8658 60.4996 58.1235 60.8293C58.3889 61.1782 58.5971 61.5672 58.7403 61.9816C58.8925 62.4173 59.0255 62.8687 59.1393 63.3359H59.4542V55.4957H59.1393C59.039 55.9869 58.8932 56.4675 58.7035 56.9315C58.5456 57.3459 58.3194 57.731 58.0342 58.0706C57.7499 58.3904 57.3949 58.6394 56.9974 58.7977C56.5146 58.9832 56.0001 59.0724 55.4829 59.0602H54.2861V51.1859H57.5801C58.152 51.1736 58.7216 51.2625 59.2626 51.4484C59.7245 51.6182 60.1483 51.8778 60.5094 52.2122C60.8795 52.5564 61.1954 52.9546 61.4464 53.3933C61.7319 53.8992 61.9793 54.4256 62.1866 54.9682H62.4963V51.2147L61.6013 50.3145H48.5851V51.1649Z" fill="white"/>
<path d="M132.186 47.7725H114.102V48.2003H116.918V69.1328H114.102V69.5607H124.199V69.1328H121.354V58.4946H123.404C124.021 58.4729 124.635 58.5989 125.194 58.8621C125.665 59.0974 126.078 59.4335 126.404 59.8464C126.743 60.2854 127.009 60.7765 127.192 61.3005C127.386 61.8517 127.555 62.423 127.698 63.0145H128.094V53.505H127.698C127.569 54.1469 127.384 54.7766 127.147 55.3869C126.941 55.9121 126.647 56.3984 126.278 56.8253C125.923 57.2296 125.478 57.5444 124.979 57.744C124.368 57.9739 123.718 58.0826 123.065 58.0642H121.351V48.2108H125.974C126.703 48.1986 127.428 48.3168 128.115 48.5599C128.699 48.7741 129.235 49.1025 129.69 49.5258C130.159 49.9671 130.556 50.4779 130.869 51.0403C131.223 51.6778 131.531 52.3401 131.79 53.022H132.186V47.7725Z" fill="#231916"/>
<path d="M135.99 54.6756C136.414 54.6756 136.829 54.5498 137.181 54.3142C137.534 54.0786 137.809 53.7436 137.971 53.3518C138.133 52.96 138.176 52.5288 138.093 52.1128C138.01 51.6968 137.806 51.3147 137.506 51.0148C137.206 50.7149 136.824 50.5107 136.408 50.4279C135.992 50.3452 135.561 50.3876 135.169 50.55C134.777 50.7123 134.442 50.9871 134.207 51.3398C133.971 51.6924 133.845 52.107 133.845 52.5312C133.845 53.0999 134.071 53.6453 134.474 54.0475C134.876 54.4497 135.421 54.6756 135.99 54.6756Z" fill="#231916"/>
<path d="M155.676 60.5135C155.676 59.1661 155.304 58.1057 154.56 57.3323C153.817 56.5589 152.767 56.1722 151.413 56.1722C150.626 56.1455 149.843 56.285 149.114 56.5816C148.564 56.8169 148.057 57.1425 147.615 57.5449C147.261 57.8676 146.962 58.2452 146.728 58.6631C146.523 59.041 146.379 59.3193 146.3 59.503H146.237V56.4346H140.549V56.8651H142.568V69.1359H137.872V56.4346H132.097V56.8651H134.147V69.1359H132.097V69.5637H148.24V69.1359H146.313V62.574C146.298 61.7474 146.4 60.9228 146.618 60.1251C146.789 59.5029 147.063 58.9138 147.429 58.3822C147.734 57.9446 148.137 57.5849 148.607 57.3323C149.041 57.1023 149.523 56.9815 150.014 56.9806C150.279 56.9688 150.543 57.0164 150.787 57.1199C151.031 57.2235 151.248 57.3804 151.424 57.579C151.774 57.9763 151.949 58.6036 151.949 59.461V69.1306H150.051V69.5585H157.731V69.1306H155.676V60.5135Z" fill="#231916"/>
<path d="M182.9 61.8934C182.926 60.9706 182.738 60.0544 182.351 59.2161C182.018 58.5148 181.537 57.8935 180.942 57.3946C180.374 56.922 179.72 56.5653 179.015 56.3446C178.323 56.1223 177.6 56.0081 176.873 56.0061C175.907 55.9987 174.951 56.203 174.073 56.6045C173.23 56.9842 172.463 57.5123 171.808 58.1636C171.168 58.8023 170.654 59.5556 170.293 60.3842C169.931 61.1927 169.744 62.0681 169.742 62.9538C169.724 63.9683 169.923 64.9749 170.325 65.9067C170.692 66.7501 171.241 67.5027 171.931 68.1115C172.633 68.7241 173.449 69.1916 174.333 69.4869C175.289 69.8101 176.292 69.9707 177.301 69.9619C178.083 69.9815 178.862 69.8514 179.595 69.5787C180.176 69.3551 180.715 69.0347 181.188 68.6312C181.588 68.2857 181.925 67.8748 182.186 67.4159C182.413 67.0269 182.589 66.6106 182.711 66.177L182.28 66.0248C182.224 66.3219 182.127 66.6099 181.992 66.8805C181.792 67.3118 181.526 67.7094 181.204 68.059C180.809 68.4849 180.344 68.84 179.829 69.1089C179.19 69.4335 178.479 69.5915 177.763 69.5682C176.844 69.5682 176.13 69.3749 175.621 68.9882C175.112 68.6021 174.711 68.0901 174.459 67.5025C174.183 66.8621 174.017 66.1797 173.968 65.4841C173.908 64.7387 173.878 63.9985 173.876 63.2635V61.8934H182.9ZM173.976 59.7936C174.02 59.2397 174.138 58.6941 174.327 58.1715C174.497 57.6928 174.787 57.2661 175.17 56.9326C175.629 56.5761 176.202 56.3997 176.781 56.4365C177.192 56.4121 177.597 56.5319 177.928 56.7751C178.199 56.9903 178.405 57.2753 178.524 57.5993C178.644 57.914 178.717 58.2448 178.74 58.5809C178.761 58.9064 178.771 59.182 178.771 59.4078V61.4577H173.873C173.894 60.9354 173.928 60.3737 173.981 59.7962L173.976 59.7936Z" fill="#231916"/>
<path d="M166.7 48.2108H167.802C168.482 48.2016 169.16 48.2792 169.821 48.4418C170.402 48.5864 170.946 48.855 171.414 49.2292C171.931 49.6674 172.357 50.2024 172.668 50.8041C173.094 51.6237 173.432 52.4859 173.676 53.3763H174.075V47.7725H154.888V53.3842H155.285C155.531 52.494 155.87 51.6319 156.295 50.8119C156.606 50.2097 157.032 49.6746 157.55 49.2371C158.017 48.8635 158.56 48.5949 159.14 48.4497C159.802 48.2871 160.481 48.2095 161.162 48.2187H162.261V69.1512H159.442V69.579H169.511V69.1512H166.7V48.2108Z" fill="#231916"/>
<path d="M212.221 69.1451V60.5148C212.221 59.1674 211.848 58.107 211.103 57.3336C210.358 56.5602 209.312 56.1735 207.966 56.1735C207.188 56.1486 206.412 56.2844 205.688 56.5724C205.145 56.8001 204.643 57.1158 204.203 57.5068C203.856 57.8144 203.562 58.176 203.331 58.5777C203.137 58.9347 203 59.2051 202.919 59.3888H202.856V47.5117H197.103V47.9396H199.124V69.1477H197.103V69.5755H204.785V69.1477H202.856V62.5858C202.842 61.759 202.945 60.9344 203.163 60.1369C203.334 59.5185 203.608 58.933 203.972 58.4045C204.277 57.9669 204.68 57.6072 205.15 57.3546C205.583 57.1246 206.066 57.0038 206.557 57.0029C206.821 56.9909 207.085 57.0384 207.328 57.142C207.572 57.2456 207.789 57.4026 207.964 57.6013C208.314 57.9985 208.489 58.6259 208.489 59.4833V69.1529H206.596V69.5808H214.276V69.1529L212.221 69.1451Z" fill="#231916"/>
<path d="M196.824 66.0228C196.743 66.3221 196.636 66.6137 196.504 66.8942C196.304 67.3302 196.039 67.733 195.717 68.0885C195.328 68.5222 194.86 68.8784 194.339 69.1384C193.684 69.4517 192.964 69.6038 192.239 69.582C191.36 69.582 190.664 69.3799 190.157 68.9704C189.637 68.5511 189.236 68.0027 188.995 67.3798C188.721 66.6849 188.555 65.9518 188.504 65.2065C188.444 64.4103 188.414 63.615 188.412 62.8206C188.412 61.9614 188.448 61.1504 188.52 60.3874C188.573 59.6949 188.728 59.014 188.979 58.3664C189.185 57.8248 189.528 57.3457 189.974 56.9752C190.476 56.6023 191.092 56.4166 191.717 56.4503C192.186 56.4343 192.65 56.5567 193.05 56.802C193.214 56.9032 193.349 57.0456 193.441 57.215C193.533 57.3845 193.579 57.5751 193.575 57.7679C193.564 57.9129 193.537 58.0563 193.496 58.1958C193.446 58.4005 193.394 58.6131 193.344 58.8388C193.294 59.0646 193.242 59.2772 193.192 59.4819C193.151 59.6213 193.125 59.7648 193.116 59.9097C193.116 60.4609 193.312 60.8231 193.711 60.9964C194.122 61.1729 194.564 61.2622 195.011 61.2589C195.533 61.2921 196.051 61.1467 196.48 60.8468C196.83 60.5703 197.005 60.0961 197.005 59.4241C197.015 58.9257 196.882 58.435 196.622 58.0094C196.349 57.5849 195.985 57.2263 195.557 56.9595C195.051 56.6437 194.498 56.4115 193.919 56.2718C193.228 56.0998 192.518 56.0169 191.806 56.0251C190.693 56.0016 189.589 56.2314 188.577 56.697C187.692 57.112 186.891 57.6878 186.215 58.3952C185.596 59.0437 185.105 59.8033 184.769 60.6342C184.457 61.3832 184.293 62.1853 184.286 62.9965C184.266 63.9138 184.416 64.8269 184.729 65.6895C184.996 66.3928 185.39 67.0407 185.892 67.6003C186.344 68.0998 186.876 68.5195 187.467 68.8418C188.008 69.1355 188.577 69.3755 189.165 69.5584C189.673 69.7201 190.195 69.8334 190.724 69.897C191.205 69.9468 191.577 69.9731 191.843 69.9731C192.672 69.9984 193.498 69.8629 194.276 69.5741C194.854 69.3495 195.387 69.0233 195.851 68.6108C196.235 68.2647 196.552 67.8499 196.785 67.3877C196.98 66.9997 197.139 66.5947 197.26 66.1777L196.824 66.0228Z" fill="#231916"/>
<path d="M87.8044 53.1152C87.8044 54.4275 87.8044 68.4832 87.7782 68.6564C87.6811 69.5383 86.9199 70.1289 85.6915 70.1289C84.366 70.1289 84.3791 69.8822 84.4159 67.7483H76.4366C76.4366 68.6066 76.4864 70.1289 74.447 70.1289C73.9562 70.1289 73.4417 69.9557 73.2212 69.6617C73.0979 69.4649 73.048 69.2942 73.048 67.5619C73.048 66.9241 73.195 57.5195 73.195 55.6297C73.195 52.0443 73.0979 51.1361 72.9325 49.8106L76.7148 51.3329H84.2269L85.2348 49.8604C85.429 49.598 85.5288 49.5166 85.6994 49.5166C85.7991 49.5166 85.9199 49.5402 86.1902 49.7607L88.5656 51.7109C88.6436 51.7643 88.7099 51.833 88.7605 51.9129C88.811 51.9928 88.8447 52.0821 88.8596 52.1755C88.8596 52.5246 88.5394 52.6978 87.8044 53.1152ZM84.4159 51.913H76.4366V58.9999H84.4159V51.913ZM84.4159 59.5957H76.4366V67.1577H84.4159V59.5957Z" fill="#231916"/>
<path d="M109.33 59.6929C107.848 59.1178 106.511 58.2214 105.417 57.0681C104.104 58.0445 102.432 58.8057 101.256 59.3307C101.237 59.7405 101.058 60.1265 100.758 60.4064C100.458 60.6863 100.06 60.8381 99.65 60.8294C98.7681 60.8294 98.6552 60.3045 98.3822 58.8057L97.1433 59.2624C97.1433 66.3493 97.1433 66.1761 97.209 67.8166C97.209 67.9609 97.2326 68.6276 97.2326 68.7694C97.2326 70.15 95.5816 70.15 95.4687 70.15C94.4503 70.15 94.4503 69.6513 94.4503 69.2471C94.4503 68.247 94.474 64.239 94.474 63.3361C94.3627 63.3667 94.2496 63.3903 94.1354 63.407C93.1616 66.1446 92.5054 67.5016 90.9673 69.1814H90.7861C91.7153 65.1104 91.6681 62.1339 91.6471 61.777L94.474 62.609V60.2467C94.1117 60.3675 92.5736 60.937 92.256 61.0578C92.2114 61.1995 92.1432 61.462 91.941 61.462C91.6917 61.462 91.5552 61.294 91.487 61.0578L90.6287 58.2703C90.8334 58.2703 91.8728 58.3438 92.0093 58.3438C92.4371 58.3438 94.2692 58.2703 94.6341 58.2703C95.495 56.6954 96.873 53.3436 97.1906 51.3908L100.078 52.8423C100.212 52.9131 100.574 53.1047 100.574 53.32C100.574 53.6271 100.28 53.7006 99.6474 53.8449C99.0837 54.6918 98.4403 55.4828 97.726 56.2072C97.9885 56.2545 100.779 56.8503 101.209 58.8031C102.378 57.9326 103.407 56.8891 104.262 55.7085C103.183 54.2387 102.383 52.5841 101.899 50.8264C101.392 50.8322 100.885 50.8796 100.385 50.9682L100.023 50.0889C101.424 50.207 103.007 50.2306 103.233 50.2306H106.716L107.485 49.1125C107.509 49.0652 107.645 48.8736 107.779 48.8736C107.928 48.9012 108.064 48.9757 108.167 49.0862L110.496 50.8238C110.632 50.9419 110.858 51.1099 110.858 51.3724C110.858 51.8475 110.202 51.9682 109.774 52.0391C109.11 53.21 108.317 54.3034 107.411 55.299C109.511 56.3253 110.895 56.4434 111.482 56.4907V56.698C110.461 57.3096 109.873 58.1207 109.33 59.6929ZM96.5974 50.976C95.8295 51.915 94.9558 52.7623 93.9936 53.5011C94.3295 53.7013 94.6093 53.9831 94.807 54.3204C95.0048 54.6577 95.1141 55.0394 95.1249 55.4303C95.1249 56.3831 94.4687 56.9789 93.7206 56.9789C92.907 56.9789 92.7941 56.6193 92.4083 55.3095C91.8649 53.5247 91.1405 52.6848 90.8019 52.3357L90.8911 52.1677C91.6946 52.3653 92.4757 52.645 93.2219 53.0024C93.5605 51.6191 93.8991 49.7162 93.8781 48.8027L96.9071 50.1597C97.1696 50.2779 97.3376 50.3277 97.3376 50.5403C97.3376 50.7529 97.2063 50.8107 96.5974 50.976ZM97.5003 56.4539C97.3664 56.5957 96.3717 57.6193 95.7365 58.2388C96.0777 58.2152 97.8179 58.1679 98.2247 58.1207C98.0662 57.5326 97.8221 56.971 97.5003 56.4539ZM111.149 69.5778H101.64C100.262 69.5778 99.7629 69.625 99.1985 69.7458L98.8363 68.8638C100.238 68.982 101.821 69.0082 102.046 69.0082H103.653V63.7587H102.409C102.146 63.7587 101.212 63.7587 100.668 63.8059C100.768 64.114 100.821 64.4351 100.826 64.7587C100.826 65.9477 100.125 66.4727 99.3796 66.4727C98.4059 66.4727 98.3612 65.995 98.2484 64.6143C98.2038 64.1865 98.0436 62.4489 97.4609 61.3281L97.5738 61.1864C99.272 62.0211 99.8127 62.4489 100.288 63.092C101.17 63.1628 102.8 63.1865 102.821 63.1865H103.637C103.637 61.2573 103.637 60.2809 103.296 59.1155L106.53 59.7349C107.073 59.8294 107.278 59.9003 107.278 60.2599C107.278 60.5696 107.028 60.6903 106.44 60.9738V63.1891H107.228L108.131 61.6142C108.154 61.567 108.312 61.3045 108.469 61.3045C108.627 61.3045 108.787 61.4725 108.879 61.567L110.482 63.1419C110.687 63.3308 110.687 63.428 110.687 63.4988C110.687 63.7377 110.482 63.7613 110.349 63.7613H106.435V69.0108H107.587L108.537 67.1053C108.585 66.9845 108.742 66.7955 108.879 66.7955C109.015 66.7955 109.173 66.9373 109.286 67.0344L111.275 68.961C111.433 69.129 111.477 69.2234 111.477 69.3179C111.477 69.5253 111.317 69.5725 111.139 69.5725L111.149 69.5778ZM102.815 50.8107H102.34C103.129 52.0645 104.15 53.1559 105.348 54.026C105.951 53.0264 106.401 51.9428 106.684 50.8107H102.815Z" fill="#231916"/>
</svg>
