<svg width="251" height="119" viewBox="0 0 251 119" fill="none" xmlns="http://www.w3.org/2000/svg">
<path d="M100.18 82.2141C100.264 81.9691 100.395 81.7429 100.566 81.5479C100.736 81.3546 100.947 81.2011 101.184 81.0984C101.444 80.9869 101.726 80.9315 102.01 80.9359C102.293 80.9309 102.575 80.9863 102.835 81.0984C103.071 81.2012 103.281 81.3547 103.45 81.5479C103.622 81.742 103.753 81.9686 103.836 82.2141C103.928 82.4818 103.972 82.7631 103.97 83.046C103.972 83.3225 103.927 83.5975 103.836 83.8587C103.752 84.1012 103.621 84.3246 103.45 84.5153C103.279 84.7047 103.07 84.8548 102.835 84.9552C102.574 85.0649 102.293 85.1191 102.01 85.1146C101.727 85.1185 101.445 85.0642 101.184 84.9552C100.948 84.8548 100.738 84.7048 100.566 84.5153C100.396 84.3239 100.265 84.1008 100.18 83.8587C100.089 83.5975 100.044 83.3225 100.046 83.046C100.044 82.7631 100.088 82.4818 100.18 82.2141ZM100.983 83.5336C101.019 83.6863 101.082 83.8311 101.171 83.9608C101.255 84.0928 101.369 84.2022 101.506 84.2795C101.661 84.3602 101.834 84.3996 102.01 84.3942C102.184 84.3993 102.357 84.3598 102.513 84.2795C102.643 84.2001 102.753 84.0908 102.832 83.9608C102.919 83.8306 102.983 83.686 103.02 83.5336C103.058 83.374 103.077 83.2102 103.077 83.046C103.077 82.8743 103.058 82.7032 103.02 82.536C102.982 82.3798 102.918 82.2312 102.832 82.0962C102.753 81.966 102.643 81.8567 102.513 81.7774C102.357 81.697 102.184 81.6576 102.01 81.6626C101.834 81.6572 101.661 81.6967 101.506 81.7774C101.369 81.8546 101.255 81.9641 101.171 82.0962C101.084 82.2305 101.02 82.3794 100.983 82.536C100.944 82.7031 100.923 82.8742 100.922 83.046C100.923 83.2103 100.944 83.3741 100.983 83.5336Z" fill="black"/>
<path d="M106.341 81.0316C106.558 81.0271 106.775 81.0638 106.979 81.1399C107.14 81.2043 107.286 81.3033 107.405 81.4301C107.515 81.5466 107.596 81.686 107.645 81.838C107.749 82.1483 107.749 82.484 107.645 82.7942C107.597 82.9476 107.516 83.0881 107.405 83.2055C107.286 83.3312 107.14 83.4291 106.979 83.4923C106.776 83.5711 106.559 83.609 106.341 83.6038H105.417V85.035H104.541V81.0316H106.341ZM106.102 82.9217C106.2 82.9209 106.298 82.9135 106.395 82.8994C106.482 82.8863 106.566 82.856 106.641 82.8101C106.713 82.7669 106.772 82.7039 106.81 82.6285C106.859 82.5301 106.881 82.4198 106.873 82.3098C106.88 82.1998 106.858 82.09 106.81 81.991C106.769 81.9169 106.712 81.8543 106.641 81.8094C106.565 81.7661 106.481 81.7369 106.395 81.7233C106.298 81.7093 106.2 81.7018 106.102 81.701H105.417V82.9217H106.102Z" fill="black"/>
<path d="M111.161 81.0312V81.7708H109.054V82.625H110.988V83.3071H109.054V84.2857H111.202V85.0251H108.175V81.0312H111.161Z" fill="black"/>
<path d="M112.674 81.0312L114.338 83.7087V81.0312H115.161V85.0251H114.294L112.633 82.3509V85.0251H111.802V81.0312H112.674Z" fill="black"/>
<path d="M118.377 81.0312V85.0251H117.501V81.0312H118.377Z" fill="black"/>
<path d="M120.009 81.0312L121.676 83.7087V81.0312H122.498V85.0251H121.631L119.97 82.3509V85.0251H119.135V81.0312H120.009Z" fill="black"/>
<path d="M124.14 81.0312L125.807 83.7087V81.0312H126.629V85.0251H125.762L124.101 82.3509V85.0251H123.266V81.0312H124.14Z" fill="black"/>
<path d="M127.343 82.2137C127.427 81.9687 127.558 81.7424 127.728 81.5475C127.9 81.3549 128.111 81.2015 128.347 81.0981C128.877 80.8814 129.471 80.8814 130.002 81.0981C130.237 81.2016 130.447 81.3549 130.617 81.5475C130.786 81.7433 130.917 81.9692 131.002 82.2137C131.093 82.4814 131.139 82.7627 131.136 83.0456C131.139 83.3222 131.093 83.5971 131.002 83.8583C130.917 84.0998 130.786 84.3227 130.617 84.515C130.447 84.7029 130.24 84.8528 130.008 84.9548C129.476 85.1668 128.885 85.1668 128.353 84.9548C128.116 84.8544 127.904 84.7044 127.728 84.515C127.558 84.3235 127.427 84.1004 127.343 83.8583C127.253 83.5971 127.207 83.3222 127.209 83.0456C127.206 82.7627 127.252 82.4814 127.343 82.2137ZM128.146 83.5333C128.182 83.686 128.246 83.8308 128.335 83.9603C128.414 84.0905 128.523 84.1998 128.653 84.2791C128.81 84.3546 128.982 84.3938 129.157 84.3938C129.331 84.3938 129.503 84.3546 129.66 84.2791C129.796 84.2019 129.912 84.0923 129.995 83.9603C130.084 83.8308 130.147 83.686 130.184 83.5333C130.221 83.3735 130.241 83.2099 130.241 83.0456C130.241 82.8739 130.221 82.7029 130.184 82.5355C130.147 82.379 130.083 82.2301 129.995 82.0957C129.912 81.9637 129.796 81.8543 129.66 81.777C129.503 81.7015 129.331 81.6624 129.157 81.6624C128.982 81.6624 128.81 81.7015 128.653 81.777C128.523 81.8563 128.414 81.9656 128.335 82.0957C128.246 82.2301 128.182 82.379 128.146 82.5355C128.107 82.7029 128.089 82.8739 128.089 83.0456C128.089 83.2099 128.108 83.3735 128.146 83.5333Z" fill="black"/>
<path d="M132.456 85.0251L131.165 81.0312H132.063L132.953 83.8393L133.852 81.0312H134.757L133.434 85.0251H132.456Z" fill="black"/>
<path d="M136.835 81.0312L138.327 85.0251H137.415L137.112 84.1358H135.621L135.302 85.0251H134.416L135.927 81.0312H136.835ZM136.883 83.4823L136.38 82.0162L135.86 83.4823H136.883Z" fill="black"/>
<path d="M137.919 81.7708V81.0312H141.188V81.7708H139.991V85.0251H139.114V81.7708H137.919Z" fill="black"/>
<path d="M142.48 81.0312V85.0251H141.6V81.0312H142.48Z" fill="black"/>
<path d="M143.191 82.2137C143.276 81.9692 143.407 81.7433 143.577 81.5475C143.748 81.3549 143.959 81.2015 144.195 81.0981C144.725 80.8814 145.319 80.8814 145.849 81.0981C146.084 81.2016 146.294 81.3549 146.464 81.5475C146.634 81.7424 146.765 81.9687 146.85 82.2137C146.941 82.4814 146.986 82.7627 146.984 83.0456C146.986 83.3222 146.941 83.5971 146.85 83.8583C146.765 84.1004 146.634 84.3235 146.464 84.515C146.293 84.7036 146.083 84.8535 145.849 84.9548C145.318 85.1668 144.726 85.1668 144.195 84.9548C143.96 84.8536 143.749 84.7036 143.577 84.515C143.407 84.3227 143.277 84.0998 143.191 83.8583C143.1 83.5971 143.055 83.3222 143.057 83.0456C143.054 82.7627 143.099 82.4814 143.191 82.2137ZM143.994 83.5333C144.029 83.686 144.093 83.8308 144.182 83.9603C144.266 84.0923 144.38 84.2019 144.517 84.2791C144.674 84.3546 144.846 84.3938 145.02 84.3938C145.195 84.3938 145.367 84.3546 145.524 84.2791C145.654 84.1998 145.763 84.0905 145.842 83.9603C145.931 83.8308 145.995 83.686 146.031 83.5333C146.069 83.3735 146.088 83.2099 146.088 83.0456C146.088 82.8739 146.069 82.7029 146.031 82.5355C145.994 82.379 145.931 82.2301 145.842 82.0957C145.763 81.9656 145.654 81.8563 145.524 81.777C145.367 81.7015 145.195 81.6624 145.02 81.6624C144.846 81.6624 144.674 81.7015 144.517 81.777C144.38 81.8543 144.266 81.9637 144.182 82.0957C144.093 82.2301 144.03 82.379 143.994 82.5355C143.956 82.7029 143.936 82.8739 143.936 83.0456C143.936 83.2099 143.956 83.3735 143.994 83.5333Z" fill="black"/>
<path d="M148.425 81.0312L150.091 83.7087V81.0312H150.913V85.0251H150.037L148.377 82.3509V85.0251H147.539V81.0312H148.425Z" fill="black"/>
<path d="M112.528 87.4635C112.745 87.4575 112.962 87.4943 113.165 87.5719C113.327 87.6355 113.473 87.7333 113.593 87.8587C113.701 87.9757 113.785 88.1149 113.835 88.2667C113.883 88.4204 113.908 88.5806 113.908 88.7417C113.908 88.9017 113.883 89.0608 113.835 89.2135C113.785 89.3636 113.702 89.5007 113.593 89.6151C113.474 89.7425 113.328 89.8416 113.165 89.9051C112.962 89.9828 112.745 90.0196 112.528 90.0135H111.607V91.4446H110.727V87.4635H112.528ZM112.289 89.3409C112.387 89.3417 112.483 89.3342 112.579 89.3186C112.665 89.305 112.748 89.2758 112.824 89.2325C112.896 89.1868 112.955 89.1244 112.996 89.0509C113.044 88.9516 113.066 88.842 113.06 88.7321C113.067 88.6222 113.045 88.5124 112.996 88.4134C112.956 88.3385 112.897 88.2758 112.824 88.2318C112.749 88.1857 112.666 88.1564 112.579 88.1457C112.483 88.1301 112.387 88.1226 112.289 88.1233H111.607V89.3186L112.289 89.3409Z" fill="black"/>
<path d="M115.24 87.4648V90.716H117.184V91.4554H114.364V87.4648H115.24Z" fill="black"/>
<path d="M119.808 87.4648L121.3 91.4554H120.401L120.082 90.5662H118.606L118.288 91.4554H117.407L118.918 87.4648H119.808ZM119.855 89.9128L119.353 88.4465L118.851 89.9128H119.855Z" fill="black"/>
<path d="M120.905 88.2011V87.4648H124.175V88.2011H122.977V91.4554H122.099V88.2011H120.905Z" fill="black"/>
<path d="M127.394 87.4648V88.2011H125.482V89.1255H127.139V89.8075H125.466V91.4554H124.59V87.4648H127.394Z" fill="black"/>
<path d="M127.748 88.659C127.832 88.413 127.963 88.1858 128.133 87.9896C128.305 87.7979 128.516 87.6458 128.752 87.5433C129.282 87.3267 129.876 87.3267 130.407 87.5433C130.641 87.6458 130.851 87.7981 131.021 87.9896C131.192 88.1858 131.323 88.413 131.407 88.659C131.498 88.9256 131.543 89.2058 131.541 89.4876C131.543 89.7643 131.497 90.0393 131.407 90.3005C131.323 90.5426 131.192 90.7657 131.021 90.9571C130.851 91.1467 130.641 91.2968 130.407 91.397C129.875 91.609 129.282 91.609 128.752 91.397C128.517 91.2969 128.305 91.1468 128.133 90.9571C127.963 90.7657 127.832 90.5426 127.748 90.3005C127.657 90.0393 127.611 89.7643 127.614 89.4876C127.611 89.2058 127.657 88.9256 127.748 88.659ZM128.551 89.9786C128.588 90.131 128.652 90.2756 128.739 90.4057C128.82 90.53 128.929 90.6337 129.058 90.7085C129.215 90.784 129.387 90.8231 129.562 90.8231C129.736 90.8231 129.908 90.784 130.065 90.7085C130.193 90.6337 130.303 90.53 130.384 90.4057C130.472 90.2756 130.534 90.131 130.572 89.9786C130.61 89.8178 130.63 89.653 130.63 89.4876C130.63 89.3161 130.61 89.145 130.572 88.9777C130.537 88.8219 130.473 88.6739 130.384 88.541C130.305 88.4109 130.195 88.3016 130.065 88.2223C129.908 88.1468 129.736 88.1076 129.562 88.1076C129.387 88.1076 129.215 88.1468 129.058 88.2223C128.928 88.3016 128.819 88.4109 128.739 88.541C128.65 88.6739 128.587 88.8219 128.551 88.9777C128.512 89.145 128.493 89.3161 128.494 89.4876C128.494 89.6487 128.513 89.8092 128.551 89.9658V89.9786Z" fill="black"/>
<path d="M134.262 87.464C134.427 87.4613 134.591 87.4906 134.744 87.55C134.882 87.6038 135.008 87.6839 135.114 87.7859C135.216 87.8855 135.296 88.0048 135.35 88.1365C135.404 88.2722 135.431 88.4174 135.43 88.5637C135.436 88.7761 135.386 88.9863 135.283 89.1725C135.171 89.3549 135 89.4934 134.799 89.5644C134.897 89.5882 134.989 89.6352 135.066 89.7016C135.138 89.7625 135.197 89.836 135.242 89.9183C135.287 90.0052 135.32 90.0988 135.337 90.1955C135.359 90.2953 135.373 90.3966 135.378 90.4984C135.378 90.5589 135.378 90.6355 135.378 90.7215C135.378 90.8076 135.378 90.8936 135.397 90.9828C135.407 91.0687 135.422 91.154 135.442 91.2379C135.46 91.3108 135.492 91.3799 135.535 91.4418H134.658C134.604 91.2968 134.574 91.144 134.569 90.9892C134.569 90.814 134.541 90.645 134.518 90.4856C134.504 90.3163 134.437 90.1557 134.326 90.0267C134.193 89.9186 134.023 89.867 133.852 89.8832H132.976V91.4418H132.095V87.464H134.262ZM133.944 89.268C134.106 89.2805 134.268 89.2328 134.397 89.1341C134.452 89.0767 134.494 89.008 134.521 88.9326C134.547 88.8572 134.557 88.777 134.549 88.6976C134.557 88.6204 134.547 88.5427 134.52 88.4699C134.494 88.3972 134.452 88.3311 134.397 88.2768C134.267 88.1793 134.106 88.1327 133.944 88.146H132.988V89.268H133.944Z" fill="black"/>
<path d="M137.338 87.4648L138.273 90.2092L139.155 87.4648H140.389V91.4554H139.569V88.625L138.614 91.4554H137.938L136.949 88.6601V91.4618H136.127V87.4648H137.338Z" fill="black"/>
<path d="M100.046 26.5049V77.4587H151V26.5049H100.046ZM111.282 37.5524H117.717C120.401 37.5524 124.092 40.0769 124.092 44.5647C124.107 48.635 121.032 51.3666 117.363 51.3666H114.986V48.5936H117.363C119.455 48.5936 121.189 46.5441 121.189 44.552C121.189 41.8107 119.238 40.3128 116.93 40.3128H114.202V51.3666H111.282V37.5524ZM117.911 66.647H115.001C112.77 66.647 111.282 65.541 111.282 62.5034V52.7946H114.211V62.0954C114.211 63.3704 114.724 63.7178 115.716 63.7178H117.911V66.647ZM129.17 66.647H126.081V61.6619H123.072V58.9686H126.081V57.1039C126.081 56.0776 125.606 55.2457 124.168 55.2457C122.731 55.2457 122.288 56.0776 122.288 57.1039V66.6439H119.215V57.6235C119.215 55.2075 120.58 52.5556 124.181 52.5556C127.783 52.5556 129.17 55.2075 129.17 57.6235V66.647ZM135.984 66.647H133.967V63.8771H135.528C136.36 63.8771 136.835 63.2397 136.835 62.3345C136.835 61.1455 136.144 60.7408 135.33 60.7408H133.967V58.3151H134.697C135.688 58.3151 136.322 57.8402 136.322 56.8713C136.322 56.0012 135.786 55.3286 134.856 55.3286C133.925 55.3286 133.233 55.8832 133.233 57.2411V66.6598H130.464V57.5055C130.464 53.9994 132.321 52.5556 135.072 52.5556C137.409 52.5556 139.248 54.2194 139.248 56.5939C139.262 57.1172 139.142 57.6352 138.9 58.0992C138.657 58.5632 138.301 58.9578 137.865 59.2459C139.172 59.8833 139.777 61.1583 139.777 62.5895C139.764 64.8875 138.295 66.647 135.984 66.647ZM139.764 45.046C139.764 47.7648 137.399 51.5929 132.753 51.5929C128.63 51.5929 125.711 48.3386 125.711 44.4531C125.711 40.5677 128.63 37.3165 132.753 37.3165C134.846 37.2633 136.878 38.0347 138.409 39.4648L136.557 41.594C136.096 41.114 135.541 40.7321 134.927 40.4714C134.314 40.2107 133.655 40.0765 132.988 40.0769C130.502 40.0769 128.787 42.069 128.787 44.3735C128.787 46.678 130.502 48.6733 132.988 48.6733C134.703 48.6733 136.398 47.3122 136.675 45.7345H132.876V43.1845H139.777L139.764 45.046Z" fill="black"/>
</svg>
