<svg width="272" height="119" viewBox="0 0 272 119" fill="none" xmlns="http://www.w3.org/2000/svg">
<path d="M88.7628 50.8882C90.2495 50.839 91.7047 51.3224 92.8645 52.2506L92.0578 53.7766C91.1431 52.9512 89.9682 52.4694 88.7354 52.4141C85.2216 52.4141 83.1434 55.5478 83.1434 59.6352C83.1434 63.7226 85.2353 67.1288 88.6124 67.1288C89.9975 67.116 91.3373 66.6357 92.4133 65.7663L93.0559 67.1288C91.7826 68.1476 90.1903 68.6877 88.5577 68.6547C84.0868 68.6547 81.3934 64.7036 81.407 59.6625C81.4207 54.6213 84.1962 50.8746 88.7628 50.8882Z" fill="#5A5A5A"/>
<path d="M111.117 61.0392L106.509 51.2158H108.328L111.199 57.4695C111.568 58.3688 111.924 59.4724 111.924 59.4724C111.924 59.4724 112.32 58.3688 112.717 57.4695L115.451 51.2431H117.242L112.73 61.0392V68.4238H111.09L111.117 61.0392Z" fill="#5A5A5A"/>
<path d="M119.786 51.2423H123.983C124.663 51.2276 125.338 51.3567 125.965 51.621C126.591 51.8853 127.154 52.2789 127.616 52.7758C128.079 53.2728 128.43 53.8617 128.648 54.5039C128.865 55.1461 128.944 55.8269 128.878 56.5015C128.933 57.1748 128.847 57.8523 128.623 58.4903C128.4 59.1282 128.045 59.7125 127.581 60.2054C127.118 60.6983 126.555 61.0889 125.931 61.3521C125.306 61.6152 124.634 61.7451 123.956 61.7333H121.399V68.5457H119.758L119.786 51.2423ZM123.737 60.2346C124.218 60.2428 124.695 60.1494 125.137 59.9606C125.579 59.7718 125.976 59.4918 126.301 59.1391C126.627 58.7864 126.873 58.369 127.025 57.9144C127.177 57.4598 127.231 56.9782 127.182 56.5015C127.24 56.0235 127.193 55.5389 127.045 55.0806C126.897 54.6223 126.652 54.2011 126.327 53.8456C126.001 53.4901 125.603 53.2086 125.158 53.0204C124.713 52.8321 124.233 52.7415 123.751 52.7547H121.426V60.221L123.737 60.2346Z" fill="#5A5A5A"/>
<path d="M134.114 52.7009H129.452V51.2158H140.39V52.7145H135.81V68.4374H134.073L134.114 52.7009Z" fill="#5A5A5A"/>
<path d="M147.144 51.0518C151.04 51.0518 153.98 54.4443 153.98 59.8533C153.98 65.2623 151.04 68.8592 147.144 68.8456C143.247 68.8319 140.307 65.3304 140.307 59.826C140.307 54.3217 143.233 51.0518 147.144 51.0518ZM147.144 67.2787C150.042 67.2787 152.257 64.5538 152.271 59.8533C152.284 55.1528 150.07 52.6322 147.171 52.6186C144.272 52.605 142.044 55.3435 142.03 59.826C142.017 64.3085 144.177 67.2379 147.103 67.2379L147.144 67.2787Z" fill="#5A5A5A"/>
<path d="M168.309 51.0518C169.878 51.0453 171.404 51.5635 172.643 52.5233L171.932 53.8857C170.917 52.9939 169.607 52.5085 168.254 52.5233C164.945 52.5233 162.785 55.2482 162.785 59.7988C162.785 64.3495 165.178 67.197 168.145 67.197C168.868 67.2294 169.587 67.082 170.239 66.768C170.891 66.4541 171.454 65.9834 171.877 65.3986V61.8425H169.607V60.3438H173.34V68.5186H171.973V67.8101C171.973 67.4832 171.973 67.1153 171.973 67.1153C171.458 67.685 170.823 68.1351 170.115 68.4341C169.406 68.733 168.64 68.8735 167.871 68.8456C164.221 68.8456 161.035 65.5076 161.035 59.9351C161.035 54.3626 163.988 51.0518 168.309 51.0518Z" fill="#5A5A5A"/>
<path d="M220.427 51.0519C222.001 51.0424 223.533 51.5606 224.775 52.5233L224.064 53.8858C223.05 52.994 221.739 52.5085 220.386 52.5233C217.064 52.5233 214.849 55.2483 214.836 59.7989C214.822 64.3496 217.228 67.1971 220.195 67.1971C220.92 67.2318 221.643 67.0855 222.297 66.7714C222.951 66.4574 223.516 65.9855 223.941 65.3986V61.8426H221.74V60.3439H225.473V68.5187H224.105V67.8102C224.091 67.5788 224.091 67.3467 224.105 67.1154V67.1154C223.591 67.6865 222.957 68.1377 222.248 68.4368C221.539 68.7358 220.773 68.8755 220.004 68.8457C216.339 68.8457 213.167 65.5076 213.167 59.9352C213.167 54.3627 216.107 51.0519 220.427 51.0519Z" fill="#5A5A5A"/>
<path d="M189.678 51.2295H194.081C194.875 51.2354 195.657 51.4268 196.364 51.7881C197.088 52.2351 197.676 52.8717 198.061 53.6286C198.447 54.3855 198.617 55.2334 198.552 56.0799C198.585 57.0293 198.345 57.9685 197.861 58.7867C197.376 59.605 196.667 60.2683 195.817 60.6986V60.6986C195.817 60.6986 196.009 61.0529 196.187 61.4616L199.14 68.3966H197.335L194.382 61.1482H191.292V68.3829H189.637L189.678 51.2295ZM193.958 59.704C194.386 59.6632 194.802 59.5382 195.181 59.3362C195.561 59.1343 195.896 58.8594 196.168 58.5274C196.44 58.1955 196.644 57.813 196.766 57.4023C196.889 56.9915 196.929 56.5606 196.884 56.1344C196.931 55.5854 196.839 55.0334 196.617 54.5288C196.395 54.0242 196.05 53.5832 195.612 53.2459C195.09 52.9232 194.49 52.7446 193.876 52.7282H191.319V59.6904L193.958 59.704Z" fill="#5A5A5A"/>
<path d="M96.0092 51.2295H100.466C101.261 51.2339 102.043 51.4253 102.75 51.7881C103.476 52.2366 104.066 52.8752 104.454 53.6342C104.842 54.3933 105.014 55.2439 104.951 56.0935C104.984 57.043 104.744 57.9821 104.26 58.8004C103.775 59.6186 103.066 60.2819 102.216 60.7123C102.216 60.7123 102.408 61.0665 102.586 61.4752L105.539 68.4102H103.748L100.794 61.1619H97.6362V68.3966H95.9955L96.0092 51.2295ZM100.357 59.704C100.785 59.6632 101.201 59.5382 101.58 59.3362C101.96 59.1343 102.295 58.8594 102.567 58.5274C102.839 58.1955 103.043 57.813 103.165 57.4023C103.288 56.9915 103.328 56.5606 103.283 56.1344C103.326 55.5858 103.233 55.035 103.011 54.5311C102.789 54.0271 102.446 53.5856 102.011 53.2459C101.485 52.9209 100.881 52.7422 100.261 52.7282H97.7182V59.6904L100.357 59.704Z" fill="#5A5A5A"/>
<path d="M205.866 51.2559H207.63L212.374 68.4366H210.734L209.243 62.9867H204.171L202.667 68.4366H200.931L205.866 51.2559ZM208.929 61.5425L207.247 55.3024C207.029 54.4985 206.782 53.0543 206.782 53.0543C206.782 53.0543 206.536 54.4168 206.318 55.3024L204.609 61.5289L208.929 61.5425Z" fill="#5A5A5A"/>
<path d="M180.559 51.2559H182.295L187.067 68.4229H185.399L183.922 62.9731H178.891L177.387 68.4229H175.651L180.559 51.2559ZM183.663 61.5425L181.981 55.3024C181.762 54.4985 181.516 53.0543 181.516 53.0543C181.516 53.0543 181.256 54.4168 181.038 55.3024L179.329 61.5289L183.663 61.5425Z" fill="#5A5A5A"/>
<path d="M228.508 51.2295H236.165V52.7146H230.149V59.0092H235.03V60.4943H230.149V66.9523H236.479V68.4511H228.494L228.508 51.2295Z" fill="#5A5A5A"/>
<path d="M61.3086 61.6921C61.1446 61.5277 60.9497 61.3973 60.735 61.3083C60.5203 61.2193 60.2901 61.1734 60.0575 61.1734C59.825 61.1734 59.5948 61.2193 59.3801 61.3083C59.1654 61.3973 58.9704 61.5277 58.8065 61.6921L53.2145 67.2509C53.0506 67.4153 52.8557 67.5458 52.641 67.6348C52.4263 67.7238 52.1961 67.7696 51.9635 67.7696C51.731 67.7696 51.5007 67.7238 51.286 67.6348C51.0713 67.5458 50.8764 67.4153 50.7125 67.2509V67.2509L41.5383 58.1088C41.3734 57.9455 41.2425 57.7512 41.1532 57.5373C41.0639 57.3233 41.0179 57.0939 41.0179 56.8621C41.0179 56.6304 41.0639 56.401 41.1532 56.187C41.2425 55.9731 41.3734 55.7788 41.5383 55.6155V55.6155L46.8022 50.3564C47.134 50.0257 47.3204 49.5773 47.3204 49.1097C47.3204 48.6421 47.134 48.1937 46.8022 47.8631C46.4704 47.5324 46.0204 47.3467 45.5512 47.3467C45.082 47.3467 44.632 47.5324 44.3002 47.8631L36.5206 55.6155C36.3557 55.7788 36.2248 55.9731 36.1354 56.187C36.0461 56.401 36.0001 56.6304 36.0001 56.8621C36.0001 57.0939 36.0461 57.3233 36.1354 57.5373C36.2248 57.7512 36.3557 57.9455 36.5206 58.1088L50.7125 72.2512C50.8764 72.4156 51.0713 72.546 51.286 72.635C51.5007 72.724 51.731 72.7699 51.9635 72.7699C52.1961 72.7699 52.4263 72.724 52.641 72.635C52.8557 72.546 53.0506 72.4156 53.2145 72.2512L61.3086 64.1854C61.4735 64.0221 61.6044 63.8278 61.6937 63.6139C61.783 63.3999 61.829 63.1705 61.829 62.9387C61.829 62.707 61.783 62.4776 61.6937 62.2636C61.6044 62.0497 61.4735 61.8554 61.3086 61.6921V61.6921Z" fill="#5A5A5A"/>
<path d="M70.8656 61.6246L56.6737 47.4822C56.4191 47.2286 56.0926 47.0587 55.7382 46.9954C55.3838 46.932 55.0185 46.9783 54.6912 47.128C54.5655 47.1677 54.4492 47.2327 54.3494 47.3187L54.158 47.4822L53.6385 48.0272L46.064 55.5616C45.8986 55.7261 45.7674 55.9215 45.6779 56.1366C45.5884 56.3517 45.5424 56.5823 45.5424 56.8151C45.5424 57.048 45.5884 57.2785 45.6779 57.4936C45.7674 57.7087 45.8986 57.9041 46.064 58.0686L50.7399 62.7146C50.9039 62.8789 51.0988 63.0094 51.3135 63.0984C51.5282 63.1874 51.7584 63.2332 51.991 63.2332C52.2235 63.2332 52.4537 63.1874 52.6684 63.0984C52.8831 63.0094 53.0781 62.8789 53.242 62.7146L56.5097 59.4855C56.8392 59.1661 57.0351 58.7342 57.0579 58.2766C57.0807 57.8191 56.9288 57.3699 56.6327 57.0195C56.4734 56.8371 56.2779 56.6895 56.0587 56.5858C55.8395 56.4821 55.6011 56.4247 55.3586 56.417C55.116 56.4093 54.8745 56.4516 54.6491 56.5412C54.4237 56.6308 54.2193 56.7658 54.0486 56.9377L53.2556 57.728C53.1129 57.8729 52.9429 57.9884 52.7554 58.0678C52.5679 58.1473 52.3665 58.1892 52.1627 58.1911C51.9589 58.193 51.7568 58.1548 51.5678 58.0789C51.3788 58.0029 51.2067 57.8906 51.0612 57.7484C50.9158 57.6062 50.7999 57.4368 50.7202 57.2499C50.6404 57.063 50.5984 56.8623 50.5965 56.6592C50.5946 56.4562 50.6328 56.2547 50.7091 56.0664C50.7853 55.8781 50.898 55.7066 51.0407 55.5616V55.5616L54.3084 52.4143C54.6505 52.1433 55.0808 52.0073 55.5172 52.0325C55.9535 52.0576 56.3653 52.2421 56.6737 52.5506V52.5506L65.8479 61.6791C66.1777 62.0108 66.3627 62.4588 66.3627 62.9258C66.3627 63.3927 66.1777 63.8407 65.8479 64.1724V64.1724L62.963 67.0336C62.6325 67.3553 62.4362 67.7896 62.4134 68.2494C62.3906 68.7092 62.543 69.1606 62.84 69.5133C63.0061 69.6885 63.2064 69.8281 63.4285 69.9235C63.6507 70.019 63.8901 70.0682 64.132 70.0682C64.3739 70.0682 64.6133 70.019 64.8355 69.9235C65.0576 69.8281 65.2579 69.6885 65.424 69.5133L70.893 64.0634C71.2028 63.7308 71.3727 63.2924 71.3677 62.8386C71.3626 62.3848 71.1829 61.9502 70.8656 61.6246Z" fill="#5A5A5A"/>
</svg>
