<svg width="224" height="119" viewBox="0 0 224 119" fill="none" xmlns="http://www.w3.org/2000/svg">
<path d="M57.018 44.8127L56.9008 44.7208L56.8748 36.7029L56.9789 36.5848L59.7787 36.5586L59.909 36.6505L59.922 44.6683L59.8308 44.7864L59.8048 44.8127H57.018Z" fill="#6EB950"/>
<path d="M57.018 81.7131L56.9008 81.6212L56.8748 73.6033L56.9789 73.4852L59.7787 73.459L59.909 73.564L59.922 81.5687L59.8308 81.7L59.8048 81.7131H57.018Z" fill="#6EB950"/>
<path d="M36.1432 60.7035L36.013 60.6116L36 57.7772L36.0912 57.6591L44.0348 57.6328L44.165 57.7378L44.1911 60.5591L44.0869 60.6904L44.0739 60.7035H36.1432Z" fill="#6EB950"/>
<path d="M72.7621 60.7172L72.6449 60.6253L72.6189 57.7908L72.7101 57.6596L80.6667 57.6465L80.7839 57.7383L80.81 60.5728L80.7058 60.6909L80.6928 60.7172H72.7621Z" fill="#6EB950"/>
<path d="M37.198 52.1357L37.1199 51.9913L38.1617 49.3668L38.2919 49.2881L45.6756 52.28L45.7537 52.4113L44.6989 55.0358L44.5687 55.1145L44.5426 55.1276L37.198 52.1357Z" fill="#8CC86E"/>
<path d="M71.1213 65.9927L71.0432 65.8614L72.098 63.2369L72.2413 63.1582L79.5989 66.1501L79.6771 66.2814L78.6483 68.919L78.505 68.9846L78.479 68.9977L71.1213 65.9927Z" fill="#8CC86E"/>
<path d="M67.5925 70.336L67.5664 70.1916L69.5458 68.1708L69.6891 68.1445L75.3798 73.7216L75.4059 73.8791L73.4525 75.9131L73.3093 75.9393H73.2702L67.5925 70.336Z" fill="#A5D296"/>
<path d="M41.4173 44.5507L41.4043 44.3932L43.3446 42.3593L43.5009 42.333L49.2047 47.9363L49.2307 48.0938L47.2644 50.1016L47.1081 50.1278H47.0821L41.4173 44.5507Z" fill="#A5D296"/>
<path d="M65.6651 80.4534L62.5527 73.0654L62.6048 72.9211L65.1833 71.8057L65.3265 71.8582L68.4258 79.2199L68.3868 79.3774L65.7823 80.5059L65.6651 80.4534Z" fill="#C3DCAF"/>
<path d="M51.4707 46.4271L48.3713 39.0522L48.4104 38.8947L50.9888 37.7793L51.1451 37.8187L54.2444 45.2067L54.2054 45.3641L51.5879 46.4664L51.4707 46.4271Z" fill="#C3DCAF"/>
<path d="M62.8652 45.4819L62.7871 45.3506L65.9776 37.9889L66.1208 37.9102L68.6993 39.0387L68.7644 39.1699L65.5869 46.4923L65.4567 46.571L65.4307 46.5842L62.8652 45.4819Z" fill="#6EB950"/>
<path d="M48.1108 79.2462L48.0327 79.1019L51.2102 71.7795L51.3404 71.7139L53.9449 72.7899L54.023 72.9343L50.8195 80.2829L50.6893 80.3616L50.6632 80.3748L48.1108 79.2462Z" fill="#6EB950"/>
<path d="M43.2143 75.7687L41.2609 73.7347L41.2349 73.5772L46.9387 68.0526L47.0949 68.0264L49.1004 70.021L49.1134 70.1785L43.3445 75.7687H43.2143Z" fill="#6EB950"/>
<path d="M69.7151 50.2458L67.7096 48.2512L67.6836 48.1068L73.4395 42.5297L73.5958 42.5166L75.5491 44.5375L75.5752 44.6949L69.8453 50.2458H69.7151Z" fill="#6EB950"/>
<path d="M38.1618 68.8931L37.094 66.2817L37.1461 66.1242L44.5037 63.1191L44.66 63.1716L45.7278 65.783L45.7018 65.9274L38.2921 68.9456L38.1618 68.8931Z" fill="#6EB950"/>
<path d="M72.1631 55.1401L71.0823 52.5287L71.1213 52.3713L78.492 49.3662L78.6353 49.4187L79.7031 52.0301L79.664 52.1744L72.2803 55.1926L72.1631 55.1401Z" fill="#6EB950"/>
<path d="M107.975 51.8467H105.11V66.4915H107.975V51.8467Z" fill="black"/>
<path d="M111.413 64.2872C111.188 64.2846 110.967 64.3497 110.778 64.4741C110.59 64.5986 110.443 64.7767 110.356 64.9859C110.268 65.195 110.245 65.4256 110.288 65.6483C110.331 65.871 110.439 66.0756 110.599 66.236C110.758 66.3965 110.961 66.5055 111.182 66.5491C111.403 66.5928 111.632 66.5691 111.839 66.481C112.047 66.393 112.224 66.2446 112.347 66.0549C112.471 65.8651 112.535 65.6426 112.533 65.4157C112.529 65.1175 112.41 64.8324 112.201 64.6215C111.992 64.4106 111.709 64.2906 111.413 64.2872Z" fill="black"/>
<path d="M102.049 59.956C101.83 59.583 101.532 59.2629 101.176 59.0181C100.821 58.7734 100.417 58.6097 99.9919 58.5387C100.619 58.4165 101.18 58.0662 101.568 57.5545C101.939 56.9593 102.117 56.2619 102.075 55.5599C102.124 55.0911 102.079 54.6172 101.943 54.1664C101.806 53.7155 101.581 53.2969 101.281 52.9354C100.804 52.5216 100.245 52.215 99.6406 52.0363C99.0365 51.8575 98.4016 51.8106 97.7781 51.8987H92.7905V66.491H98.2599C100.461 66.491 101.633 65.743 102.284 63.8665C102.449 63.2868 102.524 62.6847 102.505 62.0818C102.534 61.3472 102.382 60.6168 102.062 59.956H102.049ZM95.5513 53.854C97.5567 53.854 99.1585 53.6178 99.1585 55.8617C99.1585 58.1057 96.8275 57.8695 96.8275 57.8695H95.5252L95.5513 53.854ZM96.9837 64.352H95.5513V59.746C97.7911 59.746 99.5882 59.4835 99.5882 62.0556C99.5932 62.385 99.5274 62.7115 99.3954 63.0129C99.2633 63.3143 99.0681 63.5832 98.8232 63.8014C98.5782 64.0196 98.2893 64.1817 97.9763 64.2768C97.6633 64.3718 97.3336 64.3975 97.0098 64.352H96.9837Z" fill="black"/>
<path d="M183.374 53.7756V53.7625H189V51.8203H180.353V66.5307H189V64.5886L184.663 64.5623H183.205V59.6938H188.544V57.8173L184.403 57.7911H183.205V53.7756H183.374Z" fill="black"/>
<path d="M119.812 53.5399C122 53.6187 122.234 54.6947 122.286 56.1644H125.151V55.9676C125.155 55.487 125.107 55.0073 125.008 54.5372C124.292 51.9127 122.403 51.4272 119.799 51.4141C114.968 51.4141 114.59 54.0386 114.382 57.9753V60.1799C114.382 63.9855 114.733 66.6756 119.265 66.8724C120.056 66.8931 120.837 66.6884 121.518 66.2819C122.095 65.9547 122.552 65.4484 122.82 64.8384C122.876 64.7058 122.923 64.5699 122.963 64.4316V66.5969H125.047V58.7758H120.111V60.6523H122.325C122.353 61.2623 122.318 61.8736 122.221 62.4764C122.146 63.0337 121.905 63.555 121.531 63.9724C121.308 64.1946 121.04 64.3668 120.746 64.4776C120.452 64.5885 120.138 64.6354 119.825 64.6154C117.364 64.6154 117.364 62.5945 117.364 61.5184V57.1617C117.221 56.1035 117.492 55.0308 118.119 54.1698C118.345 53.9519 118.613 53.7834 118.907 53.675C119.2 53.5666 119.513 53.5206 119.825 53.5399" fill="black"/>
<path d="M151.47 61.662C151.491 61.4482 151.491 61.2328 151.47 61.019V60.8485C151.47 60.7566 151.47 60.6647 151.47 60.586C151.425 60.4645 151.373 60.3461 151.313 60.2317C151.14 59.9144 150.883 59.6511 150.571 59.4706C150.13 59.2508 149.668 59.0793 149.191 58.9588C149.612 58.8802 150.015 58.7198 150.376 58.4864C150.524 58.39 150.664 58.2802 150.792 58.1583C150.913 58.0436 151.026 57.9209 151.131 57.7909L151.248 57.6072C151.626 56.9131 151.806 56.1276 151.769 55.337C151.769 53.0143 150.232 51.8857 147.081 51.8857H141.065V66.5305H143.93V61.4652V60.048H145.232C145.949 60.0258 146.666 60.0919 147.368 60.2448C148.527 60.5466 148.553 61.8064 148.579 62.725C148.579 62.725 148.579 63.2236 148.579 63.4336C148.532 64.4692 148.624 65.5064 148.852 66.5174H152.095C151.613 66.1106 151.391 64.6277 151.404 61.872V61.6883L151.47 61.662ZM146.117 58.1846H143.956V53.9197H145.623C147.355 53.9197 148.644 53.9197 148.644 56.0456C148.644 58.4077 146.182 58.1583 146.182 58.1583L146.117 58.1846Z" fill="black"/>
<path d="M172.553 53.5399C174.727 53.6187 174.962 54.6947 175.014 56.1644H177.944V55.9676C177.955 55.4867 177.907 55.0062 177.801 54.5372C177.085 51.9127 175.196 51.4272 172.592 51.4141C167.774 51.4141 167.383 54.0386 167.188 57.9753V60.1799C167.188 63.9855 167.526 66.6756 172.058 66.8724C172.853 66.8927 173.638 66.6882 174.324 66.2819C174.901 65.9547 175.358 65.4484 175.626 64.8384C175.682 64.7058 175.729 64.5699 175.769 64.4316V64.9172C175.769 65.5602 175.769 66.2294 175.769 66.2294V66.5444H177.84V58.7758H172.852V60.6523H175.066C175.093 61.2623 175.058 61.8736 174.962 62.4764C174.885 63.0306 174.65 63.5504 174.285 63.9724C174.058 64.1936 173.788 64.3651 173.492 64.4757C173.196 64.5864 172.881 64.634 172.566 64.6154C170.131 64.6154 170.131 62.5945 170.131 61.4922V57.1617C169.99 56.1055 170.255 55.035 170.873 54.1698C171.102 53.9522 171.372 53.784 171.668 53.6757C171.963 53.5674 172.278 53.5212 172.592 53.5399" fill="black"/>
<path d="M135.192 51.8198H131.129L127.157 66.5302H130.23L130.66 64.6143L131.063 62.7115H134.97V62.8296L135.791 66.517H138.864L135.087 51.8066L135.192 51.8198ZM134.332 60.8087H131.48L133.056 54.1687L134.462 60.2707L134.566 60.6906V60.8087H134.332Z" fill="black"/>
<path d="M161.835 51.8203H157.785L153.788 66.5307H156.861L157.304 64.6148L157.707 62.712H161.679V62.8301L162.487 66.5176H165.573L161.835 51.8203ZM159.713 60.8224H158.124L159.713 54.1824L161.106 60.2844L161.21 60.7043V60.8224H159.713Z" fill="black"/>
</svg>
