<svg width="244" height="119" viewBox="0 0 244 119" fill="none" xmlns="http://www.w3.org/2000/svg">
<path d="M108.018 52.2015V70.3943H101.66V52.2015H95.6251V47.2842H114.047V52.2015H108.018Z" fill="#231916"/>
<path d="M126.682 62.2949H124.088V70.3943H117.83V47.2842H126.941C132.97 47.2842 136.058 49.9722 136.058 54.5954C136.058 57.6129 134.681 59.7363 132.323 60.7891L137.428 70.065V70.3943H130.958L126.682 62.2949ZM124.088 51.7074V57.9717H126.388C129.041 57.9717 130.058 56.7953 130.058 54.7601C130.058 52.725 128.935 51.7074 126.288 51.7074H124.088Z" fill="#231916"/>
<path d="M140.881 47.2842H155.962V51.8427H147.145V56.2953H154.68V60.8244H147.145V65.8358H156.127V70.3943H140.881V47.2842Z" fill="#231916"/>
<path d="M177.79 70.8414L166.315 57.6835V70.5708H160.909V47.2842H164.674L176.026 60.2656V47.5136H181.425V70.8414H177.79Z" fill="#231916"/>
<path d="M186.513 47.2842H194.812C202.259 47.2842 208 50.6781 208 59.0481C208 67.4181 202.271 70.5296 194.812 70.5296H186.513V47.2842ZM192.842 51.9897V65.8711H194.489C198.712 65.8711 201.547 64.2242 201.547 59.0422C201.547 53.9661 198.712 51.9839 194.489 51.9839L192.842 51.9897Z" fill="#231916"/>
<path d="M47.6699 65.2306L47.7052 66.5188H45.2465V65.3836H38.4588V66.5188H36.0001C36.0001 66.1541 36.0354 65.6777 36.0354 65.2306V52.9903C36.0354 52.5256 36.0354 52.0492 36.0001 51.7021H47.7052C47.7052 52.1315 47.6699 52.5256 47.6699 52.9903V65.2306ZM38.4588 57.2841H45.2465V53.8667H38.4588V57.2841ZM45.2465 59.431H38.4588V63.1778H45.2465V59.431Z" fill="#231916"/>
<path d="M55.6456 65.7779C55.6456 66.0367 55.6456 66.3308 55.6456 66.5543H53.6457C53.6642 66.2958 53.6642 66.0364 53.6457 65.7779V59.696L51.8812 59.8489C51.6753 59.8489 51.293 59.9371 51.0695 59.9665L50.8165 57.9961C51.1653 58.0139 51.5147 58.0139 51.8635 57.9961C52.0065 58.004 52.1499 58.004 52.2929 57.9961C52.6046 57.6314 52.9281 57.2373 53.2575 56.8197C52.4988 55.9433 51.6753 55.0845 50.9048 54.361L51.9753 52.7317C52.1282 52.8847 52.3164 53.0905 52.5046 53.3199C53.1146 52.4867 53.6166 51.5795 53.9987 50.6201L55.7632 51.6553C55.6985 51.72 55.6103 51.8436 55.5574 51.9083C55.0417 52.8909 54.4518 53.8328 53.7928 54.7257C53.9869 54.9551 54.1751 55.1786 54.3457 55.4021C55.1024 54.3905 55.7473 53.2999 56.2691 52.1494L57.969 53.167C57.8994 53.27 57.8206 53.3664 57.7337 53.4552C56.9749 54.6787 55.7397 56.3962 54.5869 57.8902C55.1339 57.8431 55.6868 57.7902 56.1515 57.7373C56.0324 57.3003 55.889 56.8702 55.7221 56.4491L57.2337 56.0492C57.7017 57.256 58.0696 58.4993 58.3337 59.7665C57.8337 59.9195 57.1573 60.1077 56.6632 60.243C56.6338 60.0077 56.5808 59.7313 56.5279 59.4548C56.2691 59.4548 55.9809 59.5077 55.6691 59.543L55.6456 65.7779ZM51.5871 60.5547C52.14 60.6371 52.7929 60.7429 53.2399 60.8312C53.2399 60.8959 53.2046 61.0194 53.187 61.1723C53.1815 62.7085 52.9839 64.2379 52.5988 65.725L50.9459 65.0897C51.3914 63.6201 51.6057 62.0902 51.5812 60.5547H51.5871ZM65.9331 64.2486C66.4155 64.2486 66.8095 64.2486 67.1389 64.2133V66.3426C66.8095 66.3426 66.4155 66.3426 65.9331 66.3426H58.6513C58.1866 66.3426 57.7749 66.3426 57.4337 66.3426V64.2309L56.4691 64.5074C56.4181 63.2241 56.2607 61.9473 55.9985 60.69L57.4808 60.2959C57.801 61.5193 58.0233 62.7663 58.1454 64.0251C58.0454 64.0604 57.7866 64.1427 57.4984 64.2133C57.8799 64.2444 58.2627 64.2562 58.6454 64.2486H61.4334V62.3781H59.6689C59.2512 62.3781 58.9277 62.3781 58.616 62.3781V60.4018C58.9277 60.4018 59.2512 60.4018 59.6689 60.4018H61.4334V59.3489C61.4334 59.196 61.4334 58.9019 61.3982 58.7313C61.8981 58.7313 63.2333 58.7843 63.7156 58.8195C63.7156 58.9725 63.6803 59.196 63.6803 59.3489V60.4194H65.539C65.9508 60.4194 66.2978 60.4194 66.586 60.4194V62.4134C66.2978 62.4134 65.9508 62.4134 65.539 62.4134H63.6862V64.2839L65.9331 64.2486ZM60.8688 56.3432C60.0792 55.5259 59.4771 54.5464 59.1042 53.4729C58.7807 53.4729 58.4689 53.4729 58.2101 53.4729V51.5142C58.4866 51.5142 58.7983 51.5142 59.1571 51.5142H64.7567L64.9156 51.3436C65.555 51.7944 66.1587 52.2939 66.7213 52.8376C66.6507 52.8905 66.5449 52.92 66.4625 52.9729C66.0437 54.2715 65.3031 55.4431 64.3097 56.3785C65.2318 56.7382 66.1934 56.987 67.1742 57.1197C66.9154 57.7079 66.5213 58.696 66.3625 59.1783C65.0684 58.9235 63.8259 58.4544 62.6863 57.7902C61.5519 58.4254 60.3315 58.893 59.063 59.1783C58.8866 58.6843 58.4042 57.6843 58.116 57.0491C59.0699 56.9344 60.005 56.6971 60.8982 56.3432H60.8688ZM64.1803 53.4729H61.2923C61.6062 54.1927 62.0764 54.8336 62.6687 55.3492C63.3183 54.8567 63.8373 54.2124 64.1803 53.4729Z" fill="#231916"/>
<path d="M72.6387 70.4414H73.6033L86.3142 47.2842H85.3554L72.6387 70.4414Z" fill="#C73130"/>
<path d="M74.2504 70.4414H75.2091L87.9318 47.2842H86.9671L74.2504 70.4414Z" fill="#C73130"/>
<path d="M75.8561 70.4414H76.8207L89.5375 47.2842H88.5787L75.8561 70.4414Z" fill="#C73130"/>
<path d="M77.4679 70.4414H78.4267L91.1493 47.2842H90.1905L77.4679 70.4414Z" fill="#C73130"/>
<path d="M79.0736 70.4414H80.0324L92.755 47.2842H91.7963L79.0736 70.4414Z" fill="#C73130"/>
<path d="M76.6324 53.072L78.9323 57.3776L79.2499 56.6953L77.2618 53.072H77.7853L79.4969 56.1836L79.7852 55.5542L78.4147 53.072H78.9323L80.0322 55.066L81.8968 51.1251L79.7852 47.2842H72.3092L78.3558 58.5952L78.6382 57.9658L76.1148 53.072H76.6324Z" fill="#C73130"/>
<path d="M86.7199 70.4432H87.3493L84.2907 64.8965L83.9966 65.4964L86.7199 70.4432Z" fill="#C73130"/>
<path d="M85.6027 70.4419H86.2321L83.7793 65.9775L83.4969 66.6069L85.6027 70.4419Z" fill="#C73130"/>
<path d="M84.5438 64.3891L87.8671 70.4416H88.4965L84.8262 63.7656L84.5438 64.3891Z" fill="#C73130"/>
<path d="M85.1497 63.1237L89.02 70.4408H93.0903L87.0319 59.1357L85.1497 63.1237Z" fill="#C73130"/>
</svg>
