<svg xmlns="http://www.w3.org/2000/svg" viewBox="0 0 217.37 26.1">
  <path d="M2.56 25.85H0V.29h3.62l5.92 18.48V.29h2.52v25.56H9.1L2.56 5.18v20.67ZM26.32 6.46v2.3h-2.7V6.31c0-2.3-.91-3.69-2.99-3.69s-2.99 1.39-2.99 3.69v13.51c0 2.3.95 3.69 2.99 3.69s2.99-1.39 2.99-3.69V16.5h2.7v3.18c0 3.87-1.83 6.43-5.77 6.43s-5.73-2.56-5.73-6.43V6.46c0-3.87 1.83-6.43 5.73-6.43s5.77 2.56 5.77 6.43ZM40.36 6.46v2.3h-2.7V6.31c0-2.3-.91-3.69-2.99-3.69s-2.99 1.39-2.99 3.69v13.51c0 2.3.95 3.69 2.99 3.69s2.99-1.39 2.99-3.69V16.5h2.7v3.18c0 3.87-1.83 6.43-5.77 6.43s-5.73-2.56-5.73-6.43V6.46c0-3.87 1.83-6.43 5.73-6.43s5.77 2.56 5.77 6.43ZM54.28 25.85V1.05h-5.59V.29h11.98v.77h-5.59v24.79h-.8ZM62.51 6.57c0-3.58 1.53-6.46 5.4-6.46s5.48 2.88 5.48 6.46v13c0 3.58-1.53 6.46-5.48 6.46s-5.4-2.88-5.4-6.46v-13Zm.8 13.04c0 3.14 1.2 5.7 4.6 5.7s4.67-2.56 4.67-5.7V6.53c0-3.14-1.24-5.7-4.67-5.7s-4.6 2.56-4.6 5.7V19.6ZM79.16 13.14l-1.94 2.92v9.79h-.8V.29h.8v14.42L86.72.29h.88l-7.92 12.09 8.58 13.47h-.88l-8.22-12.71ZM96.72 15.51 90.77.29h.8l5.59 14.13L102.74.29h.84l-6.06 15.23v10.33h-.8V15.51ZM105.71 6.57c0-4.24 1.86-6.46 5.4-6.46s5.48 2.23 5.48 6.46v13c0 4.24-1.86 6.46-5.48 6.46s-5.4-2.23-5.4-6.46v-13Zm.8 13.04c0 3.76 1.57 5.7 4.6 5.7s4.67-1.94 4.67-5.7V6.53c0-3.76-1.61-5.7-4.67-5.7s-4.6 1.94-4.6 5.7V19.6ZM136.54 6.64c0 7.12-9.71 9.49-9.86 18.29v.15h9.71v.77h-10.52v-.55c0-9.57 9.86-11.76 9.86-18.62 0-3.21-1.02-5.84-4.56-5.84s-4.53 2.78-4.53 5.84v1.39h-.77V6.72c0-3.54 1.39-6.61 5.33-6.61s5.33 2.92 5.33 6.54ZM139.46 6.57c0-3.62 1.53-6.46 5.44-6.46s5.44 2.85 5.44 6.46v13c0 3.58-1.53 6.46-5.44 6.46s-5.44-2.88-5.44-6.46v-13Zm.8 13c0 3.18 1.24 5.73 4.64 5.73s4.64-2.56 4.64-5.73V6.53c0-3.14-1.24-5.7-4.64-5.7s-4.64 2.56-4.64 5.7v13.04ZM163.97 6.64c0 7.12-9.71 9.49-9.86 18.29v.15h9.71v.77H153.3v-.55c0-9.57 9.86-11.76 9.86-18.62 0-3.21-1.02-5.84-4.56-5.84s-4.53 2.78-4.53 5.84v1.39h-.77V6.72c0-3.54 1.39-6.61 5.33-6.61s5.33 2.92 5.33 6.54ZM177.57 6.64c0 7.12-9.71 9.49-9.86 18.29v.15h9.71v.77H166.9v-.55c0-9.57 9.86-11.76 9.86-18.62 0-3.21-1.02-5.84-4.56-5.84s-4.53 2.78-4.53 5.84v1.39h-.77V6.72c0-3.54 1.39-6.61 5.33-6.61s5.33 2.92 5.33 6.54ZM194.77 12.85v.77h-7.16v11.94h-.8V0h9.38v.77h-8.58v12.08h7.16ZM201.98 15.84c1.21-.25 2.74-.57 3.74-.93 1.03-.36 1.42-1 1.42-3.1 0-1.6-.18-2.31-.71-3.03-.61-.82-1.78-1.39-3.1-1.39-4.24 0-4.31 3.49-4.31 4.88h-.71v-.61c0-2.42 1.46-4.91 5.02-4.91 2.42 0 4.52 1.39 4.52 4.42v12.07c0 1.39.46 1.71 1.07 1.67.18 0 .46-.04.71-.07v.64c-.39.07-.64.07-.85.07-.93 0-1.64-.36-1.64-2.39v-.71h-.07c-.82 2.14-2.49 3.53-4.81 3.53-2.99 0-4.67-2.03-4.67-5.24 0-2.92 1.71-4.38 4.38-4.92Zm5.16-1.17c-.57.68-1.71 1.07-4.81 1.67-2.92.57-4.02 1.99-4.02 4.49 0 3.1 1.78 4.52 4.06 4.52 1.92 0 4.77-1.64 4.77-6.52v-4.17ZM212.1.13h.71v25.43h-.71V.13ZM216.65.13h.71v25.43h-.71V.13Z"/>
</svg>