<svg width="251" height="82" viewBox="0 0 251 82" fill="none" xmlns="http://www.w3.org/2000/svg">
<g clip-path="url(#clip0_291_491)">
<path d="M129.035 39.5699C128.641 39.5699 128.048 39.4712 127.261 39.4712C125.782 39.4712 121.642 40.0627 120.063 45.2886C118.387 50.81 124.303 51.1061 127.656 45.8801L126.966 49.5245H130.121L132.095 39.5661L129.035 39.5699ZM123.218 47.1625C122.922 46.8664 122.824 45.9796 123.809 44.007C124.795 42.0345 126.176 41.1476 127.26 41.1476C127.759 41.1648 128.254 41.231 128.739 41.345L128.641 41.8378C127.064 44.9925 123.908 47.7532 123.218 47.1617V47.1625Z" fill="#000000"/>
<path d="M173.894 39.5699C173.5 39.5699 172.907 39.4712 172.12 39.4712C170.64 39.4712 166.598 40.0627 164.922 45.2886C163.245 50.81 169.26 51.1061 172.514 45.8801L171.824 49.5245H174.98L176.954 39.5661L173.894 39.5699ZM168.076 47.1625C167.78 46.8664 167.682 45.9796 168.668 44.007C169.653 42.0345 171.035 41.1476 172.119 41.1476C172.617 41.1648 173.112 41.231 173.598 41.345V41.345L173.499 41.8378C171.827 44.9925 168.77 47.7532 168.08 47.1617L168.076 47.1625Z" fill="#000000"/>
<path d="M199.139 39.5699C198.744 39.5699 198.152 39.4712 197.462 39.4712C195.983 39.4712 191.844 40.0627 190.264 45.2886C188.588 50.81 194.603 51.1061 197.857 45.8801L197.167 49.5245H200.322L202.296 39.5661L199.139 39.5699ZM193.321 47.1625C193.025 46.8664 192.927 45.9796 193.913 44.007C194.898 42.0345 196.279 41.1476 197.363 41.1476C197.862 41.1648 198.357 41.231 198.842 41.345V41.345L198.744 41.8378C197.067 44.9933 194.011 47.754 193.321 47.1617V47.1625Z" fill="#000000"/>
<path d="M98.1745 39.57C97.7805 39.57 97.0903 39.4713 96.2005 39.4713C94.7214 39.4713 90.5819 40.0627 89.0027 45.2887C87.3262 50.81 93.2424 51.1061 96.5953 45.8802L95.9074 49.2323C95.8072 49.7962 95.531 50.314 95.1185 50.7113C94.8167 50.9533 94.4685 51.1306 94.0953 51.2323C93.7222 51.3341 93.3321 51.3581 92.9493 51.3028C92.487 51.319 92.0243 51.286 91.569 51.2041C91.0762 51.1054 90.5819 51.0067 90.1886 50.908C89.55 50.7591 88.9238 50.5614 88.3156 50.3165L88.513 52.5844C89.8376 52.8998 91.1936 53.0651 92.5553 53.0772C93.6931 53.1141 94.8284 52.947 95.9074 52.5837C96.8016 52.2836 97.6124 51.7769 98.274 51.1046C98.9465 49.9905 99.3828 48.75 99.5556 47.4602L101.133 39.3726L98.1745 39.57ZM92.1597 47.1626C91.8636 46.8664 91.7656 45.9796 92.7511 44.0071C93.7367 42.0345 95.1178 41.1477 96.202 41.1477C96.7328 41.1648 97.261 41.2309 97.7797 41.3451C96.2027 44.7952 92.8506 47.852 92.1604 47.1618L92.1597 47.1626Z" fill="#000000"/>
<path d="M213.632 39.57C213.238 39.57 212.548 39.4713 211.658 39.4713C210.179 39.4713 206.039 40.0627 204.46 45.2887C202.784 50.81 208.7 51.1062 212.053 45.8802L211.363 49.2323C211.262 49.7962 210.986 50.314 210.574 50.7113C210.272 50.9533 209.924 51.1306 209.551 51.2323C209.177 51.3341 208.787 51.3581 208.405 51.3028C207.942 51.319 207.479 51.286 207.024 51.2041C206.531 51.1054 206.037 51.0067 205.644 50.908C205.005 50.7591 204.379 50.5614 203.771 50.3165L203.968 52.5844C205.293 52.8998 206.649 53.0651 208.01 53.0772C209.149 53.1072 210.284 52.9402 211.365 52.5837C212.259 52.2836 213.07 51.7769 213.731 51.1046C214.446 50.0108 214.886 48.7605 215.013 47.4602L216.59 39.3726L213.632 39.57ZM207.519 47.1626C207.223 46.8664 207.125 45.9796 208.111 44.0071C209.096 42.0345 210.477 41.1477 211.562 41.1477C212.092 41.1648 212.621 41.2309 213.139 41.3451V41.3451C211.562 44.7959 208.308 47.8527 207.521 47.1626H207.519Z" fill="#000000"/>
<path d="M64.0594 49.5284L66.7214 36.1191H73.327C74.5963 36.033 75.87 36.2006 77.0739 36.6119C77.8651 36.8963 78.5528 37.4115 79.048 38.0909C79.5599 38.921 79.8329 39.8763 79.8369 40.8516C79.9385 42.4512 79.5238 44.0412 78.6539 45.3874C77.9098 46.7412 76.7764 47.8405 75.4005 48.5429C73.7404 49.3351 71.9112 49.7077 70.0735 49.6279H64.0594V49.5284ZM67.7039 47.6538H69.577C70.8516 47.7118 72.1162 47.4038 73.2214 46.7662C74.1942 46.1741 74.9802 45.3196 75.4893 44.3009C76.0964 43.2939 76.374 42.1226 76.2835 40.9503C76.2883 40.4795 76.1732 40.0152 75.949 39.6011C75.7248 39.1871 75.3988 38.8369 75.0019 38.5837C73.6122 37.9577 72.079 37.7192 70.5648 37.8935H69.5777L67.7039 47.6538Z" fill="#000000"/>
<path d="M81.7085 49.5281L83.6826 39.5696H86.8381L84.864 49.5281H81.7085ZM83.9764 37.8932L84.4692 35.5273H87.6246L87.1319 37.894L83.9764 37.8932Z" fill="#000000"/>
<path d="M103.006 49.5281L104.98 39.5696H108.135L106.161 49.5281H103.006ZM105.372 37.8932L105.865 35.5273H109.021L108.528 37.894L105.372 37.8932Z" fill="#000000"/>
<path d="M116.711 49.4293C116.038 49.6241 115.341 49.7238 114.641 49.7254C113.774 49.8371 112.897 49.6266 112.175 49.1339C111.728 48.7638 111.445 48.2324 111.386 47.6549C111.404 47.1891 111.47 46.7265 111.584 46.2745L112.571 41.246H110.795L111.189 39.5695H112.963L113.259 37.8931L116.513 37.499L116.119 39.5695H118.584L118.288 41.246H115.823L114.836 46.0771C114.677 46.3446 114.608 46.6554 114.638 46.9647C114.62 47.1069 114.649 47.2512 114.72 47.3758C114.791 47.5003 114.901 47.5983 115.032 47.6549C115.277 47.7781 115.547 47.8456 115.821 47.8523C116.254 47.8348 116.684 47.7686 117.103 47.6549L116.711 49.4293Z" fill="#000000"/>
<path d="M134.163 49.5284L137.022 35.1328H140.178L137.318 49.5284H134.163Z" fill="#000000"/>
<path d="M160.981 49.1336C159.004 49.5577 156.989 49.7888 154.967 49.8237C153.278 49.9166 151.609 49.4296 150.235 48.4434C149.693 48.0008 149.253 47.4456 148.947 46.8164C148.64 46.1871 148.474 45.4987 148.46 44.799C148.442 43.2397 148.851 41.7051 149.643 40.3619C150.52 38.9589 151.742 37.8047 153.193 37.0097C154.868 36.1453 156.73 35.704 158.615 35.7243C160.205 35.7419 161.789 35.9069 163.348 36.2171L162.954 38.3863C162.165 38.1889 161.475 37.9922 160.98 37.8935C160.528 37.7796 160.065 37.7134 159.599 37.6961C159.178 37.6104 158.747 37.5773 158.318 37.5974C157.141 37.5871 155.983 37.8937 154.966 38.485C154.009 39.1389 153.23 40.0196 152.698 41.0482C152.102 42.0962 151.827 43.2963 151.909 44.4991C151.895 44.9886 151.995 45.4745 152.2 45.9192C152.405 46.3638 152.711 46.755 153.092 47.0623C153.972 47.7236 155.048 48.0711 156.149 48.0494C156.785 48.0552 157.418 47.9551 158.022 47.7532L158.909 43.5135H162.163L160.981 49.1336Z" fill="#000000"/>
<path d="M178.926 49.5284L180.9 39.57H184.056L183.267 43.711C183.933 42.4907 184.838 41.4174 185.929 40.5555C186.694 39.8684 187.664 39.4527 188.69 39.3726H189.677L188.888 41.9358C188.566 41.8542 188.233 41.8209 187.901 41.8371C186.901 41.9508 185.983 42.4451 185.338 43.2174C184.43 44.191 183.575 45.2114 182.774 46.2742L182.084 49.6264L178.926 49.5284Z" fill="#000000"/>
<path d="M228.619 48.5418C227.599 48.9412 226.542 49.2385 225.464 49.4294C224.616 49.5823 223.76 49.6812 222.9 49.7255C222.052 49.7532 221.208 49.5846 220.435 49.2327C219.771 49.0111 219.21 48.5556 218.857 47.9511C218.546 47.4462 218.376 46.8674 218.365 46.2747C218.341 45.0516 218.685 43.8495 219.352 42.8238C220.013 41.7021 220.967 40.7818 222.112 40.1619C223.227 39.5379 224.479 39.1989 225.757 39.1748C226.551 39.172 227.333 39.3758 228.025 39.7663C228.28 39.9478 228.491 40.1832 228.645 40.456C228.798 40.7287 228.889 41.0319 228.912 41.344C228.906 42.1064 228.626 42.8412 228.123 43.4145C227.443 44.2027 226.555 44.7836 225.56 45.091C224.306 45.5981 222.969 45.8657 221.616 45.8799C221.623 46.1849 221.697 46.4846 221.833 46.7575C221.97 47.0304 222.165 47.2695 222.405 47.4576C222.883 47.7371 223.43 47.8738 223.983 47.8516C224.753 47.8166 225.515 47.6841 226.251 47.4576C227.268 47.184 228.259 46.8212 229.212 46.3734L228.619 48.5418ZM221.717 44.3021C222.826 44.3825 223.932 44.106 224.873 43.5132C225.156 43.3529 225.394 43.1248 225.566 42.8493C225.738 42.5738 225.839 42.2598 225.86 41.9355C225.863 41.8202 225.837 41.7059 225.786 41.6028C225.734 41.4996 225.658 41.4108 225.564 41.344C225.349 41.1463 225.066 41.0401 224.775 41.0479C224.111 41.1019 223.485 41.3801 223 41.8368C222.347 42.5199 221.902 43.3752 221.718 44.3021H221.717Z" fill="#000000"/>
<path d="M54.1998 37.4993H47.2981C46.7907 37.5022 46.2885 37.6027 45.8191 37.7954L30.438 44.1048C30.3748 44.1162 30.3151 44.1422 30.2637 44.1806C30.2123 44.2191 30.1706 44.269 30.1419 44.3264C30.1131 44.3838 30.0982 44.4472 30.0982 44.5114C30.0982 44.5756 30.1131 44.6389 30.1419 44.6963C30.1419 44.795 30.2406 44.8937 30.3393 44.9924L37.5371 51.0073C37.933 51.3142 38.4166 51.4869 38.9174 51.5H48.7741C49.0013 51.4979 49.2233 51.4321 49.415 51.3101C49.6066 51.1881 49.7602 51.0148 49.8583 50.8098L51.4391 46.7706C51.4911 46.6505 51.4999 46.516 51.4639 46.3902C51.4279 46.2643 51.3494 46.1549 51.2417 46.0804C51.143 46.0804 51.0443 45.9817 50.9456 45.9817H47.5942C47.3538 45.9825 47.1178 46.0468 46.9101 46.1679C46.7024 46.2891 46.5303 46.4629 46.4113 46.6719L45.6224 48.3483C45.5243 48.5532 45.3707 48.7265 45.1791 48.8485C44.9874 48.9705 44.7654 49.0363 44.5382 49.0385H43.2558C42.755 49.0253 42.2714 48.8527 41.8755 48.5457L37.4384 45.2885C37.3862 45.2623 37.3409 45.2241 37.3062 45.1771C37.2715 45.13 37.2484 45.0755 37.2388 45.0178C37.2292 44.9602 37.2333 44.9011 37.2508 44.8454C37.2684 44.7896 37.2988 44.7388 37.3397 44.697C37.4384 44.5983 37.5371 44.4996 37.6358 44.4996L47.1037 40.4573C47.5732 40.2647 48.0753 40.1642 48.5828 40.1612H53.3152C53.5264 40.1447 53.7292 40.0719 53.9028 39.9506C54.0763 39.8292 54.2142 39.6637 54.3023 39.4711L54.795 38.2881C54.8937 38.0907 54.8937 37.6967 54.5976 37.598C54.4768 37.5286 54.339 37.4944 54.1998 37.4993ZM45.3263 35.7241L34.8751 30.0054C34.4109 29.7831 33.9093 29.6494 33.3961 29.6113H27.4799C27.2527 29.6135 27.0307 29.6793 26.8391 29.8013C26.6474 29.9233 26.4938 30.0966 26.3957 30.3015L22.0573 42.2317C22.0053 42.3518 21.9965 42.4863 22.0325 42.6121C22.0685 42.738 22.147 42.8475 22.2547 42.9219C22.3534 42.9219 22.4521 43.0206 22.5508 43.0206H28.1693C28.7088 43.018 29.2434 42.9177 29.7471 42.7245L45.425 36.4143C45.7211 36.3156 45.7211 36.0202 45.3263 35.7241ZM37.9311 36.2169L30.438 39.3724C29.9685 39.565 29.4664 39.6655 28.959 39.6685H28.3675C28.2281 39.6642 28.0941 39.6133 27.9869 39.524C27.8797 39.4347 27.8055 39.3121 27.776 39.1757V38.8796L29.8465 33.3583C29.9557 33.1534 30.1102 32.9762 30.2982 32.84C30.4862 32.7038 30.7028 32.6123 30.9315 32.5724H31.523C32.0362 32.6105 32.5378 32.7442 33.002 32.9665L37.9319 35.5298C38.4246 35.7272 38.4246 36.0225 37.9319 36.2199L37.9311 36.2169Z" fill="#000000"/>
</g>
<defs>
<clipPath id="clip0_291_491">
<rect width="207.192" height="23.4664" fill="black" transform="translate(22.0186 29.6113)"/>
</clipPath>
</defs>
</svg>
