<svg width="280" height="119" viewBox="0 0 280 119" fill="none" xmlns="http://www.w3.org/2000/svg">
<path d="M51.4747 49.379C50.6102 51.2274 51.4159 53.3167 52.3594 54.8466C53.3029 56.3766 54.8925 58.7974 56.3582 58.3039C57.8239 57.8105 58.9611 55.5151 59.6242 54.1208C60.2741 52.7581 60.536 51.648 60.1192 50.806C59.7876 50.1312 63.9615 52.8201 63.5014 52.7961C63.0412 52.7721 62.2937 52.7504 60.9171 54.3198C59.5405 55.8893 58.2592 58.032 58.5327 59.263C58.8061 60.4939 61.4121 60.0523 62.7259 59.72C64.2845 59.3265 65.4225 58.699 65.6565 57.334C65.8246 56.3526 66.9935 62.4081 66.7945 62.1455C66.6078 61.8836 66.1747 61.965 65.7874 61.5459C65.4218 61.1493 63.2 60.6752 60.6475 61.1283C58.095 61.5815 57.9935 62.9875 58.8704 63.8761C59.7473 64.7646 60.6475 65.6446 61.8444 65.5687C62.5416 65.523 60.1331 67.792 60.1525 67.3799C60.1815 66.9642 60.1196 66.5471 59.9709 66.1578C59.8223 65.7684 59.5905 65.4162 59.2918 65.1256C58.1848 63.8629 56.9996 63.3741 56.4256 63.7792C55.7431 64.2634 55.5797 66.3418 55.4549 69.339C55.3457 71.8179 55.3736 74.4913 56.5782 75.4371C57.2281 75.9461 52.3726 75.5371 52.825 75.2706C53.5454 74.8422 54.0567 73.0403 54.3022 71.027C54.5478 69.0136 54.9522 66.2372 54.4347 64.9072C53.9172 63.5771 52.7002 63.5546 51.5313 63.9636C49.8007 64.5694 48.2971 65.6431 48.2537 67.4124C48.2149 68.8277 44.8831 61.9503 45.5145 62.539C46.7965 63.732 48.4334 63.4903 49.7116 63.2021C51.0796 62.8923 53.086 62.2725 53.6624 60.638C54.2387 59.0034 52.6096 57.8639 51.8806 57.0986C50.0261 55.1541 47.5549 54.1548 45.399 54.7831C45.4029 54.7808 51.9388 48.3658 51.4747 49.379Z" fill="#0073BE"/>
<path d="M52.1533 47.0805C52.1525 48.6776 51.6782 50.2387 50.7904 51.5664C49.9025 52.894 48.641 53.9286 47.1653 54.5394C45.6895 55.1501 44.0658 55.3097 42.4994 54.9978C40.933 54.6859 39.4943 53.9166 38.365 52.7871C37.2358 51.6577 36.4668 50.2188 36.1552 48.6523C35.8436 47.0859 36.0034 45.4622 36.6145 43.9866C37.2256 42.5109 38.2604 41.2496 39.5882 40.362C40.916 39.4744 42.4772 39.0005 44.0743 39C45.1355 38.9995 46.1864 39.2082 47.1669 39.6141C48.1475 40.02 49.0383 40.6152 49.7887 41.3657C50.539 42.1162 51.134 43.0072 51.5398 43.9878C51.9455 44.9683 52.154 46.0193 52.1533 47.0805V47.0805Z" fill="#0073BE"/>
<path d="M76.0347 59.061C76.0347 60.1592 75.709 61.2327 75.0987 62.1457C74.4885 63.0588 73.6211 63.7703 72.6064 64.1903C71.5917 64.6102 70.4752 64.7198 69.3982 64.5051C68.3212 64.2904 67.3321 63.7611 66.556 62.9841C65.7799 62.2071 65.2517 61.2174 65.0382 60.1402C64.8247 59.063 64.9355 57.9466 65.3566 56.9323C65.7777 55.9181 66.4902 55.0515 67.4039 54.4423C68.3176 53.8331 69.3915 53.5085 70.4897 53.5098C71.9611 53.5108 73.3718 54.0962 74.4117 55.1372C75.4515 56.1782 76.0353 57.5896 76.0347 59.061V59.061Z" fill="#0073BE"/>
<path d="M57.5102 76.9668C57.5097 77.5711 57.3301 78.1617 56.9939 78.664C56.6577 79.1662 56.1802 79.5574 55.6216 79.7882C55.0631 80.019 54.4486 80.0789 53.856 79.9604C53.2634 79.842 52.7192 79.5504 52.2923 79.1227C51.8654 78.6949 51.575 78.1501 51.4577 77.5573C51.3405 76.9644 51.4017 76.3501 51.6336 75.792C51.8655 75.2339 52.2577 74.7572 52.7606 74.422C53.2635 74.0869 53.8545 73.9084 54.4588 73.9092C54.86 73.9092 55.2573 73.9883 55.628 74.142C55.9986 74.2958 56.3352 74.5211 56.6187 74.8051C56.9021 75.0891 57.1267 75.4262 57.2797 75.7972C57.4327 76.1681 57.511 76.5655 57.5102 76.9668V76.9668Z" fill="#0073BE"/>
<path d="M56.3589 58.3032C56.1033 58.3694 55.8354 58.3729 55.5782 58.3133C55.321 58.2537 55.082 58.1327 54.8816 57.9608C55.3245 58.7956 56.0374 59.4555 56.9039 59.8326C57.7704 60.2097 58.7392 60.2817 59.652 60.0369C59.0795 59.9517 58.6348 59.727 58.5334 59.2622C58.4593 58.5535 58.6076 57.8392 58.9579 57.2187L58.1119 56.7949C57.6914 57.4616 57.0808 57.9869 56.3589 58.3032V58.3032Z" fill="url(#paint0_radial_757_989)"/>
<path d="M58.872 63.8743C58.1748 63.1632 58.1043 62.1166 59.422 61.4961C58.754 61.6256 58.1252 61.9087 57.5854 62.3231C57.0456 62.7375 56.6095 63.2717 56.3118 63.8836C56.3464 63.8437 56.3857 63.8081 56.4287 63.7775C56.9083 63.4374 57.8154 63.731 58.7527 64.57L59.1935 64.1942C59.0897 64.0904 58.9774 63.9812 58.872 63.8743Z" fill="url(#paint1_radial_757_989)"/>
<path d="M53.6298 59.1836C53.8255 59.6455 53.8396 60.1642 53.6693 60.6361C53.4258 61.1694 53.0664 61.6416 52.6174 62.0185C52.1683 62.3953 51.6408 62.6672 51.0734 62.8144L51.4948 63.9764L51.5374 63.9617C52.7064 63.5519 53.9179 63.5783 54.4408 64.9053C54.4679 64.9827 54.4958 65.0602 54.5222 65.1469L54.8886 65.1524C55.0453 64.5788 55.1253 63.9869 55.1264 63.3923C55.1267 61.859 54.5981 60.3725 53.6298 59.1836Z" fill="url(#paint2_radial_757_989)"/>
<path d="M49.7109 63.2009C48.4327 63.4891 46.7958 63.7308 45.5138 62.5378C44.8824 61.9491 48.2142 68.8265 48.253 67.4112C48.2964 65.6419 49.8023 64.5682 51.5306 63.9624C51.5809 63.9477 51.6243 63.9322 51.6708 63.9175C51.5306 63.565 51.371 63.1428 51.2223 62.7555C50.7294 62.9387 50.2244 63.0875 49.7109 63.2009V63.2009Z" fill="#32328C"/>
<path d="M60.9177 54.3178C62.2943 52.7483 63.0496 52.7685 63.502 52.794C63.9544 52.8196 59.7875 50.1292 60.1198 50.8039C60.5366 51.646 60.2748 52.7553 59.6248 54.1187C59.1848 55.1024 58.6482 56.04 58.0228 56.9176L58.861 57.4381C59.3861 56.3007 60.0795 55.2488 60.9177 54.3178V54.3178Z" fill="#32328C"/>
<path d="M59.2926 65.1226C59.5913 65.4132 59.8231 65.7655 59.9717 66.1548C60.1203 66.5441 60.1823 66.9612 60.1533 67.3769C60.1331 67.789 62.5415 65.5177 61.8451 65.5657C60.7219 65.637 59.8651 64.8686 59.0393 64.042L58.5203 64.3782C58.7979 64.6045 59.0563 64.8535 59.2926 65.1226V65.1226Z" fill="#32328C"/>
<path d="M66.8687 49.6414C66.8691 50.3698 66.6535 51.0821 66.2491 51.688C65.8448 52.294 65.2698 52.7663 64.5969 53.0454C63.924 53.3245 63.1834 53.3978 62.4689 53.256C61.7543 53.1141 61.0979 52.7636 60.5826 52.2486C60.0674 51.7337 59.7164 51.0775 59.5741 50.363C59.4318 49.6486 59.5046 48.908 59.7833 48.2349C60.062 47.5618 60.534 46.9865 61.1397 46.5818C61.7453 46.177 62.4575 45.9609 63.1859 45.9609C63.6694 45.9606 64.1483 46.0556 64.5951 46.2404C65.0419 46.4253 65.4479 46.6963 65.7899 47.0381C66.1319 47.3799 66.4032 47.7857 66.5883 48.2324C66.7734 48.6791 66.8687 49.1578 66.8687 49.6414V49.6414Z" fill="#32328C"/>
<path d="M63.6075 67.0837C63.6075 67.4537 63.4978 67.8154 63.2922 68.1231C63.0866 68.4307 62.7944 68.6705 62.4526 68.8121C62.1107 68.9537 61.7346 68.9908 61.3717 68.9186C61.0088 68.8464 60.6754 68.6682 60.4138 68.4066C60.1522 68.1449 59.974 67.8116 59.9018 67.4487C59.8296 67.0858 59.8667 66.7096 60.0082 66.3678C60.1498 66.0259 60.3896 65.7337 60.6973 65.5282C61.0049 65.3226 61.3666 65.2129 61.7367 65.2129C62.2328 65.2129 62.7087 65.41 63.0595 65.7608C63.4104 66.1117 63.6075 66.5875 63.6075 67.0837V67.0837Z" fill="#32328C"/>
<path d="M48.4629 67.454C48.4623 68.6317 48.1125 69.7827 47.4578 70.7615C46.8031 71.7404 45.8729 72.5031 44.7847 72.9534C43.6966 73.4036 42.4994 73.5211 41.3444 73.291C40.1895 73.0608 39.1287 72.4935 38.2963 71.6605C37.4638 70.8276 36.8969 69.7666 36.6674 68.6115C36.4379 67.4565 36.556 66.2593 37.0068 65.1714C37.4576 64.0835 38.2209 63.1536 39.2001 62.4995C40.1793 61.8453 41.3304 61.4961 42.5081 61.4961C43.2903 61.4961 44.0649 61.6502 44.7876 61.9497C45.5103 62.2491 46.1669 62.688 46.7199 63.2413C47.2729 63.7946 47.7114 64.4514 48.0105 65.1743C48.3096 65.8971 48.4633 66.6718 48.4629 67.454V67.454Z" fill="#32328C"/>
<path d="M94.1111 63.2818C93.3272 64.0427 92.2777 64.4683 91.1852 64.4683C90.0927 64.4683 89.0432 64.0427 88.2593 63.2818C87.1662 62.1896 87.1825 60.9578 87.1825 58.8182C87.1825 56.6786 87.167 55.4477 88.2593 54.3554C89.0432 53.5945 90.0927 53.1689 91.1852 53.1689C92.2777 53.1689 93.3272 53.5945 94.1111 54.3554C95.2034 55.4477 95.1724 56.6794 95.1724 58.8182C95.1724 60.9571 95.2026 62.1896 94.1111 63.2818ZM92.8313 55.3702C92.6144 55.1526 92.3566 54.98 92.0728 54.8622C91.789 54.7444 91.4847 54.6837 91.1774 54.6837C90.8702 54.6837 90.5659 54.7444 90.2821 54.8622C89.9983 54.98 89.7405 55.1526 89.5235 55.3702C88.9774 55.9628 88.8682 56.5872 88.8682 58.8182C88.8682 61.0493 88.9774 61.6752 89.5235 62.267C89.7405 62.4846 89.9983 62.6573 90.2821 62.7751C90.5659 62.8929 90.8702 62.9535 91.1774 62.9535C91.4847 62.9535 91.789 62.8929 92.0728 62.7751C92.3566 62.6573 92.6144 62.4846 92.8313 62.267C93.3775 61.6744 93.4867 61.05 93.4867 58.8182C93.4867 56.5864 93.3775 55.9628 92.8306 55.3702H92.8313Z" fill="black"/>
<path d="M104.943 63.7665C104.42 64.2436 103.731 64.496 103.023 64.4692C102.63 64.4954 102.236 64.4269 101.875 64.2693C101.514 64.1117 101.196 63.8697 100.948 63.5636V67.574H99.3561V56.463H100.916V57.3058C101.161 56.9903 101.48 56.7398 101.845 56.5766C102.21 56.4134 102.609 56.3425 103.008 56.3701C103.72 56.3429 104.415 56.595 104.944 57.0727C105.74 57.8675 105.834 59.21 105.834 60.4123C105.834 61.6145 105.739 62.9702 104.943 63.7665ZM102.603 57.7892C101.166 57.7892 100.948 59.0062 100.948 60.4115C100.948 61.8167 101.166 63.0453 102.603 63.0453C104.039 63.0453 104.241 61.8128 104.241 60.4115C104.241 59.0101 104.037 57.7892 102.603 57.7892V57.7892Z" fill="black"/>
<path d="M111.031 60.8794C111.031 62.2366 111.749 63.0957 113.045 63.0957C113.406 63.116 113.766 63.0534 114.099 62.9127C114.432 62.7719 114.728 62.5568 114.964 62.2839L115.979 63.2359C115.608 63.6501 115.149 63.9758 114.636 64.1892C114.123 64.4027 113.569 64.4983 113.014 64.4692C111.032 64.4692 109.456 63.4242 109.456 60.4123C109.456 57.8559 110.782 56.3701 112.811 56.3701C114.934 56.3701 116.167 57.9303 116.167 60.1776V60.8802L111.031 60.8794ZM114.371 58.6941C114.243 58.389 114.025 58.1301 113.746 57.9517C113.467 57.7734 113.141 57.684 112.81 57.6956C112.477 57.6838 112.149 57.7729 111.867 57.9511C111.586 58.1293 111.366 58.3883 111.234 58.6941C111.088 59.0334 111.019 59.4009 111.031 59.7701H114.588C114.597 59.4 114.523 59.0327 114.372 58.6949L114.371 58.6941Z" fill="black"/>
<path d="M124.97 64.3735V59.552C125.004 59.3273 124.987 59.0978 124.922 58.8802C124.856 58.6625 124.743 58.4621 124.591 58.2933C124.439 58.1246 124.251 57.9918 124.041 57.9044C123.831 57.817 123.605 57.7773 123.378 57.7881C123.149 57.7773 122.92 57.8166 122.708 57.9032C122.496 57.9899 122.305 58.1218 122.149 58.2897C121.993 58.4576 121.876 58.6576 121.805 58.8756C121.734 59.0937 121.712 59.3245 121.739 59.552V64.3735H120.147V56.4627H121.708V57.2583C121.978 56.9716 122.305 56.7445 122.667 56.5913C123.03 56.4382 123.421 56.3625 123.815 56.3689C124.534 56.3432 125.234 56.6008 125.765 57.0863C126.047 57.3816 126.264 57.733 126.401 58.1175C126.538 58.502 126.592 58.9111 126.561 59.3181V64.3735H124.97Z" fill="black"/>
<path d="M143.512 64.3737L138.378 56.5589V64.3776H136.693V53.2627H138.235L143.369 61.0659V53.2627H145.055V64.3737H143.512Z" fill="black"/>
<path d="M150.819 60.8794C150.819 62.2366 151.536 63.0957 152.833 63.0957C153.194 63.1161 153.554 63.0536 153.887 62.9128C154.22 62.7721 154.516 62.5569 154.752 62.2839L155.767 63.2359C155.397 63.6501 154.938 63.9758 154.424 64.1892C153.911 64.4027 153.357 64.4983 152.802 64.4692C150.82 64.4692 149.244 63.4242 149.244 60.4123C149.244 57.8559 150.57 56.3701 152.6 56.3701C154.722 56.3701 155.955 57.9303 155.955 60.1776V60.8802L150.819 60.8794ZM154.157 58.6941C154.03 58.3887 153.812 58.1295 153.533 57.9511C153.255 57.7727 152.928 57.6835 152.597 57.6956C152.265 57.6838 151.936 57.7729 151.655 57.9511C151.374 58.1293 151.153 58.3883 151.022 58.6941C150.875 59.0332 150.805 59.4008 150.819 59.7701H154.376C154.384 59.3999 154.309 59.0327 154.157 58.6949V58.6941Z" fill="black"/>
<path d="M162.291 64.375C161.999 64.3912 161.707 64.3452 161.435 64.2399C161.162 64.1347 160.915 63.9726 160.71 63.7645C160.505 63.5564 160.346 63.3071 160.245 63.033C160.143 62.759 160.101 62.4665 160.122 62.175V57.8198H159.217V56.6036H160.122V54.2021H161.714V56.6036H163.244V57.8198H161.714V62.0967C161.696 62.2178 161.705 62.3415 161.742 62.4583C161.779 62.5751 161.842 62.682 161.926 62.7708C162.01 62.8596 162.114 62.9279 162.229 62.9706C162.343 63.0133 162.466 63.0292 162.588 63.017H163.244V64.3742L162.291 64.375Z" fill="black"/>
<path d="M174.886 64.3765H173.529L171.669 58.8524L169.828 64.3765H168.455L166.004 56.4648H167.693L169.223 62.0354L171.064 56.4648H172.297L174.122 62.0354L175.652 56.4648H177.356L174.886 64.3765Z" fill="black"/>
<path d="M185.906 63.5316C185.595 63.8418 185.225 64.0851 184.817 64.2462C184.409 64.4073 183.972 64.4829 183.534 64.4681C183.098 64.4828 182.663 64.4072 182.258 64.2461C181.852 64.0849 181.485 63.8416 181.178 63.5316C180.429 62.7515 180.241 61.7498 180.241 60.4112C180.181 59.8571 180.233 59.2965 180.394 58.7628C180.555 58.2292 180.821 57.7333 181.178 57.3048C181.485 56.9949 181.852 56.7517 182.258 56.5907C182.663 56.4296 183.098 56.3542 183.534 56.369C183.972 56.3542 184.409 56.4296 184.817 56.5905C185.225 56.7515 185.595 56.9946 185.906 57.3048C186.262 57.7333 186.529 58.2291 186.69 58.7628C186.851 59.2965 186.902 59.8571 186.842 60.4112C186.842 61.7529 186.655 62.7515 185.906 63.5316ZM184.704 58.2422C184.549 58.0922 184.366 57.9749 184.165 57.897C183.964 57.8192 183.749 57.7825 183.534 57.789C183.32 57.7824 183.108 57.8191 182.91 57.897C182.711 57.9749 182.53 58.0924 182.379 58.2422C182.02 58.9088 181.832 59.6541 181.832 60.4112C181.832 61.1683 182.02 61.9136 182.379 62.5803C182.53 62.7316 182.71 62.8508 182.909 62.9307C183.107 63.0106 183.32 63.0495 183.534 63.0451C183.75 63.0493 183.965 63.0103 184.166 62.9305C184.367 62.8507 184.55 62.7317 184.704 62.5803C185.063 61.9136 185.251 61.1683 185.251 60.4112C185.251 59.6541 185.063 58.9088 184.704 58.2422V58.2422Z" fill="black"/>
<path d="M195.225 58.3197C195.081 58.1464 194.899 58.0084 194.693 57.9164C194.488 57.8244 194.264 57.7808 194.039 57.7891C193.816 57.795 193.596 57.8468 193.394 57.9412C193.192 58.0355 193.012 58.1705 192.864 58.3376C192.716 58.5047 192.604 58.7004 192.535 58.9125C192.466 59.1247 192.442 59.3487 192.463 59.5708V64.3737H190.871V56.4628H192.432V57.3243C192.687 57.0154 193.01 56.769 193.375 56.604C193.74 56.439 194.138 56.3597 194.538 56.3722C194.888 56.3547 195.238 56.4126 195.564 56.5418C195.889 56.671 196.183 56.8686 196.426 57.1213L195.225 58.3197Z" fill="black"/>
<path d="M204.573 64.3737L202.357 60.7227L201.186 62.0481V64.3721H199.594V53.2627H201.186V60.1138L204.261 56.4621H206.198L203.451 59.5677L206.541 64.3706L204.573 64.3737Z" fill="black"/>
<path d="M215.828 64.3737V53.2627H217.515V62.8608H222.867V64.3745L215.828 64.3737Z" fill="black"/>
<path d="M230.735 64.3738V63.6565C230.467 63.9412 230.139 64.1621 229.774 64.3026C229.409 64.4432 229.018 64.4998 228.628 64.4683C228.244 64.5015 227.857 64.4549 227.492 64.3313C227.126 64.2077 226.791 64.0099 226.506 63.7502C226.085 63.2842 225.861 62.6734 225.881 62.046C225.881 60.7205 226.802 59.7677 228.612 59.7677H230.704V59.2061C230.704 58.2075 230.204 57.7233 228.971 57.7233C228.64 57.6834 228.304 57.7334 227.999 57.8681C227.695 58.0028 227.432 58.2172 227.238 58.4887L226.193 57.5049C226.537 57.0962 226.975 56.7784 227.471 56.5798C227.966 56.3812 228.503 56.3078 229.033 56.3661C231.202 56.3661 232.295 57.2872 232.295 59.0821V64.3738H230.735ZM230.704 60.8785H228.844C227.909 60.8785 227.424 61.3 227.424 62.0173C227.424 62.7346 227.877 63.1413 228.875 63.1413C229.14 63.175 229.41 63.152 229.665 63.0739C229.921 62.9958 230.157 62.8643 230.358 62.6882C230.49 62.5255 230.588 62.3384 230.647 62.1376C230.706 61.9369 230.725 61.7264 230.702 61.5184L230.704 60.8785Z" fill="black"/>
<path d="M242.209 63.7633C241.68 64.2407 240.985 64.4928 240.273 64.4659C239.874 64.4937 239.475 64.423 239.11 64.2599C238.745 64.0969 238.426 63.8465 238.181 63.5309V64.3737H236.62V53.2627H238.212V57.2561C238.461 56.9521 238.78 56.7126 239.142 56.5579C239.503 56.4031 239.896 56.3375 240.288 56.3668C240.996 56.3401 241.685 56.5925 242.208 57.0694C243.003 57.8642 243.097 59.2067 243.097 60.409C243.097 61.6112 243.003 62.97 242.209 63.7633ZM239.868 57.786C238.432 57.786 238.214 59.0029 238.214 60.4082C238.214 61.8134 238.432 63.042 239.868 63.042C241.305 63.042 241.507 61.8095 241.507 60.4082C241.507 59.0068 241.302 57.7891 239.866 57.7891L239.868 57.786Z" fill="black"/>
<defs>
<radialGradient id="paint0_radial_757_989" cx="0" cy="0" r="1" gradientUnits="userSpaceOnUse" gradientTransform="translate(18.3813 55.9759) scale(4.09484 4.09191)">
<stop offset="0.543" stop-color="#35318F"/>
<stop offset="1" stop-color="#0073BD"/>
</radialGradient>
<radialGradient id="paint1_radial_757_989" cx="0" cy="0" r="1" gradientUnits="userSpaceOnUse" gradientTransform="translate(58.7237 65.8179) scale(4.31263 4.30956)">
<stop offset="0.543" stop-color="#35318F"/>
<stop offset="1" stop-color="#0073BD"/>
</radialGradient>
<radialGradient id="paint2_radial_757_989" cx="0" cy="0" r="1" gradientUnits="userSpaceOnUse" gradientTransform="translate(109.239 63.4155) scale(6.48356 6.48209)">
<stop offset="0.543" stop-color="#35318F"/>
<stop offset="1" stop-color="#0073BD"/>
</radialGradient>
</defs>
</svg>
