<svg width="279" height="339" fill="none" xmlns="http://www.w3.org/2000/svg">
  <path d="M207.033 32.857C189.588 26.425 167.398 15.473 140.463 0c-15.991 57.938-20.941 74.047-51.08 138.539 30.532 5.715 54.521 11.789 71.966 18.221 17.446 6.432 39.636 17.384 66.571 32.857 15.352-60.009 19.577-71.468 51.08-138.538-30.532-5.716-54.521-11.79-71.967-18.222Z" fill="#9BBBDF"/>
  <path d="M154.121 199.16c-18.547 0-43.094-2.594-73.641-7.78 5.027 59.741 5.952 76.526-.002 147.284 30.548-5.187 55.095-7.78 73.642-7.78 18.546 0 43.093 2.593 73.641 7.78-6.339-61.46-6.339-73.642.001-147.284-30.547 5.186-55.094 7.78-73.641 7.78Z" fill="#8064D8"/>
  <path d="M48.517 182.901c-7.33-2.581-16.672-7.021-28.024-13.321-6.325 24.312-8.295 31.075-20.493 58.215 12.796 2.2 22.859 4.59 30.19 7.171 7.33 2.58 16.672 7.02 28.024 13.321 6.046-25.175 7.74-29.99 20.493-58.215-12.796-2.2-22.859-4.591-30.19-7.171Z" fill="#7090FF"/>
</svg>