<svg width="243" height="330" fill="none" xmlns="http://www.w3.org/2000/svg">
  <path d="M84.004 315.686c9.123-2.564 21.556-4.683 37.299-6.356-10.734-28.692-13.51-36.82-20.366-72.448-14.309 6.775-26.025 11.445-35.148 14.01-9.123 2.564-21.556 4.683-37.3 6.356 11.618 29.355 13.302 35.348 20.367 72.448 14.309-6.775 26.025-11.445 35.148-14.01Z" fill="#5486FF"/>
  <path d="M138.902 226.877c9.401-1.196 22.011-1.464 37.829-.805-6.399-29.957-7.951-38.405-9.495-74.655-15.149 4.599-27.424 7.496-36.825 8.691-9.401 1.196-22.011 1.464-37.829.805 7.175 30.744 7.961 36.919 9.495 74.655 15.149-4.599 27.424-7.496 36.825-8.691Z" fill="#8B99FF"/>
  <path d="M205.352 71.318c9.481 0 22.031 1.326 37.647 3.977C240.43 44.754 239.956 36.173 243 0c-15.617 2.651-28.166 3.977-37.647 3.977-9.482 0-22.031-1.326-37.648-3.977 3.241 31.42 3.241 37.648-.001 75.295 15.617-2.651 28.166-3.977 37.648-3.977Z" fill="#27CDAF"/>
  <path d="M130.056 146.615c9.481 0 22.031 1.325 37.647 3.977-2.569-30.542-3.043-39.122.001-75.296-15.617 2.652-28.166 3.977-37.647 3.977-9.482 0-22.031-1.325-37.648-3.977 3.24 31.42 3.24 37.648 0 75.296 15.616-2.652 28.165-3.977 37.647-3.977Z" fill="#01BDC5"/>
  <path d="M37.534 136.854c9.223 2.178 21.125 6.351 35.707 12.517 4.516-30.298 6.027-38.754 17.298-73.24-15.8-1.01-28.311-2.603-37.534-4.78-9.223-2.18-21.125-6.352-35.707-12.518C13.232 90.14 11.802 96.198 0 132.074c15.8 1.009 28.311 2.602 37.534 4.78Z" fill="#9BBBDF"/>
</svg>