<svg xmlns="http://www.w3.org/2000/svg" viewBox="0 0 195.74 254">
  <path d="M7.98 75.5c0 19.01-2.66 44.18-7.98 75.5 61.25-5.15 78.46-6.1 151 0-5.32-31.32-7.98-56.48-7.98-75.5S145.68 31.32 151 0C87.99 6.5 75.5 6.5 0 0c5.32 31.32 7.98 56.48 7.98 75.5Z" style="fill:#7090ff"/>
  <path d="M155.62 170.63c.64 5 .78 11.7.43 20.11 15.93-3.4 20.42-4.23 39.69-5.05-2.45-8.05-3.99-14.58-4.62-19.58s-.78-11.7-.43-20.11c-16.35 3.82-19.63 4.23-39.69 5.05 2.45 8.05 3.99 14.58 4.62 19.58Z" style="fill:#27cdaf"/>
  <path d="M96.33 222.5c0 7.93-1.11 18.43-3.33 31.5 25.55-2.15 32.73-2.55 63 0-2.22-13.07-3.33-23.57-3.33-31.5s1.11-18.43 3.33-31.5c-26.29 2.71-31.5 2.71-63 0 2.22 13.07 3.33 23.57 3.33 31.5Z" style="fill:#38b6e3"/>
</svg>