<svg xmlns="http://www.w3.org/2000/svg" viewBox="0 0 237 237">
  <path d="M72.71 150.27c0 21.84-3.05 50.75-9.16 86.72 70.36-5.92 90.12-7.01 173.45 0-6.11-35.98-9.16-64.88-9.16-86.73s3.05-50.75 9.16-86.72c-72.38 7.47-86.73 7.47-173.45 0 6.11 35.97 9.16 64.88 9.16 86.73Z" style="fill:#27cdaf"/>
  <path d="M3.36 31.77c0 8-1.12 18.59-3.36 31.77 25.78-2.17 33.02-2.57 63.55 0-2.24-13.18-3.36-23.77-3.36-31.77S61.31 13.18 63.55 0C37.03 2.74 31.77 2.74 0 0c2.24 13.18 3.36 23.77 3.36 31.77Z" style="fill:#339fdd"/>
</svg>