<svg width="190" height="267" fill="none" xmlns="http://www.w3.org/2000/svg">
  <path d="M42.566 188.077c-10.312 0-23.96-1.456-40.944-4.368 2.795 33.545 3.31 42.969 0 82.699 16.984-2.912 30.632-4.368 40.944-4.368 10.311 0 23.96 1.456 40.944 4.368-3.525-34.509-3.525-41.349 0-82.699-16.984 2.912-30.632 4.368-40.944 4.368Z" fill="#5486FF"/>
  <path d="M40.945 34.325c-10.312 0-23.96-1.442-40.944-4.326C2.796 63.215 3.31 72.547 0 111.888c16.984-2.884 30.632-4.326 40.944-4.326 10.312 0 23.96 1.442 40.944 4.326-3.525-34.171-3.525-40.945 0-81.889-16.983 2.884-30.631 4.326-40.943 4.326ZM122.41 19.222c-9.666 3.82-22.994 7.525-39.983 11.114 14.925 30.1 18.865 38.657 30.336 76.76 14.852-8.995 27.111-15.402 36.777-19.222 9.666-3.82 22.994-7.525 39.982-11.114C173.56 46.035 171.051 39.686 159.187 0c-14.852 8.995-27.111 15.402-36.777 19.222Z" fill="#38B6E3"/>
  <path d="M149.763 125.358c-9.755-3.588-22.164-9.699-37.228-18.335-8.911 32.394-11.67 41.401-28.487 77.465 17.07 3.181 30.482 6.564 40.237 10.152 9.755 3.587 22.164 9.698 37.228 18.334 8.553-33.551 10.909-39.959 28.487-77.465-17.07-3.181-30.482-6.564-40.237-10.151Z" fill="#01BDC5"/>
</svg>