<svg width="234" height="357" fill="none" xmlns="http://www.w3.org/2000/svg">
  <path d="M162.546 5.915c-14.103 0-32.768-1.971-55.995-5.915 3.822 45.426 4.526 58.188-.001 111.991 23.227-3.943 41.892-5.915 55.995-5.915 14.102 0 32.767 1.971 55.995 5.915-4.82-46.732-4.82-55.995.001-111.991-23.228 3.944-41.893 5.915-55.995 5.915Z" fill="#5486FF"/>
  <path d="M56.295 124.933c-13.99 1.78-32.754 2.179-56.294 1.197 9.523 44.581 11.832 57.153 14.13 111.096 22.544-6.842 40.81-11.154 54.8-12.933 13.99-1.779 32.755-2.178 56.295-1.197-10.678-45.751-11.847-54.94-14.13-111.096-22.544 6.843-40.811 11.154-54.801 12.933Z" fill="#01BDC5"/>
  <path d="M177.878 240.628c-13.725-3.242-31.437-9.451-53.136-18.628-6.721 45.089-8.97 57.671-25.742 108.993 23.512 1.501 42.13 3.872 55.855 7.113 13.725 3.241 31.437 9.451 53.137 18.627 6.05-46.589 8.179-55.604 25.742-108.992-23.513-1.501-42.131-3.872-55.856-7.113Z" fill="#9BBBDF"/>
</svg>