<svg width="500" height="348" fill="none" xmlns="http://www.w3.org/2000/svg">
  <path d="M325.359 33.763C307.433 27.153 284.631 15.899 256.954 0c-16.431 59.535-21.518 76.088-52.488 142.357 31.374 5.873 56.024 12.114 73.95 18.724 17.926 6.609 40.728 17.863 68.406 33.762 15.775-61.663 20.116-73.437 52.487-142.356-31.373-5.873-56.023-12.115-73.95-18.724Z" fill="#5486FF"/>
  <path d="M424.044 204.428c-18.925 0-43.972-2.669-75.141-8.007 5.129 61.484 6.073 78.758-.002 151.579 31.17-5.338 56.217-8.007 75.141-8.007 18.925 0 43.972 2.669 75.141 8.007-6.468-63.252-6.468-75.789.002-151.579-31.17 5.338-56.217 8.007-75.141 8.007Z" fill="#8B99FF"/>
  <path d="M270.522 204.428c-19.088 0-44.351-2.669-75.789-8.007 5.173 61.484 6.126 78.758-.002 151.579 31.439-5.338 56.702-8.007 75.789-8.007 19.088 0 44.351 2.669 75.789 8.007-6.524-63.252-6.524-75.789.001-151.579-31.438 5.338-56.701 8.007-75.788 8.007Z" fill="#27CDAF"/>
  <path d="M119.276 177.681c-18.022-6.343-40.987-17.26-68.896-32.748C34.83 204.703 29.988 221.33 0 288.049c31.457 5.409 56.197 11.286 74.219 17.63 18.022 6.343 40.987 17.26 68.896 32.748 14.863-61.889 19.03-73.727 50.38-143.116-31.457-5.409-56.197-11.286-74.219-17.63Z" fill="#5FE48F"/>
</svg>