<svg width="242" height="211" fill="none" xmlns="http://www.w3.org/2000/svg">
  <path d="M44.817 190.442c10.864 4.006 24.684 10.826 41.457 20.462 9.958-36.081 13.041-46.113 31.81-86.275-19.014-3.559-33.953-7.342-44.817-11.347-10.864-4.006-24.683-10.827-41.457-20.462C22.25 130.19 19.62 137.327 0 179.095c19.014 3.559 33.953 7.342 44.817 11.347Z" fill="#D9D9D9"/>
  <path d="M77.773 86.984c11.485 0 26.685 1.617 45.601 4.851-3.113-37.25-3.686-47.716.001-91.835-18.916 3.234-34.116 4.85-45.6 4.85-11.486 0-26.686-1.616-45.601-4.85 3.925 38.322 3.925 45.918-.001 91.835 18.915-3.234 34.116-4.85 45.6-4.85Z" fill="#27CDAF"/>
  <path d="M169.713 103.22c10.922 3.845 24.84 10.461 41.754 19.848 9.425-36.224 12.359-46.3 30.533-86.736-19.065-3.278-34.058-6.84-44.98-10.684-10.922-3.845-24.84-10.46-41.755-19.847-9.007 37.508-11.532 44.682-30.532 86.735 19.064 3.278 34.058 6.84 44.98 10.684Z" fill="#8B99FF"/>
</svg>