<svg width="246" height="448" fill="none" xmlns="http://www.w3.org/2000/svg">
  <path d="M138.104 211.72c25.585-4.855 60.126-7.703 103.623-8.545C219.154 122.079 213.484 99.167 203.175 0c-40.782 15.151-73.966 25.154-99.55 30.009C78.04 34.864 43.499 37.712.002 38.554c24.833 83.122 28.022 99.928 38.552 203.175 40.782-15.151 73.965-25.154 99.55-30.009Z" fill="#01BDC5"/>
  <path d="M142.499 437.119c26.066 0 60.566 3.627 103.499 10.881-7.065-83.558-8.366-107.034.002-206-42.933 7.254-77.433 10.881-103.499 10.881-26.066 0-60.566-3.627-103.5-10.881 8.91 85.961 8.91 103-.001 206 42.933-7.254 77.433-10.881 103.499-10.881Z" fill="#38B6E3"/>
</svg>