<svg xmlns="http://www.w3.org/2000/svg" viewBox="0 0 267 271">
  <path d="M0 151c2.48-10.6 4.02-20.82 5.25-30.61C6.48 110.6 7.29 100.8 7.29 91s-.81-19.59-2.04-29.39S2.52 41.6 0 31c10.6 2.48 20.82 4.02 30.61 5.25 9.8 1.23 19.59 2.04 29.39 2.04s19.59-.81 29.39-2.04S109.82 33.52 120 31c-2.48 10.58-4.02 20.82-5.25 30.61-1.23 9.8-2.04 19.59-2.04 29.39s.81 19.59 2.04 29.39c1.23 9.79 2.74 20.15 5.25 30.61-10.61-2.48-20.82-4.02-30.61-5.25-9.8-1.23-19.59-2.04-29.39-2.04s-19.59.81-29.39 2.04S10.6 148.49 0 151Z" style="fill:#7aa5ee"/>
  <path d="M151.07 147c-.34-10.89-1.51-21.16-2.88-30.93-1.34-9.77-3.1-19.46-5.64-28.92-2.54-9.46-5.86-18.7-9.57-27.86S125.16 40.67 120 31.07c10.89-.33 21.16-1.51 30.93-2.88 9.77-1.34 19.46-3.1 28.92-5.64 9.46-2.54 18.73-5.86 27.86-9.57 9.16-3.71 19.04-7.93 28.22-12.98.34 10.86 1.51 21.16 2.88 30.93 1.34 9.77 3.1 19.46 5.64 28.92 2.54 9.46 5.86 18.7 9.57 27.86s7.87 18.76 12.98 28.22c-10.89.33-21.16 1.51-30.93 2.88-9.77 1.34-19.46 3.1-28.92 5.64-9.46 2.54-18.73 5.86-27.86 9.58-9.16 3.71-18.62 7.82-28.22 12.98Z" style="fill:#01bdc5"/>
  <path d="M120 271c1.6-10.66 3.1-20.82 4.33-30.61 1.24-9.79 1.86-19.59 1.86-29.39s-.62-19.59-1.86-29.39c-1.24-9.79-2.7-19.95-4.33-30.61 10.75 1.59 20.99 3.07 30.87 4.3a239.53 239.53 0 0 0 59.26 0c9.88-1.23 20.12-2.71 30.87-4.3-1.6 10.66-3.1 20.82-4.33 30.61-1.24 9.79-1.86 19.59-1.86 29.39s.62 19.59 1.86 29.39c1.24 9.79 2.7 19.95 4.33 30.61-10.75-1.59-20.99-3.07-30.87-4.3a239.53 239.53 0 0 0-59.26 0c-9.88 1.23-20.12 2.71-30.87 4.3Z" style="fill:#77c0b6"/>
</svg>