<svg xmlns="http://www.w3.org/2000/svg" viewBox="0 0 232.35 361.96">
  <path d="M116.17 130.01c8.77 11.84 17.2 23.06 25.5 33.73 8.29 10.67 17.2 20.73 26.66 30.17 9.46 9.44 19.53 18.34 30.23 26.62 10.69 8.28 21.93 16.69 33.79 25.45-11.86 8.76-23.1 17.17-33.79 25.45a320.149 320.149 0 0 0-30.23 26.62c-9.46 9.44-18.37 19.5-26.66 30.17-8.29 10.67-16.72 21.9-25.5 33.73-8.77-11.84-17.2-23.06-25.5-33.73a319.806 319.806 0 0 0-26.66-30.17 320.318 320.318 0 0 0-30.23-26.62c-10.69-8.28-21.93-16.69-33.79-25.45 11.86-8.76 23.1-17.17 33.79-25.45a320.149 320.149 0 0 0 30.23-26.62c9.46-9.44 18.37-19.5 26.66-30.17 8.29-10.67 16.72-21.89 25.5-33.73Z" style="fill:#339fdd"/>
  <path d="M41.6 55.04c6.57 1.04 12.84 1.99 18.89 2.8 6.05.82 12.09 1.24 18.11 1.29 6.02.05 12.06-.27 18.09-.98 6.03-.71 12.29-1.55 18.84-2.47-.92 6.56-1.76 12.81-2.47 18.84s-1.03 12.07-.98 18.09c.05 6.02.48 12.06 1.29 18.11.82 6.05 1.76 12.31 2.8 18.89-6.57-1.04-12.84-1.99-18.89-2.8-6.05-.82-12.09-1.24-18.11-1.29-6.02-.05-12.06.27-18.09.98s-12.29 1.55-18.84 2.47c.92-6.56 1.76-12.81 2.47-18.84.71-6.03 1.03-12.07.98-18.09-.05-6.02-.48-12.06-1.29-18.11-.82-6.05-1.76-12.31-2.8-18.89Z" style="fill:#5fe48f"/>
  <path d="M115.59.05c4.94.73 9.65 1.4 14.19 1.97 4.55.57 9.09.85 13.62.84 4.53 0 9.07-.29 13.62-.87 4.55-.58 9.26-1.26 14.2-2-.74 4.94-1.42 9.65-2 14.2-.58 4.55-.86 9.09-.87 13.62 0 4.53.27 9.07.84 13.62.57 4.55 1.24 9.25 1.97 14.19-4.94-.73-9.65-1.4-14.19-1.97-4.55-.57-9.09-.85-13.62-.84-4.53 0-9.07.29-13.62.86-4.55.58-9.26 1.26-14.2 2 .74-4.94 1.42-9.65 2-14.2.58-4.55.86-9.09.86-13.62 0-4.53-.27-9.07-.84-13.62-.57-4.55-1.24-9.25-1.97-14.19Z" style="fill:#8064d8"/>
</svg>